<?xml version="1.0" encoding="UTF-8" standalone="no"?>
<!DOCTYPE svg PUBLIC "-//W3C//DTD SVG 1.1//EN"
 "http://www.w3.org/Graphics/SVG/1.1/DTD/svg11.dtd">
<!-- Generated by graphviz version 2.43.0 (0)
 -->
<!-- Title: GA3DArrayGenome&lt; T &gt; Pages: 1 -->
<svg width="1011pt" height="429pt"
 viewBox="0.00 0.00 1011.00 428.50" xmlns="http://www.w3.org/2000/svg" xmlns:xlink="http://www.w3.org/1999/xlink">
<g id="graph0" class="graph" transform="scale(1 1) rotate(0) translate(4 424.5)">
<title>GA3DArrayGenome&lt; T &gt;</title>
<polygon fill="white" stroke="transparent" points="-4,4 -4,-424.5 1007,-424.5 1007,4 -4,4"/>
<!-- Node1 -->
<g id="node1" class="node">
<title>Node1</title>
<g id="a_node1"><a xlink:title=" ">
<polygon fill="#bfbfbf" stroke="black" points="492,-282 492,-301 632,-301 632,-282 492,-282"/>
<text text-anchor="middle" x="562" y="-289" font-family="Helvetica,sans-Serif" font-size="10.00">GA3DArrayGenome&lt; T &gt;</text>
</a>
</g>
</g>
<!-- Node2 -->
<g id="node2" class="node">
<title>Node2</title>
<g id="a_node2"><a xlink:href="classGAArray.html" target="_top" xlink:title="Array Base Class.">
<polygon fill="white" stroke="black" points="259,-296 259,-315 345,-315 345,-296 259,-296"/>
<text text-anchor="middle" x="302" y="-303" font-family="Helvetica,sans-Serif" font-size="10.00">GAArray&lt; T &gt;</text>
</a>
</g>
</g>
<!-- Node2&#45;&gt;Node1 -->
<g id="edge1" class="edge">
<title>Node2&#45;&gt;Node1</title>
<path fill="none" stroke="midnightblue" d="M355.19,-302.67C394.52,-300.53 448.82,-297.59 491.77,-295.26"/>
<polygon fill="midnightblue" stroke="midnightblue" points="354.82,-299.18 345.03,-303.22 355.2,-306.17 354.82,-299.18"/>
</g>
<!-- Node3 -->
<g id="node3" class="node">
<title>Node3</title>
<g id="a_node3"><a xlink:href="classGAGenome.html" target="_top" xlink:title="The base genome class just defines the genome interface &#45; how to mutate, crossover,...">
<polygon fill="white" stroke="black" points="266,-97 266,-116 338,-116 338,-97 266,-97"/>
<text text-anchor="middle" x="302" y="-104" font-family="Helvetica,sans-Serif" font-size="10.00">GAGenome</text>
</a>
</g>
</g>
<!-- Node3&#45;&gt;Node1 -->
<g id="edge2" class="edge">
<title>Node3&#45;&gt;Node1</title>
<path fill="none" stroke="midnightblue" d="M311.03,-125.39C324.44,-156.12 351.61,-214.99 369,-229.5 403.7,-258.45 452.18,-273.97 491.74,-282.24"/>
<polygon fill="midnightblue" stroke="midnightblue" points="314.22,-123.94 307.05,-116.15 307.8,-126.72 314.22,-123.94"/>
</g>
<!-- Node3&#45;&gt;Node3 -->
<g id="edge29" class="edge">
<title>Node3&#45;&gt;Node3</title>
<path fill="none" stroke="#9a32cd" stroke-dasharray="5,2" d="M287.64,-126.27C288.76,-131 293.55,-134.5 302,-134.5 315.86,-134.5 319.87,-125.07 314.02,-116.26"/>
<polygon fill="#9a32cd" stroke="#9a32cd" points="291.11,-126.79 289.98,-116.26 284.29,-125.2 291.11,-126.79"/>
<text text-anchor="middle" x="302" y="-192.5" font-family="Helvetica,sans-Serif" font-size="10.00"> asexcross</text>
<text text-anchor="middle" x="302" y="-181.5" font-family="Helvetica,sans-Serif" font-size="10.00">cmp</text>
<text text-anchor="middle" x="302" y="-170.5" font-family="Helvetica,sans-Serif" font-size="10.00">eval</text>
<text text-anchor="middle" x="302" y="-159.5" font-family="Helvetica,sans-Serif" font-size="10.00">init</text>
<text text-anchor="middle" x="302" y="-148.5" font-family="Helvetica,sans-Serif" font-size="10.00">mutr</text>
<text text-anchor="middle" x="302" y="-137.5" font-family="Helvetica,sans-Serif" font-size="10.00">sexcross</text>
</g>
<!-- Node5 -->
<g id="node5" class="node">
<title>Node5</title>
<g id="a_node5"><a xlink:href="classGAGeneticAlgorithm.html" target="_top" xlink:title="The base GA class is virtual &#45; it defines the core data elements and parts of the interface that are ...">
<polygon fill="white" stroke="black" points="504,-208 504,-227 620,-227 620,-208 504,-208"/>
<text text-anchor="middle" x="562" y="-215" font-family="Helvetica,sans-Serif" font-size="10.00">GAGeneticAlgorithm</text>
</a>
</g>
</g>
<!-- Node3&#45;&gt;Node5 -->
<g id="edge27" class="edge">
<title>Node3&#45;&gt;Node5</title>
<path fill="none" stroke="#9a32cd" stroke-dasharray="5,2" d="M323.94,-122.45C336.53,-131.52 353.13,-142.6 369,-150.5 421.15,-176.46 485.84,-196.79 525.23,-207.96"/>
<polygon fill="#9a32cd" stroke="#9a32cd" points="325.69,-119.39 315.56,-116.28 321.54,-125.03 325.69,-119.39"/>
<text text-anchor="middle" x="421.5" y="-205.5" font-family="Helvetica,sans-Serif" font-size="10.00"> across</text>
<text text-anchor="middle" x="421.5" y="-194.5" font-family="Helvetica,sans-Serif" font-size="10.00">scross</text>
</g>
<!-- Node6 -->
<g id="node6" class="node">
<title>Node6</title>
<g id="a_node6"><a xlink:href="classGAPopulation.html" target="_top" xlink:title=" ">
<polygon fill="white" stroke="black" points="705,-272 705,-291 788,-291 788,-272 705,-272"/>
<text text-anchor="middle" x="746.5" y="-279" font-family="Helvetica,sans-Serif" font-size="10.00">GAPopulation</text>
</a>
</g>
</g>
<!-- Node3&#45;&gt;Node6 -->
<g id="edge17" class="edge">
<title>Node3&#45;&gt;Node6</title>
<path fill="none" stroke="#9a32cd" stroke-dasharray="5,2" d="M348.41,-106.63C383.15,-107.52 432.05,-110.51 474,-119.5 547,-135.14 568.22,-137.71 632,-176.5 643.81,-183.68 710.11,-247.3 735.55,-271.87"/>
<polygon fill="#9a32cd" stroke="#9a32cd" points="348.18,-103.12 338.11,-106.41 348.03,-110.12 348.18,-103.12"/>
<text text-anchor="middle" x="562" y="-190.5" font-family="Helvetica,sans-Serif" font-size="10.00"> rind</text>
<text text-anchor="middle" x="562" y="-179.5" font-family="Helvetica,sans-Serif" font-size="10.00">sind</text>
</g>
<!-- Node4 -->
<g id="node4" class="node">
<title>Node4</title>
<g id="a_node4"><a xlink:href="classGAID.html" target="_top" xlink:title="This defines the identifiers for polymorphic classes.">
<polygon fill="white" stroke="black" points="134,-334 134,-353 175,-353 175,-334 134,-334"/>
<text text-anchor="middle" x="154.5" y="-341" font-family="Helvetica,sans-Serif" font-size="10.00">GAID</text>
</a>
</g>
</g>
<!-- Node4&#45;&gt;Node3 -->
<g id="edge3" class="edge">
<title>Node4&#45;&gt;Node3</title>
<path fill="none" stroke="midnightblue" d="M166.67,-325.3C195.74,-277.96 272.99,-152.13 295.04,-116.2"/>
<polygon fill="midnightblue" stroke="midnightblue" points="163.63,-323.56 161.38,-333.92 169.6,-327.22 163.63,-323.56"/>
</g>
<!-- Node4&#45;&gt;Node5 -->
<g id="edge5" class="edge">
<title>Node4&#45;&gt;Node5</title>
<path fill="none" stroke="midnightblue" d="M176.95,-328.2C196.05,-315.27 225.19,-297.19 253,-286.5 346.64,-250.49 376.36,-263.55 474,-240.5 491.33,-236.41 510.48,-231.4 526.39,-227.1"/>
<polygon fill="midnightblue" stroke="midnightblue" points="174.92,-325.35 168.68,-333.91 178.9,-331.11 174.92,-325.35"/>
</g>
<!-- Node4&#45;&gt;Node6 -->
<g id="edge8" class="edge">
<title>Node4&#45;&gt;Node6</title>
<path fill="none" stroke="midnightblue" d="M185.33,-343.3C260.68,-342.4 464.62,-337.45 632,-310.5 660.31,-305.94 691.87,-297.61 714.51,-291.04"/>
<polygon fill="midnightblue" stroke="midnightblue" points="185.12,-339.8 175.16,-343.41 185.2,-346.8 185.12,-339.8"/>
</g>
<!-- Node7 -->
<g id="node7" class="node">
<title>Node7</title>
<g id="a_node7"><a xlink:href="classGAScalingScheme.html" target="_top" xlink:title=" ">
<polygon fill="white" stroke="black" points="369,-372 369,-391 474,-391 474,-372 369,-372"/>
<text text-anchor="middle" x="421.5" y="-379" font-family="Helvetica,sans-Serif" font-size="10.00">GAScalingScheme</text>
</a>
</g>
</g>
<!-- Node4&#45;&gt;Node7 -->
<g id="edge10" class="edge">
<title>Node4&#45;&gt;Node7</title>
<path fill="none" stroke="midnightblue" d="M185.03,-351.43C193.97,-353.63 203.84,-355.86 213,-357.5 265.65,-366.92 326.52,-373.45 368.65,-377.3"/>
<polygon fill="midnightblue" stroke="midnightblue" points="185.62,-347.97 175.07,-348.9 183.9,-354.75 185.62,-347.97"/>
</g>
<!-- Node8 -->
<g id="node8" class="node">
<title>Node8</title>
<g id="a_node8"><a xlink:href="classGASelectionScheme.html" target="_top" xlink:title=" ">
<polygon fill="white" stroke="black" points="888,-340 888,-359 1003,-359 1003,-340 888,-340"/>
<text text-anchor="middle" x="945.5" y="-347" font-family="Helvetica,sans-Serif" font-size="10.00">GASelectionScheme</text>
</a>
</g>
</g>
<!-- Node4&#45;&gt;Node8 -->
<g id="edge14" class="edge">
<title>Node4&#45;&gt;Node8</title>
<path fill="none" stroke="midnightblue" d="M172.94,-359.99C198.77,-382.62 249.68,-420.5 301,-420.5 301,-420.5 301,-420.5 747.5,-420.5 819.12,-420.5 897.17,-378.46 929.34,-359.08"/>
<polygon fill="midnightblue" stroke="midnightblue" points="175.24,-357.35 165.47,-353.25 170.55,-362.55 175.24,-357.35"/>
</g>
<!-- Node5&#45;&gt;Node3 -->
<g id="edge4" class="edge">
<title>Node5&#45;&gt;Node3</title>
<path fill="none" stroke="#9a32cd" stroke-dasharray="5,2" d="M546.45,-199.73C530.6,-181.61 503.51,-154.15 474,-139.5 462.02,-133.55 384.86,-120.05 338.38,-112.29"/>
<polygon fill="#9a32cd" stroke="#9a32cd" points="544.15,-202.42 553.3,-207.77 549.49,-197.89 544.15,-202.42"/>
<text text-anchor="middle" x="421.5" y="-142.5" font-family="Helvetica,sans-Serif" font-size="10.00"> ga</text>
</g>
<!-- Node5&#45;&gt;Node5 -->
<g id="edge6" class="edge">
<title>Node5&#45;&gt;Node5</title>
<path fill="none" stroke="#9a32cd" stroke-dasharray="5,2" d="M543.85,-236.9C545.06,-241.81 551.11,-245.5 562,-245.5 579.42,-245.5 584.45,-236.07 577.1,-227.26"/>
<polygon fill="#9a32cd" stroke="#9a32cd" points="547.22,-237.85 546.9,-227.26 540.55,-235.74 547.22,-237.85"/>
<text text-anchor="middle" x="562" y="-248.5" font-family="Helvetica,sans-Serif" font-size="10.00"> cf</text>
</g>
<!-- Node5&#45;&gt;Node6 -->
<g id="edge11" class="edge">
<title>Node5&#45;&gt;Node6</title>
<path fill="none" stroke="#9a32cd" stroke-dasharray="5,2" d="M630.29,-223.53C644.35,-226.02 658.88,-229.54 672,-234.5 695.8,-243.51 720.02,-260.93 733.85,-271.85"/>
<polygon fill="#9a32cd" stroke="#9a32cd" points="630.59,-220.03 620.16,-221.89 629.47,-226.94 630.59,-220.03"/>
<text text-anchor="middle" x="661" y="-237.5" font-family="Helvetica,sans-Serif" font-size="10.00"> ga</text>
</g>
<!-- Node6&#45;&gt;Node5 -->
<g id="edge7" class="edge">
<title>Node6&#45;&gt;Node5</title>
<path fill="none" stroke="#9a32cd" stroke-dasharray="5,2" d="M708.44,-268.51C673.43,-256.23 621.73,-238.09 590.32,-227.08"/>
<polygon fill="#9a32cd" stroke="#9a32cd" points="707.69,-271.95 718.29,-271.96 710.01,-265.35 707.69,-271.95"/>
<text text-anchor="middle" x="661" y="-257.5" font-family="Helvetica,sans-Serif" font-size="10.00"> pop</text>
</g>
<!-- Node6&#45;&gt;Node6 -->
<g id="edge12" class="edge">
<title>Node6&#45;&gt;Node6</title>
<path fill="none" stroke="#9a32cd" stroke-dasharray="5,2" d="M731.03,-301.27C732.25,-306 737.4,-309.5 746.5,-309.5 761.43,-309.5 765.75,-300.07 759.45,-291.26"/>
<polygon fill="#9a32cd" stroke="#9a32cd" points="734.5,-301.81 733.55,-291.26 727.72,-300.1 734.5,-301.81"/>
<text text-anchor="middle" x="746.5" y="-323.5" font-family="Helvetica,sans-Serif" font-size="10.00"> eval</text>
<text text-anchor="middle" x="746.5" y="-312.5" font-family="Helvetica,sans-Serif" font-size="10.00">init</text>
</g>
<!-- Node6&#45;&gt;Node8 -->
<g id="edge15" class="edge">
<title>Node6&#45;&gt;Node8</title>
<path fill="none" stroke="#9a32cd" stroke-dasharray="5,2" d="M767.91,-297.27C782.06,-307.43 801.76,-320.09 821,-327.5 842.14,-335.64 866.48,-340.8 887.94,-344.05"/>
<polygon fill="#9a32cd" stroke="#9a32cd" points="769.59,-294.16 759.47,-291.04 765.43,-299.79 769.59,-294.16"/>
<text text-anchor="middle" x="845.5" y="-342.5" font-family="Helvetica,sans-Serif" font-size="10.00"> pop</text>
</g>
<!-- Node10 -->
<g id="node10" class="node">
<title>Node10</title>
<g id="a_node10"><a xlink:href="classGAStatistics.html" target="_top" xlink:title="Statistics class.">
<polygon fill="white" stroke="black" points="907.5,-160 907.5,-179 983.5,-179 983.5,-160 907.5,-160"/>
<text text-anchor="middle" x="945.5" y="-167" font-family="Helvetica,sans-Serif" font-size="10.00">GAStatistics</text>
</a>
</g>
</g>
<!-- Node6&#45;&gt;Node10 -->
<g id="edge19" class="edge">
<title>Node6&#45;&gt;Node10</title>
<path fill="none" stroke="#9a32cd" stroke-dasharray="5,2" d="M798.13,-276.52C821.28,-272.54 848.31,-265.38 870,-252.5 901.8,-233.62 927.62,-196.71 938.68,-179.18"/>
<polygon fill="#9a32cd" stroke="#9a32cd" points="797.47,-273.08 788.14,-278.09 798.56,-280 797.47,-273.08"/>
<text text-anchor="middle" x="845.5" y="-273.5" font-family="Helvetica,sans-Serif" font-size="10.00"> boa</text>
</g>
<!-- Node7&#45;&gt;Node6 -->
<g id="edge9" class="edge">
<title>Node7&#45;&gt;Node6</title>
<path fill="none" stroke="#9a32cd" stroke-dasharray="5,2" d="M484.39,-383.85C536.72,-383.49 612.47,-377.31 672,-349.5 700.98,-335.96 726.27,-306.76 738.21,-291.4"/>
<polygon fill="#9a32cd" stroke="#9a32cd" points="484.25,-380.35 474.25,-383.85 484.25,-387.35 484.25,-380.35"/>
<text text-anchor="middle" x="562" y="-386.5" font-family="Helvetica,sans-Serif" font-size="10.00"> sclscm</text>
</g>
<!-- Node8&#45;&gt;Node6 -->
<g id="edge13" class="edge">
<title>Node8&#45;&gt;Node6</title>
<path fill="none" stroke="#9a32cd" stroke-dasharray="5,2" d="M915.54,-335.55C901.9,-329.27 885.3,-322.05 870,-316.5 842.34,-306.48 810.36,-297.42 786.01,-291.03"/>
<polygon fill="#9a32cd" stroke="#9a32cd" points="914.34,-338.85 924.88,-339.92 917.31,-332.51 914.34,-338.85"/>
<text text-anchor="middle" x="845.5" y="-319.5" font-family="Helvetica,sans-Serif" font-size="10.00"> slct</text>
</g>
<!-- Node9 -->
<g id="node9" class="node">
<title>Node9</title>
<g id="a_node9"><a xlink:href="classGAEvalData.html" target="_top" xlink:title="This is the basic interface for the object that contains evaluation data.">
<polygon fill="white" stroke="black" points="117,-71 117,-90 192,-90 192,-71 117,-71"/>
<text text-anchor="middle" x="154.5" y="-78" font-family="Helvetica,sans-Serif" font-size="10.00">GAEvalData</text>
</a>
</g>
</g>
<!-- Node9&#45;&gt;Node3 -->
<g id="edge28" class="edge">
<title>Node9&#45;&gt;Node3</title>
<path fill="none" stroke="#9a32cd" stroke-dasharray="5,2" d="M202.07,-88.82C222.73,-92.51 246.66,-96.79 265.8,-100.21"/>
<polygon fill="#9a32cd" stroke="#9a32cd" points="202.68,-85.37 192.22,-87.06 201.44,-92.27 202.68,-85.37"/>
<text text-anchor="middle" x="224" y="-97.5" font-family="Helvetica,sans-Serif" font-size="10.00"> evd</text>
</g>
<!-- Node9&#45;&gt;Node6 -->
<g id="edge16" class="edge">
<title>Node9&#45;&gt;Node6</title>
<path fill="none" stroke="#9a32cd" stroke-dasharray="5,2" d="M202.17,-70.16C293.75,-52.66 499.59,-27.48 632,-119.5 661.11,-139.73 655.51,-157.12 672,-188.5 680.69,-205.04 679.2,-211.25 690,-226.5 702.7,-244.43 721.55,-261.7 733.68,-271.95"/>
<polygon fill="#9a32cd" stroke="#9a32cd" points="201.24,-66.77 192.1,-72.14 202.59,-73.64 201.24,-66.77"/>
<text text-anchor="middle" x="421.5" y="-63.5" font-family="Helvetica,sans-Serif" font-size="10.00"> evaldata</text>
</g>
<!-- Node10&#45;&gt;Node5 -->
<g id="edge18" class="edge">
<title>Node10&#45;&gt;Node5</title>
<path fill="none" stroke="#9a32cd" stroke-dasharray="5,2" d="M909.04,-156.78C859.22,-140.82 766.1,-118 690,-139.5 642.19,-153.01 594.66,-190.13 573.88,-207.85"/>
<polygon fill="#9a32cd" stroke="#9a32cd" points="908.1,-160.16 918.69,-159.96 910.29,-153.51 908.1,-160.16"/>
<text text-anchor="middle" x="746.5" y="-142.5" font-family="Helvetica,sans-Serif" font-size="10.00"> stats</text>
</g>
<!-- Node11 -->
<g id="node11" class="node">
<title>Node11</title>
<g id="a_node11"><a xlink:title=" ">
<polygon fill="white" stroke="#bfbfbf" points="714,-41 714,-60 779,-60 779,-41 714,-41"/>
<text text-anchor="middle" x="746.5" y="-48" font-family="Helvetica,sans-Serif" font-size="10.00">std::string</text>
</a>
</g>
</g>
<!-- Node11&#45;&gt;Node10 -->
<g id="edge20" class="edge">
<title>Node11&#45;&gt;Node10</title>
<path fill="none" stroke="#9a32cd" stroke-dasharray="5,2" d="M783.95,-63.66C809.08,-73.49 842.73,-88.18 870,-105.5 895.62,-121.77 921.63,-146.36 935.1,-159.83"/>
<polygon fill="#9a32cd" stroke="#9a32cd" points="785.02,-60.32 774.43,-60.01 782.51,-66.86 785.02,-60.32"/>
<text text-anchor="middle" x="845.5" y="-108.5" font-family="Helvetica,sans-Serif" font-size="10.00"> scorefile</text>
</g>
<!-- Node12 -->
<g id="node12" class="node">
<title>Node12</title>
<g id="a_node12"><a xlink:title=" ">
<polygon fill="white" stroke="#bfbfbf" points="510,-0.5 510,-30.5 614,-30.5 614,-0.5 510,-0.5"/>
<text text-anchor="start" x="518" y="-18.5" font-family="Helvetica,sans-Serif" font-size="10.00">std::basic_string&lt;</text>
<text text-anchor="middle" x="562" y="-7.5" font-family="Helvetica,sans-Serif" font-size="10.00"> Char &gt;</text>
</a>
</g>
</g>
<!-- Node12&#45;&gt;Node11 -->
<g id="edge21" class="edge">
<title>Node12&#45;&gt;Node11</title>
<path fill="none" stroke="midnightblue" d="M624.29,-27.25C654.28,-33.01 689.13,-39.69 713.74,-44.41"/>
<polygon fill="midnightblue" stroke="midnightblue" points="624.8,-23.79 614.32,-25.34 623.48,-30.66 624.8,-23.79"/>
</g>
<!-- Node13 -->
<g id="node13" class="node">
<title>Node13</title>
<g id="a_node13"><a xlink:title=" ">
<polygon fill="white" stroke="#bfbfbf" points="690,-198 690,-217 803,-217 803,-198 690,-198"/>
<text text-anchor="middle" x="746.5" y="-205" font-family="Helvetica,sans-Serif" font-size="10.00">std::vector&lt; float &gt;</text>
</a>
</g>
</g>
<!-- Node13&#45;&gt;Node10 -->
<g id="edge22" class="edge">
<title>Node13&#45;&gt;Node10</title>
<path fill="none" stroke="#9a32cd" stroke-dasharray="5,2" d="M806.87,-196.05C839.57,-189.74 879.15,-182.1 907.46,-176.64"/>
<polygon fill="#9a32cd" stroke="#9a32cd" points="806.11,-192.63 796.96,-197.96 807.44,-199.5 806.11,-192.63"/>
<text text-anchor="middle" x="845.5" y="-240.5" font-family="Helvetica,sans-Serif" font-size="10.00"> aveScore</text>
<text text-anchor="middle" x="845.5" y="-229.5" font-family="Helvetica,sans-Serif" font-size="10.00">devScore</text>
<text text-anchor="middle" x="845.5" y="-218.5" font-family="Helvetica,sans-Serif" font-size="10.00">divScore</text>
<text text-anchor="middle" x="845.5" y="-207.5" font-family="Helvetica,sans-Serif" font-size="10.00">maxScore</text>
<text text-anchor="middle" x="845.5" y="-196.5" font-family="Helvetica,sans-Serif" font-size="10.00">minScore</text>
</g>
<!-- Node14 -->
<g id="node14" class="node">
<title>Node14</title>
<g id="a_node14"><a xlink:title=" ">
<polygon fill="white" stroke="#bfbfbf" points="694.5,-160 694.5,-179 798.5,-179 798.5,-160 694.5,-160"/>
<text text-anchor="middle" x="746.5" y="-167" font-family="Helvetica,sans-Serif" font-size="10.00">std::vector&lt; int &gt;</text>
</a>
</g>
</g>
<!-- Node14&#45;&gt;Node10 -->
<g id="edge23" class="edge">
<title>Node14&#45;&gt;Node10</title>
<path fill="none" stroke="#9a32cd" stroke-dasharray="5,2" d="M808.96,-169.5C841.15,-169.5 879.52,-169.5 907.2,-169.5"/>
<polygon fill="#9a32cd" stroke="#9a32cd" points="808.75,-166 798.75,-169.5 808.75,-173 808.75,-166"/>
<text text-anchor="middle" x="845.5" y="-172.5" font-family="Helvetica,sans-Serif" font-size="10.00"> gen</text>
</g>
<!-- Node15 -->
<g id="node15" class="node">
<title>Node15</title>
<g id="a_node15"><a xlink:href="classGAParameterList.html" target="_top" xlink:title="Parameter List.">
<polygon fill="white" stroke="black" points="253,-219 253,-238 351,-238 351,-219 253,-219"/>
<text text-anchor="middle" x="302" y="-226" font-family="Helvetica,sans-Serif" font-size="10.00">GAParameterList</text>
</a>
</g>
</g>
<!-- Node15&#45;&gt;Node5 -->
<g id="edge24" class="edge">
<title>Node15&#45;&gt;Node5</title>
<path fill="none" stroke="#9a32cd" stroke-dasharray="5,2" d="M361.43,-226.01C403.95,-224.2 461.25,-221.75 503.55,-219.95"/>
<polygon fill="#9a32cd" stroke="#9a32cd" points="361.07,-222.52 351.23,-226.44 361.37,-229.51 361.07,-222.52"/>
<text text-anchor="middle" x="421.5" y="-228.5" font-family="Helvetica,sans-Serif" font-size="10.00"> params</text>
</g>
<!-- Node16 -->
<g id="node16" class="node">
<title>Node16</title>
<g id="a_node16"><a xlink:title=" ">
<polygon fill="white" stroke="#bfbfbf" points="114,-208 114,-227 195,-227 195,-208 114,-208"/>
<text text-anchor="middle" x="154.5" y="-215" font-family="Helvetica,sans-Serif" font-size="10.00">std::list&lt; T &gt;</text>
</a>
</g>
</g>
<!-- Node16&#45;&gt;Node15 -->
<g id="edge25" class="edge">
<title>Node16&#45;&gt;Node15</title>
<path fill="none" stroke="midnightblue" d="M205.56,-221.28C220.83,-222.44 237.59,-223.71 252.74,-224.85"/>
<polygon fill="midnightblue" stroke="midnightblue" points="205.49,-217.77 195.26,-220.51 204.97,-224.75 205.49,-217.77"/>
</g>
<!-- Node17 -->
<g id="node17" class="node">
<title>Node17</title>
<g id="a_node17"><a xlink:title=" ">
<polygon fill="white" stroke="#bfbfbf" points="0,-208 0,-227 29,-227 29,-208 0,-208"/>
<text text-anchor="middle" x="14.5" y="-215" font-family="Helvetica,sans-Serif" font-size="10.00">T</text>
</a>
</g>
</g>
<!-- Node17&#45;&gt;Node16 -->
<g id="edge26" class="edge">
<title>Node17&#45;&gt;Node16</title>
<path fill="none" stroke="#9a32cd" stroke-dasharray="5,2" d="M39.28,-217.5C59.79,-217.5 89.81,-217.5 113.93,-217.5"/>
<polygon fill="#9a32cd" stroke="#9a32cd" points="39.24,-214 29.24,-217.5 39.24,-221 39.24,-214"/>
<text text-anchor="middle" x="71.5" y="-220.5" font-family="Helvetica,sans-Serif" font-size="10.00"> elements</text>
</g>
</g>
</svg>
