<?xml version="1.0" encoding="UTF-8" standalone="no"?>
<!DOCTYPE svg PUBLIC "-//W3C//DTD SVG 1.1//EN"
 "http://www.w3.org/Graphics/SVG/1.1/DTD/svg11.dtd">
<!-- Generated by graphviz version 2.43.0 (0)
 -->
<!-- Title: GAIncrementalGA Pages: 1 -->
<!--zoomable 584 -->
<svg id="main" version="1.1" xmlns="http://www.w3.org/2000/svg" xmlns:xlink="http://www.w3.org/1999/xlink" xml:space="preserve" onload="init(evt)">
<style type="text/css"><![CDATA[
.edge:hover path { stroke: red; }
.edge:hover polygon { stroke: red; fill: red; }
]]></style>
<script type="text/javascript"><![CDATA[
var edges = document.getElementsByTagName('g');
if (edges && edges.length) {
  for (var i=0;i<edges.length;i++) {
    if (edges[i].id.substr(0,4)=='edge') {
      edges[i].setAttribute('class','edge');
    }
  }
}
]]></script>
        <defs>
                <circle id="rim" cx="0" cy="0" r="7"/>
                <circle id="rim2" cx="0" cy="0" r="3.5"/>
                <g id="zoomPlus">
                        <use xlink:href="#rim" fill="#404040">
                                <set attributeName="fill" to="#808080" begin="zoomplus.mouseover" end="zoomplus.mouseout"/>
                        </use>
                        <path d="M-4,0h8M0,-4v8" fill="none" stroke="white" stroke-width="1.5" pointer-events="none"/>
                </g>
                <g id="zoomMin">
                        <use xlink:href="#rim" fill="#404040">
                                <set attributeName="fill" to="#808080" begin="zoomminus.mouseover" end="zoomminus.mouseout"/>
                        </use>
                        <path d="M-4,0h8" fill="none" stroke="white" stroke-width="1.5" pointer-events="none"/>
                </g>
                <g id="dirArrow">
                        <path fill="none" stroke="white" stroke-width="1.5" d="M0,-3.0v7 M-2.5,-0.5L0,-3.0L2.5,-0.5"/>
                </g>
               <g id="resetDef">
                       <use xlink:href="#rim2" fill="#404040">
                               <set attributeName="fill" to="#808080" begin="reset.mouseover" end="reset.mouseout"/>
                       </use>
               </g>
        </defs>

<script type="text/javascript">
var viewWidth = 1157;
var viewHeight = 584;
var sectionId = 'dynsection-1';
</script>
<script xlink:href="svgpan.js"/>
<svg id="graph" class="graph">
<g id="viewport">
<title>GAIncrementalGA</title>
<polygon fill="white" stroke="transparent" points="-4,4 -4,-580 1153,-580 1153,4 -4,4"/>
<!-- Node1 -->
<g id="node1" class="node">
<title>Node1</title>
<g id="a_node1"><a xlink:title=" ">
<polygon fill="#bfbfbf" stroke="black" points="840.5,-220.5 840.5,-239.5 944.5,-239.5 944.5,-220.5 840.5,-220.5"/>
<text text-anchor="middle" x="892.5" y="-227.5" font-family="Helvetica,sans-Serif" font-size="10.00">GAIncrementalGA</text>
</a>
</g>
</g>
<!-- Node2 -->
<g id="node2" class="node">
<title>Node2</title>
<g id="a_node2"><a xlink:href="classGAGeneticAlgorithm.html" target="_top" xlink:title=" ">
<polygon fill="white" stroke="black" points="406,-273.5 406,-292.5 522,-292.5 522,-273.5 406,-273.5"/>
<text text-anchor="middle" x="464" y="-280.5" font-family="Helvetica,sans-Serif" font-size="10.00">GAGeneticAlgorithm</text>
</a>
</g>
</g>
<!-- Node2&#45;&gt;Node1 -->
<g id="edge1" class="edge">
<title>Node2&#45;&gt;Node1</title>
<path fill="none" stroke="midnightblue" d="M479.89,-266.04C493.81,-251.48 516.01,-231.41 540,-222 648.53,-179.42 790.78,-204.83 856.02,-220.48"/>
<polygon fill="midnightblue" stroke="midnightblue" points="477.26,-263.73 473.05,-273.45 482.4,-268.48 477.26,-263.73"/>
</g>
<!-- Node2&#45;&gt;Node2 -->
<g id="edge3" class="edge">
<title>Node2&#45;&gt;Node2</title>
<path fill="none" stroke="#9a32cd" stroke-dasharray="5,2" d="M446.22,-302.4C447.41,-307.31 453.34,-311 464,-311 481.06,-311 485.99,-301.57 478.8,-292.76"/>
<polygon fill="#9a32cd" stroke="#9a32cd" points="449.59,-303.34 449.2,-292.76 442.91,-301.28 449.59,-303.34"/>
<text text-anchor="middle" x="464" y="-314" font-family="Helvetica,sans-Serif" font-size="10.00"> cf</text>
</g>
<!-- Node4 -->
<g id="node4" class="node">
<title>Node4</title>
<g id="a_node4"><a xlink:href="classGAPopulation.html" target="_top" xlink:title=" ">
<polygon fill="white" stroke="black" points="851,-407.5 851,-426.5 934,-426.5 934,-407.5 851,-407.5"/>
<text text-anchor="middle" x="892.5" y="-414.5" font-family="Helvetica,sans-Serif" font-size="10.00">GAPopulation</text>
</a>
</g>
</g>
<!-- Node2&#45;&gt;Node4 -->
<g id="edge8" class="edge">
<title>Node2&#45;&gt;Node4</title>
<path fill="none" stroke="#9a32cd" stroke-dasharray="5,2" d="M532.74,-279.27C608.68,-276.09 726.49,-274.46 767,-292 796.37,-304.72 860.77,-379.98 883.42,-407.19"/>
<polygon fill="#9a32cd" stroke="#9a32cd" points="532.15,-275.79 522.31,-279.73 532.46,-282.79 532.15,-275.79"/>
<text text-anchor="middle" x="715" y="-295" font-family="Helvetica,sans-Serif" font-size="10.00"> ga</text>
</g>
<!-- Node8 -->
<g id="node8" class="node">
<title>Node8</title>
<g id="a_node8"><a xlink:href="classGAGenome.html" target="_top" xlink:title="The base genome class just defines the genome interface &#45; how to mutate, crossover,...">
<polygon fill="white" stroke="black" points="679,-312.5 679,-331.5 751,-331.5 751,-312.5 679,-312.5"/>
<text text-anchor="middle" x="715" y="-319.5" font-family="Helvetica,sans-Serif" font-size="10.00">GAGenome</text>
</a>
</g>
</g>
<!-- Node2&#45;&gt;Node8 -->
<g id="edge16" class="edge">
<title>Node2&#45;&gt;Node8</title>
<path fill="none" stroke="#9a32cd" stroke-dasharray="5,2" d="M481.37,-300.23C495.44,-313.7 517.05,-331.38 540,-339 589.69,-355.5 651.42,-342.05 686.4,-331.51"/>
<polygon fill="#9a32cd" stroke="#9a32cd" points="483.56,-297.46 474,-292.89 478.62,-302.42 483.56,-297.46"/>
<text text-anchor="middle" x="592.5" y="-349" font-family="Helvetica,sans-Serif" font-size="10.00"> ga</text>
</g>
<!-- Node3 -->
<g id="node3" class="node">
<title>Node3</title>
<g id="a_node3"><a xlink:href="classGAID.html" target="_top" xlink:title=" ">
<polygon fill="white" stroke="black" points="260.5,-481.5 260.5,-500.5 301.5,-500.5 301.5,-481.5 260.5,-481.5"/>
<text text-anchor="middle" x="281" y="-488.5" font-family="Helvetica,sans-Serif" font-size="10.00">GAID</text>
</a>
</g>
</g>
<!-- Node3&#45;&gt;Node2 -->
<g id="edge2" class="edge">
<title>Node3&#45;&gt;Node2</title>
<path fill="none" stroke="midnightblue" d="M290.06,-472.04C300.92,-447.87 321.94,-405.53 348,-375 378.21,-339.61 423.59,-308.04 447.3,-292.75"/>
<polygon fill="midnightblue" stroke="midnightblue" points="286.85,-470.64 286.04,-481.21 293.26,-473.46 286.85,-470.64"/>
</g>
<!-- Node3&#45;&gt;Node4 -->
<g id="edge5" class="edge">
<title>Node3&#45;&gt;Node4</title>
<path fill="none" stroke="midnightblue" d="M311.79,-490.17C387.99,-487.7 595.99,-478.84 767,-452 801.38,-446.6 839.77,-434.91 864.71,-426.53"/>
<polygon fill="midnightblue" stroke="midnightblue" points="311.42,-486.68 301.53,-490.49 311.63,-493.67 311.42,-486.68"/>
</g>
<!-- Node5 -->
<g id="node5" class="node">
<title>Node5</title>
<g id="a_node5"><a xlink:href="classGAScalingScheme.html" target="_top" xlink:title=" ">
<polygon fill="white" stroke="black" points="540,-523.5 540,-542.5 645,-542.5 645,-523.5 540,-523.5"/>
<text text-anchor="middle" x="592.5" y="-530.5" font-family="Helvetica,sans-Serif" font-size="10.00">GAScalingScheme</text>
</a>
</g>
</g>
<!-- Node3&#45;&gt;Node5 -->
<g id="edge7" class="edge">
<title>Node3&#45;&gt;Node5</title>
<path fill="none" stroke="midnightblue" d="M311.42,-497.86C322.8,-500.35 335.96,-503.04 348,-505 413.73,-515.73 490.09,-523.8 539.53,-528.46"/>
<polygon fill="midnightblue" stroke="midnightblue" points="312.07,-494.42 301.55,-495.65 310.54,-501.25 312.07,-494.42"/>
</g>
<!-- Node6 -->
<g id="node6" class="node">
<title>Node6</title>
<g id="a_node6"><a xlink:href="classGASelectionScheme.html" target="_top" xlink:title=" ">
<polygon fill="white" stroke="black" points="1034,-441.5 1034,-460.5 1149,-460.5 1149,-441.5 1034,-441.5"/>
<text text-anchor="middle" x="1091.5" y="-448.5" font-family="Helvetica,sans-Serif" font-size="10.00">GASelectionScheme</text>
</a>
</g>
</g>
<!-- Node3&#45;&gt;Node6 -->
<g id="edge11" class="edge">
<title>Node3&#45;&gt;Node6</title>
<path fill="none" stroke="midnightblue" d="M301.41,-507.13C333.11,-531.78 398.9,-576 463,-576 463,-576 463,-576 893.5,-576 979.37,-576 1058.12,-490.28 1082.65,-460.81"/>
<polygon fill="midnightblue" stroke="midnightblue" points="303.4,-504.25 293.4,-500.75 299.04,-509.72 303.4,-504.25"/>
</g>
<!-- Node3&#45;&gt;Node8 -->
<g id="edge15" class="edge">
<title>Node3&#45;&gt;Node8</title>
<path fill="none" stroke="midnightblue" d="M304.71,-475.7C328.9,-460.02 368.75,-435.88 406,-421 507.71,-380.38 543.3,-401.64 645,-361 664.93,-353.03 686.2,-340.29 699.76,-331.56"/>
<polygon fill="midnightblue" stroke="midnightblue" points="302.69,-472.85 296.25,-481.26 306.53,-478.7 302.69,-472.85"/>
</g>
<!-- Node4&#45;&gt;Node2 -->
<g id="edge4" class="edge">
<title>Node4&#45;&gt;Node2</title>
<path fill="none" stroke="#9a32cd" stroke-dasharray="5,2" d="M886.8,-397.44C878.3,-366.11 857.47,-304.55 818,-269 800.03,-252.81 790.81,-254.29 767,-250 669.68,-232.46 552.91,-258.32 497.39,-273.41"/>
<polygon fill="#9a32cd" stroke="#9a32cd" points="883.42,-398.36 889.3,-407.18 890.2,-396.62 883.42,-398.36"/>
<text text-anchor="middle" x="715" y="-253" font-family="Helvetica,sans-Serif" font-size="10.00"> pop</text>
</g>
<!-- Node4&#45;&gt;Node4 -->
<g id="edge9" class="edge">
<title>Node4&#45;&gt;Node4</title>
<path fill="none" stroke="#9a32cd" stroke-dasharray="5,2" d="M875.83,-436.4C876.95,-441.31 882.5,-445 892.5,-445 908.5,-445 913.12,-435.57 906.37,-426.76"/>
<polygon fill="#9a32cd" stroke="#9a32cd" points="879.21,-437.34 878.63,-426.76 872.48,-435.39 879.21,-437.34"/>
<text text-anchor="middle" x="892.5" y="-459" font-family="Helvetica,sans-Serif" font-size="10.00"> eval</text>
<text text-anchor="middle" x="892.5" y="-448" font-family="Helvetica,sans-Serif" font-size="10.00">init</text>
</g>
<!-- Node4&#45;&gt;Node6 -->
<g id="edge12" class="edge">
<title>Node4&#45;&gt;Node6</title>
<path fill="none" stroke="#9a32cd" stroke-dasharray="5,2" d="M944.25,-425.76C972.08,-430.56 1006.64,-436.53 1035.16,-441.45"/>
<polygon fill="#9a32cd" stroke="#9a32cd" points="944.77,-422.3 934.32,-424.04 943.58,-429.19 944.77,-422.3"/>
<text text-anchor="middle" x="991.5" y="-441" font-family="Helvetica,sans-Serif" font-size="10.00"> pop</text>
</g>
<!-- Node9 -->
<g id="node9" class="node">
<title>Node9</title>
<g id="a_node9"><a xlink:href="classGAStatistics.html" target="_top" xlink:title="Statistics class.">
<polygon fill="white" stroke="black" points="1053.5,-116.5 1053.5,-135.5 1129.5,-135.5 1129.5,-116.5 1053.5,-116.5"/>
<text text-anchor="middle" x="1091.5" y="-123.5" font-family="Helvetica,sans-Serif" font-size="10.00">GAStatistics</text>
</a>
</g>
</g>
<!-- Node4&#45;&gt;Node9 -->
<g id="edge20" class="edge">
<title>Node4&#45;&gt;Node9</title>
<path fill="none" stroke="#9a32cd" stroke-dasharray="5,2" d="M905.78,-398.85C943.3,-343.44 1055.54,-177.65 1083.92,-135.72"/>
<polygon fill="#9a32cd" stroke="#9a32cd" points="902.76,-397.07 900.05,-407.32 908.56,-401 902.76,-397.07"/>
<text text-anchor="middle" x="991.5" y="-310" font-family="Helvetica,sans-Serif" font-size="10.00"> boa</text>
</g>
<!-- Node5&#45;&gt;Node4 -->
<g id="edge6" class="edge">
<title>Node5&#45;&gt;Node4</title>
<path fill="none" stroke="#9a32cd" stroke-dasharray="5,2" d="M655.45,-537.16C702.74,-537.63 768.05,-532.26 818,-505 851.9,-486.5 876.63,-445.5 886.62,-426.73"/>
<polygon fill="#9a32cd" stroke="#9a32cd" points="655.41,-533.66 645.34,-536.97 655.28,-540.66 655.41,-533.66"/>
<text text-anchor="middle" x="715" y="-540" font-family="Helvetica,sans-Serif" font-size="10.00"> sclscm</text>
</g>
<!-- Node6&#45;&gt;Node4 -->
<g id="edge10" class="edge">
<title>Node6&#45;&gt;Node4</title>
<path fill="none" stroke="#9a32cd" stroke-dasharray="5,2" d="M1065.29,-436.73C1051.25,-429.6 1033.19,-421.71 1016,-418 989.18,-412.21 958.29,-412 934.23,-413.22"/>
<polygon fill="#9a32cd" stroke="#9a32cd" points="1063.82,-439.92 1074.3,-441.49 1067.09,-433.73 1063.82,-439.92"/>
<text text-anchor="middle" x="991.5" y="-421" font-family="Helvetica,sans-Serif" font-size="10.00"> slct</text>
</g>
<!-- Node7 -->
<g id="node7" class="node">
<title>Node7</title>
<g id="a_node7"><a xlink:href="classGAEvalData.html" target="_top" xlink:title=" ">
<polygon fill="white" stroke="black" points="426.5,-430.5 426.5,-449.5 501.5,-449.5 501.5,-430.5 426.5,-430.5"/>
<text text-anchor="middle" x="464" y="-437.5" font-family="Helvetica,sans-Serif" font-size="10.00">GAEvalData</text>
</a>
</g>
</g>
<!-- Node7&#45;&gt;Node4 -->
<g id="edge13" class="edge">
<title>Node7&#45;&gt;Node4</title>
<path fill="none" stroke="#9a32cd" stroke-dasharray="5,2" d="M511.86,-440.43C548.21,-440.53 599.83,-440.17 645,-438 717.72,-434.5 802.2,-426.43 851,-421.37"/>
<polygon fill="#9a32cd" stroke="#9a32cd" points="511.58,-436.93 501.57,-440.38 511.55,-443.93 511.58,-436.93"/>
<text text-anchor="middle" x="715" y="-440" font-family="Helvetica,sans-Serif" font-size="10.00"> evaldata</text>
</g>
<!-- Node7&#45;&gt;Node8 -->
<g id="edge17" class="edge">
<title>Node7&#45;&gt;Node8</title>
<path fill="none" stroke="#9a32cd" stroke-dasharray="5,2" d="M511.4,-432.08C560.84,-423.38 633.57,-409.76 645,-403 675.37,-385.04 698.83,-348.79 708.79,-331.54"/>
<polygon fill="#9a32cd" stroke="#9a32cd" points="510.79,-428.63 501.54,-433.8 512,-435.53 510.79,-428.63"/>
<text text-anchor="middle" x="592.5" y="-429" font-family="Helvetica,sans-Serif" font-size="10.00"> evd</text>
</g>
<!-- Node8&#45;&gt;Node1 -->
<g id="edge29" class="edge">
<title>Node8&#45;&gt;Node1</title>
<path fill="none" stroke="#9a32cd" stroke-dasharray="5,2" d="M746.08,-308.21C752.99,-304.94 760.28,-301.41 767,-298 806.09,-278.15 851.01,-253.03 874.76,-239.56"/>
<polygon fill="#9a32cd" stroke="#9a32cd" points="744.55,-305.06 736.98,-312.47 747.52,-311.4 744.55,-305.06"/>
<text text-anchor="middle" x="801.5" y="-313" font-family="Helvetica,sans-Serif" font-size="10.00"> child1</text>
<text text-anchor="middle" x="801.5" y="-302" font-family="Helvetica,sans-Serif" font-size="10.00">child2</text>
<text text-anchor="middle" x="801.5" y="-291" font-family="Helvetica,sans-Serif" font-size="10.00">rf</text>
</g>
<!-- Node8&#45;&gt;Node2 -->
<g id="edge28" class="edge">
<title>Node8&#45;&gt;Node2</title>
<path fill="none" stroke="#9a32cd" stroke-dasharray="5,2" d="M668.65,-314.9C627.49,-308.45 566.6,-298.91 522.13,-291.95"/>
<polygon fill="#9a32cd" stroke="#9a32cd" points="668.25,-318.38 678.67,-316.47 669.33,-311.46 668.25,-318.38"/>
<text text-anchor="middle" x="592.5" y="-325" font-family="Helvetica,sans-Serif" font-size="10.00"> across</text>
<text text-anchor="middle" x="592.5" y="-314" font-family="Helvetica,sans-Serif" font-size="10.00">scross</text>
</g>
<!-- Node8&#45;&gt;Node4 -->
<g id="edge14" class="edge">
<title>Node8&#45;&gt;Node4</title>
<path fill="none" stroke="#9a32cd" stroke-dasharray="5,2" d="M742.84,-336.53C779.2,-356.21 843.11,-390.81 873.92,-407.48"/>
<polygon fill="#9a32cd" stroke="#9a32cd" points="744.25,-333.31 733.79,-331.63 740.92,-339.47 744.25,-333.31"/>
<text text-anchor="middle" x="801.5" y="-389" font-family="Helvetica,sans-Serif" font-size="10.00"> rind</text>
<text text-anchor="middle" x="801.5" y="-378" font-family="Helvetica,sans-Serif" font-size="10.00">sind</text>
</g>
<!-- Node8&#45;&gt;Node8 -->
<g id="edge18" class="edge">
<title>Node8&#45;&gt;Node8</title>
<path fill="none" stroke="#9a32cd" stroke-dasharray="5,2" d="M699.07,-341.4C700.14,-346.31 705.45,-350 715,-350 730.29,-350 734.7,-340.57 728.26,-331.76"/>
<polygon fill="#9a32cd" stroke="#9a32cd" points="702.45,-342.33 701.74,-331.76 695.7,-340.46 702.45,-342.33"/>
<text text-anchor="middle" x="715" y="-408" font-family="Helvetica,sans-Serif" font-size="10.00"> asexcross</text>
<text text-anchor="middle" x="715" y="-397" font-family="Helvetica,sans-Serif" font-size="10.00">cmp</text>
<text text-anchor="middle" x="715" y="-386" font-family="Helvetica,sans-Serif" font-size="10.00">eval</text>
<text text-anchor="middle" x="715" y="-375" font-family="Helvetica,sans-Serif" font-size="10.00">init</text>
<text text-anchor="middle" x="715" y="-364" font-family="Helvetica,sans-Serif" font-size="10.00">mutr</text>
<text text-anchor="middle" x="715" y="-353" font-family="Helvetica,sans-Serif" font-size="10.00">sexcross</text>
</g>
<!-- Node9&#45;&gt;Node2 -->
<g id="edge19" class="edge">
<title>Node9&#45;&gt;Node2</title>
<path fill="none" stroke="#9a32cd" stroke-dasharray="5,2" d="M1043.33,-132.39C1034.26,-133.6 1024.84,-134.85 1016,-136 804.55,-163.52 727.9,-95.2 540,-196 505.91,-214.29 480.42,-254.82 470.07,-273.38"/>
<polygon fill="#9a32cd" stroke="#9a32cd" points="1043.92,-135.84 1053.37,-131.04 1042.99,-128.9 1043.92,-135.84"/>
<text text-anchor="middle" x="801.5" y="-144" font-family="Helvetica,sans-Serif" font-size="10.00"> stats</text>
</g>
<!-- Node10 -->
<g id="node10" class="node">
<title>Node10</title>
<g id="a_node10"><a xlink:title=" ">
<polygon fill="white" stroke="#bfbfbf" points="860,-101.5 860,-120.5 925,-120.5 925,-101.5 860,-101.5"/>
<text text-anchor="middle" x="892.5" y="-108.5" font-family="Helvetica,sans-Serif" font-size="10.00">std::string</text>
</a>
</g>
</g>
<!-- Node10&#45;&gt;Node9 -->
<g id="edge21" class="edge">
<title>Node10&#45;&gt;Node9</title>
<path fill="none" stroke="#9a32cd" stroke-dasharray="5,2" d="M935.5,-114.2C970.42,-116.86 1019.66,-120.61 1053.21,-123.16"/>
<polygon fill="#9a32cd" stroke="#9a32cd" points="935.39,-110.68 925.15,-113.41 934.86,-117.66 935.39,-110.68"/>
<text text-anchor="middle" x="991.5" y="-124" font-family="Helvetica,sans-Serif" font-size="10.00"> scorefile</text>
</g>
<!-- Node11 -->
<g id="node11" class="node">
<title>Node11</title>
<g id="a_node11"><a xlink:title=" ">
<polygon fill="white" stroke="#bfbfbf" points="663,-93 663,-123 767,-123 767,-93 663,-93"/>
<text text-anchor="start" x="671" y="-111" font-family="Helvetica,sans-Serif" font-size="10.00">std::basic_string&lt;</text>
<text text-anchor="middle" x="715" y="-100" font-family="Helvetica,sans-Serif" font-size="10.00"> Char &gt;</text>
</a>
</g>
</g>
<!-- Node11&#45;&gt;Node10 -->
<g id="edge22" class="edge">
<title>Node11&#45;&gt;Node10</title>
<path fill="none" stroke="midnightblue" d="M777.28,-109.05C805.11,-109.52 836.85,-110.07 859.8,-110.46"/>
<polygon fill="midnightblue" stroke="midnightblue" points="777.29,-105.55 767.23,-108.88 777.17,-112.55 777.29,-105.55"/>
</g>
<!-- Node12 -->
<g id="node12" class="node">
<title>Node12</title>
<g id="a_node12"><a xlink:title=" ">
<polygon fill="white" stroke="#bfbfbf" points="836,-38.5 836,-57.5 949,-57.5 949,-38.5 836,-38.5"/>
<text text-anchor="middle" x="892.5" y="-45.5" font-family="Helvetica,sans-Serif" font-size="10.00">std::vector&lt; float &gt;</text>
</a>
</g>
</g>
<!-- Node12&#45;&gt;Node9 -->
<g id="edge23" class="edge">
<title>Node12&#45;&gt;Node9</title>
<path fill="none" stroke="#9a32cd" stroke-dasharray="5,2" d="M959.11,-45.5C978.09,-46.83 998.42,-50.35 1016,-58 1045.86,-71 1071.66,-101.01 1083.53,-116.44"/>
<polygon fill="#9a32cd" stroke="#9a32cd" points="959.19,-42 949.03,-44.98 958.83,-48.99 959.19,-42"/>
<text text-anchor="middle" x="991.5" y="-105" font-family="Helvetica,sans-Serif" font-size="10.00"> aveScore</text>
<text text-anchor="middle" x="991.5" y="-94" font-family="Helvetica,sans-Serif" font-size="10.00">devScore</text>
<text text-anchor="middle" x="991.5" y="-83" font-family="Helvetica,sans-Serif" font-size="10.00">divScore</text>
<text text-anchor="middle" x="991.5" y="-72" font-family="Helvetica,sans-Serif" font-size="10.00">maxScore</text>
<text text-anchor="middle" x="991.5" y="-61" font-family="Helvetica,sans-Serif" font-size="10.00">minScore</text>
</g>
<!-- Node13 -->
<g id="node13" class="node">
<title>Node13</title>
<g id="a_node13"><a xlink:title=" ">
<polygon fill="white" stroke="#bfbfbf" points="840.5,-0.5 840.5,-19.5 944.5,-19.5 944.5,-0.5 840.5,-0.5"/>
<text text-anchor="middle" x="892.5" y="-7.5" font-family="Helvetica,sans-Serif" font-size="10.00">std::vector&lt; int &gt;</text>
</a>
</g>
</g>
<!-- Node13&#45;&gt;Node9 -->
<g id="edge24" class="edge">
<title>Node13&#45;&gt;Node9</title>
<path fill="none" stroke="#9a32cd" stroke-dasharray="5,2" d="M954.6,-12.3C975.24,-15.26 997.67,-21.04 1016,-32 1051.02,-52.95 1076.09,-96.92 1085.91,-116.38"/>
<polygon fill="#9a32cd" stroke="#9a32cd" points="955,-8.82 944.64,-11.06 954.13,-15.77 955,-8.82"/>
<text text-anchor="middle" x="991.5" y="-35" font-family="Helvetica,sans-Serif" font-size="10.00"> gen</text>
</g>
<!-- Node14 -->
<g id="node14" class="node">
<title>Node14</title>
<g id="a_node14"><a xlink:href="classGAParameterList.html" target="_top" xlink:title="Parameter List.">
<polygon fill="white" stroke="black" points="232,-273.5 232,-292.5 330,-292.5 330,-273.5 232,-273.5"/>
<text text-anchor="middle" x="281" y="-280.5" font-family="Helvetica,sans-Serif" font-size="10.00">GAParameterList</text>
</a>
</g>
</g>
<!-- Node14&#45;&gt;Node2 -->
<g id="edge25" class="edge">
<title>Node14&#45;&gt;Node2</title>
<path fill="none" stroke="#9a32cd" stroke-dasharray="5,2" d="M340.1,-283C361.11,-283 384.79,-283 405.72,-283"/>
<polygon fill="#9a32cd" stroke="#9a32cd" points="340.03,-279.5 330.03,-283 340.03,-286.5 340.03,-279.5"/>
<text text-anchor="middle" x="368" y="-286" font-family="Helvetica,sans-Serif" font-size="10.00"> params</text>
</g>
<!-- Node15 -->
<g id="node15" class="node">
<title>Node15</title>
<g id="a_node15"><a xlink:title=" ">
<polygon fill="white" stroke="#bfbfbf" points="114,-273.5 114,-292.5 195,-292.5 195,-273.5 114,-273.5"/>
<text text-anchor="middle" x="154.5" y="-280.5" font-family="Helvetica,sans-Serif" font-size="10.00">std::list&lt; T &gt;</text>
</a>
</g>
</g>
<!-- Node15&#45;&gt;Node14 -->
<g id="edge26" class="edge">
<title>Node15&#45;&gt;Node14</title>
<path fill="none" stroke="midnightblue" d="M205.33,-283C214.1,-283 223.21,-283 231.93,-283"/>
<polygon fill="midnightblue" stroke="midnightblue" points="205.23,-279.5 195.23,-283 205.23,-286.5 205.23,-279.5"/>
</g>
<!-- Node16 -->
<g id="node16" class="node">
<title>Node16</title>
<g id="a_node16"><a xlink:title=" ">
<polygon fill="white" stroke="#bfbfbf" points="0,-273.5 0,-292.5 29,-292.5 29,-273.5 0,-273.5"/>
<text text-anchor="middle" x="14.5" y="-280.5" font-family="Helvetica,sans-Serif" font-size="10.00">T</text>
</a>
</g>
</g>
<!-- Node16&#45;&gt;Node15 -->
<g id="edge27" class="edge">
<title>Node16&#45;&gt;Node15</title>
<path fill="none" stroke="#9a32cd" stroke-dasharray="5,2" d="M39.28,-283C59.79,-283 89.81,-283 113.93,-283"/>
<polygon fill="#9a32cd" stroke="#9a32cd" points="39.24,-279.5 29.24,-283 39.24,-286.5 39.24,-279.5"/>
<text text-anchor="middle" x="71.5" y="-286" font-family="Helvetica,sans-Serif" font-size="10.00"> elements</text>
</g>
</g>
</svg>
        <g id="navigator" transform="translate(0 0)" fill="#404254">
                <rect fill="#f2f5e9" fill-opacity="0.5" stroke="#606060" stroke-width=".5" x="0" y="0" width="60" height="60"/>
                <use id="zoomplus" xlink:href="#zoomPlus" x="17" y="9" onmousedown="handleZoom(evt,'in')"/>
                <use id="zoomminus" xlink:href="#zoomMin" x="42" y="9" onmousedown="handleZoom(evt,'out')"/>
                <use id="reset" xlink:href="#resetDef" x="30" y="36" onmousedown="handleReset()"/>
                <g id="arrowUp" xlink:href="#dirArrow" transform="translate(30 24)" onmousedown="handlePan(0,-1)">
                  <use xlink:href="#rim" fill="#404040">
                        <set attributeName="fill" to="#808080" begin="arrowUp.mouseover" end="arrowUp.mouseout"/>
                  </use>
                  <path fill="none" stroke="white" stroke-width="1.5" d="M0,-3.0v7 M-2.5,-0.5L0,-3.0L2.5,-0.5"/>
                </g>
                <g id="arrowRight" xlink:href="#dirArrow" transform="rotate(90) translate(36 -43)" onmousedown="handlePan(1,0)">
                  <use xlink:href="#rim" fill="#404040">
                        <set attributeName="fill" to="#808080" begin="arrowRight.mouseover" end="arrowRight.mouseout"/>
                  </use>
                  <path fill="none" stroke="white" stroke-width="1.5" d="M0,-3.0v7 M-2.5,-0.5L0,-3.0L2.5,-0.5"/>
                </g>
                <g id="arrowDown" xlink:href="#dirArrow" transform="rotate(180) translate(-30 -48)" onmousedown="handlePan(0,1)">
                  <use xlink:href="#rim" fill="#404040">
                        <set attributeName="fill" to="#808080" begin="arrowDown.mouseover" end="arrowDown.mouseout"/>
                  </use>
                  <path fill="none" stroke="white" stroke-width="1.5" d="M0,-3.0v7 M-2.5,-0.5L0,-3.0L2.5,-0.5"/>
                </g>
                <g id="arrowLeft" xlink:href="#dirArrow" transform="rotate(270) translate(-36 17)" onmousedown="handlePan(-1,0)">
                  <use xlink:href="#rim" fill="#404040">
                        <set attributeName="fill" to="#808080" begin="arrowLeft.mouseover" end="arrowLeft.mouseout"/>
                  </use>
                  <path fill="none" stroke="white" stroke-width="1.5" d="M0,-3.0v7 M-2.5,-0.5L0,-3.0L2.5,-0.5"/>
                </g>
        </g>
        <svg viewBox="0 0 15 15" width="100%" height="30px" preserveAspectRatio="xMaxYMin meet">
         <g id="arrow_out" transform="scale(0.3 0.3)">
          <a xlink:href="classGAIncrementalGA__coll__graph_org.svg" target="_base">
           <rect id="button" ry="5" rx="5" y="6" x="6" height="38" width="38"
                fill="#f2f5e9" fill-opacity="0.5" stroke="#606060" stroke-width="1.0"/>
           <path id="arrow"
             d="M 11.500037,31.436501 C 11.940474,20.09759 22.043105,11.32322 32.158766,21.979434 L 37.068811,17.246167 C 37.068811,17.246167 37.088388,32 37.088388,32 L 22.160133,31.978069 C 22.160133,31.978069 26.997745,27.140456 26.997745,27.140456 C 18.528582,18.264221 13.291696,25.230495 11.500037,31.436501 z"
             style="fill:#404040;"/>
          </a>
         </g>
        </svg>
</svg>
