<?xml version="1.0" encoding="UTF-8" standalone="no"?>
<!DOCTYPE svg PUBLIC "-//W3C//DTD SVG 1.1//EN"
 "http://www.w3.org/Graphics/SVG/1.1/DTD/svg11.dtd">
<!-- Generated by graphviz version 2.43.0 (0)
 -->
<!-- Title: GASimpleGA Pages: 1 -->
<!--zoomable 600 -->
<svg id="main" version="1.1" xmlns="http://www.w3.org/2000/svg" xmlns:xlink="http://www.w3.org/1999/xlink" xml:space="preserve" onload="init(evt)">
<style type="text/css"><![CDATA[
.edge:hover path { stroke: red; }
.edge:hover polygon { stroke: red; fill: red; }
]]></style>
<script type="text/javascript"><![CDATA[
var edges = document.getElementsByTagName('g');
if (edges && edges.length) {
  for (var i=0;i<edges.length;i++) {
    if (edges[i].id.substr(0,4)=='edge') {
      edges[i].setAttribute('class','edge');
    }
  }
}
]]></script>
        <defs>
                <circle id="rim" cx="0" cy="0" r="7"/>
                <circle id="rim2" cx="0" cy="0" r="3.5"/>
                <g id="zoomPlus">
                        <use xlink:href="#rim" fill="#404040">
                                <set attributeName="fill" to="#808080" begin="zoomplus.mouseover" end="zoomplus.mouseout"/>
                        </use>
                        <path d="M-4,0h8M0,-4v8" fill="none" stroke="white" stroke-width="1.5" pointer-events="none"/>
                </g>
                <g id="zoomMin">
                        <use xlink:href="#rim" fill="#404040">
                                <set attributeName="fill" to="#808080" begin="zoomminus.mouseover" end="zoomminus.mouseout"/>
                        </use>
                        <path d="M-4,0h8" fill="none" stroke="white" stroke-width="1.5" pointer-events="none"/>
                </g>
                <g id="dirArrow">
                        <path fill="none" stroke="white" stroke-width="1.5" d="M0,-3.0v7 M-2.5,-0.5L0,-3.0L2.5,-0.5"/>
                </g>
               <g id="resetDef">
                       <use xlink:href="#rim2" fill="#404040">
                               <set attributeName="fill" to="#808080" begin="reset.mouseover" end="reset.mouseout"/>
                       </use>
               </g>
        </defs>

<script type="text/javascript">
var viewWidth = 1152;
var viewHeight = 600;
var sectionId = 'dynsection-1';
</script>
<script xlink:href="svgpan.js"/>
<svg id="graph" class="graph">
<g id="viewport">
<title>GASimpleGA</title>
<polygon fill="white" stroke="transparent" points="-4,4 -4,-596 1148,-596 1148,4 -4,4"/>
<!-- Node1 -->
<g id="node1" class="node">
<title>Node1</title>
<g id="a_node1"><a xlink:title=" ">
<polygon fill="#bfbfbf" stroke="black" points="1047,-241.5 1047,-260.5 1126,-260.5 1126,-241.5 1047,-241.5"/>
<text text-anchor="middle" x="1086.5" y="-248.5" font-family="Helvetica,sans-Serif" font-size="10.00">GASimpleGA</text>
</a>
</g>
</g>
<!-- Node2 -->
<g id="node2" class="node">
<title>Node2</title>
<g id="a_node2"><a xlink:href="classGAGeneticAlgorithm.html" target="_top" xlink:title=" ">
<polygon fill="white" stroke="black" points="406,-278.5 406,-297.5 522,-297.5 522,-278.5 406,-278.5"/>
<text text-anchor="middle" x="464" y="-285.5" font-family="Helvetica,sans-Serif" font-size="10.00">GAGeneticAlgorithm</text>
</a>
</g>
</g>
<!-- Node2&#45;&gt;Node1 -->
<g id="edge1" class="edge">
<title>Node2&#45;&gt;Node1</title>
<path fill="none" stroke="midnightblue" d="M513.8,-276.18C522.49,-274.29 531.49,-272.47 540,-271 726.15,-238.74 773.42,-231.35 962,-220 983.74,-218.69 989.64,-215.73 1011,-220 1031.47,-224.09 1053.35,-233.92 1068.06,-241.42"/>
<polygon fill="midnightblue" stroke="midnightblue" points="512.77,-272.82 503.77,-278.41 514.3,-279.65 512.77,-272.82"/>
</g>
<!-- Node2&#45;&gt;Node2 -->
<g id="edge3" class="edge">
<title>Node2&#45;&gt;Node2</title>
<path fill="none" stroke="#9a32cd" stroke-dasharray="5,2" d="M446.22,-307.4C447.41,-312.31 453.34,-316 464,-316 481.06,-316 485.99,-306.57 478.8,-297.76"/>
<polygon fill="#9a32cd" stroke="#9a32cd" points="449.59,-308.34 449.2,-297.76 442.91,-306.28 449.59,-308.34"/>
<text text-anchor="middle" x="464" y="-319" font-family="Helvetica,sans-Serif" font-size="10.00"> cf</text>
</g>
<!-- Node4 -->
<g id="node4" class="node">
<title>Node4</title>
<g id="a_node4"><a xlink:href="classGAPopulation.html" target="_top" xlink:title=" ">
<polygon fill="white" stroke="black" points="846,-328.5 846,-347.5 929,-347.5 929,-328.5 846,-328.5"/>
<text text-anchor="middle" x="887.5" y="-335.5" font-family="Helvetica,sans-Serif" font-size="10.00">GAPopulation</text>
</a>
</g>
</g>
<!-- Node2&#45;&gt;Node4 -->
<g id="edge8" class="edge">
<title>Node2&#45;&gt;Node4</title>
<path fill="none" stroke="#9a32cd" stroke-dasharray="5,2" d="M532.21,-279.54C593.94,-273.65 687.62,-269.48 767,-286 805.99,-294.11 847.85,-315.65 870.21,-328.32"/>
<polygon fill="#9a32cd" stroke="#9a32cd" points="531.81,-276.06 522.2,-280.53 532.5,-283.03 531.81,-276.06"/>
<text text-anchor="middle" x="715" y="-289" font-family="Helvetica,sans-Serif" font-size="10.00"> ga</text>
</g>
<!-- Node8 -->
<g id="node8" class="node">
<title>Node8</title>
<g id="a_node8"><a xlink:href="classGAGenome.html" target="_top" xlink:title=" ">
<polygon fill="white" stroke="black" points="679,-366.5 679,-385.5 751,-385.5 751,-366.5 679,-366.5"/>
<text text-anchor="middle" x="715" y="-373.5" font-family="Helvetica,sans-Serif" font-size="10.00">GAGenome</text>
</a>
</g>
</g>
<!-- Node2&#45;&gt;Node8 -->
<g id="edge16" class="edge">
<title>Node2&#45;&gt;Node8</title>
<path fill="none" stroke="#9a32cd" stroke-dasharray="5,2" d="M532.28,-299.13C578.97,-307.12 634.58,-317.28 645,-322 669.11,-332.92 692.32,-353.94 704.72,-366.29"/>
<polygon fill="#9a32cd" stroke="#9a32cd" points="532.62,-295.63 522.17,-297.41 531.44,-302.53 532.62,-295.63"/>
<text text-anchor="middle" x="592.5" y="-325" font-family="Helvetica,sans-Serif" font-size="10.00"> ga</text>
</g>
<!-- Node3 -->
<g id="node3" class="node">
<title>Node3</title>
<g id="a_node3"><a xlink:href="classGAID.html" target="_top" xlink:title=" ">
<polygon fill="white" stroke="black" points="260.5,-420.5 260.5,-439.5 301.5,-439.5 301.5,-420.5 260.5,-420.5"/>
<text text-anchor="middle" x="281" y="-427.5" font-family="Helvetica,sans-Serif" font-size="10.00">GAID</text>
</a>
</g>
</g>
<!-- Node3&#45;&gt;Node2 -->
<g id="edge2" class="edge">
<title>Node3&#45;&gt;Node2</title>
<path fill="none" stroke="midnightblue" d="M302.05,-414.17C315.13,-403.86 332.57,-390.12 348,-378 385.29,-348.72 429.46,-314.19 450.57,-297.71"/>
<polygon fill="midnightblue" stroke="midnightblue" points="299.84,-411.46 294.16,-420.4 304.17,-416.96 299.84,-411.46"/>
</g>
<!-- Node3&#45;&gt;Node4 -->
<g id="edge5" class="edge">
<title>Node3&#45;&gt;Node4</title>
<path fill="none" stroke="midnightblue" d="M312.22,-428.4C388.66,-423.92 587.69,-409.47 645,-378 655.77,-372.08 652.06,-362.61 663,-357 721.05,-327.26 798.82,-328.3 845.65,-332.58"/>
<polygon fill="midnightblue" stroke="midnightblue" points="311.65,-424.92 301.87,-428.99 312.05,-431.91 311.65,-424.92"/>
</g>
<!-- Node5 -->
<g id="node5" class="node">
<title>Node5</title>
<g id="a_node5"><a xlink:href="classGAScalingScheme.html" target="_top" xlink:title=" ">
<polygon fill="white" stroke="black" points="540,-532.5 540,-551.5 645,-551.5 645,-532.5 540,-532.5"/>
<text text-anchor="middle" x="592.5" y="-539.5" font-family="Helvetica,sans-Serif" font-size="10.00">GAScalingScheme</text>
</a>
</g>
</g>
<!-- Node3&#45;&gt;Node5 -->
<g id="edge7" class="edge">
<title>Node3&#45;&gt;Node5</title>
<path fill="none" stroke="midnightblue" d="M304.25,-445.21C328.34,-461.03 368.37,-485.48 406,-500 449.74,-516.88 502.03,-527.96 539.93,-534.47"/>
<polygon fill="midnightblue" stroke="midnightblue" points="306.1,-442.24 295.84,-439.61 302.22,-448.07 306.1,-442.24"/>
</g>
<!-- Node6 -->
<g id="node6" class="node">
<title>Node6</title>
<g id="a_node6"><a xlink:href="classGASelectionScheme.html" target="_top" xlink:title=" ">
<polygon fill="white" stroke="black" points="1029,-362.5 1029,-381.5 1144,-381.5 1144,-362.5 1029,-362.5"/>
<text text-anchor="middle" x="1086.5" y="-369.5" font-family="Helvetica,sans-Serif" font-size="10.00">GASelectionScheme</text>
</a>
</g>
</g>
<!-- Node3&#45;&gt;Node6 -->
<g id="edge11" class="edge">
<title>Node3&#45;&gt;Node6</title>
<path fill="none" stroke="midnightblue" d="M291.45,-448.7C314.48,-491.31 377.89,-592 463,-592 463,-592 463,-592 888.5,-592 1003.09,-592 1067.75,-424.31 1082.32,-381.74"/>
<polygon fill="midnightblue" stroke="midnightblue" points="294.45,-446.88 286.7,-439.65 288.25,-450.13 294.45,-446.88"/>
</g>
<!-- Node3&#45;&gt;Node8 -->
<g id="edge15" class="edge">
<title>Node3&#45;&gt;Node8</title>
<path fill="none" stroke="midnightblue" d="M311.98,-431.45C374.78,-433.74 524.28,-435.3 645,-406 663.41,-401.53 683.1,-392.5 696.71,-385.51"/>
<polygon fill="midnightblue" stroke="midnightblue" points="311.77,-427.94 301.64,-431.04 311.49,-434.93 311.77,-427.94"/>
</g>
<!-- Node4&#45;&gt;Node1 -->
<g id="edge29" class="edge">
<title>Node4&#45;&gt;Node1</title>
<path fill="none" stroke="#9a32cd" stroke-dasharray="5,2" d="M919.67,-324.24C959.91,-306.46 1028.92,-275.99 1063.87,-260.55"/>
<polygon fill="#9a32cd" stroke="#9a32cd" points="918.07,-321.12 910.34,-328.36 920.9,-327.52 918.07,-321.12"/>
<text text-anchor="middle" x="986.5" y="-308" font-family="Helvetica,sans-Serif" font-size="10.00"> oldPop</text>
</g>
<!-- Node4&#45;&gt;Node2 -->
<g id="edge4" class="edge">
<title>Node4&#45;&gt;Node2</title>
<path fill="none" stroke="#9a32cd" stroke-dasharray="5,2" d="M836.77,-326.25C815.4,-321.55 790.07,-316.44 767,-313 682.18,-300.35 582.94,-293.67 522.03,-290.49"/>
<polygon fill="#9a32cd" stroke="#9a32cd" points="836.08,-329.68 846.6,-328.44 837.61,-322.85 836.08,-329.68"/>
<text text-anchor="middle" x="715" y="-316" font-family="Helvetica,sans-Serif" font-size="10.00"> pop</text>
</g>
<!-- Node4&#45;&gt;Node4 -->
<g id="edge9" class="edge">
<title>Node4&#45;&gt;Node4</title>
<path fill="none" stroke="#9a32cd" stroke-dasharray="5,2" d="M871.2,-357.4C872.29,-362.31 877.72,-366 887.5,-366 903.14,-366 907.66,-356.57 901.06,-347.76"/>
<polygon fill="#9a32cd" stroke="#9a32cd" points="874.58,-358.33 873.94,-347.76 867.84,-356.42 874.58,-358.33"/>
<text text-anchor="middle" x="887.5" y="-380" font-family="Helvetica,sans-Serif" font-size="10.00"> eval</text>
<text text-anchor="middle" x="887.5" y="-369" font-family="Helvetica,sans-Serif" font-size="10.00">init</text>
</g>
<!-- Node4&#45;&gt;Node6 -->
<g id="edge12" class="edge">
<title>Node4&#45;&gt;Node6</title>
<path fill="none" stroke="#9a32cd" stroke-dasharray="5,2" d="M939.49,-332.46C961.7,-331.36 987.88,-331.84 1011,-337 1032.76,-341.86 1055.66,-353.79 1070.24,-362.37"/>
<polygon fill="#9a32cd" stroke="#9a32cd" points="939.03,-328.98 929.26,-333.09 939.46,-335.97 939.03,-328.98"/>
<text text-anchor="middle" x="986.5" y="-340" font-family="Helvetica,sans-Serif" font-size="10.00"> pop</text>
</g>
<!-- Node9 -->
<g id="node9" class="node">
<title>Node9</title>
<g id="a_node9"><a xlink:href="classGAStatistics.html" target="_top" xlink:title=" ">
<polygon fill="white" stroke="black" points="1048.5,-108.5 1048.5,-127.5 1124.5,-127.5 1124.5,-108.5 1048.5,-108.5"/>
<text text-anchor="middle" x="1086.5" y="-115.5" font-family="Helvetica,sans-Serif" font-size="10.00">GAStatistics</text>
</a>
</g>
</g>
<!-- Node4&#45;&gt;Node9 -->
<g id="edge20" class="edge">
<title>Node4&#45;&gt;Node9</title>
<path fill="none" stroke="#9a32cd" stroke-dasharray="5,2" d="M904.01,-320.68C943.41,-276.68 1046.4,-161.66 1076.88,-127.62"/>
<polygon fill="#9a32cd" stroke="#9a32cd" points="901.28,-318.48 897.22,-328.26 906.5,-323.15 901.28,-318.48"/>
<text text-anchor="middle" x="986.5" y="-258" font-family="Helvetica,sans-Serif" font-size="10.00"> boa</text>
</g>
<!-- Node5&#45;&gt;Node4 -->
<g id="edge6" class="edge">
<title>Node5&#45;&gt;Node4</title>
<path fill="none" stroke="#9a32cd" stroke-dasharray="5,2" d="M655.21,-551.86C702.92,-555.99 768.18,-553.61 813,-520 871.34,-476.25 883.5,-378.46 885.93,-347.56"/>
<polygon fill="#9a32cd" stroke="#9a32cd" points="655.3,-548.36 645.01,-550.86 654.62,-555.32 655.3,-548.36"/>
<text text-anchor="middle" x="715" y="-556" font-family="Helvetica,sans-Serif" font-size="10.00"> sclscm</text>
</g>
<!-- Node6&#45;&gt;Node4 -->
<g id="edge10" class="edge">
<title>Node6&#45;&gt;Node4</title>
<path fill="none" stroke="#9a32cd" stroke-dasharray="5,2" d="M1020.19,-360.73C990.19,-355.55 955.54,-349.57 929.32,-345.04"/>
<polygon fill="#9a32cd" stroke="#9a32cd" points="1019.71,-364.2 1030.16,-362.45 1020.9,-357.3 1019.71,-364.2"/>
<text text-anchor="middle" x="986.5" y="-363" font-family="Helvetica,sans-Serif" font-size="10.00"> slct</text>
</g>
<!-- Node7 -->
<g id="node7" class="node">
<title>Node7</title>
<g id="a_node7"><a xlink:href="classGAEvalData.html" target="_top" xlink:title=" ">
<polygon fill="white" stroke="black" points="426.5,-471.5 426.5,-490.5 501.5,-490.5 501.5,-471.5 426.5,-471.5"/>
<text text-anchor="middle" x="464" y="-478.5" font-family="Helvetica,sans-Serif" font-size="10.00">GAEvalData</text>
</a>
</g>
</g>
<!-- Node7&#45;&gt;Node4 -->
<g id="edge13" class="edge">
<title>Node7&#45;&gt;Node4</title>
<path fill="none" stroke="#9a32cd" stroke-dasharray="5,2" d="M510.35,-492.84C572.22,-506.4 684.79,-521.68 767,-479 826.24,-448.25 868.1,-374.39 881.72,-347.77"/>
<polygon fill="#9a32cd" stroke="#9a32cd" points="511.03,-489.4 500.5,-490.6 509.48,-496.23 511.03,-489.4"/>
<text text-anchor="middle" x="715" y="-508" font-family="Helvetica,sans-Serif" font-size="10.00"> evaldata</text>
</g>
<!-- Node7&#45;&gt;Node8 -->
<g id="edge17" class="edge">
<title>Node7&#45;&gt;Node8</title>
<path fill="none" stroke="#9a32cd" stroke-dasharray="5,2" d="M511.78,-478.68C549.64,-475.14 603.33,-466.25 645,-444 672.3,-429.42 696,-400.67 707.17,-385.65"/>
<polygon fill="#9a32cd" stroke="#9a32cd" points="511.21,-475.22 501.54,-479.54 511.8,-482.19 511.21,-475.22"/>
<text text-anchor="middle" x="592.5" y="-478" font-family="Helvetica,sans-Serif" font-size="10.00"> evd</text>
</g>
<!-- Node8&#45;&gt;Node2 -->
<g id="edge28" class="edge">
<title>Node8&#45;&gt;Node2</title>
<path fill="none" stroke="#9a32cd" stroke-dasharray="5,2" d="M668.55,-368.61C632.74,-361.89 582.02,-350.34 540,-333 516.98,-323.5 492.67,-307.7 478.18,-297.58"/>
<polygon fill="#9a32cd" stroke="#9a32cd" points="668.23,-372.11 678.7,-370.47 669.49,-365.23 668.23,-372.11"/>
<text text-anchor="middle" x="592.5" y="-377" font-family="Helvetica,sans-Serif" font-size="10.00"> across</text>
<text text-anchor="middle" x="592.5" y="-366" font-family="Helvetica,sans-Serif" font-size="10.00">scross</text>
</g>
<!-- Node8&#45;&gt;Node4 -->
<g id="edge14" class="edge">
<title>Node8&#45;&gt;Node4</title>
<path fill="none" stroke="#9a32cd" stroke-dasharray="5,2" d="M761.41,-365.88C787.66,-360.03 820.42,-352.73 845.83,-347.06"/>
<polygon fill="#9a32cd" stroke="#9a32cd" points="760.33,-362.53 751.33,-368.13 761.85,-369.37 760.33,-362.53"/>
<text text-anchor="middle" x="799" y="-375" font-family="Helvetica,sans-Serif" font-size="10.00"> rind</text>
<text text-anchor="middle" x="799" y="-364" font-family="Helvetica,sans-Serif" font-size="10.00">sind</text>
</g>
<!-- Node8&#45;&gt;Node8 -->
<g id="edge18" class="edge">
<title>Node8&#45;&gt;Node8</title>
<path fill="none" stroke="#9a32cd" stroke-dasharray="5,2" d="M699.53,-395.77C700.75,-400.5 705.9,-404 715,-404 729.93,-404 734.25,-394.57 727.95,-385.76"/>
<polygon fill="#9a32cd" stroke="#9a32cd" points="703,-396.31 702.05,-385.76 696.22,-394.6 703,-396.31"/>
<text text-anchor="middle" x="715" y="-462" font-family="Helvetica,sans-Serif" font-size="10.00"> asexcross</text>
<text text-anchor="middle" x="715" y="-451" font-family="Helvetica,sans-Serif" font-size="10.00">cmp</text>
<text text-anchor="middle" x="715" y="-440" font-family="Helvetica,sans-Serif" font-size="10.00">eval</text>
<text text-anchor="middle" x="715" y="-429" font-family="Helvetica,sans-Serif" font-size="10.00">init</text>
<text text-anchor="middle" x="715" y="-418" font-family="Helvetica,sans-Serif" font-size="10.00">mutr</text>
<text text-anchor="middle" x="715" y="-407" font-family="Helvetica,sans-Serif" font-size="10.00">sexcross</text>
</g>
<!-- Node9&#45;&gt;Node2 -->
<g id="edge19" class="edge">
<title>Node9&#45;&gt;Node2</title>
<path fill="none" stroke="#9a32cd" stroke-dasharray="5,2" d="M1038.22,-111.2C958.19,-101.62 792.13,-90.12 663,-137 577.67,-167.98 499.1,-249.74 473.62,-278.13"/>
<polygon fill="#9a32cd" stroke="#9a32cd" points="1038.11,-114.71 1048.47,-112.47 1038.98,-107.77 1038.11,-114.71"/>
<text text-anchor="middle" x="799" y="-112" font-family="Helvetica,sans-Serif" font-size="10.00"> stats</text>
</g>
<!-- Node10 -->
<g id="node10" class="node">
<title>Node10</title>
<g id="a_node10"><a xlink:title=" ">
<polygon fill="white" stroke="#bfbfbf" points="855,-149.5 855,-168.5 920,-168.5 920,-149.5 855,-149.5"/>
<text text-anchor="middle" x="887.5" y="-156.5" font-family="Helvetica,sans-Serif" font-size="10.00">std::string</text>
</a>
</g>
</g>
<!-- Node10&#45;&gt;Node9 -->
<g id="edge21" class="edge">
<title>Node10&#45;&gt;Node9</title>
<path fill="none" stroke="#9a32cd" stroke-dasharray="5,2" d="M930.05,-150.35C965,-143.08 1014.52,-132.77 1048.21,-125.76"/>
<polygon fill="#9a32cd" stroke="#9a32cd" points="929.23,-146.95 920.15,-152.41 930.65,-153.8 929.23,-146.95"/>
<text text-anchor="middle" x="986.5" y="-147" font-family="Helvetica,sans-Serif" font-size="10.00"> scorefile</text>
</g>
<!-- Node11 -->
<g id="node11" class="node">
<title>Node11</title>
<g id="a_node11"><a xlink:title=" ">
<polygon fill="white" stroke="#bfbfbf" points="663,-147 663,-177 767,-177 767,-147 663,-147"/>
<text text-anchor="start" x="671" y="-165" font-family="Helvetica,sans-Serif" font-size="10.00">std::basic_string&lt;</text>
<text text-anchor="middle" x="715" y="-154" font-family="Helvetica,sans-Serif" font-size="10.00"> Char &gt;</text>
</a>
</g>
</g>
<!-- Node11&#45;&gt;Node10 -->
<g id="edge22" class="edge">
<title>Node11&#45;&gt;Node10</title>
<path fill="none" stroke="midnightblue" d="M777.42,-160.92C803.68,-160.46 833.23,-159.94 854.94,-159.56"/>
<polygon fill="midnightblue" stroke="midnightblue" points="777.09,-157.42 767.16,-161.1 777.22,-164.42 777.09,-157.42"/>
</g>
<!-- Node12 -->
<g id="node12" class="node">
<title>Node12</title>
<g id="a_node12"><a xlink:title=" ">
<polygon fill="white" stroke="#bfbfbf" points="831,-38.5 831,-57.5 944,-57.5 944,-38.5 831,-38.5"/>
<text text-anchor="middle" x="887.5" y="-45.5" font-family="Helvetica,sans-Serif" font-size="10.00">std::vector&lt; float &gt;</text>
</a>
</g>
</g>
<!-- Node12&#45;&gt;Node9 -->
<g id="edge23" class="edge">
<title>Node12&#45;&gt;Node9</title>
<path fill="none" stroke="#9a32cd" stroke-dasharray="5,2" d="M954.14,-39.81C973.04,-39.75 993.32,-41.99 1011,-49 1041.64,-61.16 1067.27,-92.37 1078.86,-108.31"/>
<polygon fill="#9a32cd" stroke="#9a32cd" points="954.02,-36.31 944.11,-40.05 954.19,-43.31 954.02,-36.31"/>
<text text-anchor="middle" x="986.5" y="-96" font-family="Helvetica,sans-Serif" font-size="10.00"> aveScore</text>
<text text-anchor="middle" x="986.5" y="-85" font-family="Helvetica,sans-Serif" font-size="10.00">devScore</text>
<text text-anchor="middle" x="986.5" y="-74" font-family="Helvetica,sans-Serif" font-size="10.00">divScore</text>
<text text-anchor="middle" x="986.5" y="-63" font-family="Helvetica,sans-Serif" font-size="10.00">maxScore</text>
<text text-anchor="middle" x="986.5" y="-52" font-family="Helvetica,sans-Serif" font-size="10.00">minScore</text>
</g>
<!-- Node13 -->
<g id="node13" class="node">
<title>Node13</title>
<g id="a_node13"><a xlink:title=" ">
<polygon fill="white" stroke="#bfbfbf" points="835.5,-0.5 835.5,-19.5 939.5,-19.5 939.5,-0.5 835.5,-0.5"/>
<text text-anchor="middle" x="887.5" y="-7.5" font-family="Helvetica,sans-Serif" font-size="10.00">std::vector&lt; int &gt;</text>
</a>
</g>
</g>
<!-- Node13&#45;&gt;Node9 -->
<g id="edge24" class="edge">
<title>Node13&#45;&gt;Node9</title>
<path fill="none" stroke="#9a32cd" stroke-dasharray="5,2" d="M949.96,-8.41C970.43,-10.18 992.67,-14.78 1011,-25 1046.42,-44.75 1071.27,-88.77 1080.98,-108.32"/>
<polygon fill="#9a32cd" stroke="#9a32cd" points="949.97,-4.9 939.76,-7.73 949.51,-11.88 949.97,-4.9"/>
<text text-anchor="middle" x="986.5" y="-28" font-family="Helvetica,sans-Serif" font-size="10.00"> gen</text>
</g>
<!-- Node14 -->
<g id="node14" class="node">
<title>Node14</title>
<g id="a_node14"><a xlink:href="classGAParameterList.html" target="_top" xlink:title="Parameter List.">
<polygon fill="white" stroke="black" points="232,-278.5 232,-297.5 330,-297.5 330,-278.5 232,-278.5"/>
<text text-anchor="middle" x="281" y="-285.5" font-family="Helvetica,sans-Serif" font-size="10.00">GAParameterList</text>
</a>
</g>
</g>
<!-- Node14&#45;&gt;Node2 -->
<g id="edge25" class="edge">
<title>Node14&#45;&gt;Node2</title>
<path fill="none" stroke="#9a32cd" stroke-dasharray="5,2" d="M340.1,-288C361.11,-288 384.79,-288 405.72,-288"/>
<polygon fill="#9a32cd" stroke="#9a32cd" points="340.03,-284.5 330.03,-288 340.03,-291.5 340.03,-284.5"/>
<text text-anchor="middle" x="368" y="-291" font-family="Helvetica,sans-Serif" font-size="10.00"> params</text>
</g>
<!-- Node15 -->
<g id="node15" class="node">
<title>Node15</title>
<g id="a_node15"><a xlink:title=" ">
<polygon fill="white" stroke="#bfbfbf" points="114,-278.5 114,-297.5 195,-297.5 195,-278.5 114,-278.5"/>
<text text-anchor="middle" x="154.5" y="-285.5" font-family="Helvetica,sans-Serif" font-size="10.00">std::list&lt; T &gt;</text>
</a>
</g>
</g>
<!-- Node15&#45;&gt;Node14 -->
<g id="edge26" class="edge">
<title>Node15&#45;&gt;Node14</title>
<path fill="none" stroke="midnightblue" d="M205.33,-288C214.1,-288 223.21,-288 231.93,-288"/>
<polygon fill="midnightblue" stroke="midnightblue" points="205.23,-284.5 195.23,-288 205.23,-291.5 205.23,-284.5"/>
</g>
<!-- Node16 -->
<g id="node16" class="node">
<title>Node16</title>
<g id="a_node16"><a xlink:title=" ">
<polygon fill="white" stroke="#bfbfbf" points="0,-278.5 0,-297.5 29,-297.5 29,-278.5 0,-278.5"/>
<text text-anchor="middle" x="14.5" y="-285.5" font-family="Helvetica,sans-Serif" font-size="10.00">T</text>
</a>
</g>
</g>
<!-- Node16&#45;&gt;Node15 -->
<g id="edge27" class="edge">
<title>Node16&#45;&gt;Node15</title>
<path fill="none" stroke="#9a32cd" stroke-dasharray="5,2" d="M39.28,-288C59.79,-288 89.81,-288 113.93,-288"/>
<polygon fill="#9a32cd" stroke="#9a32cd" points="39.24,-284.5 29.24,-288 39.24,-291.5 39.24,-284.5"/>
<text text-anchor="middle" x="71.5" y="-291" font-family="Helvetica,sans-Serif" font-size="10.00"> elements</text>
</g>
</g>
</svg>
        <g id="navigator" transform="translate(0 0)" fill="#404254">
                <rect fill="#f2f5e9" fill-opacity="0.5" stroke="#606060" stroke-width=".5" x="0" y="0" width="60" height="60"/>
                <use id="zoomplus" xlink:href="#zoomPlus" x="17" y="9" onmousedown="handleZoom(evt,'in')"/>
                <use id="zoomminus" xlink:href="#zoomMin" x="42" y="9" onmousedown="handleZoom(evt,'out')"/>
                <use id="reset" xlink:href="#resetDef" x="30" y="36" onmousedown="handleReset()"/>
                <g id="arrowUp" xlink:href="#dirArrow" transform="translate(30 24)" onmousedown="handlePan(0,-1)">
                  <use xlink:href="#rim" fill="#404040">
                        <set attributeName="fill" to="#808080" begin="arrowUp.mouseover" end="arrowUp.mouseout"/>
                  </use>
                  <path fill="none" stroke="white" stroke-width="1.5" d="M0,-3.0v7 M-2.5,-0.5L0,-3.0L2.5,-0.5"/>
                </g>
                <g id="arrowRight" xlink:href="#dirArrow" transform="rotate(90) translate(36 -43)" onmousedown="handlePan(1,0)">
                  <use xlink:href="#rim" fill="#404040">
                        <set attributeName="fill" to="#808080" begin="arrowRight.mouseover" end="arrowRight.mouseout"/>
                  </use>
                  <path fill="none" stroke="white" stroke-width="1.5" d="M0,-3.0v7 M-2.5,-0.5L0,-3.0L2.5,-0.5"/>
                </g>
                <g id="arrowDown" xlink:href="#dirArrow" transform="rotate(180) translate(-30 -48)" onmousedown="handlePan(0,1)">
                  <use xlink:href="#rim" fill="#404040">
                        <set attributeName="fill" to="#808080" begin="arrowDown.mouseover" end="arrowDown.mouseout"/>
                  </use>
                  <path fill="none" stroke="white" stroke-width="1.5" d="M0,-3.0v7 M-2.5,-0.5L0,-3.0L2.5,-0.5"/>
                </g>
                <g id="arrowLeft" xlink:href="#dirArrow" transform="rotate(270) translate(-36 17)" onmousedown="handlePan(-1,0)">
                  <use xlink:href="#rim" fill="#404040">
                        <set attributeName="fill" to="#808080" begin="arrowLeft.mouseover" end="arrowLeft.mouseout"/>
                  </use>
                  <path fill="none" stroke="white" stroke-width="1.5" d="M0,-3.0v7 M-2.5,-0.5L0,-3.0L2.5,-0.5"/>
                </g>
        </g>
        <svg viewBox="0 0 15 15" width="100%" height="30px" preserveAspectRatio="xMaxYMin meet">
         <g id="arrow_out" transform="scale(0.3 0.3)">
          <a xlink:href="classGASimpleGA__coll__graph_org.svg" target="_base">
           <rect id="button" ry="5" rx="5" y="6" x="6" height="38" width="38"
                fill="#f2f5e9" fill-opacity="0.5" stroke="#606060" stroke-width="1.0"/>
           <path id="arrow"
             d="M 11.500037,31.436501 C 11.940474,20.09759 22.043105,11.32322 32.158766,21.979434 L 37.068811,17.246167 C 37.068811,17.246167 37.088388,32 37.088388,32 L 22.160133,31.978069 C 22.160133,31.978069 26.997745,27.140456 26.997745,27.140456 C 18.528582,18.264221 13.291696,25.230495 11.500037,31.436501 z"
             style="fill:#404040;"/>
          </a>
         </g>
        </svg>
</svg>
