<?xml version="1.0" encoding="UTF-8" standalone="no"?>
<!DOCTYPE svg PUBLIC "-//W3C//DTD SVG 1.1//EN"
 "http://www.w3.org/Graphics/SVG/1.1/DTD/svg11.dtd">
<!-- Generated by graphviz version 2.43.0 (0)
 -->
<!-- Title: GATreeGenome&lt; T &gt; Pages: 1 -->
<!--zoomable 526 -->
<svg id="main" version="1.1" xmlns="http://www.w3.org/2000/svg" xmlns:xlink="http://www.w3.org/1999/xlink" xml:space="preserve" onload="init(evt)">
<style type="text/css"><![CDATA[
.edge:hover path { stroke: red; }
.edge:hover polygon { stroke: red; fill: red; }
]]></style>
<script type="text/javascript"><![CDATA[
var edges = document.getElementsByTagName('g');
if (edges && edges.length) {
  for (var i=0;i<edges.length;i++) {
    if (edges[i].id.substr(0,4)=='edge') {
      edges[i].setAttribute('class','edge');
    }
  }
}
]]></script>
        <defs>
                <circle id="rim" cx="0" cy="0" r="7"/>
                <circle id="rim2" cx="0" cy="0" r="3.5"/>
                <g id="zoomPlus">
                        <use xlink:href="#rim" fill="#404040">
                                <set attributeName="fill" to="#808080" begin="zoomplus.mouseover" end="zoomplus.mouseout"/>
                        </use>
                        <path d="M-4,0h8M0,-4v8" fill="none" stroke="white" stroke-width="1.5" pointer-events="none"/>
                </g>
                <g id="zoomMin">
                        <use xlink:href="#rim" fill="#404040">
                                <set attributeName="fill" to="#808080" begin="zoomminus.mouseover" end="zoomminus.mouseout"/>
                        </use>
                        <path d="M-4,0h8" fill="none" stroke="white" stroke-width="1.5" pointer-events="none"/>
                </g>
                <g id="dirArrow">
                        <path fill="none" stroke="white" stroke-width="1.5" d="M0,-3.0v7 M-2.5,-0.5L0,-3.0L2.5,-0.5"/>
                </g>
               <g id="resetDef">
                       <use xlink:href="#rim2" fill="#404040">
                               <set attributeName="fill" to="#808080" begin="reset.mouseover" end="reset.mouseout"/>
                       </use>
               </g>
        </defs>

<script type="text/javascript">
var viewWidth = 1044;
var viewHeight = 526;
var sectionId = 'dynsection-1';
</script>
<script xlink:href="svgpan.js"/>
<svg id="graph" class="graph">
<g id="viewport">
<title>GATreeGenome&lt; T &gt;</title>
<polygon fill="white" stroke="transparent" points="-4,4 -4,-521.5 1040,-521.5 1040,4 -4,4"/>
<!-- Node1 -->
<g id="node1" class="node">
<title>Node1</title>
<g id="a_node1"><a xlink:title=" ">
<polygon fill="#bfbfbf" stroke="black" points="545,-275 545,-294 665,-294 665,-275 545,-275"/>
<text text-anchor="middle" x="605" y="-282" font-family="Helvetica,sans-Serif" font-size="10.00">GATreeGenome&lt; T &gt;</text>
</a>
</g>
</g>
<!-- Node2 -->
<g id="node2" class="node">
<title>Node2</title>
<g id="a_node2"><a xlink:href="classGATree.html" target="_top" xlink:title=" ">
<polygon fill="white" stroke="black" points="315.5,-436 315.5,-455 394.5,-455 394.5,-436 315.5,-436"/>
<text text-anchor="middle" x="355" y="-443" font-family="Helvetica,sans-Serif" font-size="10.00">GATree&lt; T &gt;</text>
</a>
</g>
</g>
<!-- Node2&#45;&gt;Node1 -->
<g id="edge1" class="edge">
<title>Node2&#45;&gt;Node1</title>
<path fill="none" stroke="midnightblue" d="M404.76,-438.05C442.08,-430.13 492.78,-414.3 527,-383.5 540.59,-371.27 534.57,-361.52 545,-346.5 559.23,-325.99 580.19,-305.7 592.92,-294.17"/>
<polygon fill="midnightblue" stroke="midnightblue" points="403.74,-434.68 394.62,-440.08 405.11,-441.55 403.74,-434.68"/>
</g>
<!-- Node3 -->
<g id="node3" class="node">
<title>Node3</title>
<g id="a_node3"><a xlink:href="classGATreeBASE.html" target="_top" xlink:title=" ">
<polygon fill="white" stroke="black" points="169.5,-436 169.5,-455 245.5,-455 245.5,-436 169.5,-436"/>
<text text-anchor="middle" x="207.5" y="-443" font-family="Helvetica,sans-Serif" font-size="10.00">GATreeBASE</text>
</a>
</g>
</g>
<!-- Node3&#45;&gt;Node2 -->
<g id="edge2" class="edge">
<title>Node3&#45;&gt;Node2</title>
<path fill="none" stroke="midnightblue" d="M255.71,-445.5C275.04,-445.5 297.12,-445.5 315.45,-445.5"/>
<polygon fill="midnightblue" stroke="midnightblue" points="255.59,-442 245.59,-445.5 255.59,-449 255.59,-442"/>
</g>
<!-- Node4 -->
<g id="node4" class="node">
<title>Node4</title>
<g id="a_node4"><a xlink:href="structGANodeBASE.html" target="_top" xlink:title="This is the basic node object.">
<polygon fill="white" stroke="black" points="0,-436 0,-455 82,-455 82,-436 0,-436"/>
<text text-anchor="middle" x="41" y="-443" font-family="Helvetica,sans-Serif" font-size="10.00">GANodeBASE</text>
</a>
</g>
</g>
<!-- Node4&#45;&gt;Node3 -->
<g id="edge3" class="edge">
<title>Node4&#45;&gt;Node3</title>
<path fill="none" stroke="#9a32cd" stroke-dasharray="5,2" d="M92.57,-445.5C117.4,-445.5 146.78,-445.5 169.49,-445.5"/>
<polygon fill="#9a32cd" stroke="#9a32cd" points="92.24,-442 82.24,-445.5 92.24,-449 92.24,-442"/>
<text text-anchor="middle" x="124.5" y="-448.5" font-family="Helvetica,sans-Serif" font-size="10.00"> rt</text>
</g>
<!-- Node4&#45;&gt;Node4 -->
<g id="edge4" class="edge">
<title>Node4&#45;&gt;Node4</title>
<path fill="none" stroke="#9a32cd" stroke-dasharray="5,2" d="M25.9,-465.27C27.09,-470 32.12,-473.5 41,-473.5 55.57,-473.5 59.79,-464.07 53.64,-455.26"/>
<polygon fill="#9a32cd" stroke="#9a32cd" points="29.37,-465.8 28.36,-455.26 22.57,-464.13 29.37,-465.8"/>
<text text-anchor="middle" x="41" y="-509.5" font-family="Helvetica,sans-Serif" font-size="10.00"> child</text>
<text text-anchor="middle" x="41" y="-498.5" font-family="Helvetica,sans-Serif" font-size="10.00">next</text>
<text text-anchor="middle" x="41" y="-487.5" font-family="Helvetica,sans-Serif" font-size="10.00">parent</text>
<text text-anchor="middle" x="41" y="-476.5" font-family="Helvetica,sans-Serif" font-size="10.00">prev</text>
</g>
<!-- Node5 -->
<g id="node5" class="node">
<title>Node5</title>
<g id="a_node5"><a xlink:href="classGAGenome.html" target="_top" xlink:title="The base genome class just defines the genome interface &#45; how to mutate, crossover,...">
<polygon fill="white" stroke="black" points="319,-191 319,-210 391,-210 391,-191 319,-191"/>
<text text-anchor="middle" x="355" y="-198" font-family="Helvetica,sans-Serif" font-size="10.00">GAGenome</text>
</a>
</g>
</g>
<!-- Node5&#45;&gt;Node1 -->
<g id="edge5" class="edge">
<title>Node5&#45;&gt;Node1</title>
<path fill="none" stroke="midnightblue" d="M374.13,-217.05C386.69,-227.62 404.28,-240.75 422,-248.5 460.96,-265.53 508.13,-274.57 544.69,-279.33"/>
<polygon fill="midnightblue" stroke="midnightblue" points="376.14,-214.16 366.3,-210.24 371.55,-219.44 376.14,-214.16"/>
</g>
<!-- Node5&#45;&gt;Node5 -->
<g id="edge32" class="edge">
<title>Node5&#45;&gt;Node5</title>
<path fill="none" stroke="#9a32cd" stroke-dasharray="5,2" d="M340.64,-220.27C341.76,-225 346.55,-228.5 355,-228.5 368.86,-228.5 372.87,-219.07 367.02,-210.26"/>
<polygon fill="#9a32cd" stroke="#9a32cd" points="344.11,-220.79 342.98,-210.26 337.29,-219.2 344.11,-220.79"/>
<text text-anchor="middle" x="355" y="-286.5" font-family="Helvetica,sans-Serif" font-size="10.00"> asexcross</text>
<text text-anchor="middle" x="355" y="-275.5" font-family="Helvetica,sans-Serif" font-size="10.00">cmp</text>
<text text-anchor="middle" x="355" y="-264.5" font-family="Helvetica,sans-Serif" font-size="10.00">eval</text>
<text text-anchor="middle" x="355" y="-253.5" font-family="Helvetica,sans-Serif" font-size="10.00">init</text>
<text text-anchor="middle" x="355" y="-242.5" font-family="Helvetica,sans-Serif" font-size="10.00">mutr</text>
<text text-anchor="middle" x="355" y="-231.5" font-family="Helvetica,sans-Serif" font-size="10.00">sexcross</text>
</g>
<!-- Node7 -->
<g id="node7" class="node">
<title>Node7</title>
<g id="a_node7"><a xlink:href="classGAGeneticAlgorithm.html" target="_top" xlink:title="The base GA class is virtual &#45; it defines the core data elements and parts of the interface that are ...">
<polygon fill="white" stroke="black" points="547,-150 547,-169 663,-169 663,-150 547,-150"/>
<text text-anchor="middle" x="605" y="-157" font-family="Helvetica,sans-Serif" font-size="10.00">GAGeneticAlgorithm</text>
</a>
</g>
</g>
<!-- Node5&#45;&gt;Node7 -->
<g id="edge30" class="edge">
<title>Node5&#45;&gt;Node7</title>
<path fill="none" stroke="#9a32cd" stroke-dasharray="5,2" d="M375.94,-184.48C388.39,-175.53 405.19,-165.25 422,-160.5 462.6,-149.04 510.35,-149.26 546.75,-152.09"/>
<polygon fill="#9a32cd" stroke="#9a32cd" points="373.6,-181.86 367.71,-190.67 377.81,-187.46 373.6,-181.86"/>
<text text-anchor="middle" x="474.5" y="-174.5" font-family="Helvetica,sans-Serif" font-size="10.00"> across</text>
<text text-anchor="middle" x="474.5" y="-163.5" font-family="Helvetica,sans-Serif" font-size="10.00">scross</text>
</g>
<!-- Node8 -->
<g id="node8" class="node">
<title>Node8</title>
<g id="a_node8"><a xlink:href="classGAPopulation.html" target="_top" xlink:title=" ">
<polygon fill="white" stroke="black" points="738,-226 738,-245 821,-245 821,-226 738,-226"/>
<text text-anchor="middle" x="779.5" y="-233" font-family="Helvetica,sans-Serif" font-size="10.00">GAPopulation</text>
</a>
</g>
</g>
<!-- Node5&#45;&gt;Node8 -->
<g id="edge20" class="edge">
<title>Node5&#45;&gt;Node8</title>
<path fill="none" stroke="#9a32cd" stroke-dasharray="5,2" d="M401.15,-210.22C408.11,-211.48 415.23,-212.63 422,-213.5 535.93,-228.17 671.65,-233.13 737.97,-234.75"/>
<polygon fill="#9a32cd" stroke="#9a32cd" points="401.62,-206.74 391.14,-208.32 400.31,-213.62 401.62,-206.74"/>
<text text-anchor="middle" x="605" y="-245.5" font-family="Helvetica,sans-Serif" font-size="10.00"> rind</text>
<text text-anchor="middle" x="605" y="-234.5" font-family="Helvetica,sans-Serif" font-size="10.00">sind</text>
</g>
<!-- Node6 -->
<g id="node6" class="node">
<title>Node6</title>
<g id="a_node6"><a xlink:href="classGAID.html" target="_top" xlink:title="This defines the identifiers for polymorphic classes.">
<polygon fill="white" stroke="black" points="187,-313 187,-332 228,-332 228,-313 187,-313"/>
<text text-anchor="middle" x="207.5" y="-320" font-family="Helvetica,sans-Serif" font-size="10.00">GAID</text>
</a>
</g>
</g>
<!-- Node6&#45;&gt;Node5 -->
<g id="edge6" class="edge">
<title>Node6&#45;&gt;Node5</title>
<path fill="none" stroke="midnightblue" d="M227.79,-306.33C258.56,-280.52 317.82,-230.83 342.64,-210.03"/>
<polygon fill="midnightblue" stroke="midnightblue" points="225.33,-303.82 219.92,-312.93 229.83,-309.18 225.33,-303.82"/>
</g>
<!-- Node6&#45;&gt;Node7 -->
<g id="edge8" class="edge">
<title>Node6&#45;&gt;Node7</title>
<path fill="none" stroke="midnightblue" d="M216.56,-303.58C230.41,-273.32 261.58,-214.12 306,-181.5 382.21,-125.54 500.94,-138.11 563.03,-149.99"/>
<polygon fill="midnightblue" stroke="midnightblue" points="213.24,-302.43 212.39,-312.99 219.64,-305.26 213.24,-302.43"/>
</g>
<!-- Node6&#45;&gt;Node8 -->
<g id="edge11" class="edge">
<title>Node6&#45;&gt;Node8</title>
<path fill="none" stroke="midnightblue" d="M238.2,-326.21C312.2,-334.41 510,-349.87 665,-303.5 705.93,-291.25 747.3,-260.91 766.86,-245.23"/>
<polygon fill="midnightblue" stroke="midnightblue" points="238.53,-322.73 228.2,-325.06 237.73,-329.68 238.53,-322.73"/>
</g>
<!-- Node9 -->
<g id="node9" class="node">
<title>Node9</title>
<g id="a_node9"><a xlink:href="classGAScalingScheme.html" target="_top" xlink:title=" ">
<polygon fill="white" stroke="black" points="422,-355 422,-374 527,-374 527,-355 422,-355"/>
<text text-anchor="middle" x="474.5" y="-362" font-family="Helvetica,sans-Serif" font-size="10.00">GAScalingScheme</text>
</a>
</g>
</g>
<!-- Node6&#45;&gt;Node9 -->
<g id="edge13" class="edge">
<title>Node6&#45;&gt;Node9</title>
<path fill="none" stroke="midnightblue" d="M238.05,-330.32C246.99,-332.52 256.86,-334.77 266,-336.5 318.69,-346.44 379.55,-354.22 421.67,-359.03"/>
<polygon fill="midnightblue" stroke="midnightblue" points="238.63,-326.86 228.08,-327.81 236.92,-333.65 238.63,-326.86"/>
</g>
<!-- Node10 -->
<g id="node10" class="node">
<title>Node10</title>
<g id="a_node10"><a xlink:href="classGASelectionScheme.html" target="_top" xlink:title=" ">
<polygon fill="white" stroke="black" points="921,-294 921,-313 1036,-313 1036,-294 921,-294"/>
<text text-anchor="middle" x="978.5" y="-301" font-family="Helvetica,sans-Serif" font-size="10.00">GASelectionScheme</text>
</a>
</g>
</g>
<!-- Node6&#45;&gt;Node10 -->
<g id="edge17" class="edge">
<title>Node6&#45;&gt;Node10</title>
<path fill="none" stroke="midnightblue" d="M224.48,-339.59C249.52,-364.41 300.68,-407.5 354,-407.5 354,-407.5 354,-407.5 780.5,-407.5 860.94,-407.5 940.72,-338.84 967.8,-313.1"/>
<polygon fill="midnightblue" stroke="midnightblue" points="226.8,-336.95 217.3,-332.25 221.8,-341.85 226.8,-336.95"/>
</g>
<!-- Node7&#45;&gt;Node5 -->
<g id="edge7" class="edge">
<title>Node7&#45;&gt;Node5</title>
<path fill="none" stroke="#9a32cd" stroke-dasharray="5,2" d="M572.09,-172.75C558.43,-177.87 542.16,-183.28 527,-186.5 480.67,-196.35 425.93,-199.36 391.09,-200.24"/>
<polygon fill="#9a32cd" stroke="#9a32cd" points="573.46,-175.97 581.53,-169.1 570.94,-169.44 573.46,-175.97"/>
<text text-anchor="middle" x="474.5" y="-201.5" font-family="Helvetica,sans-Serif" font-size="10.00"> ga</text>
</g>
<!-- Node7&#45;&gt;Node7 -->
<g id="edge9" class="edge">
<title>Node7&#45;&gt;Node7</title>
<path fill="none" stroke="#9a32cd" stroke-dasharray="5,2" d="M588.7,-178.9C589.79,-183.81 595.22,-187.5 605,-187.5 620.64,-187.5 625.16,-178.07 618.56,-169.26"/>
<polygon fill="#9a32cd" stroke="#9a32cd" points="592.08,-179.83 591.44,-169.26 585.34,-177.92 592.08,-179.83"/>
<text text-anchor="middle" x="605" y="-190.5" font-family="Helvetica,sans-Serif" font-size="10.00"> cf</text>
</g>
<!-- Node7&#45;&gt;Node8 -->
<g id="edge14" class="edge">
<title>Node7&#45;&gt;Node8</title>
<path fill="none" stroke="#9a32cd" stroke-dasharray="5,2" d="M637.02,-173.17C671.59,-188.4 726.6,-212.63 756.83,-225.95"/>
<polygon fill="#9a32cd" stroke="#9a32cd" points="638.41,-169.95 627.85,-169.13 635.59,-176.36 638.41,-169.95"/>
<text text-anchor="middle" x="694" y="-204.5" font-family="Helvetica,sans-Serif" font-size="10.00"> ga</text>
</g>
<!-- Node8&#45;&gt;Node7 -->
<g id="edge10" class="edge">
<title>Node8&#45;&gt;Node7</title>
<path fill="none" stroke="#9a32cd" stroke-dasharray="5,2" d="M764.02,-218.03C750.45,-202.98 728.74,-182.06 705,-171.5 692.03,-165.73 677.21,-162.43 663.06,-160.6"/>
<polygon fill="#9a32cd" stroke="#9a32cd" points="761.47,-220.44 770.68,-225.69 766.75,-215.85 761.47,-220.44"/>
<text text-anchor="middle" x="694" y="-174.5" font-family="Helvetica,sans-Serif" font-size="10.00"> pop</text>
</g>
<!-- Node8&#45;&gt;Node8 -->
<g id="edge15" class="edge">
<title>Node8&#45;&gt;Node8</title>
<path fill="none" stroke="#9a32cd" stroke-dasharray="5,2" d="M764.03,-255.27C765.25,-260 770.4,-263.5 779.5,-263.5 794.43,-263.5 798.75,-254.07 792.45,-245.26"/>
<polygon fill="#9a32cd" stroke="#9a32cd" points="767.5,-255.81 766.55,-245.26 760.72,-254.1 767.5,-255.81"/>
<text text-anchor="middle" x="779.5" y="-277.5" font-family="Helvetica,sans-Serif" font-size="10.00"> eval</text>
<text text-anchor="middle" x="779.5" y="-266.5" font-family="Helvetica,sans-Serif" font-size="10.00">init</text>
</g>
<!-- Node8&#45;&gt;Node10 -->
<g id="edge18" class="edge">
<title>Node8&#45;&gt;Node10</title>
<path fill="none" stroke="#9a32cd" stroke-dasharray="5,2" d="M831.01,-246.98C853.35,-252.6 879.77,-259.99 903,-268.5 922.86,-275.78 944.66,-286.34 959.51,-293.95"/>
<polygon fill="#9a32cd" stroke="#9a32cd" points="831.6,-243.52 821.05,-244.52 829.93,-250.32 831.6,-243.52"/>
<text text-anchor="middle" x="878.5" y="-271.5" font-family="Helvetica,sans-Serif" font-size="10.00"> pop</text>
</g>
<!-- Node12 -->
<g id="node12" class="node">
<title>Node12</title>
<g id="a_node12"><a xlink:href="classGAStatistics.html" target="_top" xlink:title="Statistics class.">
<polygon fill="white" stroke="black" points="940.5,-114 940.5,-133 1016.5,-133 1016.5,-114 940.5,-114"/>
<text text-anchor="middle" x="978.5" y="-121" font-family="Helvetica,sans-Serif" font-size="10.00">GAStatistics</text>
</a>
</g>
</g>
<!-- Node8&#45;&gt;Node12 -->
<g id="edge22" class="edge">
<title>Node8&#45;&gt;Node12</title>
<path fill="none" stroke="#9a32cd" stroke-dasharray="5,2" d="M831.1,-229.99C854.25,-225.79 881.28,-218.42 903,-205.5 934.57,-186.72 960.5,-150.32 971.64,-133.04"/>
<polygon fill="#9a32cd" stroke="#9a32cd" points="830.4,-226.55 821.11,-231.65 831.55,-233.46 830.4,-226.55"/>
<text text-anchor="middle" x="878.5" y="-227.5" font-family="Helvetica,sans-Serif" font-size="10.00"> boa</text>
</g>
<!-- Node9&#45;&gt;Node8 -->
<g id="edge12" class="edge">
<title>Node9&#45;&gt;Node8</title>
<path fill="none" stroke="#9a32cd" stroke-dasharray="5,2" d="M537.18,-369.86C585.98,-371.2 654.12,-366.42 705,-336.5 742.2,-314.63 765.98,-265.73 774.72,-245.04"/>
<polygon fill="#9a32cd" stroke="#9a32cd" points="537.2,-366.36 527.08,-369.49 536.94,-373.35 537.2,-366.36"/>
<text text-anchor="middle" x="605" y="-372.5" font-family="Helvetica,sans-Serif" font-size="10.00"> sclscm</text>
</g>
<!-- Node10&#45;&gt;Node8 -->
<g id="edge16" class="edge">
<title>Node10&#45;&gt;Node8</title>
<path fill="none" stroke="#9a32cd" stroke-dasharray="5,2" d="M910.95,-296.43C892.14,-293.16 871.92,-288.4 854,-281.5 830.54,-272.46 806.41,-255.64 792.47,-245.04"/>
<polygon fill="#9a32cd" stroke="#9a32cd" points="910.51,-299.9 920.94,-298.05 911.63,-293 910.51,-299.9"/>
<text text-anchor="middle" x="878.5" y="-296.5" font-family="Helvetica,sans-Serif" font-size="10.00"> slct</text>
</g>
<!-- Node11 -->
<g id="node11" class="node">
<title>Node11</title>
<g id="a_node11"><a xlink:href="classGAEvalData.html" target="_top" xlink:title="This is the basic interface for the object that contains evaluation data.">
<polygon fill="white" stroke="black" points="170,-50 170,-69 245,-69 245,-50 170,-50"/>
<text text-anchor="middle" x="207.5" y="-57" font-family="Helvetica,sans-Serif" font-size="10.00">GAEvalData</text>
</a>
</g>
</g>
<!-- Node11&#45;&gt;Node5 -->
<g id="edge31" class="edge">
<title>Node11&#45;&gt;Node5</title>
<path fill="none" stroke="#9a32cd" stroke-dasharray="5,2" d="M241.43,-74.03C243.72,-75.43 245.94,-76.92 248,-78.5 292.83,-112.72 332.61,-168.41 347.63,-190.76"/>
<polygon fill="#9a32cd" stroke="#9a32cd" points="242.84,-70.81 232.39,-69.06 239.47,-76.94 242.84,-70.81"/>
<text text-anchor="middle" x="277" y="-116.5" font-family="Helvetica,sans-Serif" font-size="10.00"> evd</text>
</g>
<!-- Node11&#45;&gt;Node8 -->
<g id="edge19" class="edge">
<title>Node11&#45;&gt;Node8</title>
<path fill="none" stroke="#9a32cd" stroke-dasharray="5,2" d="M255.46,-56.79C318.31,-54.37 432.78,-54.21 527,-77.5 611.74,-98.45 635.55,-107.62 705,-160.5 714.51,-167.75 714.75,-171.84 723,-180.5 738.54,-196.8 757.26,-215.09 768.5,-225.93"/>
<polygon fill="#9a32cd" stroke="#9a32cd" points="255.3,-53.29 245.46,-57.21 255.59,-60.29 255.3,-53.29"/>
<text text-anchor="middle" x="474.5" y="-80.5" font-family="Helvetica,sans-Serif" font-size="10.00"> evaldata</text>
</g>
<!-- Node12&#45;&gt;Node7 -->
<g id="edge21" class="edge">
<title>Node12&#45;&gt;Node7</title>
<path fill="none" stroke="#9a32cd" stroke-dasharray="5,2" d="M940.96,-110.81C890.99,-95.34 798.89,-73.57 723,-93.5 681.04,-104.52 638.29,-134.37 618.05,-149.87"/>
<polygon fill="#9a32cd" stroke="#9a32cd" points="940.08,-114.2 950.67,-113.9 942.2,-107.53 940.08,-114.2"/>
<text text-anchor="middle" x="779.5" y="-96.5" font-family="Helvetica,sans-Serif" font-size="10.00"> stats</text>
</g>
<!-- Node13 -->
<g id="node13" class="node">
<title>Node13</title>
<g id="a_node13"><a xlink:title=" ">
<polygon fill="white" stroke="#bfbfbf" points="747,-18 747,-37 812,-37 812,-18 747,-18"/>
<text text-anchor="middle" x="779.5" y="-25" font-family="Helvetica,sans-Serif" font-size="10.00">std::string</text>
</a>
</g>
</g>
<!-- Node13&#45;&gt;Node12 -->
<g id="edge23" class="edge">
<title>Node13&#45;&gt;Node12</title>
<path fill="none" stroke="#9a32cd" stroke-dasharray="5,2" d="M822.2,-33.54C846.73,-38.26 877.79,-46.29 903,-59.5 930.19,-73.74 955.97,-99.6 968.89,-113.69"/>
<polygon fill="#9a32cd" stroke="#9a32cd" points="822.59,-30.05 812.13,-31.72 821.34,-36.94 822.59,-30.05"/>
<text text-anchor="middle" x="878.5" y="-62.5" font-family="Helvetica,sans-Serif" font-size="10.00"> scorefile</text>
</g>
<!-- Node14 -->
<g id="node14" class="node">
<title>Node14</title>
<g id="a_node14"><a xlink:title=" ">
<polygon fill="white" stroke="#bfbfbf" points="553,-0.5 553,-30.5 657,-30.5 657,-0.5 553,-0.5"/>
<text text-anchor="start" x="561" y="-18.5" font-family="Helvetica,sans-Serif" font-size="10.00">std::basic_string&lt;</text>
<text text-anchor="middle" x="605" y="-7.5" font-family="Helvetica,sans-Serif" font-size="10.00"> Char &gt;</text>
</a>
</g>
</g>
<!-- Node14&#45;&gt;Node13 -->
<g id="edge24" class="edge">
<title>Node14&#45;&gt;Node13</title>
<path fill="none" stroke="midnightblue" d="M667.4,-19.77C694.29,-21.64 724.71,-23.76 746.91,-25.3"/>
<polygon fill="midnightblue" stroke="midnightblue" points="667.51,-16.27 657.29,-19.07 667.02,-23.25 667.51,-16.27"/>
</g>
<!-- Node15 -->
<g id="node15" class="node">
<title>Node15</title>
<g id="a_node15"><a xlink:title=" ">
<polygon fill="white" stroke="#bfbfbf" points="723,-152 723,-171 836,-171 836,-152 723,-152"/>
<text text-anchor="middle" x="779.5" y="-159" font-family="Helvetica,sans-Serif" font-size="10.00">std::vector&lt; float &gt;</text>
</a>
</g>
</g>
<!-- Node15&#45;&gt;Node12 -->
<g id="edge25" class="edge">
<title>Node15&#45;&gt;Node12</title>
<path fill="none" stroke="#9a32cd" stroke-dasharray="5,2" d="M839.87,-150.05C872.57,-143.74 912.15,-136.1 940.46,-130.64"/>
<polygon fill="#9a32cd" stroke="#9a32cd" points="839.11,-146.63 829.96,-151.96 840.44,-153.5 839.11,-146.63"/>
<text text-anchor="middle" x="878.5" y="-193.5" font-family="Helvetica,sans-Serif" font-size="10.00"> aveScore</text>
<text text-anchor="middle" x="878.5" y="-182.5" font-family="Helvetica,sans-Serif" font-size="10.00">devScore</text>
<text text-anchor="middle" x="878.5" y="-171.5" font-family="Helvetica,sans-Serif" font-size="10.00">divScore</text>
<text text-anchor="middle" x="878.5" y="-160.5" font-family="Helvetica,sans-Serif" font-size="10.00">maxScore</text>
<text text-anchor="middle" x="878.5" y="-149.5" font-family="Helvetica,sans-Serif" font-size="10.00">minScore</text>
</g>
<!-- Node16 -->
<g id="node16" class="node">
<title>Node16</title>
<g id="a_node16"><a xlink:title=" ">
<polygon fill="white" stroke="#bfbfbf" points="727.5,-114 727.5,-133 831.5,-133 831.5,-114 727.5,-114"/>
<text text-anchor="middle" x="779.5" y="-121" font-family="Helvetica,sans-Serif" font-size="10.00">std::vector&lt; int &gt;</text>
</a>
</g>
</g>
<!-- Node16&#45;&gt;Node12 -->
<g id="edge26" class="edge">
<title>Node16&#45;&gt;Node12</title>
<path fill="none" stroke="#9a32cd" stroke-dasharray="5,2" d="M841.96,-123.5C874.15,-123.5 912.52,-123.5 940.2,-123.5"/>
<polygon fill="#9a32cd" stroke="#9a32cd" points="841.75,-120 831.75,-123.5 841.75,-127 841.75,-120"/>
<text text-anchor="middle" x="878.5" y="-126.5" font-family="Helvetica,sans-Serif" font-size="10.00"> gen</text>
</g>
<!-- Node17 -->
<g id="node17" class="node">
<title>Node17</title>
<g id="a_node17"><a xlink:href="classGAParameterList.html" target="_top" xlink:title="Parameter List.">
<polygon fill="white" stroke="black" points="306,-90 306,-109 404,-109 404,-90 306,-90"/>
<text text-anchor="middle" x="355" y="-97" font-family="Helvetica,sans-Serif" font-size="10.00">GAParameterList</text>
</a>
</g>
</g>
<!-- Node17&#45;&gt;Node7 -->
<g id="edge27" class="edge">
<title>Node17&#45;&gt;Node7</title>
<path fill="none" stroke="#9a32cd" stroke-dasharray="5,2" d="M414.27,-93.45C448.04,-91.91 490.88,-93.4 527,-105.5 554.25,-114.63 580.42,-136.73 594.12,-149.65"/>
<polygon fill="#9a32cd" stroke="#9a32cd" points="413.9,-89.96 404.1,-94.01 414.28,-96.95 413.9,-89.96"/>
<text text-anchor="middle" x="474.5" y="-108.5" font-family="Helvetica,sans-Serif" font-size="10.00"> params</text>
</g>
<!-- Node18 -->
<g id="node18" class="node">
<title>Node18</title>
<g id="a_node18"><a xlink:title=" ">
<polygon fill="white" stroke="#bfbfbf" points="167,-88 167,-107 248,-107 248,-88 167,-88"/>
<text text-anchor="middle" x="207.5" y="-95" font-family="Helvetica,sans-Serif" font-size="10.00">std::list&lt; T &gt;</text>
</a>
</g>
</g>
<!-- Node18&#45;&gt;Node17 -->
<g id="edge28" class="edge">
<title>Node18&#45;&gt;Node17</title>
<path fill="none" stroke="midnightblue" d="M258.22,-98.11C268.09,-98.23 278.37,-98.37 288,-98.5 293.73,-98.58 299.74,-98.67 305.7,-98.75"/>
<polygon fill="midnightblue" stroke="midnightblue" points="258.17,-94.6 248.13,-97.98 258.08,-101.6 258.17,-94.6"/>
</g>
<!-- Node19 -->
<g id="node19" class="node">
<title>Node19</title>
<g id="a_node19"><a xlink:title=" ">
<polygon fill="white" stroke="#bfbfbf" points="26.5,-88 26.5,-107 55.5,-107 55.5,-88 26.5,-88"/>
<text text-anchor="middle" x="41" y="-95" font-family="Helvetica,sans-Serif" font-size="10.00">T</text>
</a>
</g>
</g>
<!-- Node19&#45;&gt;Node18 -->
<g id="edge29" class="edge">
<title>Node19&#45;&gt;Node18</title>
<path fill="none" stroke="#9a32cd" stroke-dasharray="5,2" d="M65.98,-97.5C92.42,-97.5 135.37,-97.5 166.83,-97.5"/>
<polygon fill="#9a32cd" stroke="#9a32cd" points="65.74,-94 55.74,-97.5 65.74,-101 65.74,-94"/>
<text text-anchor="middle" x="124.5" y="-100.5" font-family="Helvetica,sans-Serif" font-size="10.00"> elements</text>
</g>
</g>
</svg>
        <g id="navigator" transform="translate(0 0)" fill="#404254">
                <rect fill="#f2f5e9" fill-opacity="0.5" stroke="#606060" stroke-width=".5" x="0" y="0" width="60" height="60"/>
                <use id="zoomplus" xlink:href="#zoomPlus" x="17" y="9" onmousedown="handleZoom(evt,'in')"/>
                <use id="zoomminus" xlink:href="#zoomMin" x="42" y="9" onmousedown="handleZoom(evt,'out')"/>
                <use id="reset" xlink:href="#resetDef" x="30" y="36" onmousedown="handleReset()"/>
                <g id="arrowUp" xlink:href="#dirArrow" transform="translate(30 24)" onmousedown="handlePan(0,-1)">
                  <use xlink:href="#rim" fill="#404040">
                        <set attributeName="fill" to="#808080" begin="arrowUp.mouseover" end="arrowUp.mouseout"/>
                  </use>
                  <path fill="none" stroke="white" stroke-width="1.5" d="M0,-3.0v7 M-2.5,-0.5L0,-3.0L2.5,-0.5"/>
                </g>
                <g id="arrowRight" xlink:href="#dirArrow" transform="rotate(90) translate(36 -43)" onmousedown="handlePan(1,0)">
                  <use xlink:href="#rim" fill="#404040">
                        <set attributeName="fill" to="#808080" begin="arrowRight.mouseover" end="arrowRight.mouseout"/>
                  </use>
                  <path fill="none" stroke="white" stroke-width="1.5" d="M0,-3.0v7 M-2.5,-0.5L0,-3.0L2.5,-0.5"/>
                </g>
                <g id="arrowDown" xlink:href="#dirArrow" transform="rotate(180) translate(-30 -48)" onmousedown="handlePan(0,1)">
                  <use xlink:href="#rim" fill="#404040">
                        <set attributeName="fill" to="#808080" begin="arrowDown.mouseover" end="arrowDown.mouseout"/>
                  </use>
                  <path fill="none" stroke="white" stroke-width="1.5" d="M0,-3.0v7 M-2.5,-0.5L0,-3.0L2.5,-0.5"/>
                </g>
                <g id="arrowLeft" xlink:href="#dirArrow" transform="rotate(270) translate(-36 17)" onmousedown="handlePan(-1,0)">
                  <use xlink:href="#rim" fill="#404040">
                        <set attributeName="fill" to="#808080" begin="arrowLeft.mouseover" end="arrowLeft.mouseout"/>
                  </use>
                  <path fill="none" stroke="white" stroke-width="1.5" d="M0,-3.0v7 M-2.5,-0.5L0,-3.0L2.5,-0.5"/>
                </g>
        </g>
        <svg viewBox="0 0 15 15" width="100%" height="30px" preserveAspectRatio="xMaxYMin meet">
         <g id="arrow_out" transform="scale(0.3 0.3)">
          <a xlink:href="classGATreeGenome__coll__graph_org.svg" target="_base">
           <rect id="button" ry="5" rx="5" y="6" x="6" height="38" width="38"
                fill="#f2f5e9" fill-opacity="0.5" stroke="#606060" stroke-width="1.0"/>
           <path id="arrow"
             d="M 11.500037,31.436501 C 11.940474,20.09759 22.043105,11.32322 32.158766,21.979434 L 37.068811,17.246167 C 37.068811,17.246167 37.088388,32 37.088388,32 L 22.160133,31.978069 C 22.160133,31.978069 26.997745,27.140456 26.997745,27.140456 C 18.528582,18.264221 13.291696,25.230495 11.500037,31.436501 z"
             style="fill:#404040;"/>
          </a>
         </g>
        </svg>
</svg>
