<?xml version="1.0" encoding="UTF-8" standalone="no"?>
<!DOCTYPE svg PUBLIC "-//W3C//DTD SVG 1.1//EN"
 "http://www.w3.org/Graphics/SVG/1.1/DTD/svg11.dtd">
<!-- Generated by graphviz version 2.43.0 (0)
 -->
<!-- Title: GATreeIterBASE Pages: 1 -->
<svg width="155pt" height="186pt"
 viewBox="0.00 0.00 155.00 186.00" xmlns="http://www.w3.org/2000/svg" xmlns:xlink="http://www.w3.org/1999/xlink">
<g id="graph0" class="graph" transform="scale(1 1) rotate(0) translate(4 182)">
<title>GATreeIterBASE</title>
<polygon fill="white" stroke="transparent" points="-4,4 -4,-182 151,-182 151,4 -4,4"/>
<!-- Node1 -->
<g id="node1" class="node">
<title>Node1</title>
<g id="a_node1"><a xlink:title=" ">
<polygon fill="#bfbfbf" stroke="black" points="8,-0.5 8,-19.5 100,-19.5 100,-0.5 8,-0.5"/>
<text text-anchor="middle" x="54" y="-7.5" font-family="Helvetica,sans-Serif" font-size="10.00">GATreeIterBASE</text>
</a>
</g>
</g>
<!-- Node2 -->
<g id="node2" class="node">
<title>Node2</title>
<g id="a_node2"><a xlink:href="classGATreeBASE.html" target="_top" xlink:title=" ">
<polygon fill="white" stroke="black" points="71,-67.5 71,-86.5 147,-86.5 147,-67.5 71,-67.5"/>
<text text-anchor="middle" x="109" y="-74.5" font-family="Helvetica,sans-Serif" font-size="10.00">GATreeBASE</text>
</a>
</g>
</g>
<!-- Node2&#45;&gt;Node1 -->
<g id="edge1" class="edge">
<title>Node2&#45;&gt;Node1</title>
<path fill="none" stroke="#9a32cd" stroke-dasharray="5,2" d="M94.84,-59.27C84.12,-46.6 69.82,-29.7 61.3,-19.63"/>
<polygon fill="#9a32cd" stroke="#9a32cd" points="92.45,-61.86 101.58,-67.23 97.79,-57.34 92.45,-61.86"/>
<text text-anchor="middle" x="95.5" y="-41" font-family="Helvetica,sans-Serif" font-size="10.00"> tree</text>
</g>
<!-- Node3 -->
<g id="node3" class="node">
<title>Node3</title>
<g id="a_node3"><a xlink:href="structGANodeBASE.html" target="_top" xlink:title="This is the basic node object.">
<polygon fill="white" stroke="black" points="0,-146.5 0,-165.5 82,-165.5 82,-146.5 0,-146.5"/>
<text text-anchor="middle" x="41" y="-153.5" font-family="Helvetica,sans-Serif" font-size="10.00">GANodeBASE</text>
</a>
</g>
</g>
<!-- Node3&#45;&gt;Node1 -->
<g id="edge4" class="edge">
<title>Node3&#45;&gt;Node1</title>
<path fill="none" stroke="#9a32cd" stroke-dasharray="5,2" d="M36.85,-136.48C33.48,-118.59 29.88,-90.77 34,-67 37,-49.71 44.83,-30.69 49.76,-19.86"/>
<polygon fill="#9a32cd" stroke="#9a32cd" points="33.46,-137.35 38.91,-146.44 40.32,-135.94 33.46,-137.35"/>
<text text-anchor="middle" x="48" y="-74.5" font-family="Helvetica,sans-Serif" font-size="10.00"> node</text>
</g>
<!-- Node3&#45;&gt;Node2 -->
<g id="edge2" class="edge">
<title>Node3&#45;&gt;Node2</title>
<path fill="none" stroke="#9a32cd" stroke-dasharray="5,2" d="M55.52,-138.56C69.5,-122.73 90.11,-99.39 101.22,-86.81"/>
<polygon fill="#9a32cd" stroke="#9a32cd" points="52.53,-136.65 48.54,-146.47 57.78,-141.29 52.53,-136.65"/>
<text text-anchor="middle" x="90.5" y="-108" font-family="Helvetica,sans-Serif" font-size="10.00"> rt</text>
</g>
<!-- Node3&#45;&gt;Node3 -->
<g id="edge3" class="edge">
<title>Node3&#45;&gt;Node3</title>
<path fill="none" stroke="#9a32cd" stroke-dasharray="5,2" d="M92.26,-162.59C97.01,-161.23 100,-159.03 100,-156 100,-151.14 92.34,-148.43 82.08,-147.86"/>
<polygon fill="#9a32cd" stroke="#9a32cd" points="91.44,-159.18 82.08,-164.14 92.5,-166.1 91.44,-159.18"/>
<text text-anchor="middle" x="116" y="-170" font-family="Helvetica,sans-Serif" font-size="10.00"> child</text>
<text text-anchor="middle" x="116" y="-159" font-family="Helvetica,sans-Serif" font-size="10.00">next</text>
<text text-anchor="middle" x="116" y="-148" font-family="Helvetica,sans-Serif" font-size="10.00">parent</text>
<text text-anchor="middle" x="116" y="-137" font-family="Helvetica,sans-Serif" font-size="10.00">prev</text>
</g>
</g>
</svg>
