<?xml version="1.0" encoding="UTF-8" standalone="no"?>
<!DOCTYPE svg PUBLIC "-//W3C//DTD SVG 1.1//EN"
 "http://www.w3.org/Graphics/SVG/1.1/DTD/svg11.dtd">
<!-- Generated by graphviz version 2.43.0 (0)
 -->
<!-- Title: GA1DBinaryStringGenome Pages: 1 -->
<svg width="1058pt" height="465pt"
 viewBox="0.00 0.00 1058.00 464.50" xmlns="http://www.w3.org/2000/svg" xmlns:xlink="http://www.w3.org/1999/xlink">
<g id="graph0" class="graph" transform="scale(1 1) rotate(0) translate(4 460.5)">
<title>GA1DBinaryStringGenome</title>
<polygon fill="white" stroke="transparent" points="-4,4 -4,-460.5 1054,-460.5 1054,4 -4,4"/>
<!-- Node1 -->
<g id="node1" class="node">
<title>Node1</title>
<g id="a_node1"><a xlink:title="Interface for the 1D binary string genome, including crossover objects and all the default and built&#45;...">
<polygon fill="#bfbfbf" stroke="black" points="533,-275 533,-294 679,-294 679,-275 533,-275"/>
<text text-anchor="middle" x="606" y="-282" font-family="Helvetica,sans-Serif" font-size="10.00">GA1DBinaryStringGenome</text>
</a>
</g>
</g>
<!-- Node2 -->
<g id="node2" class="node">
<title>Node2</title>
<g id="a_node2"><a xlink:href="classGABinaryString.html" target="_top" xlink:title="This header defines the interface for the binary string.">
<polygon fill="white" stroke="black" points="297.5,-436 297.5,-455 388.5,-455 388.5,-436 297.5,-436"/>
<text text-anchor="middle" x="343" y="-443" font-family="Helvetica,sans-Serif" font-size="10.00">GABinaryString</text>
</a>
</g>
</g>
<!-- Node2&#45;&gt;Node1 -->
<g id="edge1" class="edge">
<title>Node2&#45;&gt;Node1</title>
<path fill="none" stroke="midnightblue" d="M398.64,-437.71C435.37,-429.97 482.76,-414.81 515,-385.5 529.12,-372.66 521.51,-361.74 533,-346.5 549.39,-324.77 574.56,-305.29 590.39,-294.2"/>
<polygon fill="midnightblue" stroke="midnightblue" points="397.72,-434.32 388.59,-439.7 399.08,-441.19 397.72,-434.32"/>
</g>
<!-- Node3 -->
<g id="node3" class="node">
<title>Node3</title>
<g id="a_node3"><a xlink:title=" ">
<polygon fill="white" stroke="#bfbfbf" points="114,-436 114,-455 233,-455 233,-436 114,-436"/>
<text text-anchor="middle" x="173.5" y="-443" font-family="Helvetica,sans-Serif" font-size="10.00">std::vector&lt; GABit &gt;</text>
</a>
</g>
</g>
<!-- Node3&#45;&gt;Node2 -->
<g id="edge2" class="edge">
<title>Node3&#45;&gt;Node2</title>
<path fill="none" stroke="#9a32cd" stroke-dasharray="5,2" d="M243.14,-445.5C261.46,-445.5 280.79,-445.5 297.44,-445.5"/>
<polygon fill="#9a32cd" stroke="#9a32cd" points="243.08,-442 233.08,-445.5 243.08,-449 243.08,-442"/>
<text text-anchor="middle" x="263.5" y="-448.5" font-family="Helvetica,sans-Serif" font-size="10.00"> data</text>
</g>
<!-- Node4 -->
<g id="node4" class="node">
<title>Node4</title>
<g id="a_node4"><a xlink:href="classGAGenome.html" target="_top" xlink:title="The base genome class just defines the genome interface &#45; how to mutate, crossover,...">
<polygon fill="white" stroke="black" points="307,-191 307,-210 379,-210 379,-191 307,-191"/>
<text text-anchor="middle" x="343" y="-198" font-family="Helvetica,sans-Serif" font-size="10.00">GAGenome</text>
</a>
</g>
</g>
<!-- Node4&#45;&gt;Node1 -->
<g id="edge3" class="edge">
<title>Node4&#45;&gt;Node1</title>
<path fill="none" stroke="midnightblue" d="M362.1,-217.12C374.65,-227.73 392.23,-240.87 410,-248.5 448.75,-265.14 495.06,-274.1 532.83,-278.92"/>
<polygon fill="midnightblue" stroke="midnightblue" points="364.11,-214.23 354.28,-210.29 359.51,-219.5 364.11,-214.23"/>
</g>
<!-- Node4&#45;&gt;Node4 -->
<g id="edge30" class="edge">
<title>Node4&#45;&gt;Node4</title>
<path fill="none" stroke="#9a32cd" stroke-dasharray="5,2" d="M328.64,-220.27C329.76,-225 334.55,-228.5 343,-228.5 356.86,-228.5 360.87,-219.07 355.02,-210.26"/>
<polygon fill="#9a32cd" stroke="#9a32cd" points="332.11,-220.79 330.98,-210.26 325.29,-219.2 332.11,-220.79"/>
<text text-anchor="middle" x="343" y="-286.5" font-family="Helvetica,sans-Serif" font-size="10.00"> asexcross</text>
<text text-anchor="middle" x="343" y="-275.5" font-family="Helvetica,sans-Serif" font-size="10.00">cmp</text>
<text text-anchor="middle" x="343" y="-264.5" font-family="Helvetica,sans-Serif" font-size="10.00">eval</text>
<text text-anchor="middle" x="343" y="-253.5" font-family="Helvetica,sans-Serif" font-size="10.00">init</text>
<text text-anchor="middle" x="343" y="-242.5" font-family="Helvetica,sans-Serif" font-size="10.00">mutr</text>
<text text-anchor="middle" x="343" y="-231.5" font-family="Helvetica,sans-Serif" font-size="10.00">sexcross</text>
</g>
<!-- Node6 -->
<g id="node6" class="node">
<title>Node6</title>
<g id="a_node6"><a xlink:href="classGAGeneticAlgorithm.html" target="_top" xlink:title="The base GA class is virtual &#45; it defines the core data elements and parts of the interface that are ...">
<polygon fill="white" stroke="black" points="548,-150 548,-169 664,-169 664,-150 548,-150"/>
<text text-anchor="middle" x="606" y="-157" font-family="Helvetica,sans-Serif" font-size="10.00">GAGeneticAlgorithm</text>
</a>
</g>
</g>
<!-- Node4&#45;&gt;Node6 -->
<g id="edge28" class="edge">
<title>Node4&#45;&gt;Node6</title>
<path fill="none" stroke="#9a32cd" stroke-dasharray="5,2" d="M363.94,-184.48C376.39,-175.53 393.19,-165.24 410,-160.5 455.13,-147.77 508.5,-148.52 547.99,-151.89"/>
<polygon fill="#9a32cd" stroke="#9a32cd" points="361.6,-181.86 355.71,-190.67 365.81,-187.46 361.6,-181.86"/>
<text text-anchor="middle" x="462.5" y="-174.5" font-family="Helvetica,sans-Serif" font-size="10.00"> across</text>
<text text-anchor="middle" x="462.5" y="-163.5" font-family="Helvetica,sans-Serif" font-size="10.00">scross</text>
</g>
<!-- Node7 -->
<g id="node7" class="node">
<title>Node7</title>
<g id="a_node7"><a xlink:href="classGAPopulation.html" target="_top" xlink:title=" ">
<polygon fill="white" stroke="black" points="752,-226 752,-245 835,-245 835,-226 752,-226"/>
<text text-anchor="middle" x="793.5" y="-233" font-family="Helvetica,sans-Serif" font-size="10.00">GAPopulation</text>
</a>
</g>
</g>
<!-- Node4&#45;&gt;Node7 -->
<g id="edge18" class="edge">
<title>Node4&#45;&gt;Node7</title>
<path fill="none" stroke="#9a32cd" stroke-dasharray="5,2" d="M389.17,-209.45C396.13,-210.62 403.24,-211.69 410,-212.5 534.01,-227.45 681.86,-232.84 751.88,-234.65"/>
<polygon fill="#9a32cd" stroke="#9a32cd" points="389.62,-205.98 379.16,-207.7 388.41,-212.87 389.62,-205.98"/>
<text text-anchor="middle" x="606" y="-245.5" font-family="Helvetica,sans-Serif" font-size="10.00"> rind</text>
<text text-anchor="middle" x="606" y="-234.5" font-family="Helvetica,sans-Serif" font-size="10.00">sind</text>
</g>
<!-- Node5 -->
<g id="node5" class="node">
<title>Node5</title>
<g id="a_node5"><a xlink:href="classGAID.html" target="_top" xlink:title="This defines the identifiers for polymorphic classes.">
<polygon fill="white" stroke="black" points="153,-313 153,-332 194,-332 194,-313 153,-313"/>
<text text-anchor="middle" x="173.5" y="-320" font-family="Helvetica,sans-Serif" font-size="10.00">GAID</text>
</a>
</g>
</g>
<!-- Node5&#45;&gt;Node4 -->
<g id="edge4" class="edge">
<title>Node5&#45;&gt;Node4</title>
<path fill="none" stroke="midnightblue" d="M195.8,-306.98C230.96,-281.37 300.11,-231.01 328.92,-210.03"/>
<polygon fill="midnightblue" stroke="midnightblue" points="193.67,-304.21 187.64,-312.93 197.79,-309.87 193.67,-304.21"/>
</g>
<!-- Node5&#45;&gt;Node6 -->
<g id="edge6" class="edge">
<title>Node5&#45;&gt;Node6</title>
<path fill="none" stroke="midnightblue" d="M185.29,-303.97C203.74,-273.86 244.25,-214.4 294,-181.5 375.26,-127.75 496,-138.71 560.53,-149.95"/>
<polygon fill="midnightblue" stroke="midnightblue" points="182.23,-302.26 180.09,-312.64 188.23,-305.86 182.23,-302.26"/>
</g>
<!-- Node5&#45;&gt;Node7 -->
<g id="edge9" class="edge">
<title>Node5&#45;&gt;Node7</title>
<path fill="none" stroke="midnightblue" d="M204.57,-326.45C284.08,-335.83 505.67,-354.98 679,-303.5 719.96,-291.34 761.31,-260.95 780.87,-245.24"/>
<polygon fill="midnightblue" stroke="midnightblue" points="204.66,-322.94 194.31,-325.2 203.81,-329.89 204.66,-322.94"/>
</g>
<!-- Node8 -->
<g id="node8" class="node">
<title>Node8</title>
<g id="a_node8"><a xlink:href="classGAScalingScheme.html" target="_top" xlink:title=" ">
<polygon fill="white" stroke="black" points="410,-357 410,-376 515,-376 515,-357 410,-357"/>
<text text-anchor="middle" x="462.5" y="-364" font-family="Helvetica,sans-Serif" font-size="10.00">GAScalingScheme</text>
</a>
</g>
</g>
<!-- Node5&#45;&gt;Node8 -->
<g id="edge11" class="edge">
<title>Node5&#45;&gt;Node8</title>
<path fill="none" stroke="midnightblue" d="M204.41,-328.26C218.52,-330.9 235.6,-333.99 251,-336.5 305.11,-345.3 367.27,-353.99 409.94,-359.73"/>
<polygon fill="midnightblue" stroke="midnightblue" points="204.75,-324.76 194.28,-326.34 203.45,-331.64 204.75,-324.76"/>
</g>
<!-- Node9 -->
<g id="node9" class="node">
<title>Node9</title>
<g id="a_node9"><a xlink:href="classGASelectionScheme.html" target="_top" xlink:title=" ">
<polygon fill="white" stroke="black" points="935,-294 935,-313 1050,-313 1050,-294 935,-294"/>
<text text-anchor="middle" x="992.5" y="-301" font-family="Helvetica,sans-Serif" font-size="10.00">GASelectionScheme</text>
</a>
</g>
</g>
<!-- Node5&#45;&gt;Node9 -->
<g id="edge15" class="edge">
<title>Node5&#45;&gt;Node9</title>
<path fill="none" stroke="midnightblue" d="M192.63,-338.95C221.82,-363.66 282.05,-407.5 342,-407.5 342,-407.5 342,-407.5 794.5,-407.5 874.94,-407.5 954.72,-338.84 981.8,-313.1"/>
<polygon fill="midnightblue" stroke="midnightblue" points="194.77,-336.17 184.92,-332.25 190.17,-341.45 194.77,-336.17"/>
</g>
<!-- Node6&#45;&gt;Node4 -->
<g id="edge5" class="edge">
<title>Node6&#45;&gt;Node4</title>
<path fill="none" stroke="#9a32cd" stroke-dasharray="5,2" d="M568.92,-172.21C552.64,-177.46 533.05,-183.09 515,-186.5 468.46,-195.29 413.77,-198.56 379,-199.78"/>
<polygon fill="#9a32cd" stroke="#9a32cd" points="570.19,-175.48 578.58,-169.02 567.99,-168.83 570.19,-175.48"/>
<text text-anchor="middle" x="462.5" y="-200.5" font-family="Helvetica,sans-Serif" font-size="10.00"> ga</text>
</g>
<!-- Node6&#45;&gt;Node6 -->
<g id="edge7" class="edge">
<title>Node6&#45;&gt;Node6</title>
<path fill="none" stroke="#9a32cd" stroke-dasharray="5,2" d="M587.11,-178.9C588.37,-183.81 594.67,-187.5 606,-187.5 624.13,-187.5 629.37,-178.07 621.72,-169.26"/>
<polygon fill="#9a32cd" stroke="#9a32cd" points="590.48,-179.85 590.28,-169.26 583.83,-177.67 590.48,-179.85"/>
<text text-anchor="middle" x="606" y="-190.5" font-family="Helvetica,sans-Serif" font-size="10.00"> cf</text>
</g>
<!-- Node6&#45;&gt;Node7 -->
<g id="edge12" class="edge">
<title>Node6&#45;&gt;Node7</title>
<path fill="none" stroke="#9a32cd" stroke-dasharray="5,2" d="M639.88,-172.97C677.03,-188.19 736.55,-212.58 769.2,-225.95"/>
<polygon fill="#9a32cd" stroke="#9a32cd" points="641.07,-169.68 630.49,-169.13 638.42,-176.16 641.07,-169.68"/>
<text text-anchor="middle" x="708" y="-206.5" font-family="Helvetica,sans-Serif" font-size="10.00"> ga</text>
</g>
<!-- Node7&#45;&gt;Node6 -->
<g id="edge8" class="edge">
<title>Node7&#45;&gt;Node6</title>
<path fill="none" stroke="#9a32cd" stroke-dasharray="5,2" d="M778.05,-217.95C764.5,-202.85 742.81,-181.89 719,-171.5 702.06,-164.11 682.37,-160.54 664.26,-158.97"/>
<polygon fill="#9a32cd" stroke="#9a32cd" points="775.51,-220.36 784.7,-225.64 780.8,-215.78 775.51,-220.36"/>
<text text-anchor="middle" x="708" y="-174.5" font-family="Helvetica,sans-Serif" font-size="10.00"> pop</text>
</g>
<!-- Node7&#45;&gt;Node7 -->
<g id="edge13" class="edge">
<title>Node7&#45;&gt;Node7</title>
<path fill="none" stroke="#9a32cd" stroke-dasharray="5,2" d="M778.03,-255.27C779.25,-260 784.4,-263.5 793.5,-263.5 808.43,-263.5 812.75,-254.07 806.45,-245.26"/>
<polygon fill="#9a32cd" stroke="#9a32cd" points="781.5,-255.81 780.55,-245.26 774.72,-254.1 781.5,-255.81"/>
<text text-anchor="middle" x="793.5" y="-277.5" font-family="Helvetica,sans-Serif" font-size="10.00"> eval</text>
<text text-anchor="middle" x="793.5" y="-266.5" font-family="Helvetica,sans-Serif" font-size="10.00">init</text>
</g>
<!-- Node7&#45;&gt;Node9 -->
<g id="edge16" class="edge">
<title>Node7&#45;&gt;Node9</title>
<path fill="none" stroke="#9a32cd" stroke-dasharray="5,2" d="M845.01,-246.98C867.35,-252.6 893.77,-259.99 917,-268.5 936.86,-275.78 958.66,-286.34 973.51,-293.95"/>
<polygon fill="#9a32cd" stroke="#9a32cd" points="845.6,-243.52 835.05,-244.52 843.93,-250.32 845.6,-243.52"/>
<text text-anchor="middle" x="892.5" y="-271.5" font-family="Helvetica,sans-Serif" font-size="10.00"> pop</text>
</g>
<!-- Node11 -->
<g id="node11" class="node">
<title>Node11</title>
<g id="a_node11"><a xlink:href="classGAStatistics.html" target="_top" xlink:title="Statistics class.">
<polygon fill="white" stroke="black" points="954.5,-114 954.5,-133 1030.5,-133 1030.5,-114 954.5,-114"/>
<text text-anchor="middle" x="992.5" y="-121" font-family="Helvetica,sans-Serif" font-size="10.00">GAStatistics</text>
</a>
</g>
</g>
<!-- Node7&#45;&gt;Node11 -->
<g id="edge20" class="edge">
<title>Node7&#45;&gt;Node11</title>
<path fill="none" stroke="#9a32cd" stroke-dasharray="5,2" d="M845.1,-229.99C868.25,-225.79 895.28,-218.42 917,-205.5 948.57,-186.72 974.5,-150.32 985.64,-133.04"/>
<polygon fill="#9a32cd" stroke="#9a32cd" points="844.4,-226.55 835.11,-231.65 845.55,-233.46 844.4,-226.55"/>
<text text-anchor="middle" x="892.5" y="-227.5" font-family="Helvetica,sans-Serif" font-size="10.00"> boa</text>
</g>
<!-- Node8&#45;&gt;Node7 -->
<g id="edge10" class="edge">
<title>Node8&#45;&gt;Node7</title>
<path fill="none" stroke="#9a32cd" stroke-dasharray="5,2" d="M525.26,-372.58C579.89,-375 659.88,-371.09 719,-336.5 756.25,-314.71 780,-265.77 788.73,-245.05"/>
<polygon fill="#9a32cd" stroke="#9a32cd" points="525.2,-369.07 515.03,-372.04 524.83,-376.06 525.2,-369.07"/>
<text text-anchor="middle" x="606" y="-375.5" font-family="Helvetica,sans-Serif" font-size="10.00"> sclscm</text>
</g>
<!-- Node9&#45;&gt;Node7 -->
<g id="edge14" class="edge">
<title>Node9&#45;&gt;Node7</title>
<path fill="none" stroke="#9a32cd" stroke-dasharray="5,2" d="M924.95,-296.43C906.14,-293.16 885.92,-288.4 868,-281.5 844.54,-272.46 820.41,-255.64 806.47,-245.04"/>
<polygon fill="#9a32cd" stroke="#9a32cd" points="924.51,-299.9 934.94,-298.05 925.63,-293 924.51,-299.9"/>
<text text-anchor="middle" x="892.5" y="-296.5" font-family="Helvetica,sans-Serif" font-size="10.00"> slct</text>
</g>
<!-- Node10 -->
<g id="node10" class="node">
<title>Node10</title>
<g id="a_node10"><a xlink:href="classGAEvalData.html" target="_top" xlink:title="This is the basic interface for the object that contains evaluation data.">
<polygon fill="white" stroke="black" points="136,-50 136,-69 211,-69 211,-50 136,-50"/>
<text text-anchor="middle" x="173.5" y="-57" font-family="Helvetica,sans-Serif" font-size="10.00">GAEvalData</text>
</a>
</g>
</g>
<!-- Node10&#45;&gt;Node4 -->
<g id="edge29" class="edge">
<title>Node10&#45;&gt;Node4</title>
<path fill="none" stroke="#9a32cd" stroke-dasharray="5,2" d="M220.68,-71.89C224.99,-73.81 229.17,-76 233,-78.5 281.06,-109.84 321.14,-167.68 335.91,-190.69"/>
<polygon fill="#9a32cd" stroke="#9a32cd" points="221.71,-68.54 211.12,-68.11 219.14,-75.04 221.71,-68.54"/>
<text text-anchor="middle" x="263.5" y="-115.5" font-family="Helvetica,sans-Serif" font-size="10.00"> evd</text>
</g>
<!-- Node10&#45;&gt;Node7 -->
<g id="edge17" class="edge">
<title>Node10&#45;&gt;Node7</title>
<path fill="none" stroke="#9a32cd" stroke-dasharray="5,2" d="M221.11,-57.64C287.25,-56.01 411.77,-56.65 515,-78.5 591.23,-94.64 607.61,-109.26 679,-140.5 697.21,-148.47 703.19,-148.46 719,-160.5 728.51,-167.75 728.75,-171.84 737,-180.5 752.54,-196.8 771.26,-215.09 782.5,-225.93"/>
<polygon fill="#9a32cd" stroke="#9a32cd" points="220.91,-54.15 211.01,-57.92 221.1,-61.15 220.91,-54.15"/>
<text text-anchor="middle" x="462.5" y="-81.5" font-family="Helvetica,sans-Serif" font-size="10.00"> evaldata</text>
</g>
<!-- Node11&#45;&gt;Node6 -->
<g id="edge19" class="edge">
<title>Node11&#45;&gt;Node6</title>
<path fill="none" stroke="#9a32cd" stroke-dasharray="5,2" d="M953.88,-110.93C903.79,-96.04 812.7,-75.39 737,-93.5 691.21,-104.46 643.33,-134.33 620.57,-149.85"/>
<polygon fill="#9a32cd" stroke="#9a32cd" points="953.05,-114.34 963.63,-113.92 955.1,-107.65 953.05,-114.34"/>
<text text-anchor="middle" x="793.5" y="-96.5" font-family="Helvetica,sans-Serif" font-size="10.00"> stats</text>
</g>
<!-- Node12 -->
<g id="node12" class="node">
<title>Node12</title>
<g id="a_node12"><a xlink:title=" ">
<polygon fill="white" stroke="#bfbfbf" points="761,-18 761,-37 826,-37 826,-18 761,-18"/>
<text text-anchor="middle" x="793.5" y="-25" font-family="Helvetica,sans-Serif" font-size="10.00">std::string</text>
</a>
</g>
</g>
<!-- Node12&#45;&gt;Node11 -->
<g id="edge21" class="edge">
<title>Node12&#45;&gt;Node11</title>
<path fill="none" stroke="#9a32cd" stroke-dasharray="5,2" d="M836.2,-33.54C860.73,-38.26 891.79,-46.29 917,-59.5 944.19,-73.74 969.97,-99.6 982.89,-113.69"/>
<polygon fill="#9a32cd" stroke="#9a32cd" points="836.59,-30.05 826.13,-31.72 835.34,-36.94 836.59,-30.05"/>
<text text-anchor="middle" x="892.5" y="-62.5" font-family="Helvetica,sans-Serif" font-size="10.00"> scorefile</text>
</g>
<!-- Node13 -->
<g id="node13" class="node">
<title>Node13</title>
<g id="a_node13"><a xlink:title=" ">
<polygon fill="white" stroke="#bfbfbf" points="554,-0.5 554,-30.5 658,-30.5 658,-0.5 554,-0.5"/>
<text text-anchor="start" x="562" y="-18.5" font-family="Helvetica,sans-Serif" font-size="10.00">std::basic_string&lt;</text>
<text text-anchor="middle" x="606" y="-7.5" font-family="Helvetica,sans-Serif" font-size="10.00"> Char &gt;</text>
</a>
</g>
</g>
<!-- Node13&#45;&gt;Node12 -->
<g id="edge22" class="edge">
<title>Node13&#45;&gt;Node12</title>
<path fill="none" stroke="midnightblue" d="M668.46,-19.48C699.44,-21.48 735.69,-23.83 760.98,-25.46"/>
<polygon fill="midnightblue" stroke="midnightblue" points="668.38,-15.96 658.18,-18.81 667.93,-22.95 668.38,-15.96"/>
</g>
<!-- Node14 -->
<g id="node14" class="node">
<title>Node14</title>
<g id="a_node14"><a xlink:title=" ">
<polygon fill="white" stroke="#bfbfbf" points="737,-152 737,-171 850,-171 850,-152 737,-152"/>
<text text-anchor="middle" x="793.5" y="-159" font-family="Helvetica,sans-Serif" font-size="10.00">std::vector&lt; float &gt;</text>
</a>
</g>
</g>
<!-- Node14&#45;&gt;Node11 -->
<g id="edge23" class="edge">
<title>Node14&#45;&gt;Node11</title>
<path fill="none" stroke="#9a32cd" stroke-dasharray="5,2" d="M853.87,-150.05C886.57,-143.74 926.15,-136.1 954.46,-130.64"/>
<polygon fill="#9a32cd" stroke="#9a32cd" points="853.11,-146.63 843.96,-151.96 854.44,-153.5 853.11,-146.63"/>
<text text-anchor="middle" x="892.5" y="-193.5" font-family="Helvetica,sans-Serif" font-size="10.00"> aveScore</text>
<text text-anchor="middle" x="892.5" y="-182.5" font-family="Helvetica,sans-Serif" font-size="10.00">devScore</text>
<text text-anchor="middle" x="892.5" y="-171.5" font-family="Helvetica,sans-Serif" font-size="10.00">divScore</text>
<text text-anchor="middle" x="892.5" y="-160.5" font-family="Helvetica,sans-Serif" font-size="10.00">maxScore</text>
<text text-anchor="middle" x="892.5" y="-149.5" font-family="Helvetica,sans-Serif" font-size="10.00">minScore</text>
</g>
<!-- Node15 -->
<g id="node15" class="node">
<title>Node15</title>
<g id="a_node15"><a xlink:title=" ">
<polygon fill="white" stroke="#bfbfbf" points="741.5,-114 741.5,-133 845.5,-133 845.5,-114 741.5,-114"/>
<text text-anchor="middle" x="793.5" y="-121" font-family="Helvetica,sans-Serif" font-size="10.00">std::vector&lt; int &gt;</text>
</a>
</g>
</g>
<!-- Node15&#45;&gt;Node11 -->
<g id="edge24" class="edge">
<title>Node15&#45;&gt;Node11</title>
<path fill="none" stroke="#9a32cd" stroke-dasharray="5,2" d="M855.96,-123.5C888.15,-123.5 926.52,-123.5 954.2,-123.5"/>
<polygon fill="#9a32cd" stroke="#9a32cd" points="855.75,-120 845.75,-123.5 855.75,-127 855.75,-120"/>
<text text-anchor="middle" x="892.5" y="-126.5" font-family="Helvetica,sans-Serif" font-size="10.00"> gen</text>
</g>
<!-- Node16 -->
<g id="node16" class="node">
<title>Node16</title>
<g id="a_node16"><a xlink:href="classGAParameterList.html" target="_top" xlink:title="Parameter List.">
<polygon fill="white" stroke="black" points="294,-90 294,-109 392,-109 392,-90 294,-90"/>
<text text-anchor="middle" x="343" y="-97" font-family="Helvetica,sans-Serif" font-size="10.00">GAParameterList</text>
</a>
</g>
</g>
<!-- Node16&#45;&gt;Node6 -->
<g id="edge25" class="edge">
<title>Node16&#45;&gt;Node6</title>
<path fill="none" stroke="#9a32cd" stroke-dasharray="5,2" d="M402.33,-94.4C435.94,-93.21 478.6,-94.73 515,-105.5 545.93,-114.65 577.11,-136.96 593.41,-149.86"/>
<polygon fill="#9a32cd" stroke="#9a32cd" points="402.04,-90.91 392.2,-94.85 402.35,-97.9 402.04,-90.91"/>
<text text-anchor="middle" x="462.5" y="-108.5" font-family="Helvetica,sans-Serif" font-size="10.00"> params</text>
</g>
<!-- Node17 -->
<g id="node17" class="node">
<title>Node17</title>
<g id="a_node17"><a xlink:title=" ">
<polygon fill="white" stroke="#bfbfbf" points="133,-88 133,-107 214,-107 214,-88 133,-88"/>
<text text-anchor="middle" x="173.5" y="-95" font-family="Helvetica,sans-Serif" font-size="10.00">std::list&lt; T &gt;</text>
</a>
</g>
</g>
<!-- Node17&#45;&gt;Node16 -->
<g id="edge26" class="edge">
<title>Node17&#45;&gt;Node16</title>
<path fill="none" stroke="midnightblue" d="M224.03,-97.94C240.56,-98.09 259.07,-98.29 276,-98.5 281.73,-98.57 287.74,-98.65 293.7,-98.74"/>
<polygon fill="midnightblue" stroke="midnightblue" points="224.06,-94.44 214.03,-97.84 223.99,-101.44 224.06,-94.44"/>
</g>
<!-- Node18 -->
<g id="node18" class="node">
<title>Node18</title>
<g id="a_node18"><a xlink:title=" ">
<polygon fill="white" stroke="#bfbfbf" points="0,-88 0,-107 29,-107 29,-88 0,-88"/>
<text text-anchor="middle" x="14.5" y="-95" font-family="Helvetica,sans-Serif" font-size="10.00">T</text>
</a>
</g>
</g>
<!-- Node18&#45;&gt;Node17 -->
<g id="edge27" class="edge">
<title>Node18&#45;&gt;Node17</title>
<path fill="none" stroke="#9a32cd" stroke-dasharray="5,2" d="M39.47,-97.5C64.31,-97.5 103.54,-97.5 132.98,-97.5"/>
<polygon fill="#9a32cd" stroke="#9a32cd" points="39.16,-94 29.16,-97.5 39.16,-101 39.16,-94"/>
<text text-anchor="middle" x="71.5" y="-100.5" font-family="Helvetica,sans-Serif" font-size="10.00"> elements</text>
</g>
</g>
</svg>
