<?xml version="1.0" encoding="UTF-8" standalone="no"?>
<!DOCTYPE svg PUBLIC "-//W3C//DTD SVG 1.1//EN"
 "http://www.w3.org/Graphics/SVG/1.1/DTD/svg11.dtd">
<!-- Generated by graphviz version 2.43.0 (0)
 -->
<!-- Title: GATreeGenome&lt; T &gt; Pages: 1 -->
<svg width="178pt" height="137pt"
 viewBox="0.00 0.00 177.50 137.00" xmlns="http://www.w3.org/2000/svg" xmlns:xlink="http://www.w3.org/1999/xlink">
<g id="graph0" class="graph" transform="scale(1 1) rotate(0) translate(4 133)">
<title>GATreeGenome&lt; T &gt;</title>
<!-- Node1 -->
<g id="Node000001" class="node">
<title>Node1</title>
<g id="a_Node000001"><a xlink:title=" ">
<polygon fill="#999999" stroke="#666666" points="146.5,-19 26.5,-19 26.5,0 146.5,0 146.5,-19"/>
<text text-anchor="middle" x="86.5" y="-7" font-family="Helvetica,sans-Serif" font-size="10.00">GATreeGenome&lt; T &gt;</text>
</a>
</g>
</g>
<!-- Node2 -->
<g id="Node000002" class="node">
<title>Node2</title>
<g id="a_Node000002"><a xlink:href="classGATree.html" target="_top" xlink:title=" ">
<polygon fill="white" stroke="#bfbfbf" points="79,-74 0,-74 0,-55 79,-55 79,-74"/>
<text text-anchor="middle" x="39.5" y="-62" font-family="Helvetica,sans-Serif" font-size="10.00">GATree&lt; T &gt;</text>
</a>
</g>
</g>
<!-- Node2&#45;&gt;Node1 -->
<g id="edge1_Node000001_Node000002" class="edge">
<title>Node2&#45;&gt;Node1</title>
<g id="a_edge1_Node000001_Node000002"><a xlink:title=" ">
<path fill="none" stroke="#63b8ff" d="M53.92,-47.24C62.16,-37.95 72.15,-26.68 78.88,-19.09"/>
<polygon fill="#63b8ff" stroke="#63b8ff" points="51.28,-44.94 47.26,-54.75 56.51,-49.59 51.28,-44.94"/>
</a>
</g>
</g>
<!-- Node3 -->
<g id="Node000003" class="node">
<title>Node3</title>
<g id="a_Node000003"><a xlink:href="classGATreeBASE.html" target="_top" xlink:title=" ">
<polygon fill="white" stroke="#bfbfbf" points="77.5,-129 1.5,-129 1.5,-110 77.5,-110 77.5,-129"/>
<text text-anchor="middle" x="39.5" y="-117" font-family="Helvetica,sans-Serif" font-size="10.00">GATreeBASE</text>
</a>
</g>
</g>
<!-- Node3&#45;&gt;Node2 -->
<g id="edge2_Node000002_Node000003" class="edge">
<title>Node3&#45;&gt;Node2</title>
<g id="a_edge2_Node000002_Node000003"><a xlink:title=" ">
<path fill="none" stroke="#63b8ff" d="M39.5,-99.66C39.5,-90.93 39.5,-80.99 39.5,-74.09"/>
<polygon fill="#63b8ff" stroke="#63b8ff" points="36,-99.75 39.5,-109.75 43,-99.75 36,-99.75"/>
</a>
</g>
</g>
<!-- Node4 -->
<g id="Node000004" class="node">
<title>Node4</title>
<g id="a_Node000004"><a xlink:href="classGAGenome.html" target="_top" xlink:title="The base genome class just defines the genome interface &#45; how to mutate, crossover,...">
<polygon fill="white" stroke="#666666" points="169.5,-74 97.5,-74 97.5,-55 169.5,-55 169.5,-74"/>
<text text-anchor="middle" x="133.5" y="-62" font-family="Helvetica,sans-Serif" font-size="10.00">GAGenome</text>
</a>
</g>
</g>
<!-- Node4&#45;&gt;Node1 -->
<g id="edge3_Node000001_Node000004" class="edge">
<title>Node4&#45;&gt;Node1</title>
<g id="a_edge3_Node000001_Node000004"><a xlink:title=" ">
<path fill="none" stroke="#63b8ff" d="M119.08,-47.24C110.84,-37.95 100.85,-26.68 94.12,-19.09"/>
<polygon fill="#63b8ff" stroke="#63b8ff" points="116.49,-49.59 125.74,-54.75 121.72,-44.94 116.49,-49.59"/>
</a>
</g>
</g>
<!-- Node5 -->
<g id="Node000005" class="node">
<title>Node5</title>
<g id="a_Node000005"><a xlink:href="classGAID.html" target="_top" xlink:title="This defines the identifiers for polymorphic classes.">
<polygon fill="white" stroke="#666666" points="154,-129 113,-129 113,-110 154,-110 154,-129"/>
<text text-anchor="middle" x="133.5" y="-117" font-family="Helvetica,sans-Serif" font-size="10.00">GAID</text>
</a>
</g>
</g>
<!-- Node5&#45;&gt;Node4 -->
<g id="edge4_Node000004_Node000005" class="edge">
<title>Node5&#45;&gt;Node4</title>
<g id="a_edge4_Node000004_Node000005"><a xlink:title=" ">
<path fill="none" stroke="#63b8ff" d="M133.5,-99.66C133.5,-90.93 133.5,-80.99 133.5,-74.09"/>
<polygon fill="#63b8ff" stroke="#63b8ff" points="130,-99.75 133.5,-109.75 137,-99.75 130,-99.75"/>
</a>
</g>
</g>
</g>
</svg>
