<?xml version="1.0" encoding="UTF-8" standalone="no"?>
<!DOCTYPE svg PUBLIC "-//W3C//DTD SVG 1.1//EN"
 "http://www.w3.org/Graphics/SVG/1.1/DTD/svg11.dtd">
<!-- Generated by graphviz version 2.43.0 (0)
 -->
<!-- Title: GAPopulation Pages: 1 -->
<!--zoomable 478 -->
<svg id="main" version="1.1" xmlns="http://www.w3.org/2000/svg" xmlns:xlink="http://www.w3.org/1999/xlink" xml:space="preserve" onload="init(evt)">
<style type="text/css"><![CDATA[
.edge:hover path { stroke: red; }
.edge:hover polygon { stroke: red; fill: red; }
]]></style>
<script type="text/javascript"><![CDATA[
var edges = document.getElementsByTagName('g');
if (edges && edges.length) {
  for (var i=0;i<edges.length;i++) {
    if (edges[i].id.substr(0,4)=='edge') {
      edges[i].setAttribute('class','edge');
    }
  }
}
]]></script>
        <defs>
                <circle id="rim" cx="0" cy="0" r="7"/>
                <circle id="rim2" cx="0" cy="0" r="3.5"/>
                <g id="zoomPlus">
                        <use xlink:href="#rim" fill="#404040">
                                <set attributeName="fill" to="#808080" begin="zoomplus.mouseover" end="zoomplus.mouseout"/>
                        </use>
                        <path d="M-4,0h8M0,-4v8" fill="none" stroke="white" stroke-width="1.5" pointer-events="none"/>
                </g>
                <g id="zoomMin">
                        <use xlink:href="#rim" fill="#404040">
                                <set attributeName="fill" to="#808080" begin="zoomminus.mouseover" end="zoomminus.mouseout"/>
                        </use>
                        <path d="M-4,0h8" fill="none" stroke="white" stroke-width="1.5" pointer-events="none"/>
                </g>
                <g id="dirArrow">
                        <path fill="none" stroke="white" stroke-width="1.5" d="M0,-3.0v7 M-2.5,-0.5L0,-3.0L2.5,-0.5"/>
                </g>
               <g id="resetDef">
                       <use xlink:href="#rim2" fill="#404040">
                               <set attributeName="fill" to="#808080" begin="reset.mouseover" end="reset.mouseout"/>
                       </use>
               </g>
        </defs>

<script type="text/javascript">
var viewWidth = 800;
var viewHeight = 478;
var sectionId = 'dynsection-1';
</script>
<script xlink:href="svgpan.js"/>
<svg id="graph" class="graph">
<g id="viewport">
<title>GAPopulation</title>
<polygon fill="white" stroke="transparent" points="-4,4 -4,-474 796,-474 796,4 -4,4"/>
<!-- Node1 -->
<g id="node1" class="node">
<title>Node1</title>
<g id="a_node1"><a xlink:title=" ">
<polygon fill="#bfbfbf" stroke="black" points="200.5,-314.5 200.5,-333.5 283.5,-333.5 283.5,-314.5 200.5,-314.5"/>
<text text-anchor="middle" x="242" y="-321.5" font-family="Helvetica,sans-Serif" font-size="10.00">GAPopulation</text>
</a>
</g>
</g>
<!-- Node1&#45;&gt;Node1 -->
<g id="edge22" class="edge">
<title>Node1&#45;&gt;Node1</title>
<path fill="none" stroke="#9a32cd" stroke-dasharray="5,2" d="M293.82,-329.07C298.53,-328.01 301.5,-326.32 301.5,-324 301.5,-320.28 293.91,-318.19 283.71,-317.72"/>
<polygon fill="#9a32cd" stroke="#9a32cd" points="293.22,-325.61 283.71,-330.28 294.05,-332.56 293.22,-325.61"/>
<text text-anchor="middle" x="314" y="-327" font-family="Helvetica,sans-Serif" font-size="10.00"> eval</text>
<text text-anchor="middle" x="314" y="-316" font-family="Helvetica,sans-Serif" font-size="10.00">init</text>
</g>
<!-- Node4 -->
<g id="node4" class="node">
<title>Node4</title>
<g id="a_node4"><a xlink:href="classGAGeneticAlgorithm.html" target="_top" xlink:title=" ">
<polygon fill="white" stroke="black" points="285,-124.5 285,-143.5 401,-143.5 401,-124.5 285,-124.5"/>
<text text-anchor="middle" x="343" y="-131.5" font-family="Helvetica,sans-Serif" font-size="10.00">GAGeneticAlgorithm</text>
</a>
</g>
</g>
<!-- Node1&#45;&gt;Node4 -->
<g id="edge7" class="edge">
<title>Node1&#45;&gt;Node4</title>
<path fill="none" stroke="#9a32cd" stroke-dasharray="5,2" d="M272.71,-309.6C279.37,-305.63 285.93,-300.77 291,-295 331.67,-248.7 340.62,-170.03 342.51,-143.8"/>
<polygon fill="#9a32cd" stroke="#9a32cd" points="270.84,-306.63 263.7,-314.46 274.16,-312.79 270.84,-306.63"/>
<text text-anchor="middle" x="345" y="-209.5" font-family="Helvetica,sans-Serif" font-size="10.00"> pop</text>
</g>
<!-- Node5 -->
<g id="node5" class="node">
<title>Node5</title>
<g id="a_node5"><a xlink:href="classGAStatistics.html" target="_top" xlink:title=" ">
<polygon fill="white" stroke="black" points="383,-202.5 383,-221.5 459,-221.5 459,-202.5 383,-202.5"/>
<text text-anchor="middle" x="421" y="-209.5" font-family="Helvetica,sans-Serif" font-size="10.00">GAStatistics</text>
</a>
</g>
</g>
<!-- Node1&#45;&gt;Node5 -->
<g id="edge9" class="edge">
<title>Node1&#45;&gt;Node5</title>
<path fill="none" stroke="#9a32cd" stroke-dasharray="5,2" d="M293.49,-320.11C313.57,-316.55 335.46,-309.33 351,-295 370.01,-277.47 353.18,-259.64 370,-240 376.97,-231.86 387.03,-225.81 396.37,-221.52"/>
<polygon fill="#9a32cd" stroke="#9a32cd" points="292.87,-316.66 283.51,-321.61 293.92,-323.58 292.87,-316.66"/>
<text text-anchor="middle" x="381" y="-265" font-family="Helvetica,sans-Serif" font-size="10.00"> boa</text>
</g>
<!-- Node15 -->
<g id="node15" class="node">
<title>Node15</title>
<g id="a_node15"><a xlink:href="classGASelectionScheme.html" target="_top" xlink:title=" ">
<polygon fill="white" stroke="black" points="139.5,-202.5 139.5,-221.5 254.5,-221.5 254.5,-202.5 139.5,-202.5"/>
<text text-anchor="middle" x="197" y="-209.5" font-family="Helvetica,sans-Serif" font-size="10.00">GASelectionScheme</text>
</a>
</g>
</g>
<!-- Node1&#45;&gt;Node15 -->
<g id="edge25" class="edge">
<title>Node1&#45;&gt;Node15</title>
<path fill="none" stroke="#9a32cd" stroke-dasharray="5,2" d="M239.48,-304.28C236.59,-286.87 230.78,-260.58 220,-240 216.46,-233.24 210.95,-226.69 206.21,-221.74"/>
<polygon fill="#9a32cd" stroke="#9a32cd" points="236.04,-304.93 240.99,-314.3 242.96,-303.89 236.04,-304.93"/>
<text text-anchor="middle" x="249" y="-265" font-family="Helvetica,sans-Serif" font-size="10.00"> pop</text>
</g>
<!-- Node2 -->
<g id="node2" class="node">
<title>Node2</title>
<g id="a_node2"><a xlink:href="classGAID.html" target="_top" xlink:title=" ">
<polygon fill="white" stroke="black" points="157.5,-450.5 157.5,-469.5 198.5,-469.5 198.5,-450.5 157.5,-450.5"/>
<text text-anchor="middle" x="178" y="-457.5" font-family="Helvetica,sans-Serif" font-size="10.00">GAID</text>
</a>
</g>
</g>
<!-- Node2&#45;&gt;Node1 -->
<g id="edge1" class="edge">
<title>Node2&#45;&gt;Node1</title>
<path fill="none" stroke="midnightblue" d="M180.42,-439.76C182.98,-423.7 187.94,-400.51 197,-382 206.31,-362.97 222.78,-344.37 233,-333.83"/>
<polygon fill="midnightblue" stroke="midnightblue" points="176.9,-439.64 178.96,-450.04 183.83,-440.63 176.9,-439.64"/>
</g>
<!-- Node3 -->
<g id="node3" class="node">
<title>Node3</title>
<g id="a_node3"><a xlink:href="classGAScalingScheme.html" target="_top" xlink:title=" ">
<polygon fill="white" stroke="black" points="206.5,-388 206.5,-407 311.5,-407 311.5,-388 206.5,-388"/>
<text text-anchor="middle" x="259" y="-395" font-family="Helvetica,sans-Serif" font-size="10.00">GAScalingScheme</text>
</a>
</g>
</g>
<!-- Node2&#45;&gt;Node3 -->
<g id="edge3" class="edge">
<title>Node2&#45;&gt;Node3</title>
<path fill="none" stroke="midnightblue" d="M198.02,-444.05C213.56,-432.44 234.55,-416.76 247.42,-407.15"/>
<polygon fill="midnightblue" stroke="midnightblue" points="195.52,-441.54 189.61,-450.33 199.71,-447.15 195.52,-441.54"/>
</g>
<!-- Node2&#45;&gt;Node4 -->
<g id="edge5" class="edge">
<title>Node2&#45;&gt;Node4</title>
<path fill="none" stroke="midnightblue" d="M208.78,-459.23C333.17,-459.78 792,-457.76 792,-398.5 792,-398.5 792,-398.5 792,-211 792,-171.82 522.73,-147.74 401.24,-138.88"/>
<polygon fill="midnightblue" stroke="midnightblue" points="208.8,-455.73 198.78,-459.18 208.76,-462.73 208.8,-455.73"/>
</g>
<!-- Node13 -->
<g id="node13" class="node">
<title>Node13</title>
<g id="a_node13"><a xlink:href="classGAGenome.html" target="_top" xlink:title=" ">
<polygon fill="white" stroke="black" points="75,-23.5 75,-42.5 147,-42.5 147,-23.5 75,-23.5"/>
<text text-anchor="middle" x="111" y="-30.5" font-family="Helvetica,sans-Serif" font-size="10.00">GAGenome</text>
</a>
</g>
</g>
<!-- Node2&#45;&gt;Node13 -->
<g id="edge18" class="edge">
<title>Node2&#45;&gt;Node13</title>
<path fill="none" stroke="midnightblue" d="M147.09,-454.97C96.12,-447.45 0,-429.2 0,-398.5 0,-398.5 0,-398.5 0,-133 0,-86.39 55.18,-56.29 87.73,-42.59"/>
<polygon fill="midnightblue" stroke="midnightblue" points="146.84,-458.47 157.23,-456.41 147.83,-451.54 146.84,-458.47"/>
</g>
<!-- Node2&#45;&gt;Node15 -->
<g id="edge24" class="edge">
<title>Node2&#45;&gt;Node15</title>
<path fill="none" stroke="midnightblue" d="M176.76,-439.92C174.72,-401.58 172.2,-312.65 187,-240 188.28,-233.73 190.78,-226.98 192.96,-221.8"/>
<polygon fill="midnightblue" stroke="midnightblue" points="173.28,-440.34 177.36,-450.12 180.27,-439.93 173.28,-440.34"/>
</g>
<!-- Node3&#45;&gt;Node1 -->
<g id="edge2" class="edge">
<title>Node3&#45;&gt;Node1</title>
<path fill="none" stroke="#9a32cd" stroke-dasharray="5,2" d="M254.5,-377.59C251.14,-363.43 246.68,-344.7 244.1,-333.84"/>
<polygon fill="#9a32cd" stroke="#9a32cd" points="251.2,-378.81 256.92,-387.73 258.01,-377.19 251.2,-378.81"/>
<text text-anchor="middle" x="270.5" y="-356" font-family="Helvetica,sans-Serif" font-size="10.00"> sclscm</text>
</g>
<!-- Node4&#45;&gt;Node1 -->
<g id="edge4" class="edge">
<title>Node4&#45;&gt;Node1</title>
<path fill="none" stroke="#9a32cd" stroke-dasharray="5,2" d="M332.65,-152.14C324.72,-165.52 313.7,-184.69 305,-202 284.72,-242.36 287.25,-256.27 264,-295 259.93,-301.78 254.43,-308.78 249.95,-314.09"/>
<polygon fill="#9a32cd" stroke="#9a32cd" points="335.67,-153.9 337.8,-143.52 329.66,-150.31 335.67,-153.9"/>
<text text-anchor="middle" x="313" y="-209.5" font-family="Helvetica,sans-Serif" font-size="10.00"> ga</text>
</g>
<!-- Node4&#45;&gt;Node4 -->
<g id="edge6" class="edge">
<title>Node4&#45;&gt;Node4</title>
<path fill="none" stroke="#9a32cd" stroke-dasharray="5,2" d="M411.48,-139.15C416.16,-137.97 419,-136.25 419,-134 419,-130.4 411.73,-128.16 401.31,-127.29"/>
<polygon fill="#9a32cd" stroke="#9a32cd" points="410.67,-135.74 401.31,-140.71 411.73,-142.65 410.67,-135.74"/>
<text text-anchor="middle" x="425.5" y="-131.5" font-family="Helvetica,sans-Serif" font-size="10.00"> cf</text>
</g>
<!-- Node4&#45;&gt;Node13 -->
<g id="edge19" class="edge">
<title>Node4&#45;&gt;Node13</title>
<path fill="none" stroke="#9a32cd" stroke-dasharray="5,2" d="M328.1,-117.3C317.1,-106.54 301.28,-92.7 285,-84 240.5,-60.23 183.41,-46.61 147,-39.76"/>
<polygon fill="#9a32cd" stroke="#9a32cd" points="325.67,-119.82 335.19,-124.47 330.64,-114.89 325.67,-119.82"/>
<text text-anchor="middle" x="324" y="-92.5" font-family="Helvetica,sans-Serif" font-size="10.00"> ga</text>
</g>
<!-- Node5&#45;&gt;Node4 -->
<g id="edge8" class="edge">
<title>Node5&#45;&gt;Node4</title>
<path fill="none" stroke="#9a32cd" stroke-dasharray="5,2" d="M404.45,-194.88C388.38,-179.22 364.6,-156.04 351.84,-143.62"/>
<polygon fill="#9a32cd" stroke="#9a32cd" points="402.45,-197.81 412.05,-202.28 407.33,-192.8 402.45,-197.81"/>
<text text-anchor="middle" x="406" y="-170.5" font-family="Helvetica,sans-Serif" font-size="10.00"> stats</text>
</g>
<!-- Node6 -->
<g id="node6" class="node">
<title>Node6</title>
<g id="a_node6"><a xlink:title=" ">
<polygon fill="white" stroke="#bfbfbf" points="345.5,-314.5 345.5,-333.5 410.5,-333.5 410.5,-314.5 345.5,-314.5"/>
<text text-anchor="middle" x="378" y="-321.5" font-family="Helvetica,sans-Serif" font-size="10.00">std::string</text>
</a>
</g>
</g>
<!-- Node6&#45;&gt;Node5 -->
<g id="edge10" class="edge">
<title>Node6&#45;&gt;Node5</title>
<path fill="none" stroke="#9a32cd" stroke-dasharray="5,2" d="M390.19,-305.65C392.3,-302.21 394.35,-298.57 396,-295 407.76,-269.61 415.73,-237.29 419.13,-221.91"/>
<polygon fill="#9a32cd" stroke="#9a32cd" points="387.25,-303.76 384.67,-314.03 393.09,-307.61 387.25,-303.76"/>
<text text-anchor="middle" x="437.5" y="-265" font-family="Helvetica,sans-Serif" font-size="10.00"> scorefile</text>
</g>
<!-- Node7 -->
<g id="node7" class="node">
<title>Node7</title>
<g id="a_node7"><a xlink:title=" ">
<polygon fill="white" stroke="#bfbfbf" points="330,-382.5 330,-412.5 434,-412.5 434,-382.5 330,-382.5"/>
<text text-anchor="start" x="338" y="-400.5" font-family="Helvetica,sans-Serif" font-size="10.00">std::basic_string&lt;</text>
<text text-anchor="middle" x="382" y="-389.5" font-family="Helvetica,sans-Serif" font-size="10.00"> Char &gt;</text>
</a>
</g>
</g>
<!-- Node7&#45;&gt;Node6 -->
<g id="edge11" class="edge">
<title>Node7&#45;&gt;Node6</title>
<path fill="none" stroke="midnightblue" d="M380.65,-372.36C379.9,-359.01 379.02,-343.25 378.49,-333.7"/>
<polygon fill="midnightblue" stroke="midnightblue" points="377.16,-372.59 381.21,-382.37 384.15,-372.19 377.16,-372.59"/>
</g>
<!-- Node8 -->
<g id="node8" class="node">
<title>Node8</title>
<g id="a_node8"><a xlink:title=" ">
<polygon fill="white" stroke="#bfbfbf" points="428.5,-314.5 428.5,-333.5 541.5,-333.5 541.5,-314.5 428.5,-314.5"/>
<text text-anchor="middle" x="485" y="-321.5" font-family="Helvetica,sans-Serif" font-size="10.00">std::vector&lt; float &gt;</text>
</a>
</g>
</g>
<!-- Node8&#45;&gt;Node5 -->
<g id="edge12" class="edge">
<title>Node8&#45;&gt;Node5</title>
<path fill="none" stroke="#9a32cd" stroke-dasharray="5,2" d="M484.21,-304.26C482.59,-286.24 477.84,-259.02 464,-240 458.3,-232.16 449.55,-226.07 441.44,-221.68"/>
<polygon fill="#9a32cd" stroke="#9a32cd" points="480.72,-304.61 484.87,-314.36 487.71,-304.15 480.72,-304.61"/>
<text text-anchor="middle" x="507.5" y="-287" font-family="Helvetica,sans-Serif" font-size="10.00"> aveScore</text>
<text text-anchor="middle" x="507.5" y="-276" font-family="Helvetica,sans-Serif" font-size="10.00">devScore</text>
<text text-anchor="middle" x="507.5" y="-265" font-family="Helvetica,sans-Serif" font-size="10.00">divScore</text>
<text text-anchor="middle" x="507.5" y="-254" font-family="Helvetica,sans-Serif" font-size="10.00">maxScore</text>
<text text-anchor="middle" x="507.5" y="-243" font-family="Helvetica,sans-Serif" font-size="10.00">minScore</text>
</g>
<!-- Node9 -->
<g id="node9" class="node">
<title>Node9</title>
<g id="a_node9"><a xlink:title=" ">
<polygon fill="white" stroke="#bfbfbf" points="560,-314.5 560,-333.5 664,-333.5 664,-314.5 560,-314.5"/>
<text text-anchor="middle" x="612" y="-321.5" font-family="Helvetica,sans-Serif" font-size="10.00">std::vector&lt; int &gt;</text>
</a>
</g>
</g>
<!-- Node9&#45;&gt;Node5 -->
<g id="edge13" class="edge">
<title>Node9&#45;&gt;Node5</title>
<path fill="none" stroke="#9a32cd" stroke-dasharray="5,2" d="M601.17,-306.06C588.08,-287 564.25,-256.55 536,-240 512.55,-226.26 482.57,-219.51 459.1,-216.2"/>
<polygon fill="#9a32cd" stroke="#9a32cd" points="598.26,-308 606.71,-314.39 604.09,-304.12 598.26,-308"/>
<text text-anchor="middle" x="603" y="-265" font-family="Helvetica,sans-Serif" font-size="10.00"> gen</text>
</g>
<!-- Node10 -->
<g id="node10" class="node">
<title>Node10</title>
<g id="a_node10"><a xlink:href="classGAParameterList.html" target="_top" xlink:title="Parameter List.">
<polygon fill="white" stroke="black" points="631,-202.5 631,-221.5 729,-221.5 729,-202.5 631,-202.5"/>
<text text-anchor="middle" x="680" y="-209.5" font-family="Helvetica,sans-Serif" font-size="10.00">GAParameterList</text>
</a>
</g>
</g>
<!-- Node10&#45;&gt;Node4 -->
<g id="edge14" class="edge">
<title>Node10&#45;&gt;Node4</title>
<path fill="none" stroke="#9a32cd" stroke-dasharray="5,2" d="M632.03,-200.18C564.42,-184.94 442.5,-157.44 380.86,-143.54"/>
<polygon fill="#9a32cd" stroke="#9a32cd" points="631.47,-203.64 642,-202.43 633.01,-196.82 631.47,-203.64"/>
<text text-anchor="middle" x="572" y="-170.5" font-family="Helvetica,sans-Serif" font-size="10.00"> params</text>
</g>
<!-- Node11 -->
<g id="node11" class="node">
<title>Node11</title>
<g id="a_node11"><a xlink:title=" ">
<polygon fill="white" stroke="#bfbfbf" points="682.5,-314.5 682.5,-333.5 763.5,-333.5 763.5,-314.5 682.5,-314.5"/>
<text text-anchor="middle" x="723" y="-321.5" font-family="Helvetica,sans-Serif" font-size="10.00">std::list&lt; T &gt;</text>
</a>
</g>
</g>
<!-- Node11&#45;&gt;Node10 -->
<g id="edge15" class="edge">
<title>Node11&#45;&gt;Node10</title>
<path fill="none" stroke="midnightblue" d="M715.96,-305C706.58,-281 690.35,-239.47 683.36,-221.59"/>
<polygon fill="midnightblue" stroke="midnightblue" points="712.73,-306.33 719.63,-314.37 719.24,-303.78 712.73,-306.33"/>
</g>
<!-- Node12 -->
<g id="node12" class="node">
<title>Node12</title>
<g id="a_node12"><a xlink:title=" ">
<polygon fill="white" stroke="#bfbfbf" points="708.5,-388 708.5,-407 737.5,-407 737.5,-388 708.5,-388"/>
<text text-anchor="middle" x="723" y="-395" font-family="Helvetica,sans-Serif" font-size="10.00">T</text>
</a>
</g>
</g>
<!-- Node12&#45;&gt;Node11 -->
<g id="edge16" class="edge">
<title>Node12&#45;&gt;Node11</title>
<path fill="none" stroke="#9a32cd" stroke-dasharray="5,2" d="M723,-377.59C723,-363.43 723,-344.7 723,-333.84"/>
<polygon fill="#9a32cd" stroke="#9a32cd" points="719.5,-377.73 723,-387.73 726.5,-377.73 719.5,-377.73"/>
<text text-anchor="middle" x="747.5" y="-356" font-family="Helvetica,sans-Serif" font-size="10.00"> elements</text>
</g>
<!-- Node13&#45;&gt;Node1 -->
<g id="edge27" class="edge">
<title>Node13&#45;&gt;Node1</title>
<path fill="none" stroke="#9a32cd" stroke-dasharray="5,2" d="M109.55,-52.76C107.57,-87.53 106.61,-163.74 130,-222 145.34,-260.2 155.24,-268.82 187,-295 196.84,-303.11 209.42,-309.73 220.06,-314.49"/>
<polygon fill="#9a32cd" stroke="#9a32cd" points="113.05,-52.85 110.22,-42.64 106.07,-52.39 113.05,-52.85"/>
<text text-anchor="middle" x="130" y="-176" font-family="Helvetica,sans-Serif" font-size="10.00"> rind</text>
<text text-anchor="middle" x="130" y="-165" font-family="Helvetica,sans-Serif" font-size="10.00">sind</text>
</g>
<!-- Node13&#45;&gt;Node4 -->
<g id="edge17" class="edge">
<title>Node13&#45;&gt;Node4</title>
<path fill="none" stroke="#9a32cd" stroke-dasharray="5,2" d="M133.87,-47.62C160.89,-63.29 207.56,-89.04 250,-106 268.58,-113.43 289.98,-119.78 307.57,-124.46"/>
<polygon fill="#9a32cd" stroke="#9a32cd" points="135.57,-44.56 125.17,-42.53 132.03,-50.6 135.57,-44.56"/>
<text text-anchor="middle" x="267.5" y="-98" font-family="Helvetica,sans-Serif" font-size="10.00"> across</text>
<text text-anchor="middle" x="267.5" y="-87" font-family="Helvetica,sans-Serif" font-size="10.00">scross</text>
</g>
<!-- Node13&#45;&gt;Node13 -->
<g id="edge21" class="edge">
<title>Node13&#45;&gt;Node13</title>
<path fill="none" stroke="#9a32cd" stroke-dasharray="5,2" d="M139.76,-44.38C153.22,-45.66 165,-41.87 165,-33 165,-21.98 146.8,-18.8 129.82,-23.44"/>
<polygon fill="#9a32cd" stroke="#9a32cd" points="140.29,-40.92 129.82,-42.56 139.02,-47.81 140.29,-40.92"/>
<text text-anchor="middle" x="191" y="-58" font-family="Helvetica,sans-Serif" font-size="10.00"> asexcross</text>
<text text-anchor="middle" x="191" y="-47" font-family="Helvetica,sans-Serif" font-size="10.00">cmp</text>
<text text-anchor="middle" x="191" y="-36" font-family="Helvetica,sans-Serif" font-size="10.00">eval</text>
<text text-anchor="middle" x="191" y="-25" font-family="Helvetica,sans-Serif" font-size="10.00">init</text>
<text text-anchor="middle" x="191" y="-14" font-family="Helvetica,sans-Serif" font-size="10.00">mutr</text>
<text text-anchor="middle" x="191" y="-3" font-family="Helvetica,sans-Serif" font-size="10.00">sexcross</text>
</g>
<!-- Node14 -->
<g id="node14" class="node">
<title>Node14</title>
<g id="a_node14"><a xlink:href="classGAEvalData.html" target="_top" xlink:title=" ">
<polygon fill="white" stroke="black" points="32.5,-388 32.5,-407 107.5,-407 107.5,-388 32.5,-388"/>
<text text-anchor="middle" x="70" y="-395" font-family="Helvetica,sans-Serif" font-size="10.00">GAEvalData</text>
</a>
</g>
</g>
<!-- Node14&#45;&gt;Node1 -->
<g id="edge26" class="edge">
<title>Node14&#45;&gt;Node1</title>
<path fill="none" stroke="#9a32cd" stroke-dasharray="5,2" d="M84.02,-380.14C92.86,-370.84 105.03,-359.74 118,-353 143.56,-339.72 175.28,-332.7 200.24,-329.02"/>
<polygon fill="#9a32cd" stroke="#9a32cd" points="81.3,-377.94 77.17,-387.7 86.48,-382.64 81.3,-377.94"/>
<text text-anchor="middle" x="141" y="-356" font-family="Helvetica,sans-Serif" font-size="10.00"> evaldata</text>
</g>
<!-- Node14&#45;&gt;Node13 -->
<g id="edge20" class="edge">
<title>Node14&#45;&gt;Node13</title>
<path fill="none" stroke="#9a32cd" stroke-dasharray="5,2" d="M60.35,-378.49C53.68,-364.36 46,-343.97 46,-325 46,-325 46,-325 46,-133 46,-93.93 81.8,-58.32 100.27,-42.56"/>
<polygon fill="#9a32cd" stroke="#9a32cd" points="57.3,-380.2 64.91,-387.57 63.55,-377.06 57.3,-380.2"/>
<text text-anchor="middle" x="57" y="-209.5" font-family="Helvetica,sans-Serif" font-size="10.00"> evd</text>
</g>
<!-- Node15&#45;&gt;Node1 -->
<g id="edge23" class="edge">
<title>Node15&#45;&gt;Node1</title>
<path fill="none" stroke="#9a32cd" stroke-dasharray="5,2" d="M192.76,-231.65C189.81,-249.17 188.13,-275.52 199,-295 203.78,-303.56 212.39,-309.93 220.65,-314.42"/>
<polygon fill="#9a32cd" stroke="#9a32cd" points="196.25,-232.07 194.76,-221.58 189.38,-230.71 196.25,-232.07"/>
<text text-anchor="middle" x="209.5" y="-265" font-family="Helvetica,sans-Serif" font-size="10.00"> slct</text>
</g>
</g>
</svg>
        <g id="navigator" transform="translate(0 0)" fill="#404254">
                <rect fill="#f2f5e9" fill-opacity="0.5" stroke="#606060" stroke-width=".5" x="0" y="0" width="60" height="60"/>
                <use id="zoomplus" xlink:href="#zoomPlus" x="17" y="9" onmousedown="handleZoom(evt,'in')"/>
                <use id="zoomminus" xlink:href="#zoomMin" x="42" y="9" onmousedown="handleZoom(evt,'out')"/>
                <use id="reset" xlink:href="#resetDef" x="30" y="36" onmousedown="handleReset()"/>
                <g id="arrowUp" xlink:href="#dirArrow" transform="translate(30 24)" onmousedown="handlePan(0,-1)">
                  <use xlink:href="#rim" fill="#404040">
                        <set attributeName="fill" to="#808080" begin="arrowUp.mouseover" end="arrowUp.mouseout"/>
                  </use>
                  <path fill="none" stroke="white" stroke-width="1.5" d="M0,-3.0v7 M-2.5,-0.5L0,-3.0L2.5,-0.5"/>
                </g>
                <g id="arrowRight" xlink:href="#dirArrow" transform="rotate(90) translate(36 -43)" onmousedown="handlePan(1,0)">
                  <use xlink:href="#rim" fill="#404040">
                        <set attributeName="fill" to="#808080" begin="arrowRight.mouseover" end="arrowRight.mouseout"/>
                  </use>
                  <path fill="none" stroke="white" stroke-width="1.5" d="M0,-3.0v7 M-2.5,-0.5L0,-3.0L2.5,-0.5"/>
                </g>
                <g id="arrowDown" xlink:href="#dirArrow" transform="rotate(180) translate(-30 -48)" onmousedown="handlePan(0,1)">
                  <use xlink:href="#rim" fill="#404040">
                        <set attributeName="fill" to="#808080" begin="arrowDown.mouseover" end="arrowDown.mouseout"/>
                  </use>
                  <path fill="none" stroke="white" stroke-width="1.5" d="M0,-3.0v7 M-2.5,-0.5L0,-3.0L2.5,-0.5"/>
                </g>
                <g id="arrowLeft" xlink:href="#dirArrow" transform="rotate(270) translate(-36 17)" onmousedown="handlePan(-1,0)">
                  <use xlink:href="#rim" fill="#404040">
                        <set attributeName="fill" to="#808080" begin="arrowLeft.mouseover" end="arrowLeft.mouseout"/>
                  </use>
                  <path fill="none" stroke="white" stroke-width="1.5" d="M0,-3.0v7 M-2.5,-0.5L0,-3.0L2.5,-0.5"/>
                </g>
        </g>
        <svg viewBox="0 0 15 15" width="100%" height="30px" preserveAspectRatio="xMaxYMin meet">
         <g id="arrow_out" transform="scale(0.3 0.3)">
          <a xlink:href="classGAPopulation__coll__graph_org.svg" target="_base">
           <rect id="button" ry="5" rx="5" y="6" x="6" height="38" width="38"
                fill="#f2f5e9" fill-opacity="0.5" stroke="#606060" stroke-width="1.0"/>
           <path id="arrow"
             d="M 11.500037,31.436501 C 11.940474,20.09759 22.043105,11.32322 32.158766,21.979434 L 37.068811,17.246167 C 37.068811,17.246167 37.088388,32 37.088388,32 L 22.160133,31.978069 C 22.160133,31.978069 26.997745,27.140456 26.997745,27.140456 C 18.528582,18.264221 13.291696,25.230495 11.500037,31.436501 z"
             style="fill:#404040;"/>
          </a>
         </g>
        </svg>
</svg>
