<?xml version="1.0" encoding="UTF-8" standalone="no"?>
<!DOCTYPE svg PUBLIC "-//W3C//DTD SVG 1.1//EN"
 "http://www.w3.org/Graphics/SVG/1.1/DTD/svg11.dtd">
<!-- Generated by graphviz version 2.43.0 (0)
 -->
<!-- Title: GADemeGA Pages: 1 -->
<svg width="1296pt" height="592pt"
 viewBox="0.00 0.00 1296.00 591.50" xmlns="http://www.w3.org/2000/svg" xmlns:xlink="http://www.w3.org/1999/xlink">
<g id="graph0" class="graph" transform="scale(1 1) rotate(0) translate(4 587.5)">
<title>GADemeGA</title>
<polygon fill="white" stroke="transparent" points="-4,4 -4,-587.5 1292,-587.5 1292,4 -4,4"/>
<!-- Node1 -->
<g id="node1" class="node">
<title>Node1</title>
<g id="a_node1"><a xlink:title=" ">
<polygon fill="#bfbfbf" stroke="black" points="1214,-188 1214,-207 1288,-207 1288,-188 1214,-188"/>
<text text-anchor="middle" x="1251" y="-195" font-family="Helvetica,sans-Serif" font-size="10.00">GADemeGA</text>
</a>
</g>
</g>
<!-- Node2 -->
<g id="node2" class="node">
<title>Node2</title>
<g id="a_node2"><a xlink:href="classGAGeneticAlgorithm.html" target="_top" xlink:title="The base GA class is virtual &#45; it defines the core data elements and parts of the interface that are ...">
<polygon fill="white" stroke="black" points="406,-267 406,-286 522,-286 522,-267 406,-267"/>
<text text-anchor="middle" x="464" y="-274" font-family="Helvetica,sans-Serif" font-size="10.00">GAGeneticAlgorithm</text>
</a>
</g>
</g>
<!-- Node2&#45;&gt;Node1 -->
<g id="edge1" class="edge">
<title>Node2&#45;&gt;Node1</title>
<path fill="none" stroke="midnightblue" d="M484.52,-260.53C498.98,-249.53 519.62,-235.51 540,-227.5 613.03,-198.78 635.53,-197.5 714,-197.5 714,-197.5 714,-197.5 1087.5,-197.5 1130.95,-197.5 1180.93,-197.5 1213.86,-197.5"/>
<polygon fill="midnightblue" stroke="midnightblue" points="482.09,-257.98 476.37,-266.9 486.41,-263.49 482.09,-257.98"/>
</g>
<!-- Node2&#45;&gt;Node2 -->
<g id="edge3" class="edge">
<title>Node2&#45;&gt;Node2</title>
<path fill="none" stroke="#9a32cd" stroke-dasharray="5,2" d="M446.22,-295.9C447.41,-300.81 453.34,-304.5 464,-304.5 481.06,-304.5 485.99,-295.07 478.8,-286.26"/>
<polygon fill="#9a32cd" stroke="#9a32cd" points="449.59,-296.84 449.2,-286.26 442.91,-294.78 449.59,-296.84"/>
<text text-anchor="middle" x="464" y="-307.5" font-family="Helvetica,sans-Serif" font-size="10.00"> cf</text>
</g>
<!-- Node4 -->
<g id="node4" class="node">
<title>Node4</title>
<g id="a_node4"><a xlink:href="classGAPopulation.html" target="_top" xlink:title=" ">
<polygon fill="white" stroke="black" points="846,-403 846,-422 929,-422 929,-403 846,-403"/>
<text text-anchor="middle" x="887.5" y="-410" font-family="Helvetica,sans-Serif" font-size="10.00">GAPopulation</text>
</a>
</g>
</g>
<!-- Node2&#45;&gt;Node4 -->
<g id="edge8" class="edge">
<title>Node2&#45;&gt;Node4</title>
<path fill="none" stroke="#9a32cd" stroke-dasharray="5,2" d="M490.19,-291.18C504.7,-299.57 523.31,-310.24 540,-319.5 594.25,-349.6 603.85,-366.79 663,-385.5 724.86,-405.07 800.47,-410.61 845.99,-412.09"/>
<polygon fill="#9a32cd" stroke="#9a32cd" points="491.72,-288.02 481.31,-286.03 488.21,-294.07 491.72,-288.02"/>
<text text-anchor="middle" x="715" y="-408.5" font-family="Helvetica,sans-Serif" font-size="10.00"> ga</text>
</g>
<!-- Node8 -->
<g id="node8" class="node">
<title>Node8</title>
<g id="a_node8"><a xlink:href="classGAGenome.html" target="_top" xlink:title="The base genome class just defines the genome interface &#45; how to mutate, crossover,...">
<polygon fill="white" stroke="black" points="679,-273 679,-292 751,-292 751,-273 679,-273"/>
<text text-anchor="middle" x="715" y="-280" font-family="Helvetica,sans-Serif" font-size="10.00">GAGenome</text>
</a>
</g>
</g>
<!-- Node2&#45;&gt;Node8 -->
<g id="edge16" class="edge">
<title>Node2&#45;&gt;Node8</title>
<path fill="none" stroke="#9a32cd" stroke-dasharray="5,2" d="M499.23,-289.34C511.85,-293.45 526.4,-297.46 540,-299.5 586.15,-306.42 598.67,-305.12 645,-299.5 657.25,-298.01 670.46,-295.09 682,-292.09"/>
<polygon fill="#9a32cd" stroke="#9a32cd" points="500.16,-285.96 489.57,-286.06 497.91,-292.59 500.16,-285.96"/>
<text text-anchor="middle" x="592.5" y="-307.5" font-family="Helvetica,sans-Serif" font-size="10.00"> ga</text>
</g>
<!-- Node3 -->
<g id="node3" class="node">
<title>Node3</title>
<g id="a_node3"><a xlink:href="classGAID.html" target="_top" xlink:title="This defines the identifiers for polymorphic classes.">
<polygon fill="white" stroke="black" points="260.5,-489 260.5,-508 301.5,-508 301.5,-489 260.5,-489"/>
<text text-anchor="middle" x="281" y="-496" font-family="Helvetica,sans-Serif" font-size="10.00">GAID</text>
</a>
</g>
</g>
<!-- Node3&#45;&gt;Node2 -->
<g id="edge2" class="edge">
<title>Node3&#45;&gt;Node2</title>
<path fill="none" stroke="midnightblue" d="M286.49,-479C294.42,-448.11 313.42,-387.33 348,-347.5 373.22,-318.44 413.33,-297.47 438.89,-286.16"/>
<polygon fill="midnightblue" stroke="midnightblue" points="283.04,-478.39 284.06,-488.94 289.84,-480.05 283.04,-478.39"/>
</g>
<!-- Node3&#45;&gt;Node4 -->
<g id="edge5" class="edge">
<title>Node3&#45;&gt;Node4</title>
<path fill="none" stroke="midnightblue" d="M311.87,-497.71C388.25,-495.27 596.64,-486.02 767,-454.5 802.68,-447.9 842.01,-432.36 865.46,-422.15"/>
<polygon fill="midnightblue" stroke="midnightblue" points="311.47,-494.22 301.58,-498.02 311.68,-501.22 311.47,-494.22"/>
</g>
<!-- Node5 -->
<g id="node5" class="node">
<title>Node5</title>
<g id="a_node5"><a xlink:href="classGAScalingScheme.html" target="_top" xlink:title=" ">
<polygon fill="white" stroke="black" points="540,-531 540,-550 645,-550 645,-531 540,-531"/>
<text text-anchor="middle" x="592.5" y="-538" font-family="Helvetica,sans-Serif" font-size="10.00">GAScalingScheme</text>
</a>
</g>
</g>
<!-- Node3&#45;&gt;Node5 -->
<g id="edge7" class="edge">
<title>Node3&#45;&gt;Node5</title>
<path fill="none" stroke="midnightblue" d="M311.42,-505.36C322.8,-507.85 335.96,-510.54 348,-512.5 413.73,-523.23 490.09,-531.3 539.53,-535.96"/>
<polygon fill="midnightblue" stroke="midnightblue" points="312.07,-501.92 301.55,-503.15 310.54,-508.75 312.07,-501.92"/>
</g>
<!-- Node6 -->
<g id="node6" class="node">
<title>Node6</title>
<g id="a_node6"><a xlink:href="classGASelectionScheme.html" target="_top" xlink:title=" ">
<polygon fill="white" stroke="black" points="1029,-383 1029,-402 1144,-402 1144,-383 1029,-383"/>
<text text-anchor="middle" x="1086.5" y="-390" font-family="Helvetica,sans-Serif" font-size="10.00">GASelectionScheme</text>
</a>
</g>
</g>
<!-- Node3&#45;&gt;Node6 -->
<g id="edge11" class="edge">
<title>Node3&#45;&gt;Node6</title>
<path fill="none" stroke="midnightblue" d="M301.41,-514.63C333.11,-539.28 398.9,-583.5 463,-583.5 463,-583.5 463,-583.5 888.5,-583.5 988.59,-583.5 945.19,-462.21 1029,-407.5 1032.23,-405.39 1035.75,-403.58 1039.39,-402.02"/>
<polygon fill="midnightblue" stroke="midnightblue" points="303.4,-511.75 293.4,-508.25 299.04,-517.22 303.4,-511.75"/>
</g>
<!-- Node3&#45;&gt;Node8 -->
<g id="edge15" class="edge">
<title>Node3&#45;&gt;Node8</title>
<path fill="none" stroke="midnightblue" d="M306.5,-483.54C331.25,-468.66 370.74,-445.51 406,-427.5 509.81,-374.48 540.47,-371.07 645,-319.5 662.92,-310.66 683.01,-299.77 696.87,-292.1"/>
<polygon fill="midnightblue" stroke="midnightblue" points="304.53,-480.65 297.78,-488.81 308.15,-486.64 304.53,-480.65"/>
</g>
<!-- Node4&#45;&gt;Node1 -->
<g id="edge29" class="edge">
<title>Node4&#45;&gt;Node1</title>
<path fill="none" stroke="#9a32cd" stroke-dasharray="5,2" d="M928.13,-424.76C981.89,-438.83 1078.7,-454.79 1144,-411.5 1218.98,-361.78 1243.01,-242.59 1248.59,-207.43"/>
<polygon fill="#9a32cd" stroke="#9a32cd" points="928.86,-421.33 918.29,-422.08 927.02,-428.09 928.86,-421.33"/>
<text text-anchor="middle" x="1086.5" y="-453.5" font-family="Helvetica,sans-Serif" font-size="10.00"> deme</text>
<text text-anchor="middle" x="1086.5" y="-442.5" font-family="Helvetica,sans-Serif" font-size="10.00">tmppop</text>
</g>
<!-- Node4&#45;&gt;Node2 -->
<g id="edge4" class="edge">
<title>Node4&#45;&gt;Node2</title>
<path fill="none" stroke="#9a32cd" stroke-dasharray="5,2" d="M879.02,-393.16C864.02,-357.51 826.55,-282.35 767,-252.5 672.73,-205.24 540.87,-246.73 488.14,-266.94"/>
<polygon fill="#9a32cd" stroke="#9a32cd" points="875.95,-394.91 882.95,-402.86 882.43,-392.28 875.95,-394.91"/>
<text text-anchor="middle" x="715" y="-255.5" font-family="Helvetica,sans-Serif" font-size="10.00"> pop</text>
</g>
<!-- Node4&#45;&gt;Node4 -->
<g id="edge9" class="edge">
<title>Node4&#45;&gt;Node4</title>
<path fill="none" stroke="#9a32cd" stroke-dasharray="5,2" d="M871.2,-431.9C872.29,-436.81 877.72,-440.5 887.5,-440.5 903.14,-440.5 907.66,-431.07 901.06,-422.26"/>
<polygon fill="#9a32cd" stroke="#9a32cd" points="874.58,-432.83 873.94,-422.26 867.84,-430.92 874.58,-432.83"/>
<text text-anchor="middle" x="887.5" y="-454.5" font-family="Helvetica,sans-Serif" font-size="10.00"> eval</text>
<text text-anchor="middle" x="887.5" y="-443.5" font-family="Helvetica,sans-Serif" font-size="10.00">init</text>
</g>
<!-- Node4&#45;&gt;Node6 -->
<g id="edge12" class="edge">
<title>Node4&#45;&gt;Node6</title>
<path fill="none" stroke="#9a32cd" stroke-dasharray="5,2" d="M939.45,-407.33C966.77,-404.55 1000.51,-401.13 1028.67,-398.27"/>
<polygon fill="#9a32cd" stroke="#9a32cd" points="938.91,-403.86 929.32,-408.36 939.62,-410.83 938.91,-403.86"/>
<text text-anchor="middle" x="986.5" y="-407.5" font-family="Helvetica,sans-Serif" font-size="10.00"> pop</text>
</g>
<!-- Node9 -->
<g id="node9" class="node">
<title>Node9</title>
<g id="a_node9"><a xlink:href="classGAStatistics.html" target="_top" xlink:title="Statistics class.">
<polygon fill="white" stroke="black" points="1048.5,-115 1048.5,-134 1124.5,-134 1124.5,-115 1048.5,-115"/>
<text text-anchor="middle" x="1086.5" y="-122" font-family="Helvetica,sans-Serif" font-size="10.00">GAStatistics</text>
</a>
</g>
</g>
<!-- Node4&#45;&gt;Node9 -->
<g id="edge20" class="edge">
<title>Node4&#45;&gt;Node9</title>
<path fill="none" stroke="#9a32cd" stroke-dasharray="5,2" d="M900.78,-394.54C938.3,-339.7 1050.54,-175.62 1078.92,-134.12"/>
<polygon fill="#9a32cd" stroke="#9a32cd" points="897.81,-392.69 895.05,-402.92 903.59,-396.64 897.81,-392.69"/>
<text text-anchor="middle" x="986.5" y="-306.5" font-family="Helvetica,sans-Serif" font-size="10.00"> boa</text>
</g>
<!-- Node5&#45;&gt;Node4 -->
<g id="edge6" class="edge">
<title>Node5&#45;&gt;Node4</title>
<path fill="none" stroke="#9a32cd" stroke-dasharray="5,2" d="M655.3,-545.22C701.74,-545.92 765.29,-540.58 813,-512.5 849.77,-490.86 873.63,-442.87 882.55,-422.24"/>
<polygon fill="#9a32cd" stroke="#9a32cd" points="655.16,-541.72 645.08,-544.97 654.99,-548.71 655.16,-541.72"/>
<text text-anchor="middle" x="715" y="-547.5" font-family="Helvetica,sans-Serif" font-size="10.00"> sclscm</text>
</g>
<!-- Node6&#45;&gt;Node4 -->
<g id="edge10" class="edge">
<title>Node6&#45;&gt;Node4</title>
<path fill="none" stroke="#9a32cd" stroke-dasharray="5,2" d="M1040.27,-380.96C1016.74,-376.66 987.62,-374.01 962,-379.5 941.07,-383.98 918.91,-394.89 904.46,-402.95"/>
<polygon fill="#9a32cd" stroke="#9a32cd" points="1039.83,-384.44 1050.32,-382.96 1041.19,-377.58 1039.83,-384.44"/>
<text text-anchor="middle" x="986.5" y="-382.5" font-family="Helvetica,sans-Serif" font-size="10.00"> slct</text>
</g>
<!-- Node7 -->
<g id="node7" class="node">
<title>Node7</title>
<g id="a_node7"><a xlink:href="classGAEvalData.html" target="_top" xlink:title="This is the basic interface for the object that contains evaluation data.">
<polygon fill="white" stroke="black" points="426.5,-437 426.5,-456 501.5,-456 501.5,-437 426.5,-437"/>
<text text-anchor="middle" x="464" y="-444" font-family="Helvetica,sans-Serif" font-size="10.00">GAEvalData</text>
</a>
</g>
</g>
<!-- Node7&#45;&gt;Node4 -->
<g id="edge13" class="edge">
<title>Node7&#45;&gt;Node4</title>
<path fill="none" stroke="#9a32cd" stroke-dasharray="5,2" d="M511.73,-446.13C578.74,-445.08 705.86,-441.13 813,-426.5 823.68,-425.04 835.16,-423.06 845.8,-421.04"/>
<polygon fill="#9a32cd" stroke="#9a32cd" points="511.45,-442.64 501.5,-446.28 511.55,-449.63 511.45,-442.64"/>
<text text-anchor="middle" x="715" y="-442.5" font-family="Helvetica,sans-Serif" font-size="10.00"> evaldata</text>
</g>
<!-- Node7&#45;&gt;Node8 -->
<g id="edge17" class="edge">
<title>Node7&#45;&gt;Node8</title>
<path fill="none" stroke="#9a32cd" stroke-dasharray="5,2" d="M511.74,-435.75C550.36,-425.17 605.11,-406.08 645,-375.5 675.95,-351.77 699.62,-310.6 709.27,-292.05"/>
<polygon fill="#9a32cd" stroke="#9a32cd" points="510.57,-432.44 501.8,-438.39 512.36,-439.21 510.57,-432.44"/>
<text text-anchor="middle" x="592.5" y="-428.5" font-family="Helvetica,sans-Serif" font-size="10.00"> evd</text>
</g>
<!-- Node8&#45;&gt;Node2 -->
<g id="edge28" class="edge">
<title>Node8&#45;&gt;Node2</title>
<path fill="none" stroke="#9a32cd" stroke-dasharray="5,2" d="M669.06,-275.78C661.06,-274.83 652.8,-274.01 645,-273.5 603.99,-270.84 557.61,-271.7 522.21,-273.17"/>
<polygon fill="#9a32cd" stroke="#9a32cd" points="668.62,-279.26 678.98,-277.04 669.5,-272.31 668.62,-279.26"/>
<text text-anchor="middle" x="592.5" y="-287.5" font-family="Helvetica,sans-Serif" font-size="10.00"> across</text>
<text text-anchor="middle" x="592.5" y="-276.5" font-family="Helvetica,sans-Serif" font-size="10.00">scross</text>
</g>
<!-- Node8&#45;&gt;Node4 -->
<g id="edge14" class="edge">
<title>Node8&#45;&gt;Node4</title>
<path fill="none" stroke="#9a32cd" stroke-dasharray="5,2" d="M736.81,-298.37C772.62,-325.67 844.86,-380.75 873.94,-402.93"/>
<polygon fill="#9a32cd" stroke="#9a32cd" points="738.61,-295.34 728.54,-292.06 734.37,-300.91 738.61,-295.34"/>
<text text-anchor="middle" x="799" y="-368.5" font-family="Helvetica,sans-Serif" font-size="10.00"> rind</text>
<text text-anchor="middle" x="799" y="-357.5" font-family="Helvetica,sans-Serif" font-size="10.00">sind</text>
</g>
<!-- Node8&#45;&gt;Node8 -->
<g id="edge18" class="edge">
<title>Node8&#45;&gt;Node8</title>
<path fill="none" stroke="#9a32cd" stroke-dasharray="5,2" d="M699.53,-302.27C700.75,-307 705.9,-310.5 715,-310.5 729.93,-310.5 734.25,-301.07 727.95,-292.26"/>
<polygon fill="#9a32cd" stroke="#9a32cd" points="703,-302.81 702.05,-292.26 696.22,-301.1 703,-302.81"/>
<text text-anchor="middle" x="715" y="-368.5" font-family="Helvetica,sans-Serif" font-size="10.00"> asexcross</text>
<text text-anchor="middle" x="715" y="-357.5" font-family="Helvetica,sans-Serif" font-size="10.00">cmp</text>
<text text-anchor="middle" x="715" y="-346.5" font-family="Helvetica,sans-Serif" font-size="10.00">eval</text>
<text text-anchor="middle" x="715" y="-335.5" font-family="Helvetica,sans-Serif" font-size="10.00">init</text>
<text text-anchor="middle" x="715" y="-324.5" font-family="Helvetica,sans-Serif" font-size="10.00">mutr</text>
<text text-anchor="middle" x="715" y="-313.5" font-family="Helvetica,sans-Serif" font-size="10.00">sexcross</text>
</g>
<!-- Node9&#45;&gt;Node1 -->
<g id="edge30" class="edge">
<title>Node9&#45;&gt;Node1</title>
<path fill="none" stroke="#9a32cd" stroke-dasharray="5,2" d="M1118.96,-138.25C1140.65,-147.77 1170.13,-160.79 1196,-172.5 1207.11,-177.53 1219.45,-183.23 1229.52,-187.92"/>
<polygon fill="#9a32cd" stroke="#9a32cd" points="1120.14,-134.94 1109.58,-134.13 1117.33,-141.36 1120.14,-134.94"/>
<text text-anchor="middle" x="1179" y="-175.5" font-family="Helvetica,sans-Serif" font-size="10.00"> pstats</text>
</g>
<!-- Node9&#45;&gt;Node2 -->
<g id="edge19" class="edge">
<title>Node9&#45;&gt;Node2</title>
<path fill="none" stroke="#9a32cd" stroke-dasharray="5,2" d="M1047.06,-136.87C1035.57,-140.15 1022.87,-143.37 1011,-145.5 804.29,-182.61 725.66,-85.34 540,-183.5 504.06,-202.5 479.19,-246.92 469.51,-266.7"/>
<polygon fill="#9a32cd" stroke="#9a32cd" points="1048.19,-140.19 1056.79,-134 1046.21,-133.47 1048.19,-140.19"/>
<text text-anchor="middle" x="799" y="-150.5" font-family="Helvetica,sans-Serif" font-size="10.00"> stats</text>
</g>
<!-- Node10 -->
<g id="node10" class="node">
<title>Node10</title>
<g id="a_node10"><a xlink:title=" ">
<polygon fill="white" stroke="#bfbfbf" points="855,-6 855,-25 920,-25 920,-6 855,-6"/>
<text text-anchor="middle" x="887.5" y="-13" font-family="Helvetica,sans-Serif" font-size="10.00">std::string</text>
</a>
</g>
</g>
<!-- Node10&#45;&gt;Node9 -->
<g id="edge21" class="edge">
<title>Node10&#45;&gt;Node9</title>
<path fill="none" stroke="#9a32cd" stroke-dasharray="5,2" d="M930.25,-19.25C955.05,-22.92 986.37,-30.18 1011,-44.5 1042.17,-62.63 1068.11,-97.91 1079.41,-114.9"/>
<polygon fill="#9a32cd" stroke="#9a32cd" points="930.43,-15.74 920.06,-17.88 929.51,-22.68 930.43,-15.74"/>
<text text-anchor="middle" x="986.5" y="-47.5" font-family="Helvetica,sans-Serif" font-size="10.00"> scorefile</text>
</g>
<!-- Node11 -->
<g id="node11" class="node">
<title>Node11</title>
<g id="a_node11"><a xlink:title=" ">
<polygon fill="white" stroke="#bfbfbf" points="663,-0.5 663,-30.5 767,-30.5 767,-0.5 663,-0.5"/>
<text text-anchor="start" x="671" y="-18.5" font-family="Helvetica,sans-Serif" font-size="10.00">std::basic_string&lt;</text>
<text text-anchor="middle" x="715" y="-7.5" font-family="Helvetica,sans-Serif" font-size="10.00"> Char &gt;</text>
</a>
</g>
</g>
<!-- Node11&#45;&gt;Node10 -->
<g id="edge22" class="edge">
<title>Node11&#45;&gt;Node10</title>
<path fill="none" stroke="midnightblue" d="M777.42,-15.5C803.68,-15.5 833.23,-15.5 854.94,-15.5"/>
<polygon fill="midnightblue" stroke="midnightblue" points="777.16,-12 767.16,-15.5 777.16,-19 777.16,-12"/>
</g>
<!-- Node12 -->
<g id="node12" class="node">
<title>Node12</title>
<g id="a_node12"><a xlink:title=" ">
<polygon fill="white" stroke="#bfbfbf" points="831,-82 831,-101 944,-101 944,-82 831,-82"/>
<text text-anchor="middle" x="887.5" y="-89" font-family="Helvetica,sans-Serif" font-size="10.00">std::vector&lt; float &gt;</text>
</a>
</g>
</g>
<!-- Node12&#45;&gt;Node9 -->
<g id="edge23" class="edge">
<title>Node12&#45;&gt;Node9</title>
<path fill="none" stroke="#9a32cd" stroke-dasharray="5,2" d="M954.32,-85.63C972.83,-85.42 992.85,-86.55 1011,-90.5 1032.53,-95.18 1055.3,-106.66 1069.92,-114.99"/>
<polygon fill="#9a32cd" stroke="#9a32cd" points="954.13,-82.13 944.22,-85.88 954.3,-89.13 954.13,-82.13"/>
<text text-anchor="middle" x="986.5" y="-137.5" font-family="Helvetica,sans-Serif" font-size="10.00"> aveScore</text>
<text text-anchor="middle" x="986.5" y="-126.5" font-family="Helvetica,sans-Serif" font-size="10.00">devScore</text>
<text text-anchor="middle" x="986.5" y="-115.5" font-family="Helvetica,sans-Serif" font-size="10.00">divScore</text>
<text text-anchor="middle" x="986.5" y="-104.5" font-family="Helvetica,sans-Serif" font-size="10.00">maxScore</text>
<text text-anchor="middle" x="986.5" y="-93.5" font-family="Helvetica,sans-Serif" font-size="10.00">minScore</text>
</g>
<!-- Node13 -->
<g id="node13" class="node">
<title>Node13</title>
<g id="a_node13"><a xlink:title=" ">
<polygon fill="white" stroke="#bfbfbf" points="835.5,-44 835.5,-63 939.5,-63 939.5,-44 835.5,-44"/>
<text text-anchor="middle" x="887.5" y="-51" font-family="Helvetica,sans-Serif" font-size="10.00">std::vector&lt; int &gt;</text>
</a>
</g>
</g>
<!-- Node13&#45;&gt;Node9 -->
<g id="edge24" class="edge">
<title>Node13&#45;&gt;Node9</title>
<path fill="none" stroke="#9a32cd" stroke-dasharray="5,2" d="M949.65,-56.77C969.73,-59.33 991.8,-63.79 1011,-71.5 1036.63,-81.8 1061.83,-102.58 1075.35,-114.84"/>
<polygon fill="#9a32cd" stroke="#9a32cd" points="950,-53.29 939.67,-55.63 949.21,-60.24 950,-53.29"/>
<text text-anchor="middle" x="986.5" y="-74.5" font-family="Helvetica,sans-Serif" font-size="10.00"> gen</text>
</g>
<!-- Node14 -->
<g id="node14" class="node">
<title>Node14</title>
<g id="a_node14"><a xlink:href="classGAParameterList.html" target="_top" xlink:title="Parameter List.">
<polygon fill="white" stroke="black" points="232,-267 232,-286 330,-286 330,-267 232,-267"/>
<text text-anchor="middle" x="281" y="-274" font-family="Helvetica,sans-Serif" font-size="10.00">GAParameterList</text>
</a>
</g>
</g>
<!-- Node14&#45;&gt;Node2 -->
<g id="edge25" class="edge">
<title>Node14&#45;&gt;Node2</title>
<path fill="none" stroke="#9a32cd" stroke-dasharray="5,2" d="M340.1,-276.5C361.11,-276.5 384.79,-276.5 405.72,-276.5"/>
<polygon fill="#9a32cd" stroke="#9a32cd" points="340.03,-273 330.03,-276.5 340.03,-280 340.03,-273"/>
<text text-anchor="middle" x="368" y="-279.5" font-family="Helvetica,sans-Serif" font-size="10.00"> params</text>
</g>
<!-- Node15 -->
<g id="node15" class="node">
<title>Node15</title>
<g id="a_node15"><a xlink:title=" ">
<polygon fill="white" stroke="#bfbfbf" points="114,-267 114,-286 195,-286 195,-267 114,-267"/>
<text text-anchor="middle" x="154.5" y="-274" font-family="Helvetica,sans-Serif" font-size="10.00">std::list&lt; T &gt;</text>
</a>
</g>
</g>
<!-- Node15&#45;&gt;Node14 -->
<g id="edge26" class="edge">
<title>Node15&#45;&gt;Node14</title>
<path fill="none" stroke="midnightblue" d="M205.33,-276.5C214.1,-276.5 223.21,-276.5 231.93,-276.5"/>
<polygon fill="midnightblue" stroke="midnightblue" points="205.23,-273 195.23,-276.5 205.23,-280 205.23,-273"/>
</g>
<!-- Node16 -->
<g id="node16" class="node">
<title>Node16</title>
<g id="a_node16"><a xlink:title=" ">
<polygon fill="white" stroke="#bfbfbf" points="0,-267 0,-286 29,-286 29,-267 0,-267"/>
<text text-anchor="middle" x="14.5" y="-274" font-family="Helvetica,sans-Serif" font-size="10.00">T</text>
</a>
</g>
</g>
<!-- Node16&#45;&gt;Node15 -->
<g id="edge27" class="edge">
<title>Node16&#45;&gt;Node15</title>
<path fill="none" stroke="#9a32cd" stroke-dasharray="5,2" d="M39.28,-276.5C59.79,-276.5 89.81,-276.5 113.93,-276.5"/>
<polygon fill="#9a32cd" stroke="#9a32cd" points="39.24,-273 29.24,-276.5 39.24,-280 39.24,-273"/>
<text text-anchor="middle" x="71.5" y="-279.5" font-family="Helvetica,sans-Serif" font-size="10.00"> elements</text>
</g>
</g>
</svg>
