<?xml version="1.0" encoding="UTF-8" standalone="no"?>
<!DOCTYPE svg PUBLIC "-//W3C//DTD SVG 1.1//EN"
 "http://www.w3.org/Graphics/SVG/1.1/DTD/svg11.dtd">
<!-- Generated by graphviz version 2.43.0 (0)
 -->
<!-- Title: GA1DArrayAlleleGenome&lt; T &gt; Pages: 1 -->
<svg width="1069pt" height="564pt"
 viewBox="0.00 0.00 1069.00 564.00" xmlns="http://www.w3.org/2000/svg" xmlns:xlink="http://www.w3.org/1999/xlink">
<g id="graph0" class="graph" transform="scale(1 1) rotate(0) translate(4 560)">
<title>GA1DArrayAlleleGenome&lt; T &gt;</title>
<polygon fill="white" stroke="transparent" points="-4,4 -4,-560 1065,-560 1065,4 -4,4"/>
<!-- Node1 -->
<g id="node1" class="node">
<title>Node1</title>
<g id="a_node1"><a xlink:title=" ">
<polygon fill="#bfbfbf" stroke="black" points="693,-509.5 693,-528.5 861,-528.5 861,-509.5 693,-509.5"/>
<text text-anchor="middle" x="777" y="-516.5" font-family="Helvetica,sans-Serif" font-size="10.00">GA1DArrayAlleleGenome&lt; T &gt;</text>
</a>
</g>
</g>
<!-- Node2 -->
<g id="node2" class="node">
<title>Node2</title>
<g id="a_node2"><a xlink:href="classGA1DArrayGenome.html" target="_top" xlink:title="1 dimensional Array Genome">
<polygon fill="white" stroke="black" points="492,-536.5 492,-555.5 632,-555.5 632,-536.5 492,-536.5"/>
<text text-anchor="middle" x="562" y="-543.5" font-family="Helvetica,sans-Serif" font-size="10.00">GA1DArrayGenome&lt; T &gt;</text>
</a>
</g>
</g>
<!-- Node2&#45;&gt;Node1 -->
<g id="edge1" class="edge">
<title>Node2&#45;&gt;Node1</title>
<path fill="none" stroke="midnightblue" d="M642.09,-535.97C661.35,-533.53 681.88,-530.93 700.94,-528.51"/>
<polygon fill="midnightblue" stroke="midnightblue" points="641.64,-532.5 632.15,-537.23 642.52,-539.45 641.64,-532.5"/>
</g>
<!-- Node3 -->
<g id="node3" class="node">
<title>Node3</title>
<g id="a_node3"><a xlink:href="classGAArray.html" target="_top" xlink:title="Array Base Class.">
<polygon fill="white" stroke="black" points="259,-536.5 259,-555.5 345,-555.5 345,-536.5 259,-536.5"/>
<text text-anchor="middle" x="302" y="-543.5" font-family="Helvetica,sans-Serif" font-size="10.00">GAArray&lt; T &gt;</text>
</a>
</g>
</g>
<!-- Node3&#45;&gt;Node2 -->
<g id="edge2" class="edge">
<title>Node3&#45;&gt;Node2</title>
<path fill="none" stroke="midnightblue" d="M355.19,-546C394.52,-546 448.82,-546 491.77,-546"/>
<polygon fill="midnightblue" stroke="midnightblue" points="355.03,-542.5 345.03,-546 355.03,-549.5 355.03,-542.5"/>
</g>
<!-- Node4 -->
<g id="node4" class="node">
<title>Node4</title>
<g id="a_node4"><a xlink:href="classGAGenome.html" target="_top" xlink:title="The base genome class just defines the genome interface &#45; how to mutate, crossover,...">
<polygon fill="white" stroke="black" points="266,-326.5 266,-345.5 338,-345.5 338,-326.5 266,-326.5"/>
<text text-anchor="middle" x="302" y="-333.5" font-family="Helvetica,sans-Serif" font-size="10.00">GAGenome</text>
</a>
</g>
</g>
<!-- Node4&#45;&gt;Node2 -->
<g id="edge3" class="edge">
<title>Node4&#45;&gt;Node2</title>
<path fill="none" stroke="midnightblue" d="M314.47,-354.03C326.18,-370.97 345.87,-395.77 369,-410 410.14,-435.31 440.91,-402.82 474,-438 501.65,-467.39 464.47,-497.49 492,-527 495.56,-530.82 499.81,-533.89 504.43,-536.36"/>
<polygon fill="midnightblue" stroke="midnightblue" points="317.28,-351.93 308.82,-345.55 311.46,-355.82 317.28,-351.93"/>
</g>
<!-- Node4&#45;&gt;Node4 -->
<g id="edge30" class="edge">
<title>Node4&#45;&gt;Node4</title>
<path fill="none" stroke="#9a32cd" stroke-dasharray="5,2" d="M287.64,-355.77C288.76,-360.5 293.55,-364 302,-364 315.86,-364 319.87,-354.57 314.02,-345.76"/>
<polygon fill="#9a32cd" stroke="#9a32cd" points="291.11,-356.29 289.98,-345.76 284.29,-354.7 291.11,-356.29"/>
<text text-anchor="middle" x="302" y="-422" font-family="Helvetica,sans-Serif" font-size="10.00"> asexcross</text>
<text text-anchor="middle" x="302" y="-411" font-family="Helvetica,sans-Serif" font-size="10.00">cmp</text>
<text text-anchor="middle" x="302" y="-400" font-family="Helvetica,sans-Serif" font-size="10.00">eval</text>
<text text-anchor="middle" x="302" y="-389" font-family="Helvetica,sans-Serif" font-size="10.00">init</text>
<text text-anchor="middle" x="302" y="-378" font-family="Helvetica,sans-Serif" font-size="10.00">mutr</text>
<text text-anchor="middle" x="302" y="-367" font-family="Helvetica,sans-Serif" font-size="10.00">sexcross</text>
</g>
<!-- Node6 -->
<g id="node6" class="node">
<title>Node6</title>
<g id="a_node6"><a xlink:href="classGAGeneticAlgorithm.html" target="_top" xlink:title="The base GA class is virtual &#45; it defines the core data elements and parts of the interface that are ...">
<polygon fill="white" stroke="black" points="504,-283.5 504,-302.5 620,-302.5 620,-283.5 504,-283.5"/>
<text text-anchor="middle" x="562" y="-290.5" font-family="Helvetica,sans-Serif" font-size="10.00">GAGeneticAlgorithm</text>
</a>
</g>
</g>
<!-- Node4&#45;&gt;Node6 -->
<g id="edge28" class="edge">
<title>Node4&#45;&gt;Node6</title>
<path fill="none" stroke="#9a32cd" stroke-dasharray="5,2" d="M348.26,-327.65C355.2,-326.4 362.29,-325.15 369,-324 414.26,-316.23 465.62,-307.97 503.82,-301.93"/>
<polygon fill="#9a32cd" stroke="#9a32cd" points="347.48,-324.23 338.26,-329.46 348.72,-331.12 347.48,-324.23"/>
<text text-anchor="middle" x="421.5" y="-338" font-family="Helvetica,sans-Serif" font-size="10.00"> across</text>
<text text-anchor="middle" x="421.5" y="-327" font-family="Helvetica,sans-Serif" font-size="10.00">scross</text>
</g>
<!-- Node7 -->
<g id="node7" class="node">
<title>Node7</title>
<g id="a_node7"><a xlink:href="classGAPopulation.html" target="_top" xlink:title=" ">
<polygon fill="white" stroke="black" points="735.5,-253.5 735.5,-272.5 818.5,-272.5 818.5,-253.5 735.5,-253.5"/>
<text text-anchor="middle" x="777" y="-260.5" font-family="Helvetica,sans-Serif" font-size="10.00">GAPopulation</text>
</a>
</g>
</g>
<!-- Node4&#45;&gt;Node7 -->
<g id="edge18" class="edge">
<title>Node4&#45;&gt;Node7</title>
<path fill="none" stroke="#9a32cd" stroke-dasharray="5,2" d="M324.05,-351.48C336.45,-359.62 352.84,-368.78 369,-373 414.15,-384.79 427.57,-377.65 474,-373 545.29,-365.85 564.65,-365.44 632,-341 682.25,-322.77 736.35,-289.25 761.55,-272.73"/>
<polygon fill="#9a32cd" stroke="#9a32cd" points="326.01,-348.58 315.78,-345.81 322.05,-354.35 326.01,-348.58"/>
<text text-anchor="middle" x="562" y="-386" font-family="Helvetica,sans-Serif" font-size="10.00"> rind</text>
<text text-anchor="middle" x="562" y="-375" font-family="Helvetica,sans-Serif" font-size="10.00">sind</text>
</g>
<!-- Node5 -->
<g id="node5" class="node">
<title>Node5</title>
<g id="a_node5"><a xlink:href="classGAID.html" target="_top" xlink:title="This defines the identifiers for polymorphic classes.">
<polygon fill="white" stroke="black" points="134,-212.5 134,-231.5 175,-231.5 175,-212.5 134,-212.5"/>
<text text-anchor="middle" x="154.5" y="-219.5" font-family="Helvetica,sans-Serif" font-size="10.00">GAID</text>
</a>
</g>
</g>
<!-- Node5&#45;&gt;Node4 -->
<g id="edge4" class="edge">
<title>Node5&#45;&gt;Node4</title>
<path fill="none" stroke="midnightblue" d="M169.54,-239.38C187.16,-260.23 219.18,-295.1 253,-317 258.64,-320.65 265.1,-323.8 271.41,-326.42"/>
<polygon fill="midnightblue" stroke="midnightblue" points="172.19,-237.09 163.11,-231.63 166.81,-241.56 172.19,-237.09"/>
</g>
<!-- Node5&#45;&gt;Node6 -->
<g id="edge6" class="edge">
<title>Node5&#45;&gt;Node6</title>
<path fill="none" stroke="midnightblue" d="M184.72,-230.83C193.74,-233.36 203.73,-235.98 213,-238 314.61,-260.09 434.73,-277.1 503.97,-286.03"/>
<polygon fill="midnightblue" stroke="midnightblue" points="185.63,-227.45 175.05,-228.04 183.69,-234.18 185.63,-227.45"/>
</g>
<!-- Node5&#45;&gt;Node7 -->
<g id="edge9" class="edge">
<title>Node5&#45;&gt;Node7</title>
<path fill="none" stroke="midnightblue" d="M185.37,-219.24C226.62,-215.57 303.38,-209.3 369,-207 486.26,-202.89 517.39,-204.88 632,-230 659.61,-236.05 665.5,-241.48 693,-248 706.68,-251.24 721.77,-254.16 735.29,-256.55"/>
<polygon fill="midnightblue" stroke="midnightblue" points="184.84,-215.77 175.2,-220.15 185.47,-222.74 184.84,-215.77"/>
</g>
<!-- Node8 -->
<g id="node8" class="node">
<title>Node8</title>
<g id="a_node8"><a xlink:href="classGAScalingScheme.html" target="_top" xlink:title=" ">
<polygon fill="white" stroke="black" points="369,-216.5 369,-235.5 474,-235.5 474,-216.5 369,-216.5"/>
<text text-anchor="middle" x="421.5" y="-223.5" font-family="Helvetica,sans-Serif" font-size="10.00">GAScalingScheme</text>
</a>
</g>
</g>
<!-- Node5&#45;&gt;Node8 -->
<g id="edge11" class="edge">
<title>Node5&#45;&gt;Node8</title>
<path fill="none" stroke="midnightblue" d="M185.6,-222.45C230.19,-223.13 314.38,-224.4 368.92,-225.22"/>
<polygon fill="midnightblue" stroke="midnightblue" points="185.47,-218.95 175.42,-222.3 185.36,-225.95 185.47,-218.95"/>
</g>
<!-- Node9 -->
<g id="node9" class="node">
<title>Node9</title>
<g id="a_node9"><a xlink:href="classGASelectionScheme.html" target="_top" xlink:title=" ">
<polygon fill="white" stroke="black" points="946,-238.5 946,-257.5 1061,-257.5 1061,-238.5 946,-238.5"/>
<text text-anchor="middle" x="1003.5" y="-245.5" font-family="Helvetica,sans-Serif" font-size="10.00">GASelectionScheme</text>
</a>
</g>
</g>
<!-- Node5&#45;&gt;Node9 -->
<g id="edge15" class="edge">
<title>Node5&#45;&gt;Node9</title>
<path fill="none" stroke="midnightblue" d="M169.22,-204.34C192.83,-176.12 244.14,-124 301,-124 301,-124 301,-124 663.5,-124 785.22,-124 820.1,-138.67 928,-195 951.92,-207.49 976.92,-226.76 991.02,-238.3"/>
<polygon fill="midnightblue" stroke="midnightblue" points="166.39,-202.27 162.8,-212.25 171.82,-206.68 166.39,-202.27"/>
</g>
<!-- Node6&#45;&gt;Node4 -->
<g id="edge5" class="edge">
<title>Node6&#45;&gt;Node4</title>
<path fill="none" stroke="#9a32cd" stroke-dasharray="5,2" d="M543.03,-309.34C526.47,-323.21 500.52,-342.09 474,-350 427.19,-363.97 370.18,-354.29 335.24,-345.54"/>
<polygon fill="#9a32cd" stroke="#9a32cd" points="545.51,-311.82 550.78,-302.63 540.93,-306.53 545.51,-311.82"/>
<text text-anchor="middle" x="421.5" y="-361" font-family="Helvetica,sans-Serif" font-size="10.00"> ga</text>
</g>
<!-- Node6&#45;&gt;Node6 -->
<g id="edge7" class="edge">
<title>Node6&#45;&gt;Node6</title>
<path fill="none" stroke="#9a32cd" stroke-dasharray="5,2" d="M543.48,-312.4C544.72,-317.31 550.89,-321 562,-321 579.77,-321 584.91,-311.57 577.41,-302.76"/>
<polygon fill="#9a32cd" stroke="#9a32cd" points="546.85,-313.35 546.59,-302.76 540.19,-311.2 546.85,-313.35"/>
<text text-anchor="middle" x="562" y="-324" font-family="Helvetica,sans-Serif" font-size="10.00"> cf</text>
</g>
<!-- Node6&#45;&gt;Node7 -->
<g id="edge12" class="edge">
<title>Node6&#45;&gt;Node7</title>
<path fill="none" stroke="#9a32cd" stroke-dasharray="5,2" d="M630.1,-283.55C664.63,-278.69 705.59,-272.92 735.31,-268.73"/>
<polygon fill="#9a32cd" stroke="#9a32cd" points="629.49,-280.1 620.08,-284.96 630.47,-287.03 629.49,-280.1"/>
<text text-anchor="middle" x="662.5" y="-284" font-family="Helvetica,sans-Serif" font-size="10.00"> ga</text>
</g>
<!-- Node7&#45;&gt;Node6 -->
<g id="edge8" class="edge">
<title>Node7&#45;&gt;Node6</title>
<path fill="none" stroke="#9a32cd" stroke-dasharray="5,2" d="M725.17,-259.8C702.08,-259.27 674.51,-259.92 650,-264 627.38,-267.76 602.68,-276.47 585.4,-283.36"/>
<polygon fill="#9a32cd" stroke="#9a32cd" points="725.33,-263.31 735.43,-260.12 725.55,-256.31 725.33,-263.31"/>
<text text-anchor="middle" x="662.5" y="-267" font-family="Helvetica,sans-Serif" font-size="10.00"> pop</text>
</g>
<!-- Node7&#45;&gt;Node7 -->
<g id="edge13" class="edge">
<title>Node7&#45;&gt;Node7</title>
<path fill="none" stroke="#9a32cd" stroke-dasharray="5,2" d="M755.89,-282.4C757.3,-287.31 764.34,-291 777,-291 797.26,-291 803.12,-281.57 794.57,-272.76"/>
<polygon fill="#9a32cd" stroke="#9a32cd" points="759.27,-283.35 759.43,-272.76 752.7,-280.94 759.27,-283.35"/>
<text text-anchor="middle" x="777" y="-305" font-family="Helvetica,sans-Serif" font-size="10.00"> eval</text>
<text text-anchor="middle" x="777" y="-294" font-family="Helvetica,sans-Serif" font-size="10.00">init</text>
</g>
<!-- Node7&#45;&gt;Node9 -->
<g id="edge16" class="edge">
<title>Node7&#45;&gt;Node9</title>
<path fill="none" stroke="#9a32cd" stroke-dasharray="5,2" d="M828.84,-263.74C857.93,-263.73 895.08,-262.97 928,-260 934.78,-259.39 941.89,-258.53 948.9,-257.55"/>
<polygon fill="#9a32cd" stroke="#9a32cd" points="828.52,-260.24 818.51,-263.72 828.5,-267.24 828.52,-260.24"/>
<text text-anchor="middle" x="903.5" y="-266" font-family="Helvetica,sans-Serif" font-size="10.00"> pop</text>
</g>
<!-- Node11 -->
<g id="node11" class="node">
<title>Node11</title>
<g id="a_node11"><a xlink:href="classGAStatistics.html" target="_top" xlink:title="Statistics class.">
<polygon fill="white" stroke="black" points="965.5,-76.5 965.5,-95.5 1041.5,-95.5 1041.5,-76.5 965.5,-76.5"/>
<text text-anchor="middle" x="1003.5" y="-83.5" font-family="Helvetica,sans-Serif" font-size="10.00">GAStatistics</text>
</a>
</g>
</g>
<!-- Node7&#45;&gt;Node11 -->
<g id="edge20" class="edge">
<title>Node7&#45;&gt;Node11</title>
<path fill="none" stroke="#9a32cd" stroke-dasharray="5,2" d="M806.25,-248.7C837.68,-232.09 889.14,-202.74 928,-170 956.03,-146.39 983.07,-112.15 995.46,-95.63"/>
<polygon fill="#9a32cd" stroke="#9a32cd" points="804.42,-245.71 797.17,-253.44 807.66,-251.92 804.42,-245.71"/>
<text text-anchor="middle" x="903.5" y="-208" font-family="Helvetica,sans-Serif" font-size="10.00"> boa</text>
</g>
<!-- Node8&#45;&gt;Node7 -->
<g id="edge10" class="edge">
<title>Node8&#45;&gt;Node7</title>
<path fill="none" stroke="#9a32cd" stroke-dasharray="5,2" d="M484.59,-232.5C556.79,-240.06 673.89,-252.31 735.36,-258.75"/>
<polygon fill="#9a32cd" stroke="#9a32cd" points="484.59,-228.98 474.28,-231.42 483.86,-235.94 484.59,-228.98"/>
<text text-anchor="middle" x="562" y="-251" font-family="Helvetica,sans-Serif" font-size="10.00"> sclscm</text>
</g>
<!-- Node9&#45;&gt;Node7 -->
<g id="edge14" class="edge">
<title>Node9&#45;&gt;Node7</title>
<path fill="none" stroke="#9a32cd" stroke-dasharray="5,2" d="M935.82,-246.96C917.39,-247.1 897.4,-247.66 879,-249 859.05,-250.46 837.03,-253.36 818.66,-256.14"/>
<polygon fill="#9a32cd" stroke="#9a32cd" points="935.89,-250.46 945.87,-246.92 935.86,-243.46 935.89,-250.46"/>
<text text-anchor="middle" x="903.5" y="-252" font-family="Helvetica,sans-Serif" font-size="10.00"> slct</text>
</g>
<!-- Node10 -->
<g id="node10" class="node">
<title>Node10</title>
<g id="a_node10"><a xlink:href="classGAEvalData.html" target="_top" xlink:title="This is the basic interface for the object that contains evaluation data.">
<polygon fill="white" stroke="black" points="117,-414.5 117,-433.5 192,-433.5 192,-414.5 117,-414.5"/>
<text text-anchor="middle" x="154.5" y="-421.5" font-family="Helvetica,sans-Serif" font-size="10.00">GAEvalData</text>
</a>
</g>
</g>
<!-- Node10&#45;&gt;Node4 -->
<g id="edge29" class="edge">
<title>Node10&#45;&gt;Node4</title>
<path fill="none" stroke="#9a32cd" stroke-dasharray="5,2" d="M179.96,-409.21C209.92,-391.08 259.82,-360.91 285.17,-345.57"/>
<polygon fill="#9a32cd" stroke="#9a32cd" points="178.09,-406.24 171.35,-414.41 181.72,-412.23 178.09,-406.24"/>
<text text-anchor="middle" x="224" y="-391" font-family="Helvetica,sans-Serif" font-size="10.00"> evd</text>
</g>
<!-- Node10&#45;&gt;Node7 -->
<g id="edge17" class="edge">
<title>Node10&#45;&gt;Node7</title>
<path fill="none" stroke="#9a32cd" stroke-dasharray="5,2" d="M202.22,-432.75C291.04,-447.02 488.23,-467.27 632,-398 695.9,-367.21 750.61,-297.95 769.22,-272.56"/>
<polygon fill="#9a32cd" stroke="#9a32cd" points="202.62,-429.27 192.19,-431.08 201.48,-436.17 202.62,-429.27"/>
<text text-anchor="middle" x="421.5" y="-450" font-family="Helvetica,sans-Serif" font-size="10.00"> evaldata</text>
</g>
<!-- Node11&#45;&gt;Node6 -->
<g id="edge19" class="edge">
<title>Node11&#45;&gt;Node6</title>
<path fill="none" stroke="#9a32cd" stroke-dasharray="5,2" d="M983.83,-102.34C969.33,-114.43 948.34,-130.7 928,-142 830.09,-196.38 795.57,-188.02 693,-233 665.33,-245.13 659.42,-250.31 632,-263 616.71,-270.08 599.31,-277.64 585.81,-283.4"/>
<polygon fill="#9a32cd" stroke="#9a32cd" points="986.21,-104.91 991.56,-95.77 981.67,-99.57 986.21,-104.91"/>
<text text-anchor="middle" x="777" y="-236" font-family="Helvetica,sans-Serif" font-size="10.00"> stats</text>
</g>
<!-- Node12 -->
<g id="node12" class="node">
<title>Node12</title>
<g id="a_node12"><a xlink:title=" ">
<polygon fill="white" stroke="#bfbfbf" points="744.5,-38.5 744.5,-57.5 809.5,-57.5 809.5,-38.5 744.5,-38.5"/>
<text text-anchor="middle" x="777" y="-45.5" font-family="Helvetica,sans-Serif" font-size="10.00">std::string</text>
</a>
</g>
</g>
<!-- Node12&#45;&gt;Node11 -->
<g id="edge21" class="edge">
<title>Node12&#45;&gt;Node11</title>
<path fill="none" stroke="#9a32cd" stroke-dasharray="5,2" d="M819.83,-53.88C849.96,-58.25 891.57,-64.54 928,-71 940.21,-73.16 953.5,-75.76 965.43,-78.18"/>
<polygon fill="#9a32cd" stroke="#9a32cd" points="820.07,-50.38 809.67,-52.42 819.07,-57.31 820.07,-50.38"/>
<text text-anchor="middle" x="903.5" y="-74" font-family="Helvetica,sans-Serif" font-size="10.00"> scorefile</text>
</g>
<!-- Node13 -->
<g id="node13" class="node">
<title>Node13</title>
<g id="a_node13"><a xlink:title=" ">
<polygon fill="white" stroke="#bfbfbf" points="510,-33 510,-63 614,-63 614,-33 510,-33"/>
<text text-anchor="start" x="518" y="-51" font-family="Helvetica,sans-Serif" font-size="10.00">std::basic_string&lt;</text>
<text text-anchor="middle" x="562" y="-40" font-family="Helvetica,sans-Serif" font-size="10.00"> Char &gt;</text>
</a>
</g>
</g>
<!-- Node13&#45;&gt;Node12 -->
<g id="edge22" class="edge">
<title>Node13&#45;&gt;Node12</title>
<path fill="none" stroke="midnightblue" d="M624.26,-48C663.45,-48 712.67,-48 744.23,-48"/>
<polygon fill="midnightblue" stroke="midnightblue" points="624.02,-44.5 614.02,-48 624.02,-51.5 624.02,-44.5"/>
</g>
<!-- Node14 -->
<g id="node14" class="node">
<title>Node14</title>
<g id="a_node14"><a xlink:title=" ">
<polygon fill="white" stroke="#bfbfbf" points="720.5,-76.5 720.5,-95.5 833.5,-95.5 833.5,-76.5 720.5,-76.5"/>
<text text-anchor="middle" x="777" y="-83.5" font-family="Helvetica,sans-Serif" font-size="10.00">std::vector&lt; float &gt;</text>
</a>
</g>
</g>
<!-- Node14&#45;&gt;Node11 -->
<g id="edge23" class="edge">
<title>Node14&#45;&gt;Node11</title>
<path fill="none" stroke="#9a32cd" stroke-dasharray="5,2" d="M843.89,-86C883.45,-86 932.34,-86 965.3,-86"/>
<polygon fill="#9a32cd" stroke="#9a32cd" points="843.78,-82.5 833.78,-86 843.78,-89.5 843.78,-82.5"/>
<text text-anchor="middle" x="903.5" y="-133" font-family="Helvetica,sans-Serif" font-size="10.00"> aveScore</text>
<text text-anchor="middle" x="903.5" y="-122" font-family="Helvetica,sans-Serif" font-size="10.00">devScore</text>
<text text-anchor="middle" x="903.5" y="-111" font-family="Helvetica,sans-Serif" font-size="10.00">divScore</text>
<text text-anchor="middle" x="903.5" y="-100" font-family="Helvetica,sans-Serif" font-size="10.00">maxScore</text>
<text text-anchor="middle" x="903.5" y="-89" font-family="Helvetica,sans-Serif" font-size="10.00">minScore</text>
</g>
<!-- Node15 -->
<g id="node15" class="node">
<title>Node15</title>
<g id="a_node15"><a xlink:title=" ">
<polygon fill="white" stroke="#bfbfbf" points="725,-0.5 725,-19.5 829,-19.5 829,-0.5 725,-0.5"/>
<text text-anchor="middle" x="777" y="-7.5" font-family="Helvetica,sans-Serif" font-size="10.00">std::vector&lt; int &gt;</text>
</a>
</g>
</g>
<!-- Node15&#45;&gt;Node11 -->
<g id="edge24" class="edge">
<title>Node15&#45;&gt;Node11</title>
<path fill="none" stroke="#9a32cd" stroke-dasharray="5,2" d="M836.98,-21.85C865.05,-28.37 898.79,-37.49 928,-49 948.29,-57 970.56,-68.43 985.42,-76.47"/>
<polygon fill="#9a32cd" stroke="#9a32cd" points="837.44,-18.37 826.91,-19.57 835.89,-25.19 837.44,-18.37"/>
<text text-anchor="middle" x="903.5" y="-52" font-family="Helvetica,sans-Serif" font-size="10.00"> gen</text>
</g>
<!-- Node16 -->
<g id="node16" class="node">
<title>Node16</title>
<g id="a_node16"><a xlink:href="classGAParameterList.html" target="_top" xlink:title="Parameter List.">
<polygon fill="white" stroke="black" points="253,-288.5 253,-307.5 351,-307.5 351,-288.5 253,-288.5"/>
<text text-anchor="middle" x="302" y="-295.5" font-family="Helvetica,sans-Serif" font-size="10.00">GAParameterList</text>
</a>
</g>
</g>
<!-- Node16&#45;&gt;Node6 -->
<g id="edge25" class="edge">
<title>Node16&#45;&gt;Node6</title>
<path fill="none" stroke="#9a32cd" stroke-dasharray="5,2" d="M361.34,-294.29C363.93,-294.18 366.49,-294.08 369,-294 414.31,-292.51 465.67,-292.32 503.86,-292.47"/>
<polygon fill="#9a32cd" stroke="#9a32cd" points="361.11,-290.8 351.29,-294.76 361.44,-297.79 361.11,-290.8"/>
<text text-anchor="middle" x="421.5" y="-297" font-family="Helvetica,sans-Serif" font-size="10.00"> params</text>
</g>
<!-- Node17 -->
<g id="node17" class="node">
<title>Node17</title>
<g id="a_node17"><a xlink:title=" ">
<polygon fill="white" stroke="#bfbfbf" points="114,-300.5 114,-319.5 195,-319.5 195,-300.5 114,-300.5"/>
<text text-anchor="middle" x="154.5" y="-307.5" font-family="Helvetica,sans-Serif" font-size="10.00">std::list&lt; T &gt;</text>
</a>
</g>
</g>
<!-- Node17&#45;&gt;Node16 -->
<g id="edge26" class="edge">
<title>Node17&#45;&gt;Node16</title>
<path fill="none" stroke="midnightblue" d="M205.56,-305.87C220.83,-304.61 237.59,-303.23 252.74,-301.98"/>
<polygon fill="midnightblue" stroke="midnightblue" points="204.94,-302.41 195.26,-306.72 205.51,-309.39 204.94,-302.41"/>
</g>
<!-- Node18 -->
<g id="node18" class="node">
<title>Node18</title>
<g id="a_node18"><a xlink:title=" ">
<polygon fill="white" stroke="#bfbfbf" points="0,-300.5 0,-319.5 29,-319.5 29,-300.5 0,-300.5"/>
<text text-anchor="middle" x="14.5" y="-307.5" font-family="Helvetica,sans-Serif" font-size="10.00">T</text>
</a>
</g>
</g>
<!-- Node18&#45;&gt;Node17 -->
<g id="edge27" class="edge">
<title>Node18&#45;&gt;Node17</title>
<path fill="none" stroke="#9a32cd" stroke-dasharray="5,2" d="M39.28,-310C59.79,-310 89.81,-310 113.93,-310"/>
<polygon fill="#9a32cd" stroke="#9a32cd" points="39.24,-306.5 29.24,-310 39.24,-313.5 39.24,-306.5"/>
<text text-anchor="middle" x="71.5" y="-313" font-family="Helvetica,sans-Serif" font-size="10.00"> elements</text>
</g>
<!-- Node19 -->
<g id="node19" class="node">
<title>Node19</title>
<g id="a_node19"><a xlink:title=" ">
<polygon fill="white" stroke="#bfbfbf" points="493.5,-487 493.5,-517 630.5,-517 630.5,-487 493.5,-487"/>
<text text-anchor="start" x="501.5" y="-505" font-family="Helvetica,sans-Serif" font-size="10.00">std::vector&lt; GAAlleleSet</text>
<text text-anchor="middle" x="562" y="-494" font-family="Helvetica,sans-Serif" font-size="10.00">&lt; T &gt; &gt;</text>
</a>
</g>
</g>
<!-- Node19&#45;&gt;Node1 -->
<g id="edge31" class="edge">
<title>Node19&#45;&gt;Node1</title>
<path fill="none" stroke="#9a32cd" stroke-dasharray="5,2" d="M641.03,-508.23C657.88,-509.57 675.75,-511 692.79,-512.36"/>
<polygon fill="#9a32cd" stroke="#9a32cd" points="640.93,-504.71 630.69,-507.4 640.38,-511.69 640.93,-504.71"/>
<text text-anchor="middle" x="662.5" y="-513" font-family="Helvetica,sans-Serif" font-size="10.00"> aset</text>
</g>
</g>
</svg>
