<?xml version="1.0" encoding="UTF-8" standalone="no"?>
<!DOCTYPE svg PUBLIC "-//W3C//DTD SVG 1.1//EN"
 "http://www.w3.org/Graphics/SVG/1.1/DTD/svg11.dtd">
<!-- Generated by graphviz version 2.43.0 (0)
 -->
<!-- Title: GAList&lt; T &gt; Pages: 1 -->
<svg width="140pt" height="176pt"
 viewBox="0.00 0.00 140.00 176.00" xmlns="http://www.w3.org/2000/svg" xmlns:xlink="http://www.w3.org/1999/xlink">
<g id="graph0" class="graph" transform="scale(1 1) rotate(0) translate(4 172)">
<title>GAList&lt; T &gt;</title>
<polygon fill="white" stroke="transparent" points="-4,4 -4,-172 136,-172 136,4 -4,4"/>
<!-- Node1 -->
<g id="node1" class="node">
<title>Node1</title>
<g id="a_node1"><a xlink:title="Container for nodes that have a list structure.">
<polygon fill="#bfbfbf" stroke="black" points="2.5,-0.5 2.5,-19.5 79.5,-19.5 79.5,-0.5 2.5,-0.5"/>
<text text-anchor="middle" x="41" y="-7.5" font-family="Helvetica,sans-Serif" font-size="10.00">GAList&lt; T &gt;</text>
</a>
</g>
</g>
<!-- Node2 -->
<g id="node2" class="node">
<title>Node2</title>
<g id="a_node2"><a xlink:href="classGAListBASE.html" target="_top" xlink:title=" ">
<polygon fill="white" stroke="black" points="4,-57.5 4,-76.5 78,-76.5 78,-57.5 4,-57.5"/>
<text text-anchor="middle" x="41" y="-64.5" font-family="Helvetica,sans-Serif" font-size="10.00">GAListBASE</text>
</a>
</g>
</g>
<!-- Node2&#45;&gt;Node1 -->
<g id="edge1" class="edge">
<title>Node2&#45;&gt;Node1</title>
<path fill="none" stroke="midnightblue" d="M41,-47.12C41,-37.82 41,-27.06 41,-19.71"/>
<polygon fill="midnightblue" stroke="midnightblue" points="37.5,-47.41 41,-57.41 44.5,-47.41 37.5,-47.41"/>
</g>
<!-- Node3 -->
<g id="node3" class="node">
<title>Node3</title>
<g id="a_node3"><a xlink:href="structGANodeBASE.html" target="_top" xlink:title="This is the basic node object.">
<polygon fill="white" stroke="black" points="0,-136.5 0,-155.5 82,-155.5 82,-136.5 0,-136.5"/>
<text text-anchor="middle" x="41" y="-143.5" font-family="Helvetica,sans-Serif" font-size="10.00">GANodeBASE</text>
</a>
</g>
</g>
<!-- Node3&#45;&gt;Node2 -->
<g id="edge2" class="edge">
<title>Node3&#45;&gt;Node2</title>
<path fill="none" stroke="#9a32cd" stroke-dasharray="5,2" d="M41,-126.31C41,-110.59 41,-88.81 41,-76.81"/>
<polygon fill="#9a32cd" stroke="#9a32cd" points="37.5,-126.47 41,-136.47 44.5,-126.47 37.5,-126.47"/>
<text text-anchor="middle" x="49" y="-98" font-family="Helvetica,sans-Serif" font-size="10.00"> hd</text>
</g>
<!-- Node3&#45;&gt;Node3 -->
<g id="edge3" class="edge">
<title>Node3&#45;&gt;Node3</title>
<path fill="none" stroke="#9a32cd" stroke-dasharray="5,2" d="M92.26,-152.59C97.01,-151.23 100,-149.03 100,-146 100,-141.14 92.34,-138.43 82.08,-137.86"/>
<polygon fill="#9a32cd" stroke="#9a32cd" points="91.44,-149.18 82.08,-154.14 92.5,-156.1 91.44,-149.18"/>
<text text-anchor="middle" x="116" y="-160" font-family="Helvetica,sans-Serif" font-size="10.00"> child</text>
<text text-anchor="middle" x="116" y="-149" font-family="Helvetica,sans-Serif" font-size="10.00">next</text>
<text text-anchor="middle" x="116" y="-138" font-family="Helvetica,sans-Serif" font-size="10.00">parent</text>
<text text-anchor="middle" x="116" y="-127" font-family="Helvetica,sans-Serif" font-size="10.00">prev</text>
</g>
</g>
</svg>
