<?xml version="1.0" encoding="UTF-8" standalone="no"?>
<!DOCTYPE svg PUBLIC "-//W3C//DTD SVG 1.1//EN"
 "http://www.w3.org/Graphics/SVG/1.1/DTD/svg11.dtd">
<!-- Generated by graphviz version 2.43.0 (0)
 -->
<!-- Title: GADCrowdingGA Pages: 1 -->
<!--zoomable 530 -->
<svg id="main" version="1.1" xmlns="http://www.w3.org/2000/svg" xmlns:xlink="http://www.w3.org/1999/xlink" xml:space="preserve" onload="init(evt)">
<style type="text/css"><![CDATA[
.edge:hover path { stroke: red; }
.edge:hover polygon { stroke: red; fill: red; }
]]></style>
<script type="text/javascript"><![CDATA[
var edges = document.getElementsByTagName('g');
if (edges && edges.length) {
  for (var i=0;i<edges.length;i++) {
    if (edges[i].id.substr(0,4)=='edge') {
      edges[i].setAttribute('class','edge');
    }
  }
}
]]></script>
        <defs>
                <circle id="rim" cx="0" cy="0" r="7"/>
                <circle id="rim2" cx="0" cy="0" r="3.5"/>
                <g id="zoomPlus">
                        <use xlink:href="#rim" fill="#404040">
                                <set attributeName="fill" to="#808080" begin="zoomplus.mouseover" end="zoomplus.mouseout"/>
                        </use>
                        <path d="M-4,0h8M0,-4v8" fill="none" stroke="white" stroke-width="1.5" pointer-events="none"/>
                </g>
                <g id="zoomMin">
                        <use xlink:href="#rim" fill="#404040">
                                <set attributeName="fill" to="#808080" begin="zoomminus.mouseover" end="zoomminus.mouseout"/>
                        </use>
                        <path d="M-4,0h8" fill="none" stroke="white" stroke-width="1.5" pointer-events="none"/>
                </g>
                <g id="dirArrow">
                        <path fill="none" stroke="white" stroke-width="1.5" d="M0,-3.0v7 M-2.5,-0.5L0,-3.0L2.5,-0.5"/>
                </g>
               <g id="resetDef">
                       <use xlink:href="#rim2" fill="#404040">
                               <set attributeName="fill" to="#808080" begin="reset.mouseover" end="reset.mouseout"/>
                       </use>
               </g>
        </defs>

<script type="text/javascript">
var viewWidth = 1152;
var viewHeight = 530;
var sectionId = 'dynsection-1';
</script>
<script xlink:href="svgpan.js"/>
<svg id="graph" class="graph">
<g id="viewport">
<title>GADCrowdingGA</title>
<polygon fill="white" stroke="transparent" points="-4,4 -4,-526 1148,-526 1148,4 -4,4"/>
<!-- Node1 -->
<g id="node1" class="node">
<title>Node1</title>
<g id="a_node1"><a xlink:title=" ">
<polygon fill="#bfbfbf" stroke="black" points="666,-342.5 666,-361.5 764,-361.5 764,-342.5 666,-342.5"/>
<text text-anchor="middle" x="715" y="-349.5" font-family="Helvetica,sans-Serif" font-size="10.00">GADCrowdingGA</text>
</a>
</g>
</g>
<!-- Node2 -->
<g id="node2" class="node">
<title>Node2</title>
<g id="a_node2"><a xlink:href="classGAGeneticAlgorithm.html" target="_top" xlink:title=" ">
<polygon fill="white" stroke="black" points="406,-214.5 406,-233.5 522,-233.5 522,-214.5 406,-214.5"/>
<text text-anchor="middle" x="464" y="-221.5" font-family="Helvetica,sans-Serif" font-size="10.00">GAGeneticAlgorithm</text>
</a>
</g>
</g>
<!-- Node2&#45;&gt;Node1 -->
<g id="edge1" class="edge">
<title>Node2&#45;&gt;Node1</title>
<path fill="none" stroke="midnightblue" d="M489.46,-239.11C526.23,-261.44 598.34,-303.77 663,-333 670.4,-336.35 678.59,-339.59 686.2,-342.42"/>
<polygon fill="midnightblue" stroke="midnightblue" points="490.84,-235.85 480.48,-233.63 487.19,-241.83 490.84,-235.85"/>
</g>
<!-- Node2&#45;&gt;Node2 -->
<g id="edge3" class="edge">
<title>Node2&#45;&gt;Node2</title>
<path fill="none" stroke="#9a32cd" stroke-dasharray="5,2" d="M446.22,-243.4C447.41,-248.31 453.34,-252 464,-252 481.06,-252 485.99,-242.57 478.8,-233.76"/>
<polygon fill="#9a32cd" stroke="#9a32cd" points="449.59,-244.34 449.2,-233.76 442.91,-242.28 449.59,-244.34"/>
<text text-anchor="middle" x="464" y="-255" font-family="Helvetica,sans-Serif" font-size="10.00"> cf</text>
</g>
<!-- Node4 -->
<g id="node4" class="node">
<title>Node4</title>
<g id="a_node4"><a xlink:href="classGAPopulation.html" target="_top" xlink:title=" ">
<polygon fill="white" stroke="black" points="846,-337.5 846,-356.5 929,-356.5 929,-337.5 846,-337.5"/>
<text text-anchor="middle" x="887.5" y="-344.5" font-family="Helvetica,sans-Serif" font-size="10.00">GAPopulation</text>
</a>
</g>
</g>
<!-- Node2&#45;&gt;Node4 -->
<g id="edge8" class="edge">
<title>Node2&#45;&gt;Node4</title>
<path fill="none" stroke="#9a32cd" stroke-dasharray="5,2" d="M484.39,-207.86C498.78,-196.85 519.41,-183.04 540,-176 635.58,-143.34 673.04,-127.92 767,-165 842.95,-194.97 875.81,-303.93 884.22,-337.25"/>
<polygon fill="#9a32cd" stroke="#9a32cd" points="481.96,-205.32 476.29,-214.27 486.3,-210.81 481.96,-205.32"/>
<text text-anchor="middle" x="715" y="-168" font-family="Helvetica,sans-Serif" font-size="10.00"> ga</text>
</g>
<!-- Node8 -->
<g id="node8" class="node">
<title>Node8</title>
<g id="a_node8"><a xlink:href="classGAGenome.html" target="_top" xlink:title="The base genome class just defines the genome interface &#45; how to mutate, crossover,...">
<polygon fill="white" stroke="black" points="679,-220.5 679,-239.5 751,-239.5 751,-220.5 679,-220.5"/>
<text text-anchor="middle" x="715" y="-227.5" font-family="Helvetica,sans-Serif" font-size="10.00">GAGenome</text>
</a>
</g>
</g>
<!-- Node2&#45;&gt;Node8 -->
<g id="edge16" class="edge">
<title>Node2&#45;&gt;Node8</title>
<path fill="none" stroke="#9a32cd" stroke-dasharray="5,2" d="M499.23,-236.84C511.85,-240.95 526.4,-244.96 540,-247 586.15,-253.92 598.67,-252.62 645,-247 657.25,-245.51 670.46,-242.59 682,-239.59"/>
<polygon fill="#9a32cd" stroke="#9a32cd" points="500.16,-233.46 489.57,-233.56 497.91,-240.09 500.16,-233.46"/>
<text text-anchor="middle" x="592.5" y="-255" font-family="Helvetica,sans-Serif" font-size="10.00"> ga</text>
</g>
<!-- Node3 -->
<g id="node3" class="node">
<title>Node3</title>
<g id="a_node3"><a xlink:href="classGAID.html" target="_top" xlink:title=" ">
<polygon fill="white" stroke="black" points="260.5,-427.5 260.5,-446.5 301.5,-446.5 301.5,-427.5 260.5,-427.5"/>
<text text-anchor="middle" x="281" y="-434.5" font-family="Helvetica,sans-Serif" font-size="10.00">GAID</text>
</a>
</g>
</g>
<!-- Node3&#45;&gt;Node2 -->
<g id="edge2" class="edge">
<title>Node3&#45;&gt;Node2</title>
<path fill="none" stroke="midnightblue" d="M286.6,-417.45C294.58,-387.06 313.55,-328.04 348,-290 372.57,-262.87 410.98,-243.98 436.56,-233.56"/>
<polygon fill="midnightblue" stroke="midnightblue" points="283.17,-416.71 284.14,-427.26 289.96,-418.4 283.17,-416.71"/>
</g>
<!-- Node3&#45;&gt;Node4 -->
<g id="edge5" class="edge">
<title>Node3&#45;&gt;Node4</title>
<path fill="none" stroke="midnightblue" d="M311.99,-436.97C388.64,-436.36 597.63,-431.2 767,-395 804.61,-386.96 845.62,-368.06 868.49,-356.52"/>
<polygon fill="midnightblue" stroke="midnightblue" points="311.64,-433.48 301.66,-437.04 311.68,-440.48 311.64,-433.48"/>
</g>
<!-- Node5 -->
<g id="node5" class="node">
<title>Node5</title>
<g id="a_node5"><a xlink:href="classGAScalingScheme.html" target="_top" xlink:title=" ">
<polygon fill="white" stroke="black" points="540,-469.5 540,-488.5 645,-488.5 645,-469.5 540,-469.5"/>
<text text-anchor="middle" x="592.5" y="-476.5" font-family="Helvetica,sans-Serif" font-size="10.00">GAScalingScheme</text>
</a>
</g>
</g>
<!-- Node3&#45;&gt;Node5 -->
<g id="edge7" class="edge">
<title>Node3&#45;&gt;Node5</title>
<path fill="none" stroke="midnightblue" d="M311.42,-443.86C322.8,-446.35 335.96,-449.04 348,-451 413.73,-461.73 490.09,-469.8 539.53,-474.46"/>
<polygon fill="midnightblue" stroke="midnightblue" points="312.07,-440.42 301.55,-441.65 310.54,-447.25 312.07,-440.42"/>
</g>
<!-- Node6 -->
<g id="node6" class="node">
<title>Node6</title>
<g id="a_node6"><a xlink:href="classGASelectionScheme.html" target="_top" xlink:title=" ">
<polygon fill="white" stroke="black" points="1029,-371.5 1029,-390.5 1144,-390.5 1144,-371.5 1029,-371.5"/>
<text text-anchor="middle" x="1086.5" y="-378.5" font-family="Helvetica,sans-Serif" font-size="10.00">GASelectionScheme</text>
</a>
</g>
</g>
<!-- Node3&#45;&gt;Node6 -->
<g id="edge11" class="edge">
<title>Node3&#45;&gt;Node6</title>
<path fill="none" stroke="midnightblue" d="M301.41,-453.13C333.11,-477.78 398.9,-522 463,-522 463,-522 463,-522 888.5,-522 978.93,-522 1056.42,-422.55 1078.92,-390.69"/>
<polygon fill="midnightblue" stroke="midnightblue" points="303.4,-450.25 293.4,-446.75 299.04,-455.72 303.4,-450.25"/>
</g>
<!-- Node3&#45;&gt;Node8 -->
<g id="edge15" class="edge">
<title>Node3&#45;&gt;Node8</title>
<path fill="none" stroke="midnightblue" d="M305.97,-422.05C330.6,-407 370.26,-383.55 406,-366 509.21,-315.33 541.1,-316.23 645,-267 663.18,-258.39 683.4,-247.37 697.23,-239.6"/>
<polygon fill="midnightblue" stroke="midnightblue" points="304,-419.16 297.31,-427.38 307.67,-425.12 304,-419.16"/>
</g>
<!-- Node4&#45;&gt;Node2 -->
<g id="edge4" class="edge">
<title>Node4&#45;&gt;Node2</title>
<path fill="none" stroke="#9a32cd" stroke-dasharray="5,2" d="M878.1,-328.24C862.05,-295.04 823.52,-226.89 767,-200 672.25,-154.92 541.77,-194.68 488.79,-214.42"/>
<polygon fill="#9a32cd" stroke="#9a32cd" points="874.95,-329.77 882.35,-337.34 881.29,-326.8 874.95,-329.77"/>
<text text-anchor="middle" x="715" y="-203" font-family="Helvetica,sans-Serif" font-size="10.00"> pop</text>
</g>
<!-- Node4&#45;&gt;Node4 -->
<g id="edge9" class="edge">
<title>Node4&#45;&gt;Node4</title>
<path fill="none" stroke="#9a32cd" stroke-dasharray="5,2" d="M871.2,-366.4C872.29,-371.31 877.72,-375 887.5,-375 903.14,-375 907.66,-365.57 901.06,-356.76"/>
<polygon fill="#9a32cd" stroke="#9a32cd" points="874.58,-367.33 873.94,-356.76 867.84,-365.42 874.58,-367.33"/>
<text text-anchor="middle" x="887.5" y="-389" font-family="Helvetica,sans-Serif" font-size="10.00"> eval</text>
<text text-anchor="middle" x="887.5" y="-378" font-family="Helvetica,sans-Serif" font-size="10.00">init</text>
</g>
<!-- Node4&#45;&gt;Node6 -->
<g id="edge12" class="edge">
<title>Node4&#45;&gt;Node6</title>
<path fill="none" stroke="#9a32cd" stroke-dasharray="5,2" d="M939.25,-355.76C967.08,-360.56 1001.64,-366.53 1030.16,-371.45"/>
<polygon fill="#9a32cd" stroke="#9a32cd" points="939.77,-352.3 929.32,-354.04 938.58,-359.19 939.77,-352.3"/>
<text text-anchor="middle" x="986.5" y="-371" font-family="Helvetica,sans-Serif" font-size="10.00"> pop</text>
</g>
<!-- Node9 -->
<g id="node9" class="node">
<title>Node9</title>
<g id="a_node9"><a xlink:href="classGAStatistics.html" target="_top" xlink:title="Statistics class.">
<polygon fill="white" stroke="black" points="1048.5,-74.5 1048.5,-93.5 1124.5,-93.5 1124.5,-74.5 1048.5,-74.5"/>
<text text-anchor="middle" x="1086.5" y="-81.5" font-family="Helvetica,sans-Serif" font-size="10.00">GAStatistics</text>
</a>
</g>
</g>
<!-- Node4&#45;&gt;Node9 -->
<g id="edge20" class="edge">
<title>Node4&#45;&gt;Node9</title>
<path fill="none" stroke="#9a32cd" stroke-dasharray="5,2" d="M901.82,-329.21C940,-278.24 1048.93,-132.82 1078.19,-93.76"/>
<polygon fill="#9a32cd" stroke="#9a32cd" points="898.94,-327.23 895.74,-337.33 904.54,-331.42 898.94,-327.23"/>
<text text-anchor="middle" x="986.5" y="-250" font-family="Helvetica,sans-Serif" font-size="10.00"> boa</text>
</g>
<!-- Node5&#45;&gt;Node4 -->
<g id="edge6" class="edge">
<title>Node5&#45;&gt;Node4</title>
<path fill="none" stroke="#9a32cd" stroke-dasharray="5,2" d="M655.46,-483.97C701.97,-484.8 765.55,-479.52 813,-451 850.71,-428.33 874.21,-378.06 882.8,-356.8"/>
<polygon fill="#9a32cd" stroke="#9a32cd" points="655.3,-480.47 645.21,-483.69 655.11,-487.47 655.3,-480.47"/>
<text text-anchor="middle" x="715" y="-487" font-family="Helvetica,sans-Serif" font-size="10.00"> sclscm</text>
</g>
<!-- Node6&#45;&gt;Node4 -->
<g id="edge10" class="edge">
<title>Node6&#45;&gt;Node4</title>
<path fill="none" stroke="#9a32cd" stroke-dasharray="5,2" d="M1060.29,-366.73C1046.25,-359.6 1028.19,-351.71 1011,-348 984.18,-342.21 953.29,-342 929.23,-343.22"/>
<polygon fill="#9a32cd" stroke="#9a32cd" points="1058.82,-369.92 1069.3,-371.49 1062.09,-363.73 1058.82,-369.92"/>
<text text-anchor="middle" x="986.5" y="-351" font-family="Helvetica,sans-Serif" font-size="10.00"> slct</text>
</g>
<!-- Node7 -->
<g id="node7" class="node">
<title>Node7</title>
<g id="a_node7"><a xlink:href="classGAEvalData.html" target="_top" xlink:title=" ">
<polygon fill="white" stroke="black" points="426.5,-375.5 426.5,-394.5 501.5,-394.5 501.5,-375.5 426.5,-375.5"/>
<text text-anchor="middle" x="464" y="-382.5" font-family="Helvetica,sans-Serif" font-size="10.00">GAEvalData</text>
</a>
</g>
</g>
<!-- Node7&#45;&gt;Node4 -->
<g id="edge13" class="edge">
<title>Node7&#45;&gt;Node4</title>
<path fill="none" stroke="#9a32cd" stroke-dasharray="5,2" d="M512.16,-385.54C571.81,-385.59 677.52,-383.61 767,-371 793.4,-367.28 822.76,-361.41 845.77,-356.4"/>
<polygon fill="#9a32cd" stroke="#9a32cd" points="511.94,-382.04 501.93,-385.51 511.92,-389.04 511.94,-382.04"/>
<text text-anchor="middle" x="715" y="-383" font-family="Helvetica,sans-Serif" font-size="10.00"> evaldata</text>
</g>
<!-- Node7&#45;&gt;Node8 -->
<g id="edge17" class="edge">
<title>Node7&#45;&gt;Node8</title>
<path fill="none" stroke="#9a32cd" stroke-dasharray="5,2" d="M511.54,-375.16C550.03,-365.35 604.72,-347.44 645,-318 675.1,-296.01 698.86,-257.5 708.86,-239.63"/>
<polygon fill="#9a32cd" stroke="#9a32cd" points="510.51,-371.81 501.63,-377.59 512.18,-378.61 510.51,-371.81"/>
<text text-anchor="middle" x="592.5" y="-369" font-family="Helvetica,sans-Serif" font-size="10.00"> evd</text>
</g>
<!-- Node8&#45;&gt;Node2 -->
<g id="edge28" class="edge">
<title>Node8&#45;&gt;Node2</title>
<path fill="none" stroke="#9a32cd" stroke-dasharray="5,2" d="M669.06,-223.28C661.06,-222.33 652.8,-221.51 645,-221 603.99,-218.34 557.61,-219.2 522.21,-220.67"/>
<polygon fill="#9a32cd" stroke="#9a32cd" points="668.62,-226.76 678.98,-224.54 669.5,-219.81 668.62,-226.76"/>
<text text-anchor="middle" x="592.5" y="-235" font-family="Helvetica,sans-Serif" font-size="10.00"> across</text>
<text text-anchor="middle" x="592.5" y="-224" font-family="Helvetica,sans-Serif" font-size="10.00">scross</text>
</g>
<!-- Node8&#45;&gt;Node4 -->
<g id="edge14" class="edge">
<title>Node8&#45;&gt;Node4</title>
<path fill="none" stroke="#9a32cd" stroke-dasharray="5,2" d="M738.25,-245.27C773.87,-269.71 842.71,-316.95 872.35,-337.29"/>
<polygon fill="#9a32cd" stroke="#9a32cd" points="740.18,-242.35 729.95,-239.57 736.22,-248.12 740.18,-242.35"/>
<text text-anchor="middle" x="799" y="-309" font-family="Helvetica,sans-Serif" font-size="10.00"> rind</text>
<text text-anchor="middle" x="799" y="-298" font-family="Helvetica,sans-Serif" font-size="10.00">sind</text>
</g>
<!-- Node8&#45;&gt;Node8 -->
<g id="edge18" class="edge">
<title>Node8&#45;&gt;Node8</title>
<path fill="none" stroke="#9a32cd" stroke-dasharray="5,2" d="M699.53,-249.77C700.75,-254.5 705.9,-258 715,-258 729.93,-258 734.25,-248.57 727.95,-239.76"/>
<polygon fill="#9a32cd" stroke="#9a32cd" points="703,-250.31 702.05,-239.76 696.22,-248.6 703,-250.31"/>
<text text-anchor="middle" x="715" y="-316" font-family="Helvetica,sans-Serif" font-size="10.00"> asexcross</text>
<text text-anchor="middle" x="715" y="-305" font-family="Helvetica,sans-Serif" font-size="10.00">cmp</text>
<text text-anchor="middle" x="715" y="-294" font-family="Helvetica,sans-Serif" font-size="10.00">eval</text>
<text text-anchor="middle" x="715" y="-283" font-family="Helvetica,sans-Serif" font-size="10.00">init</text>
<text text-anchor="middle" x="715" y="-272" font-family="Helvetica,sans-Serif" font-size="10.00">mutr</text>
<text text-anchor="middle" x="715" y="-261" font-family="Helvetica,sans-Serif" font-size="10.00">sexcross</text>
</g>
<!-- Node9&#45;&gt;Node2 -->
<g id="edge19" class="edge">
<title>Node9&#45;&gt;Node2</title>
<path fill="none" stroke="#9a32cd" stroke-dasharray="5,2" d="M1038.29,-72.77C959.02,-55.96 794.9,-29.96 663,-67 573.04,-92.26 495.71,-184.17 472.27,-214.34"/>
<polygon fill="#9a32cd" stroke="#9a32cd" points="1037.93,-76.27 1048.44,-74.97 1039.41,-69.43 1037.93,-76.27"/>
<text text-anchor="middle" x="799" y="-52" font-family="Helvetica,sans-Serif" font-size="10.00"> stats</text>
</g>
<!-- Node10 -->
<g id="node10" class="node">
<title>Node10</title>
<g id="a_node10"><a xlink:title=" ">
<polygon fill="white" stroke="#bfbfbf" points="855,-134.5 855,-153.5 920,-153.5 920,-134.5 855,-134.5"/>
<text text-anchor="middle" x="887.5" y="-141.5" font-family="Helvetica,sans-Serif" font-size="10.00">std::string</text>
</a>
</g>
</g>
<!-- Node10&#45;&gt;Node9 -->
<g id="edge21" class="edge">
<title>Node10&#45;&gt;Node9</title>
<path fill="none" stroke="#9a32cd" stroke-dasharray="5,2" d="M930.45,-148.78C954.66,-150.05 985.3,-149.05 1011,-140 1038.17,-130.43 1063.57,-107.1 1076.53,-93.76"/>
<polygon fill="#9a32cd" stroke="#9a32cd" points="930.38,-145.27 920.17,-148.09 929.91,-152.26 930.38,-145.27"/>
<text text-anchor="middle" x="986.5" y="-152" font-family="Helvetica,sans-Serif" font-size="10.00"> scorefile</text>
</g>
<!-- Node11 -->
<g id="node11" class="node">
<title>Node11</title>
<g id="a_node11"><a xlink:title=" ">
<polygon fill="white" stroke="#bfbfbf" points="663,-77 663,-107 767,-107 767,-77 663,-77"/>
<text text-anchor="start" x="671" y="-95" font-family="Helvetica,sans-Serif" font-size="10.00">std::basic_string&lt;</text>
<text text-anchor="middle" x="715" y="-84" font-family="Helvetica,sans-Serif" font-size="10.00"> Char &gt;</text>
</a>
</g>
</g>
<!-- Node11&#45;&gt;Node10 -->
<g id="edge22" class="edge">
<title>Node11&#45;&gt;Node10</title>
<path fill="none" stroke="midnightblue" d="M775.06,-110.01C802.03,-118.24 832.89,-127.65 855.28,-134.48"/>
<polygon fill="midnightblue" stroke="midnightblue" points="775.9,-106.61 765.32,-107.04 773.86,-113.31 775.9,-106.61"/>
</g>
<!-- Node12 -->
<g id="node12" class="node">
<title>Node12</title>
<g id="a_node12"><a xlink:title=" ">
<polygon fill="white" stroke="#bfbfbf" points="831,-76.5 831,-95.5 944,-95.5 944,-76.5 831,-76.5"/>
<text text-anchor="middle" x="887.5" y="-83.5" font-family="Helvetica,sans-Serif" font-size="10.00">std::vector&lt; float &gt;</text>
</a>
</g>
</g>
<!-- Node12&#45;&gt;Node9 -->
<g id="edge23" class="edge">
<title>Node12&#45;&gt;Node9</title>
<path fill="none" stroke="#9a32cd" stroke-dasharray="5,2" d="M954.34,-85.09C956.93,-85.06 959.49,-85.03 962,-85 991.05,-84.68 1023.95,-84.42 1048.48,-84.25"/>
<polygon fill="#9a32cd" stroke="#9a32cd" points="954.24,-81.59 944.28,-85.21 954.32,-88.59 954.24,-81.59"/>
<text text-anchor="middle" x="986.5" y="-132" font-family="Helvetica,sans-Serif" font-size="10.00"> aveScore</text>
<text text-anchor="middle" x="986.5" y="-121" font-family="Helvetica,sans-Serif" font-size="10.00">devScore</text>
<text text-anchor="middle" x="986.5" y="-110" font-family="Helvetica,sans-Serif" font-size="10.00">divScore</text>
<text text-anchor="middle" x="986.5" y="-99" font-family="Helvetica,sans-Serif" font-size="10.00">maxScore</text>
<text text-anchor="middle" x="986.5" y="-88" font-family="Helvetica,sans-Serif" font-size="10.00">minScore</text>
</g>
<!-- Node13 -->
<g id="node13" class="node">
<title>Node13</title>
<g id="a_node13"><a xlink:title=" ">
<polygon fill="white" stroke="#bfbfbf" points="835.5,-0.5 835.5,-19.5 939.5,-19.5 939.5,-0.5 835.5,-0.5"/>
<text text-anchor="middle" x="887.5" y="-7.5" font-family="Helvetica,sans-Serif" font-size="10.00">std::vector&lt; int &gt;</text>
</a>
</g>
</g>
<!-- Node13&#45;&gt;Node9 -->
<g id="edge24" class="edge">
<title>Node13&#45;&gt;Node9</title>
<path fill="none" stroke="#9a32cd" stroke-dasharray="5,2" d="M949.62,-9.57C969.79,-11.22 991.93,-15.03 1011,-23 1038.76,-34.6 1064.32,-60.05 1077.04,-74.13"/>
<polygon fill="#9a32cd" stroke="#9a32cd" points="949.8,-6.08 939.59,-8.91 949.34,-13.06 949.8,-6.08"/>
<text text-anchor="middle" x="986.5" y="-26" font-family="Helvetica,sans-Serif" font-size="10.00"> gen</text>
</g>
<!-- Node14 -->
<g id="node14" class="node">
<title>Node14</title>
<g id="a_node14"><a xlink:href="classGAParameterList.html" target="_top" xlink:title="Parameter List.">
<polygon fill="white" stroke="black" points="232,-214.5 232,-233.5 330,-233.5 330,-214.5 232,-214.5"/>
<text text-anchor="middle" x="281" y="-221.5" font-family="Helvetica,sans-Serif" font-size="10.00">GAParameterList</text>
</a>
</g>
</g>
<!-- Node14&#45;&gt;Node2 -->
<g id="edge25" class="edge">
<title>Node14&#45;&gt;Node2</title>
<path fill="none" stroke="#9a32cd" stroke-dasharray="5,2" d="M340.1,-224C361.11,-224 384.79,-224 405.72,-224"/>
<polygon fill="#9a32cd" stroke="#9a32cd" points="340.03,-220.5 330.03,-224 340.03,-227.5 340.03,-220.5"/>
<text text-anchor="middle" x="368" y="-227" font-family="Helvetica,sans-Serif" font-size="10.00"> params</text>
</g>
<!-- Node15 -->
<g id="node15" class="node">
<title>Node15</title>
<g id="a_node15"><a xlink:title=" ">
<polygon fill="white" stroke="#bfbfbf" points="114,-214.5 114,-233.5 195,-233.5 195,-214.5 114,-214.5"/>
<text text-anchor="middle" x="154.5" y="-221.5" font-family="Helvetica,sans-Serif" font-size="10.00">std::list&lt; T &gt;</text>
</a>
</g>
</g>
<!-- Node15&#45;&gt;Node14 -->
<g id="edge26" class="edge">
<title>Node15&#45;&gt;Node14</title>
<path fill="none" stroke="midnightblue" d="M205.33,-224C214.1,-224 223.21,-224 231.93,-224"/>
<polygon fill="midnightblue" stroke="midnightblue" points="205.23,-220.5 195.23,-224 205.23,-227.5 205.23,-220.5"/>
</g>
<!-- Node16 -->
<g id="node16" class="node">
<title>Node16</title>
<g id="a_node16"><a xlink:title=" ">
<polygon fill="white" stroke="#bfbfbf" points="0,-214.5 0,-233.5 29,-233.5 29,-214.5 0,-214.5"/>
<text text-anchor="middle" x="14.5" y="-221.5" font-family="Helvetica,sans-Serif" font-size="10.00">T</text>
</a>
</g>
</g>
<!-- Node16&#45;&gt;Node15 -->
<g id="edge27" class="edge">
<title>Node16&#45;&gt;Node15</title>
<path fill="none" stroke="#9a32cd" stroke-dasharray="5,2" d="M39.28,-224C59.79,-224 89.81,-224 113.93,-224"/>
<polygon fill="#9a32cd" stroke="#9a32cd" points="39.24,-220.5 29.24,-224 39.24,-227.5 39.24,-220.5"/>
<text text-anchor="middle" x="71.5" y="-227" font-family="Helvetica,sans-Serif" font-size="10.00"> elements</text>
</g>
</g>
</svg>
        <g id="navigator" transform="translate(0 0)" fill="#404254">
                <rect fill="#f2f5e9" fill-opacity="0.5" stroke="#606060" stroke-width=".5" x="0" y="0" width="60" height="60"/>
                <use id="zoomplus" xlink:href="#zoomPlus" x="17" y="9" onmousedown="handleZoom(evt,'in')"/>
                <use id="zoomminus" xlink:href="#zoomMin" x="42" y="9" onmousedown="handleZoom(evt,'out')"/>
                <use id="reset" xlink:href="#resetDef" x="30" y="36" onmousedown="handleReset()"/>
                <g id="arrowUp" xlink:href="#dirArrow" transform="translate(30 24)" onmousedown="handlePan(0,-1)">
                  <use xlink:href="#rim" fill="#404040">
                        <set attributeName="fill" to="#808080" begin="arrowUp.mouseover" end="arrowUp.mouseout"/>
                  </use>
                  <path fill="none" stroke="white" stroke-width="1.5" d="M0,-3.0v7 M-2.5,-0.5L0,-3.0L2.5,-0.5"/>
                </g>
                <g id="arrowRight" xlink:href="#dirArrow" transform="rotate(90) translate(36 -43)" onmousedown="handlePan(1,0)">
                  <use xlink:href="#rim" fill="#404040">
                        <set attributeName="fill" to="#808080" begin="arrowRight.mouseover" end="arrowRight.mouseout"/>
                  </use>
                  <path fill="none" stroke="white" stroke-width="1.5" d="M0,-3.0v7 M-2.5,-0.5L0,-3.0L2.5,-0.5"/>
                </g>
                <g id="arrowDown" xlink:href="#dirArrow" transform="rotate(180) translate(-30 -48)" onmousedown="handlePan(0,1)">
                  <use xlink:href="#rim" fill="#404040">
                        <set attributeName="fill" to="#808080" begin="arrowDown.mouseover" end="arrowDown.mouseout"/>
                  </use>
                  <path fill="none" stroke="white" stroke-width="1.5" d="M0,-3.0v7 M-2.5,-0.5L0,-3.0L2.5,-0.5"/>
                </g>
                <g id="arrowLeft" xlink:href="#dirArrow" transform="rotate(270) translate(-36 17)" onmousedown="handlePan(-1,0)">
                  <use xlink:href="#rim" fill="#404040">
                        <set attributeName="fill" to="#808080" begin="arrowLeft.mouseover" end="arrowLeft.mouseout"/>
                  </use>
                  <path fill="none" stroke="white" stroke-width="1.5" d="M0,-3.0v7 M-2.5,-0.5L0,-3.0L2.5,-0.5"/>
                </g>
        </g>
        <svg viewBox="0 0 15 15" width="100%" height="30px" preserveAspectRatio="xMaxYMin meet">
         <g id="arrow_out" transform="scale(0.3 0.3)">
          <a xlink:href="classGADCrowdingGA__coll__graph_org.svg" target="_base">
           <rect id="button" ry="5" rx="5" y="6" x="6" height="38" width="38"
                fill="#f2f5e9" fill-opacity="0.5" stroke="#606060" stroke-width="1.0"/>
           <path id="arrow"
             d="M 11.500037,31.436501 C 11.940474,20.09759 22.043105,11.32322 32.158766,21.979434 L 37.068811,17.246167 C 37.068811,17.246167 37.088388,32 37.088388,32 L 22.160133,31.978069 C 22.160133,31.978069 26.997745,27.140456 26.997745,27.140456 C 18.528582,18.264221 13.291696,25.230495 11.500037,31.436501 z"
             style="fill:#404040;"/>
          </a>
         </g>
        </svg>
</svg>
