<?xml version="1.0" encoding="UTF-8" standalone="no"?>
<!DOCTYPE svg PUBLIC "-//W3C//DTD SVG 1.1//EN"
 "http://www.w3.org/Graphics/SVG/1.1/DTD/svg11.dtd">
<!-- Generated by graphviz version 2.43.0 (0)
 -->
<!-- Title: GAGenome Pages: 1 -->
<svg width="987pt" height="383pt"
 viewBox="0.00 0.00 987.00 383.00" xmlns="http://www.w3.org/2000/svg" xmlns:xlink="http://www.w3.org/1999/xlink">
<g id="graph0" class="graph" transform="scale(1 1) rotate(0) translate(4 379)">
<title>GAGenome</title>
<polygon fill="white" stroke="transparent" points="-4,4 -4,-379 983,-379 983,4 -4,4"/>
<!-- Node1 -->
<g id="node1" class="node">
<title>Node1</title>
<g id="a_node1"><a xlink:title=" ">
<polygon fill="#bfbfbf" stroke="black" points="266,-129.5 266,-148.5 338,-148.5 338,-129.5 266,-129.5"/>
<text text-anchor="middle" x="302" y="-136.5" font-family="Helvetica,sans-Serif" font-size="10.00">GAGenome</text>
</a>
</g>
</g>
<!-- Node1&#45;&gt;Node1 -->
<g id="edge27" class="edge">
<title>Node1&#45;&gt;Node1</title>
<path fill="none" stroke="#9a32cd" stroke-dasharray="5,2" d="M287.64,-158.77C288.76,-163.5 293.55,-167 302,-167 315.86,-167 319.87,-157.57 314.02,-148.76"/>
<polygon fill="#9a32cd" stroke="#9a32cd" points="291.11,-159.29 289.98,-148.76 284.29,-157.7 291.11,-159.29"/>
<text text-anchor="middle" x="302" y="-225" font-family="Helvetica,sans-Serif" font-size="10.00"> asexcross</text>
<text text-anchor="middle" x="302" y="-214" font-family="Helvetica,sans-Serif" font-size="10.00">cmp</text>
<text text-anchor="middle" x="302" y="-203" font-family="Helvetica,sans-Serif" font-size="10.00">eval</text>
<text text-anchor="middle" x="302" y="-192" font-family="Helvetica,sans-Serif" font-size="10.00">init</text>
<text text-anchor="middle" x="302" y="-181" font-family="Helvetica,sans-Serif" font-size="10.00">mutr</text>
<text text-anchor="middle" x="302" y="-170" font-family="Helvetica,sans-Serif" font-size="10.00">sexcross</text>
</g>
<!-- Node3 -->
<g id="node3" class="node">
<title>Node3</title>
<g id="a_node3"><a xlink:href="classGAGeneticAlgorithm.html" target="_top" xlink:title=" ">
<polygon fill="white" stroke="black" points="492,-134.5 492,-153.5 608,-153.5 608,-134.5 492,-134.5"/>
<text text-anchor="middle" x="550" y="-141.5" font-family="Helvetica,sans-Serif" font-size="10.00">GAGeneticAlgorithm</text>
</a>
</g>
</g>
<!-- Node1&#45;&gt;Node3 -->
<g id="edge25" class="edge">
<title>Node1&#45;&gt;Node3</title>
<path fill="none" stroke="#9a32cd" stroke-dasharray="5,2" d="M348.27,-135.89C355.21,-135.52 362.29,-135.2 369,-135 415.65,-133.59 427.42,-132.21 474,-135 479.76,-135.34 485.76,-135.84 491.74,-136.41"/>
<polygon fill="#9a32cd" stroke="#9a32cd" points="348.05,-132.4 338.26,-136.47 348.45,-139.39 348.05,-132.4"/>
<text text-anchor="middle" x="421.5" y="-149" font-family="Helvetica,sans-Serif" font-size="10.00"> across</text>
<text text-anchor="middle" x="421.5" y="-138" font-family="Helvetica,sans-Serif" font-size="10.00">scross</text>
</g>
<!-- Node4 -->
<g id="node4" class="node">
<title>Node4</title>
<g id="a_node4"><a xlink:href="classGAPopulation.html" target="_top" xlink:title=" ">
<polygon fill="white" stroke="black" points="681,-209.5 681,-228.5 764,-228.5 764,-209.5 681,-209.5"/>
<text text-anchor="middle" x="722.5" y="-216.5" font-family="Helvetica,sans-Serif" font-size="10.00">GAPopulation</text>
</a>
</g>
</g>
<!-- Node1&#45;&gt;Node4 -->
<g id="edge15" class="edge">
<title>Node1&#45;&gt;Node4</title>
<path fill="none" stroke="#9a32cd" stroke-dasharray="5,2" d="M323.08,-154.78C335.57,-163.73 352.38,-174.25 369,-180 477.08,-217.39 613.9,-221.05 680.85,-220.25"/>
<polygon fill="#9a32cd" stroke="#9a32cd" points="324.92,-151.79 314.81,-148.63 320.75,-157.41 324.92,-151.79"/>
<text text-anchor="middle" x="550" y="-233" font-family="Helvetica,sans-Serif" font-size="10.00"> rind</text>
<text text-anchor="middle" x="550" y="-222" font-family="Helvetica,sans-Serif" font-size="10.00">sind</text>
</g>
<!-- Node2 -->
<g id="node2" class="node">
<title>Node2</title>
<g id="a_node2"><a xlink:href="classGAID.html" target="_top" xlink:title=" ">
<polygon fill="white" stroke="black" points="134,-289.5 134,-308.5 175,-308.5 175,-289.5 134,-289.5"/>
<text text-anchor="middle" x="154.5" y="-296.5" font-family="Helvetica,sans-Serif" font-size="10.00">GAID</text>
</a>
</g>
</g>
<!-- Node2&#45;&gt;Node1 -->
<g id="edge1" class="edge">
<title>Node2&#45;&gt;Node1</title>
<path fill="none" stroke="midnightblue" d="M171.09,-281.85C201.59,-248.32 268.23,-175.04 292.2,-148.68"/>
<polygon fill="midnightblue" stroke="midnightblue" points="168.3,-279.72 164.17,-289.47 173.48,-284.43 168.3,-279.72"/>
</g>
<!-- Node2&#45;&gt;Node3 -->
<g id="edge3" class="edge">
<title>Node2&#45;&gt;Node3</title>
<path fill="none" stroke="midnightblue" d="M185.1,-292.1C223.86,-282.67 293.64,-264.36 351,-242 420.51,-214.91 498.69,-172.41 532.24,-153.56"/>
<polygon fill="midnightblue" stroke="midnightblue" points="183.93,-288.78 175.02,-294.52 185.56,-295.59 183.93,-288.78"/>
</g>
<!-- Node2&#45;&gt;Node4 -->
<g id="edge6" class="edge">
<title>Node2&#45;&gt;Node4</title>
<path fill="none" stroke="midnightblue" d="M185,-306.33C193.93,-308.23 203.82,-310.02 213,-311 387.82,-329.61 443.52,-352.07 608,-290 648.45,-274.74 690.04,-244.17 709.75,-228.6"/>
<polygon fill="midnightblue" stroke="midnightblue" points="185.56,-302.87 175.04,-304.09 184.03,-309.7 185.56,-302.87"/>
</g>
<!-- Node5 -->
<g id="node5" class="node">
<title>Node5</title>
<g id="a_node5"><a xlink:href="classGAScalingScheme.html" target="_top" xlink:title=" ">
<polygon fill="white" stroke="black" points="369,-283.5 369,-302.5 474,-302.5 474,-283.5 369,-283.5"/>
<text text-anchor="middle" x="421.5" y="-290.5" font-family="Helvetica,sans-Serif" font-size="10.00">GAScalingScheme</text>
</a>
</g>
</g>
<!-- Node2&#45;&gt;Node5 -->
<g id="edge8" class="edge">
<title>Node2&#45;&gt;Node5</title>
<path fill="none" stroke="midnightblue" d="M185.6,-298.32C230.19,-297.31 314.38,-295.4 368.92,-294.17"/>
<polygon fill="midnightblue" stroke="midnightblue" points="185.34,-294.82 175.42,-298.55 185.49,-301.82 185.34,-294.82"/>
</g>
<!-- Node6 -->
<g id="node6" class="node">
<title>Node6</title>
<g id="a_node6"><a xlink:href="classGASelectionScheme.html" target="_top" xlink:title=" ">
<polygon fill="white" stroke="black" points="864,-244.5 864,-263.5 979,-263.5 979,-244.5 864,-244.5"/>
<text text-anchor="middle" x="921.5" y="-251.5" font-family="Helvetica,sans-Serif" font-size="10.00">GASelectionScheme</text>
</a>
</g>
</g>
<!-- Node2&#45;&gt;Node6 -->
<g id="edge12" class="edge">
<title>Node2&#45;&gt;Node6</title>
<path fill="none" stroke="midnightblue" d="M172.98,-315.28C198.86,-337.61 249.83,-375 301,-375 301,-375 301,-375 723.5,-375 808.19,-375 887.1,-292.8 912.23,-263.9"/>
<polygon fill="midnightblue" stroke="midnightblue" points="175.29,-312.65 165.49,-308.63 170.64,-317.88 175.29,-312.65"/>
</g>
<!-- Node3&#45;&gt;Node1 -->
<g id="edge2" class="edge">
<title>Node3&#45;&gt;Node1</title>
<path fill="none" stroke="#9a32cd" stroke-dasharray="5,2" d="M504.76,-155.74C494.72,-157.93 484.05,-159.88 474,-161 427.62,-166.19 415.06,-168.48 369,-161 354.22,-158.6 338.27,-153.36 325.75,-148.6"/>
<polygon fill="#9a32cd" stroke="#9a32cd" points="505.58,-159.15 514.55,-153.5 504.02,-152.32 505.58,-159.15"/>
<text text-anchor="middle" x="421.5" y="-168" font-family="Helvetica,sans-Serif" font-size="10.00"> ga</text>
</g>
<!-- Node3&#45;&gt;Node3 -->
<g id="edge4" class="edge">
<title>Node3&#45;&gt;Node3</title>
<path fill="none" stroke="#9a32cd" stroke-dasharray="5,2" d="M534.07,-163.4C535.14,-168.31 540.45,-172 550,-172 565.29,-172 569.7,-162.57 563.26,-153.76"/>
<polygon fill="#9a32cd" stroke="#9a32cd" points="537.45,-164.33 536.74,-153.76 530.7,-162.46 537.45,-164.33"/>
<text text-anchor="middle" x="550" y="-175" font-family="Helvetica,sans-Serif" font-size="10.00"> cf</text>
</g>
<!-- Node3&#45;&gt;Node4 -->
<g id="edge9" class="edge">
<title>Node3&#45;&gt;Node4</title>
<path fill="none" stroke="#9a32cd" stroke-dasharray="5,2" d="M582.41,-157.82C616.46,-172.79 669.89,-196.3 699.64,-209.39"/>
<polygon fill="#9a32cd" stroke="#9a32cd" points="583.5,-154.47 572.94,-153.65 580.69,-160.88 583.5,-154.47"/>
<text text-anchor="middle" x="637" y="-188" font-family="Helvetica,sans-Serif" font-size="10.00"> ga</text>
</g>
<!-- Node4&#45;&gt;Node3 -->
<g id="edge5" class="edge">
<title>Node4&#45;&gt;Node3</title>
<path fill="none" stroke="#9a32cd" stroke-dasharray="5,2" d="M702.45,-202.75C681.74,-185.16 651.18,-159.41 648,-158 635.64,-152.51 621.6,-149.08 608.12,-146.96"/>
<polygon fill="#9a32cd" stroke="#9a32cd" points="700.2,-205.43 710.08,-209.25 704.73,-200.1 700.2,-205.43"/>
<text text-anchor="middle" x="637" y="-161" font-family="Helvetica,sans-Serif" font-size="10.00"> pop</text>
</g>
<!-- Node4&#45;&gt;Node4 -->
<g id="edge10" class="edge">
<title>Node4&#45;&gt;Node4</title>
<path fill="none" stroke="#9a32cd" stroke-dasharray="5,2" d="M707.03,-238.77C708.25,-243.5 713.4,-247 722.5,-247 737.43,-247 741.75,-237.57 735.45,-228.76"/>
<polygon fill="#9a32cd" stroke="#9a32cd" points="710.5,-239.31 709.55,-228.76 703.72,-237.6 710.5,-239.31"/>
<text text-anchor="middle" x="722.5" y="-261" font-family="Helvetica,sans-Serif" font-size="10.00"> eval</text>
<text text-anchor="middle" x="722.5" y="-250" font-family="Helvetica,sans-Serif" font-size="10.00">init</text>
</g>
<!-- Node4&#45;&gt;Node6 -->
<g id="edge13" class="edge">
<title>Node4&#45;&gt;Node6</title>
<path fill="none" stroke="#9a32cd" stroke-dasharray="5,2" d="M774.49,-214.06C796.7,-213.17 822.88,-213.84 846,-219 867.76,-223.86 890.66,-235.79 905.24,-244.37"/>
<polygon fill="#9a32cd" stroke="#9a32cd" points="774.07,-210.58 764.26,-214.59 774.43,-217.57 774.07,-210.58"/>
<text text-anchor="middle" x="821.5" y="-222" font-family="Helvetica,sans-Serif" font-size="10.00"> pop</text>
</g>
<!-- Node8 -->
<g id="node8" class="node">
<title>Node8</title>
<g id="a_node8"><a xlink:href="classGAStatistics.html" target="_top" xlink:title=" ">
<polygon fill="white" stroke="black" points="883.5,-104.5 883.5,-123.5 959.5,-123.5 959.5,-104.5 883.5,-104.5"/>
<text text-anchor="middle" x="921.5" y="-111.5" font-family="Helvetica,sans-Serif" font-size="10.00">GAStatistics</text>
</a>
</g>
</g>
<!-- Node4&#45;&gt;Node8 -->
<g id="edge17" class="edge">
<title>Node4&#45;&gt;Node8</title>
<path fill="none" stroke="#9a32cd" stroke-dasharray="5,2" d="M750.17,-204.78C790.96,-183.04 867.78,-142.1 902.57,-123.56"/>
<polygon fill="#9a32cd" stroke="#9a32cd" points="748.51,-201.7 741.33,-209.5 751.8,-207.88 748.51,-201.7"/>
<text text-anchor="middle" x="821.5" y="-181" font-family="Helvetica,sans-Serif" font-size="10.00"> boa</text>
</g>
<!-- Node5&#45;&gt;Node4 -->
<g id="edge7" class="edge">
<title>Node5&#45;&gt;Node4</title>
<path fill="none" stroke="#9a32cd" stroke-dasharray="5,2" d="M470.8,-281.05C529.79,-266.45 628.4,-242.04 682.7,-228.6"/>
<polygon fill="#9a32cd" stroke="#9a32cd" points="469.84,-277.68 460.98,-283.48 471.52,-284.47 469.84,-277.68"/>
<text text-anchor="middle" x="550" y="-278" font-family="Helvetica,sans-Serif" font-size="10.00"> sclscm</text>
</g>
<!-- Node6&#45;&gt;Node4 -->
<g id="edge11" class="edge">
<title>Node6&#45;&gt;Node4</title>
<path fill="none" stroke="#9a32cd" stroke-dasharray="5,2" d="M856.92,-242.7C826.53,-237.31 791.05,-231 764.32,-226.25"/>
<polygon fill="#9a32cd" stroke="#9a32cd" points="856.55,-246.19 867.01,-244.5 857.78,-239.3 856.55,-246.19"/>
<text text-anchor="middle" x="821.5" y="-243" font-family="Helvetica,sans-Serif" font-size="10.00"> slct</text>
</g>
<!-- Node7 -->
<g id="node7" class="node">
<title>Node7</title>
<g id="a_node7"><a xlink:href="classGAEvalData.html" target="_top" xlink:title=" ">
<polygon fill="white" stroke="black" points="117,-98.5 117,-117.5 192,-117.5 192,-98.5 117,-98.5"/>
<text text-anchor="middle" x="154.5" y="-105.5" font-family="Helvetica,sans-Serif" font-size="10.00">GAEvalData</text>
</a>
</g>
</g>
<!-- Node7&#45;&gt;Node1 -->
<g id="edge26" class="edge">
<title>Node7&#45;&gt;Node1</title>
<path fill="none" stroke="#9a32cd" stroke-dasharray="5,2" d="M202.07,-117.92C222.73,-122.32 246.66,-127.42 265.8,-131.5"/>
<polygon fill="#9a32cd" stroke="#9a32cd" points="202.73,-114.48 192.22,-115.82 201.27,-121.33 202.73,-114.48"/>
<text text-anchor="middle" x="224" y="-127" font-family="Helvetica,sans-Serif" font-size="10.00"> evd</text>
</g>
<!-- Node7&#45;&gt;Node4 -->
<g id="edge14" class="edge">
<title>Node7&#45;&gt;Node4</title>
<path fill="none" stroke="#9a32cd" stroke-dasharray="5,2" d="M193.44,-95.42C211.3,-90.14 233.01,-84.62 253,-82 410.58,-61.35 460.56,-65.66 608,-125 626.82,-132.58 632.81,-133.55 648,-147 658.25,-156.08 656.71,-161.95 666,-172 679.2,-186.28 696.6,-200.39 708.37,-209.36"/>
<polygon fill="#9a32cd" stroke="#9a32cd" points="192.24,-92.13 183.69,-98.39 194.28,-98.82 192.24,-92.13"/>
<text text-anchor="middle" x="421.5" y="-83" font-family="Helvetica,sans-Serif" font-size="10.00"> evaldata</text>
</g>
<!-- Node8&#45;&gt;Node3 -->
<g id="edge16" class="edge">
<title>Node8&#45;&gt;Node3</title>
<path fill="none" stroke="#9a32cd" stroke-dasharray="5,2" d="M873.19,-113.62C821.97,-113.69 737.96,-115.2 666,-123 642.29,-125.57 616.12,-130.2 594.74,-134.47"/>
<polygon fill="#9a32cd" stroke="#9a32cd" points="873.29,-117.12 883.29,-113.63 873.29,-110.12 873.29,-117.12"/>
<text text-anchor="middle" x="722.5" y="-126" font-family="Helvetica,sans-Serif" font-size="10.00"> stats</text>
</g>
<!-- Node9 -->
<g id="node9" class="node">
<title>Node9</title>
<g id="a_node9"><a xlink:title=" ">
<polygon fill="white" stroke="#bfbfbf" points="690,-48.5 690,-67.5 755,-67.5 755,-48.5 690,-48.5"/>
<text text-anchor="middle" x="722.5" y="-55.5" font-family="Helvetica,sans-Serif" font-size="10.00">std::string</text>
</a>
</g>
</g>
<!-- Node9&#45;&gt;Node8 -->
<g id="edge18" class="edge">
<title>Node9&#45;&gt;Node8</title>
<path fill="none" stroke="#9a32cd" stroke-dasharray="5,2" d="M764.93,-67.66C788.76,-73.42 819.2,-81.13 846,-89 861.97,-93.69 879.64,-99.59 893.76,-104.48"/>
<polygon fill="#9a32cd" stroke="#9a32cd" points="765.69,-64.24 755.15,-65.31 764.06,-71.05 765.69,-64.24"/>
<text text-anchor="middle" x="821.5" y="-92" font-family="Helvetica,sans-Serif" font-size="10.00"> scorefile</text>
</g>
<!-- Node10 -->
<g id="node10" class="node">
<title>Node10</title>
<g id="a_node10"><a xlink:title=" ">
<polygon fill="white" stroke="#bfbfbf" points="498,-4 498,-34 602,-34 602,-4 498,-4"/>
<text text-anchor="start" x="506" y="-22" font-family="Helvetica,sans-Serif" font-size="10.00">std::basic_string&lt;</text>
<text text-anchor="middle" x="550" y="-11" font-family="Helvetica,sans-Serif" font-size="10.00"> Char &gt;</text>
</a>
</g>
</g>
<!-- Node10&#45;&gt;Node9 -->
<g id="edge19" class="edge">
<title>Node10&#45;&gt;Node9</title>
<path fill="none" stroke="midnightblue" d="M612.07,-32.97C638.42,-39 668.14,-45.79 689.94,-50.78"/>
<polygon fill="midnightblue" stroke="midnightblue" points="612.68,-29.52 602.16,-30.7 611.12,-36.34 612.68,-29.52"/>
</g>
<!-- Node11 -->
<g id="node11" class="node">
<title>Node11</title>
<g id="a_node11"><a xlink:title=" ">
<polygon fill="white" stroke="#bfbfbf" points="666,-0.5 666,-19.5 779,-19.5 779,-0.5 666,-0.5"/>
<text text-anchor="middle" x="722.5" y="-7.5" font-family="Helvetica,sans-Serif" font-size="10.00">std::vector&lt; float &gt;</text>
</a>
</g>
</g>
<!-- Node11&#45;&gt;Node8 -->
<g id="edge20" class="edge">
<title>Node11&#45;&gt;Node8</title>
<path fill="none" stroke="#9a32cd" stroke-dasharray="5,2" d="M789.41,-4.36C808.57,-5.29 828.93,-8.94 846,-18 882.89,-37.59 907.28,-84.3 916.44,-104.47"/>
<polygon fill="#9a32cd" stroke="#9a32cd" points="789.3,-0.86 779.22,-4.11 789.13,-7.86 789.3,-0.86"/>
<text text-anchor="middle" x="821.5" y="-65" font-family="Helvetica,sans-Serif" font-size="10.00"> aveScore</text>
<text text-anchor="middle" x="821.5" y="-54" font-family="Helvetica,sans-Serif" font-size="10.00">devScore</text>
<text text-anchor="middle" x="821.5" y="-43" font-family="Helvetica,sans-Serif" font-size="10.00">divScore</text>
<text text-anchor="middle" x="821.5" y="-32" font-family="Helvetica,sans-Serif" font-size="10.00">maxScore</text>
<text text-anchor="middle" x="821.5" y="-21" font-family="Helvetica,sans-Serif" font-size="10.00">minScore</text>
</g>
<!-- Node12 -->
<g id="node12" class="node">
<title>Node12</title>
<g id="a_node12"><a xlink:title=" ">
<polygon fill="white" stroke="#bfbfbf" points="670.5,-143.5 670.5,-162.5 774.5,-162.5 774.5,-143.5 670.5,-143.5"/>
<text text-anchor="middle" x="722.5" y="-150.5" font-family="Helvetica,sans-Serif" font-size="10.00">std::vector&lt; int &gt;</text>
</a>
</g>
</g>
<!-- Node12&#45;&gt;Node8 -->
<g id="edge21" class="edge">
<title>Node12&#45;&gt;Node8</title>
<path fill="none" stroke="#9a32cd" stroke-dasharray="5,2" d="M781.64,-141.49C814.52,-134.98 854.65,-127.04 883.3,-121.37"/>
<polygon fill="#9a32cd" stroke="#9a32cd" points="780.82,-138.08 771.69,-143.46 782.18,-144.95 780.82,-138.08"/>
<text text-anchor="middle" x="821.5" y="-141" font-family="Helvetica,sans-Serif" font-size="10.00"> gen</text>
</g>
<!-- Node13 -->
<g id="node13" class="node">
<title>Node13</title>
<g id="a_node13"><a xlink:href="classGAParameterList.html" target="_top" xlink:title="Parameter List.">
<polygon fill="white" stroke="black" points="253,-91.5 253,-110.5 351,-110.5 351,-91.5 253,-91.5"/>
<text text-anchor="middle" x="302" y="-98.5" font-family="Helvetica,sans-Serif" font-size="10.00">GAParameterList</text>
</a>
</g>
</g>
<!-- Node13&#45;&gt;Node3 -->
<g id="edge22" class="edge">
<title>Node13&#45;&gt;Node3</title>
<path fill="none" stroke="#9a32cd" stroke-dasharray="5,2" d="M361.05,-103.39C394.4,-105.6 436.9,-109.84 474,-118 491.9,-121.94 511.45,-128.8 526.09,-134.49"/>
<polygon fill="#9a32cd" stroke="#9a32cd" points="361.21,-99.89 351.02,-102.76 360.78,-106.88 361.21,-99.89"/>
<text text-anchor="middle" x="421.5" y="-121" font-family="Helvetica,sans-Serif" font-size="10.00"> params</text>
</g>
<!-- Node14 -->
<g id="node14" class="node">
<title>Node14</title>
<g id="a_node14"><a xlink:title=" ">
<polygon fill="white" stroke="#bfbfbf" points="114,-28.5 114,-47.5 195,-47.5 195,-28.5 114,-28.5"/>
<text text-anchor="middle" x="154.5" y="-35.5" font-family="Helvetica,sans-Serif" font-size="10.00">std::list&lt; T &gt;</text>
</a>
</g>
</g>
<!-- Node14&#45;&gt;Node13 -->
<g id="edge23" class="edge">
<title>Node14&#45;&gt;Node13</title>
<path fill="none" stroke="midnightblue" d="M186.84,-51.57C214.5,-63.55 254.14,-80.71 278.69,-91.34"/>
<polygon fill="midnightblue" stroke="midnightblue" points="188.17,-48.33 177.6,-47.57 185.38,-54.75 188.17,-48.33"/>
</g>
<!-- Node15 -->
<g id="node15" class="node">
<title>Node15</title>
<g id="a_node15"><a xlink:title=" ">
<polygon fill="white" stroke="#bfbfbf" points="0,-28.5 0,-47.5 29,-47.5 29,-28.5 0,-28.5"/>
<text text-anchor="middle" x="14.5" y="-35.5" font-family="Helvetica,sans-Serif" font-size="10.00">T</text>
</a>
</g>
</g>
<!-- Node15&#45;&gt;Node14 -->
<g id="edge24" class="edge">
<title>Node15&#45;&gt;Node14</title>
<path fill="none" stroke="#9a32cd" stroke-dasharray="5,2" d="M39.28,-38C59.79,-38 89.81,-38 113.93,-38"/>
<polygon fill="#9a32cd" stroke="#9a32cd" points="39.24,-34.5 29.24,-38 39.24,-41.5 39.24,-34.5"/>
<text text-anchor="middle" x="71.5" y="-41" font-family="Helvetica,sans-Serif" font-size="10.00"> elements</text>
</g>
</g>
</svg>
