<?xml version="1.0" encoding="UTF-8" standalone="no"?>
<!DOCTYPE svg PUBLIC "-//W3C//DTD SVG 1.1//EN"
 "http://www.w3.org/Graphics/SVG/1.1/DTD/svg11.dtd">
<!-- Generated by graphviz version 2.43.0 (0)
 -->
<!-- Title: GAStatistics Pages: 1 -->
<svg width="1212pt" height="439pt"
 viewBox="0.00 0.00 1212.00 439.00" xmlns="http://www.w3.org/2000/svg" xmlns:xlink="http://www.w3.org/1999/xlink">
<g id="graph0" class="graph" transform="scale(1 1) rotate(0) translate(4 435)">
<title>GAStatistics</title>
<polygon fill="white" stroke="transparent" points="-4,4 -4,-435 1208,-435 1208,4 -4,4"/>
<!-- Node1 -->
<g id="node1" class="node">
<title>Node1</title>
<g id="a_node1"><a xlink:title=" ">
<polygon fill="#bfbfbf" stroke="black" points="398,-375.5 398,-394.5 474,-394.5 474,-375.5 398,-375.5"/>
<text text-anchor="middle" x="436" y="-382.5" font-family="Helvetica,sans-Serif" font-size="10.00">GAStatistics</text>
</a>
</g>
</g>
<!-- Node5 -->
<g id="node5" class="node">
<title>Node5</title>
<g id="a_node5"><a xlink:href="classGAGeneticAlgorithm.html" target="_top" xlink:title=" ">
<polygon fill="white" stroke="black" points="561,-258.5 561,-277.5 677,-277.5 677,-258.5 561,-258.5"/>
<text text-anchor="middle" x="619" y="-265.5" font-family="Helvetica,sans-Serif" font-size="10.00">GAGeneticAlgorithm</text>
</a>
</g>
</g>
<!-- Node1&#45;&gt;Node5 -->
<g id="edge9" class="edge">
<title>Node1&#45;&gt;Node5</title>
<path fill="none" stroke="#9a32cd" stroke-dasharray="5,2" d="M460.64,-369.72C498.57,-345.2 571.91,-297.79 603.24,-277.54"/>
<polygon fill="#9a32cd" stroke="#9a32cd" points="458.31,-367.06 451.81,-375.43 462.11,-372.94 458.31,-367.06"/>
<text text-anchor="middle" x="523" y="-344" font-family="Helvetica,sans-Serif" font-size="10.00"> stats</text>
</g>
<!-- Node2 -->
<g id="node2" class="node">
<title>Node2</title>
<g id="a_node2"><a xlink:href="classGAPopulation.html" target="_top" xlink:title=" ">
<polygon fill="white" stroke="black" points="948,-139.5 948,-158.5 1031,-158.5 1031,-139.5 948,-139.5"/>
<text text-anchor="middle" x="989.5" y="-146.5" font-family="Helvetica,sans-Serif" font-size="10.00">GAPopulation</text>
</a>
</g>
</g>
<!-- Node2&#45;&gt;Node1 -->
<g id="edge1" class="edge">
<title>Node2&#45;&gt;Node1</title>
<path fill="none" stroke="#9a32cd" stroke-dasharray="5,2" d="M986.29,-169.04C980.25,-212.45 958.97,-313.96 890,-347 748.89,-414.6 554.66,-400.29 474.21,-390.39"/>
<polygon fill="#9a32cd" stroke="#9a32cd" points="989.79,-169.24 987.57,-158.88 982.85,-168.36 989.79,-169.24"/>
<text text-anchor="middle" x="747.5" y="-398" font-family="Helvetica,sans-Serif" font-size="10.00"> boa</text>
</g>
<!-- Node2&#45;&gt;Node2 -->
<g id="edge18" class="edge">
<title>Node2&#45;&gt;Node2</title>
<path fill="none" stroke="#9a32cd" stroke-dasharray="5,2" d="M976.61,-168.77C977.62,-173.5 981.92,-177 989.5,-177 1001.94,-177 1005.54,-167.57 1000.29,-158.76"/>
<polygon fill="#9a32cd" stroke="#9a32cd" points="980.08,-169.26 978.71,-158.76 973.23,-167.82 980.08,-169.26"/>
<text text-anchor="middle" x="989.5" y="-191" font-family="Helvetica,sans-Serif" font-size="10.00"> eval</text>
<text text-anchor="middle" x="989.5" y="-180" font-family="Helvetica,sans-Serif" font-size="10.00">init</text>
</g>
<!-- Node2&#45;&gt;Node5 -->
<g id="edge8" class="edge">
<title>Node2&#45;&gt;Node5</title>
<path fill="none" stroke="#9a32cd" stroke-dasharray="5,2" d="M984.05,-168.8C974.45,-205.93 947.82,-284.66 890,-311 811.13,-346.94 778.8,-331.14 695,-309 671.47,-302.78 647.31,-287.71 632.98,-277.67"/>
<polygon fill="#9a32cd" stroke="#9a32cd" points="987.54,-169.26 986.5,-158.72 980.74,-167.61 987.54,-169.26"/>
<text text-anchor="middle" x="854" y="-335" font-family="Helvetica,sans-Serif" font-size="10.00"> pop</text>
</g>
<!-- Node11 -->
<g id="node11" class="node">
<title>Node11</title>
<g id="a_node11"><a xlink:href="classGASelectionScheme.html" target="_top" xlink:title=" ">
<polygon fill="white" stroke="black" points="1089,-105.5 1089,-124.5 1204,-124.5 1204,-105.5 1089,-105.5"/>
<text text-anchor="middle" x="1146.5" y="-112.5" font-family="Helvetica,sans-Serif" font-size="10.00">GASelectionScheme</text>
</a>
</g>
</g>
<!-- Node2&#45;&gt;Node11 -->
<g id="edge21" class="edge">
<title>Node2&#45;&gt;Node11</title>
<path fill="none" stroke="#9a32cd" stroke-dasharray="5,2" d="M1012.21,-133.86C1022.79,-127.36 1036.02,-120.46 1049,-117 1061.71,-113.61 1075.7,-112.11 1088.99,-111.66"/>
<polygon fill="#9a32cd" stroke="#9a32cd" points="1010.16,-131.02 1003.65,-139.39 1013.95,-136.9 1010.16,-131.02"/>
<text text-anchor="middle" x="1060" y="-120" font-family="Helvetica,sans-Serif" font-size="10.00"> pop</text>
</g>
<!-- Node3 -->
<g id="node3" class="node">
<title>Node3</title>
<g id="a_node3"><a xlink:href="classGAID.html" target="_top" xlink:title=" ">
<polygon fill="white" stroke="black" points="415.5,-75.5 415.5,-94.5 456.5,-94.5 456.5,-75.5 415.5,-75.5"/>
<text text-anchor="middle" x="436" y="-82.5" font-family="Helvetica,sans-Serif" font-size="10.00">GAID</text>
</a>
</g>
</g>
<!-- Node3&#45;&gt;Node2 -->
<g id="edge2" class="edge">
<title>Node3&#45;&gt;Node2</title>
<path fill="none" stroke="midnightblue" d="M467.2,-87.41C544.46,-93.77 755.49,-112.25 930,-138 935.83,-138.86 941.96,-139.88 947.97,-140.95"/>
<polygon fill="midnightblue" stroke="midnightblue" points="467.05,-83.89 456.8,-86.56 466.48,-90.87 467.05,-83.89"/>
</g>
<!-- Node4 -->
<g id="node4" class="node">
<title>Node4</title>
<g id="a_node4"><a xlink:href="classGAScalingScheme.html" target="_top" xlink:title=" ">
<polygon fill="white" stroke="black" points="695,-36.5 695,-55.5 800,-55.5 800,-36.5 695,-36.5"/>
<text text-anchor="middle" x="747.5" y="-43.5" font-family="Helvetica,sans-Serif" font-size="10.00">GAScalingScheme</text>
</a>
</g>
</g>
<!-- Node3&#45;&gt;Node4 -->
<g id="edge4" class="edge">
<title>Node3&#45;&gt;Node4</title>
<path fill="none" stroke="midnightblue" d="M466.4,-78.06C477.78,-75.56 490.95,-72.89 503,-71 568.91,-60.66 645.56,-53.6 694.99,-49.68"/>
<polygon fill="midnightblue" stroke="midnightblue" points="465.52,-74.67 456.54,-80.28 467.06,-81.5 465.52,-74.67"/>
</g>
<!-- Node3&#45;&gt;Node5 -->
<g id="edge6" class="edge">
<title>Node3&#45;&gt;Node5</title>
<path fill="none" stroke="midnightblue" d="M443.87,-104.41C453.67,-129.88 473.79,-174.74 503,-204 528.67,-229.71 566.82,-248.17 592.04,-258.47"/>
<polygon fill="midnightblue" stroke="midnightblue" points="447.06,-102.95 440.3,-94.79 440.49,-105.39 447.06,-102.95"/>
</g>
<!-- Node9 -->
<g id="node9" class="node">
<title>Node9</title>
<g id="a_node9"><a xlink:href="classGAGenome.html" target="_top" xlink:title=" ">
<polygon fill="white" stroke="black" points="818,-160.5 818,-179.5 890,-179.5 890,-160.5 818,-160.5"/>
<text text-anchor="middle" x="854" y="-167.5" font-family="Helvetica,sans-Serif" font-size="10.00">GAGenome</text>
</a>
</g>
</g>
<!-- Node3&#45;&gt;Node9 -->
<g id="edge14" class="edge">
<title>Node3&#45;&gt;Node9</title>
<path fill="none" stroke="midnightblue" d="M456.83,-101.02C480.21,-118.94 520.98,-147.26 561,-161 649.27,-191.3 761.5,-182.69 817.65,-175.45"/>
<polygon fill="midnightblue" stroke="midnightblue" points="458.79,-98.11 448.76,-94.71 454.48,-103.62 458.79,-98.11"/>
</g>
<!-- Node3&#45;&gt;Node11 -->
<g id="edge20" class="edge">
<title>Node3&#45;&gt;Node11</title>
<path fill="none" stroke="midnightblue" d="M456.41,-68.87C488.11,-44.22 553.9,0 618,0 618,0 618,0 990.5,0 1060.87,0 1120.09,-77.38 1139.1,-105.2"/>
<polygon fill="midnightblue" stroke="midnightblue" points="454.04,-66.28 448.4,-75.25 458.4,-71.75 454.04,-66.28"/>
</g>
<!-- Node4&#45;&gt;Node2 -->
<g id="edge3" class="edge">
<title>Node4&#45;&gt;Node2</title>
<path fill="none" stroke="#9a32cd" stroke-dasharray="5,2" d="M810.5,-41.28C848.07,-41.45 895.27,-47.35 930,-71 956.44,-89.01 975.73,-122.94 984.01,-139.47"/>
<polygon fill="#9a32cd" stroke="#9a32cd" points="810.15,-37.78 800.18,-41.37 810.21,-44.78 810.15,-37.78"/>
<text text-anchor="middle" x="854" y="-55" font-family="Helvetica,sans-Serif" font-size="10.00"> sclscm</text>
</g>
<!-- Node5&#45;&gt;Node2 -->
<g id="edge5" class="edge">
<title>Node5&#45;&gt;Node2</title>
<path fill="none" stroke="#9a32cd" stroke-dasharray="5,2" d="M658.52,-280.35C713.83,-295.63 817.1,-314.89 890,-273 938.63,-245.06 972.3,-182.91 983.98,-158.81"/>
<polygon fill="#9a32cd" stroke="#9a32cd" points="659.35,-276.94 648.77,-277.55 657.42,-283.67 659.35,-276.94"/>
<text text-anchor="middle" x="854" y="-299" font-family="Helvetica,sans-Serif" font-size="10.00"> ga</text>
</g>
<!-- Node5&#45;&gt;Node5 -->
<g id="edge7" class="edge">
<title>Node5&#45;&gt;Node5</title>
<path fill="none" stroke="#9a32cd" stroke-dasharray="5,2" d="M601.22,-287.4C602.41,-292.31 608.34,-296 619,-296 636.06,-296 640.99,-286.57 633.8,-277.76"/>
<polygon fill="#9a32cd" stroke="#9a32cd" points="604.59,-288.34 604.2,-277.76 597.91,-286.28 604.59,-288.34"/>
<text text-anchor="middle" x="619" y="-299" font-family="Helvetica,sans-Serif" font-size="10.00"> cf</text>
</g>
<!-- Node5&#45;&gt;Node9 -->
<g id="edge15" class="edge">
<title>Node5&#45;&gt;Node9</title>
<path fill="none" stroke="#9a32cd" stroke-dasharray="5,2" d="M687.73,-272.54C723.43,-271.9 766.61,-266.09 800,-246 826.05,-230.32 842.52,-196.37 849.36,-179.67"/>
<polygon fill="#9a32cd" stroke="#9a32cd" points="687.38,-269.04 677.39,-272.58 687.41,-276.04 687.38,-269.04"/>
<text text-anchor="middle" x="747.5" y="-276" font-family="Helvetica,sans-Serif" font-size="10.00"> ga</text>
</g>
<!-- Node6 -->
<g id="node6" class="node">
<title>Node6</title>
<g id="a_node6"><a xlink:href="classGAParameterList.html" target="_top" xlink:title="Parameter List.">
<polygon fill="white" stroke="black" points="387,-258.5 387,-277.5 485,-277.5 485,-258.5 387,-258.5"/>
<text text-anchor="middle" x="436" y="-265.5" font-family="Helvetica,sans-Serif" font-size="10.00">GAParameterList</text>
</a>
</g>
</g>
<!-- Node6&#45;&gt;Node5 -->
<g id="edge10" class="edge">
<title>Node6&#45;&gt;Node5</title>
<path fill="none" stroke="#9a32cd" stroke-dasharray="5,2" d="M495.1,-268C516.11,-268 539.79,-268 560.72,-268"/>
<polygon fill="#9a32cd" stroke="#9a32cd" points="495.03,-264.5 485.03,-268 495.03,-271.5 495.03,-264.5"/>
<text text-anchor="middle" x="523" y="-271" font-family="Helvetica,sans-Serif" font-size="10.00"> params</text>
</g>
<!-- Node7 -->
<g id="node7" class="node">
<title>Node7</title>
<g id="a_node7"><a xlink:title=" ">
<polygon fill="white" stroke="#bfbfbf" points="205,-258.5 205,-277.5 286,-277.5 286,-258.5 205,-258.5"/>
<text text-anchor="middle" x="245.5" y="-265.5" font-family="Helvetica,sans-Serif" font-size="10.00">std::list&lt; T &gt;</text>
</a>
</g>
</g>
<!-- Node7&#45;&gt;Node6 -->
<g id="edge11" class="edge">
<title>Node7&#45;&gt;Node6</title>
<path fill="none" stroke="midnightblue" d="M296.38,-268C324.38,-268 359.13,-268 386.84,-268"/>
<polygon fill="midnightblue" stroke="midnightblue" points="296.02,-264.5 286.02,-268 296.02,-271.5 296.02,-264.5"/>
</g>
<!-- Node8 -->
<g id="node8" class="node">
<title>Node8</title>
<g id="a_node8"><a xlink:title=" ">
<polygon fill="white" stroke="#bfbfbf" points="37.5,-258.5 37.5,-277.5 66.5,-277.5 66.5,-258.5 37.5,-258.5"/>
<text text-anchor="middle" x="52" y="-265.5" font-family="Helvetica,sans-Serif" font-size="10.00">T</text>
</a>
</g>
</g>
<!-- Node8&#45;&gt;Node7 -->
<g id="edge12" class="edge">
<title>Node8&#45;&gt;Node7</title>
<path fill="none" stroke="#9a32cd" stroke-dasharray="5,2" d="M77.01,-268C109.12,-268 166.46,-268 204.99,-268"/>
<polygon fill="#9a32cd" stroke="#9a32cd" points="76.77,-264.5 66.77,-268 76.77,-271.5 76.77,-264.5"/>
<text text-anchor="middle" x="146.5" y="-271" font-family="Helvetica,sans-Serif" font-size="10.00"> elements</text>
</g>
<!-- Node9&#45;&gt;Node2 -->
<g id="edge23" class="edge">
<title>Node9&#45;&gt;Node2</title>
<path fill="none" stroke="#9a32cd" stroke-dasharray="5,2" d="M899.99,-162.92C915.53,-160.48 932.83,-157.76 947.99,-155.37"/>
<polygon fill="#9a32cd" stroke="#9a32cd" points="899.41,-159.47 890.08,-164.48 900.5,-166.39 899.41,-159.47"/>
<text text-anchor="middle" x="919" y="-176" font-family="Helvetica,sans-Serif" font-size="10.00"> rind</text>
<text text-anchor="middle" x="919" y="-165" font-family="Helvetica,sans-Serif" font-size="10.00">sind</text>
</g>
<!-- Node9&#45;&gt;Node5 -->
<g id="edge13" class="edge">
<title>Node9&#45;&gt;Node5</title>
<path fill="none" stroke="#9a32cd" stroke-dasharray="5,2" d="M830.7,-185.14C821.52,-190.81 810.57,-196.87 800,-201 755.5,-218.38 739.49,-206.59 695,-224 672.09,-232.97 647.95,-248.35 633.43,-258.35"/>
<polygon fill="#9a32cd" stroke="#9a32cd" points="832.68,-188.03 839.22,-179.69 828.91,-182.14 832.68,-188.03"/>
<text text-anchor="middle" x="747.5" y="-238" font-family="Helvetica,sans-Serif" font-size="10.00"> across</text>
<text text-anchor="middle" x="747.5" y="-227" font-family="Helvetica,sans-Serif" font-size="10.00">scross</text>
</g>
<!-- Node9&#45;&gt;Node9 -->
<g id="edge17" class="edge">
<title>Node9&#45;&gt;Node9</title>
<path fill="none" stroke="#9a32cd" stroke-dasharray="5,2" d="M842.21,-189.77C843.14,-194.5 847.07,-198 854,-198 865.38,-198 868.66,-188.57 863.86,-179.76"/>
<polygon fill="#9a32cd" stroke="#9a32cd" points="845.69,-190.24 844.14,-179.76 838.81,-188.92 845.69,-190.24"/>
<text text-anchor="middle" x="854" y="-256" font-family="Helvetica,sans-Serif" font-size="10.00"> asexcross</text>
<text text-anchor="middle" x="854" y="-245" font-family="Helvetica,sans-Serif" font-size="10.00">cmp</text>
<text text-anchor="middle" x="854" y="-234" font-family="Helvetica,sans-Serif" font-size="10.00">eval</text>
<text text-anchor="middle" x="854" y="-223" font-family="Helvetica,sans-Serif" font-size="10.00">init</text>
<text text-anchor="middle" x="854" y="-212" font-family="Helvetica,sans-Serif" font-size="10.00">mutr</text>
<text text-anchor="middle" x="854" y="-201" font-family="Helvetica,sans-Serif" font-size="10.00">sexcross</text>
</g>
<!-- Node10 -->
<g id="node10" class="node">
<title>Node10</title>
<g id="a_node10"><a xlink:href="classGAEvalData.html" target="_top" xlink:title=" ">
<polygon fill="white" stroke="black" points="581.5,-132.5 581.5,-151.5 656.5,-151.5 656.5,-132.5 581.5,-132.5"/>
<text text-anchor="middle" x="619" y="-139.5" font-family="Helvetica,sans-Serif" font-size="10.00">GAEvalData</text>
</a>
</g>
</g>
<!-- Node10&#45;&gt;Node2 -->
<g id="edge22" class="edge">
<title>Node10&#45;&gt;Node2</title>
<path fill="none" stroke="#9a32cd" stroke-dasharray="5,2" d="M666.98,-140.15C720.86,-138.37 811.86,-136.44 890,-140 909.04,-140.87 930.09,-142.68 947.82,-144.44"/>
<polygon fill="#9a32cd" stroke="#9a32cd" points="666.58,-136.66 656.71,-140.5 666.82,-143.65 666.58,-136.66"/>
<text text-anchor="middle" x="854" y="-143" font-family="Helvetica,sans-Serif" font-size="10.00"> evaldata</text>
</g>
<!-- Node10&#45;&gt;Node9 -->
<g id="edge16" class="edge">
<title>Node10&#45;&gt;Node9</title>
<path fill="none" stroke="#9a32cd" stroke-dasharray="5,2" d="M666.66,-147.61C711.21,-152.96 777.37,-160.91 817.7,-165.76"/>
<polygon fill="#9a32cd" stroke="#9a32cd" points="667.01,-144.12 656.66,-146.41 666.17,-151.07 667.01,-144.12"/>
<text text-anchor="middle" x="747.5" y="-167" font-family="Helvetica,sans-Serif" font-size="10.00"> evd</text>
</g>
<!-- Node11&#45;&gt;Node2 -->
<g id="edge19" class="edge">
<title>Node11&#45;&gt;Node2</title>
<path fill="none" stroke="#9a32cd" stroke-dasharray="5,2" d="M1092.18,-126.7C1072.21,-131.08 1049.87,-135.98 1031.22,-140.07"/>
<polygon fill="#9a32cd" stroke="#9a32cd" points="1093.05,-130.09 1102.06,-124.53 1091.55,-123.25 1093.05,-130.09"/>
<text text-anchor="middle" x="1060" y="-140" font-family="Helvetica,sans-Serif" font-size="10.00"> slct</text>
</g>
<!-- Node12 -->
<g id="node12" class="node">
<title>Node12</title>
<g id="a_node12"><a xlink:title=" ">
<polygon fill="white" stroke="#bfbfbf" points="213,-373.5 213,-392.5 278,-392.5 278,-373.5 213,-373.5"/>
<text text-anchor="middle" x="245.5" y="-380.5" font-family="Helvetica,sans-Serif" font-size="10.00">std::string</text>
</a>
</g>
</g>
<!-- Node12&#45;&gt;Node1 -->
<g id="edge24" class="edge">
<title>Node12&#45;&gt;Node1</title>
<path fill="none" stroke="#9a32cd" stroke-dasharray="5,2" d="M288.23,-383.44C321.02,-383.79 366.28,-384.27 397.84,-384.61"/>
<polygon fill="#9a32cd" stroke="#9a32cd" points="288.09,-379.94 278.05,-383.33 288.01,-386.94 288.09,-379.94"/>
<text text-anchor="middle" x="344.5" y="-387" font-family="Helvetica,sans-Serif" font-size="10.00"> scorefile</text>
</g>
<!-- Node13 -->
<g id="node13" class="node">
<title>Node13</title>
<g id="a_node13"><a xlink:title=" ">
<polygon fill="white" stroke="#bfbfbf" points="0,-368 0,-398 104,-398 104,-368 0,-368"/>
<text text-anchor="start" x="8" y="-386" font-family="Helvetica,sans-Serif" font-size="10.00">std::basic_string&lt;</text>
<text text-anchor="middle" x="52" y="-375" font-family="Helvetica,sans-Serif" font-size="10.00"> Char &gt;</text>
</a>
</g>
</g>
<!-- Node13&#45;&gt;Node12 -->
<g id="edge25" class="edge">
<title>Node13&#45;&gt;Node12</title>
<path fill="none" stroke="midnightblue" d="M114.46,-383C147.2,-383 186.11,-383 212.78,-383"/>
<polygon fill="midnightblue" stroke="midnightblue" points="114.07,-379.5 104.07,-383 114.07,-386.5 114.07,-379.5"/>
</g>
<!-- Node14 -->
<g id="node14" class="node">
<title>Node14</title>
<g id="a_node14"><a xlink:title=" ">
<polygon fill="white" stroke="#bfbfbf" points="189,-297.5 189,-316.5 302,-316.5 302,-297.5 189,-297.5"/>
<text text-anchor="middle" x="245.5" y="-304.5" font-family="Helvetica,sans-Serif" font-size="10.00">std::vector&lt; float &gt;</text>
</a>
</g>
</g>
<!-- Node14&#45;&gt;Node1 -->
<g id="edge26" class="edge">
<title>Node14&#45;&gt;Node1</title>
<path fill="none" stroke="#9a32cd" stroke-dasharray="5,2" d="M312.28,-308.76C331.27,-311.19 351.56,-315.75 369,-324 394.39,-336.01 416.7,-361.29 427.72,-375.24"/>
<polygon fill="#9a32cd" stroke="#9a32cd" points="312.52,-305.26 302.2,-307.64 311.75,-312.22 312.52,-305.26"/>
<text text-anchor="middle" x="344.5" y="-371" font-family="Helvetica,sans-Serif" font-size="10.00"> aveScore</text>
<text text-anchor="middle" x="344.5" y="-360" font-family="Helvetica,sans-Serif" font-size="10.00">devScore</text>
<text text-anchor="middle" x="344.5" y="-349" font-family="Helvetica,sans-Serif" font-size="10.00">divScore</text>
<text text-anchor="middle" x="344.5" y="-338" font-family="Helvetica,sans-Serif" font-size="10.00">maxScore</text>
<text text-anchor="middle" x="344.5" y="-327" font-family="Helvetica,sans-Serif" font-size="10.00">minScore</text>
</g>
<!-- Node15 -->
<g id="node15" class="node">
<title>Node15</title>
<g id="a_node15"><a xlink:title=" ">
<polygon fill="white" stroke="#bfbfbf" points="193.5,-411.5 193.5,-430.5 297.5,-430.5 297.5,-411.5 193.5,-411.5"/>
<text text-anchor="middle" x="245.5" y="-418.5" font-family="Helvetica,sans-Serif" font-size="10.00">std::vector&lt; int &gt;</text>
</a>
</g>
</g>
<!-- Node15&#45;&gt;Node1 -->
<g id="edge27" class="edge">
<title>Node15&#45;&gt;Node1</title>
<path fill="none" stroke="#9a32cd" stroke-dasharray="5,2" d="M307.57,-410.42C327.21,-406.91 349.05,-402.91 369,-399 378.31,-397.18 388.34,-395.11 397.69,-393.13"/>
<polygon fill="#9a32cd" stroke="#9a32cd" points="306.76,-407.01 297.53,-412.2 307.98,-413.9 306.76,-407.01"/>
<text text-anchor="middle" x="344.5" y="-410" font-family="Helvetica,sans-Serif" font-size="10.00"> gen</text>
</g>
</g>
</svg>
