<?xml version="1.0" encoding="UTF-8" standalone="no"?>
<!DOCTYPE svg PUBLIC "-//W3C//DTD SVG 1.1//EN"
 "http://www.w3.org/Graphics/SVG/1.1/DTD/svg11.dtd">
<!-- Generated by graphviz version 2.43.0 (0)
 -->
<!-- Title: GASelectionScheme Pages: 1 -->
<!--zoomable 478 -->
<svg id="main" version="1.1" xmlns="http://www.w3.org/2000/svg" xmlns:xlink="http://www.w3.org/1999/xlink" xml:space="preserve" onload="init(evt)">
<style type="text/css"><![CDATA[
.edge:hover path { stroke: red; }
.edge:hover polygon { stroke: red; fill: red; }
]]></style>
<script type="text/javascript"><![CDATA[
var edges = document.getElementsByTagName('g');
if (edges && edges.length) {
  for (var i=0;i<edges.length;i++) {
    if (edges[i].id.substr(0,4)=='edge') {
      edges[i].setAttribute('class','edge');
    }
  }
}
]]></script>
        <defs>
                <circle id="rim" cx="0" cy="0" r="7"/>
                <circle id="rim2" cx="0" cy="0" r="3.5"/>
                <g id="zoomPlus">
                        <use xlink:href="#rim" fill="#404040">
                                <set attributeName="fill" to="#808080" begin="zoomplus.mouseover" end="zoomplus.mouseout"/>
                        </use>
                        <path d="M-4,0h8M0,-4v8" fill="none" stroke="white" stroke-width="1.5" pointer-events="none"/>
                </g>
                <g id="zoomMin">
                        <use xlink:href="#rim" fill="#404040">
                                <set attributeName="fill" to="#808080" begin="zoomminus.mouseover" end="zoomminus.mouseout"/>
                        </use>
                        <path d="M-4,0h8" fill="none" stroke="white" stroke-width="1.5" pointer-events="none"/>
                </g>
                <g id="dirArrow">
                        <path fill="none" stroke="white" stroke-width="1.5" d="M0,-3.0v7 M-2.5,-0.5L0,-3.0L2.5,-0.5"/>
                </g>
               <g id="resetDef">
                       <use xlink:href="#rim2" fill="#404040">
                               <set attributeName="fill" to="#808080" begin="reset.mouseover" end="reset.mouseout"/>
                       </use>
               </g>
        </defs>

<script type="text/javascript">
var viewWidth = 721;
var viewHeight = 478;
var sectionId = 'dynsection-1';
</script>
<script xlink:href="svgpan.js"/>
<svg id="graph" class="graph">
<g id="viewport">
<title>GASelectionScheme</title>
<polygon fill="white" stroke="transparent" points="-4,4 -4,-474 716.5,-474 716.5,4 -4,4"/>
<!-- Node1 -->
<g id="node1" class="node">
<title>Node1</title>
<g id="a_node1"><a xlink:title=" ">
<polygon fill="#bfbfbf" stroke="black" points="288.5,-388 288.5,-407 403.5,-407 403.5,-388 288.5,-388"/>
<text text-anchor="middle" x="346" y="-395" font-family="Helvetica,sans-Serif" font-size="10.00">GASelectionScheme</text>
</a>
</g>
</g>
<!-- Node3 -->
<g id="node3" class="node">
<title>Node3</title>
<g id="a_node3"><a xlink:href="classGAPopulation.html" target="_top" xlink:title=" ">
<polygon fill="white" stroke="black" points="403.5,-314.5 403.5,-333.5 486.5,-333.5 486.5,-314.5 403.5,-314.5"/>
<text text-anchor="middle" x="445" y="-321.5" font-family="Helvetica,sans-Serif" font-size="10.00">GAPopulation</text>
</a>
</g>
</g>
<!-- Node1&#45;&gt;Node3 -->
<g id="edge25" class="edge">
<title>Node1&#45;&gt;Node3</title>
<path fill="none" stroke="#9a32cd" stroke-dasharray="5,2" d="M347.59,-378.04C349.23,-369.44 352.5,-359.66 359,-353 366.02,-345.81 387.52,-338.81 407.26,-333.61"/>
<polygon fill="#9a32cd" stroke="#9a32cd" points="344.12,-377.6 346.27,-387.97 351.06,-378.52 344.12,-377.6"/>
<text text-anchor="middle" x="369.5" y="-356" font-family="Helvetica,sans-Serif" font-size="10.00"> slct</text>
</g>
<!-- Node2 -->
<g id="node2" class="node">
<title>Node2</title>
<g id="a_node2"><a xlink:href="classGAID.html" target="_top" xlink:title=" ">
<polygon fill="white" stroke="black" points="325.5,-450.5 325.5,-469.5 366.5,-469.5 366.5,-450.5 325.5,-450.5"/>
<text text-anchor="middle" x="346" y="-457.5" font-family="Helvetica,sans-Serif" font-size="10.00">GAID</text>
</a>
</g>
</g>
<!-- Node2&#45;&gt;Node1 -->
<g id="edge1" class="edge">
<title>Node2&#45;&gt;Node1</title>
<path fill="none" stroke="midnightblue" d="M346,-440C346,-429 346,-415.68 346,-407.15"/>
<polygon fill="midnightblue" stroke="midnightblue" points="342.5,-440.33 346,-450.33 349.5,-440.33 342.5,-440.33"/>
</g>
<!-- Node2&#45;&gt;Node3 -->
<g id="edge3" class="edge">
<title>Node2&#45;&gt;Node3</title>
<path fill="none" stroke="midnightblue" d="M372.77,-445.42C386.1,-437.51 401.56,-426.44 412,-413 431.42,-388 440.36,-350.35 443.55,-333.59"/>
<polygon fill="midnightblue" stroke="midnightblue" points="370.96,-442.42 363.97,-450.38 374.4,-448.52 370.96,-442.42"/>
</g>
<!-- Node4 -->
<g id="node4" class="node">
<title>Node4</title>
<g id="a_node4"><a xlink:href="classGAScalingScheme.html" target="_top" xlink:title=" ">
<polygon fill="white" stroke="black" points="460.5,-388 460.5,-407 565.5,-407 565.5,-388 460.5,-388"/>
<text text-anchor="middle" x="513" y="-395" font-family="Helvetica,sans-Serif" font-size="10.00">GAScalingScheme</text>
</a>
</g>
</g>
<!-- Node2&#45;&gt;Node4 -->
<g id="edge5" class="edge">
<title>Node2&#45;&gt;Node4</title>
<path fill="none" stroke="midnightblue" d="M376.52,-452.44C396.59,-447.71 423.24,-440.66 446,-432 464.47,-424.97 484.63,-414.48 497.96,-407.11"/>
<polygon fill="midnightblue" stroke="midnightblue" points="375.65,-449.04 366.68,-454.69 377.21,-455.87 375.65,-449.04"/>
</g>
<!-- Node5 -->
<g id="node5" class="node">
<title>Node5</title>
<g id="a_node5"><a xlink:href="classGAGeneticAlgorithm.html" target="_top" xlink:title=" ">
<polygon fill="white" stroke="black" points="337,-124.5 337,-143.5 453,-143.5 453,-124.5 337,-124.5"/>
<text text-anchor="middle" x="395" y="-131.5" font-family="Helvetica,sans-Serif" font-size="10.00">GAGeneticAlgorithm</text>
</a>
</g>
</g>
<!-- Node2&#45;&gt;Node5 -->
<g id="edge7" class="edge">
<title>Node2&#45;&gt;Node5</title>
<path fill="none" stroke="midnightblue" d="M315.14,-459.4C237.09,-459.59 38,-454.58 38,-398.5 38,-398.5 38,-398.5 38,-211 38,-150.64 235.69,-138.03 336.85,-135.53"/>
<polygon fill="midnightblue" stroke="midnightblue" points="315.33,-462.9 325.31,-459.35 315.29,-455.9 315.33,-462.9"/>
</g>
<!-- Node14 -->
<g id="node14" class="node">
<title>Node14</title>
<g id="a_node14"><a xlink:href="classGAGenome.html" target="_top" xlink:title=" ">
<polygon fill="white" stroke="black" points="417,-23.5 417,-42.5 489,-42.5 489,-23.5 417,-23.5"/>
<text text-anchor="middle" x="453" y="-30.5" font-family="Helvetica,sans-Serif" font-size="10.00">GAGenome</text>
</a>
</g>
</g>
<!-- Node2&#45;&gt;Node14 -->
<g id="edge20" class="edge">
<title>Node2&#45;&gt;Node14</title>
<path fill="none" stroke="midnightblue" d="M314.94,-459.66C262.69,-459.96 154.32,-457.12 67,-432 35,-422.8 0,-431.79 0,-398.5 0,-398.5 0,-398.5 0,-133 0,-47.87 309.2,-35.83 416.69,-34.22"/>
<polygon fill="midnightblue" stroke="midnightblue" points="315.25,-463.15 325.22,-459.55 315.18,-456.15 315.25,-463.15"/>
</g>
<!-- Node3&#45;&gt;Node1 -->
<g id="edge2" class="edge">
<title>Node3&#45;&gt;Node1</title>
<path fill="none" stroke="#9a32cd" stroke-dasharray="5,2" d="M419.23,-338.47C411.56,-342.81 403.27,-347.84 396,-353 380.62,-363.93 364.42,-378.71 354.77,-387.92"/>
<polygon fill="#9a32cd" stroke="#9a32cd" points="421.09,-341.44 428.17,-333.55 417.72,-335.3 421.09,-341.44"/>
<text text-anchor="middle" x="407" y="-356" font-family="Helvetica,sans-Serif" font-size="10.00"> pop</text>
</g>
<!-- Node3&#45;&gt;Node3 -->
<g id="edge24" class="edge">
<title>Node3&#45;&gt;Node3</title>
<path fill="none" stroke="#9a32cd" stroke-dasharray="5,2" d="M496.82,-329.07C501.53,-328.01 504.5,-326.32 504.5,-324 504.5,-320.28 496.91,-318.19 486.71,-317.72"/>
<polygon fill="#9a32cd" stroke="#9a32cd" points="496.22,-325.61 486.71,-330.28 497.05,-332.56 496.22,-325.61"/>
<text text-anchor="middle" x="517" y="-327" font-family="Helvetica,sans-Serif" font-size="10.00"> eval</text>
<text text-anchor="middle" x="517" y="-316" font-family="Helvetica,sans-Serif" font-size="10.00">init</text>
</g>
<!-- Node3&#45;&gt;Node5 -->
<g id="edge9" class="edge">
<title>Node3&#45;&gt;Node5</title>
<path fill="none" stroke="#9a32cd" stroke-dasharray="5,2" d="M443.01,-304.1C440.14,-280 433.96,-237.22 423,-202 416.33,-180.57 405.4,-156.55 399.36,-143.9"/>
<polygon fill="#9a32cd" stroke="#9a32cd" points="439.56,-304.77 444.16,-314.32 446.52,-303.99 439.56,-304.77"/>
<text text-anchor="middle" x="440" y="-209.5" font-family="Helvetica,sans-Serif" font-size="10.00"> pop</text>
</g>
<!-- Node6 -->
<g id="node6" class="node">
<title>Node6</title>
<g id="a_node6"><a xlink:href="classGAStatistics.html" target="_top" xlink:title=" ">
<polygon fill="white" stroke="black" points="257,-202.5 257,-221.5 333,-221.5 333,-202.5 257,-202.5"/>
<text text-anchor="middle" x="295" y="-209.5" font-family="Helvetica,sans-Serif" font-size="10.00">GAStatistics</text>
</a>
</g>
</g>
<!-- Node3&#45;&gt;Node6 -->
<g id="edge11" class="edge">
<title>Node3&#45;&gt;Node6</title>
<path fill="none" stroke="#9a32cd" stroke-dasharray="5,2" d="M393.32,-312.38C382.68,-308.32 372.22,-302.72 364,-295 344.68,-276.87 358.43,-259.95 341,-240 334.18,-232.19 324.52,-226.05 315.81,-221.6"/>
<polygon fill="#9a32cd" stroke="#9a32cd" points="392.5,-315.8 403.09,-315.7 394.75,-309.17 392.5,-315.8"/>
<text text-anchor="middle" x="375" y="-265" font-family="Helvetica,sans-Serif" font-size="10.00"> boa</text>
</g>
<!-- Node4&#45;&gt;Node3 -->
<g id="edge4" class="edge">
<title>Node4&#45;&gt;Node3</title>
<path fill="none" stroke="#9a32cd" stroke-dasharray="5,2" d="M489.61,-382.35C482.17,-377.16 474.25,-370.86 468,-364 459.63,-354.82 452.83,-342.12 448.85,-333.73"/>
<polygon fill="#9a32cd" stroke="#9a32cd" points="487.74,-385.3 498.01,-387.89 491.6,-379.46 487.74,-385.3"/>
<text text-anchor="middle" x="486.5" y="-356" font-family="Helvetica,sans-Serif" font-size="10.00"> sclscm</text>
</g>
<!-- Node5&#45;&gt;Node3 -->
<g id="edge6" class="edge">
<title>Node5&#45;&gt;Node3</title>
<path fill="none" stroke="#9a32cd" stroke-dasharray="5,2" d="M396.61,-153.89C398.36,-171.64 401.64,-198.85 407,-222 414.7,-255.27 418,-263.42 431,-295 433.73,-301.63 437.37,-308.87 440.25,-314.33"/>
<polygon fill="#9a32cd" stroke="#9a32cd" points="400.08,-153.38 395.68,-143.74 393.11,-154.02 400.08,-153.38"/>
<text text-anchor="middle" x="415" y="-209.5" font-family="Helvetica,sans-Serif" font-size="10.00"> ga</text>
</g>
<!-- Node5&#45;&gt;Node5 -->
<g id="edge8" class="edge">
<title>Node5&#45;&gt;Node5</title>
<path fill="none" stroke="#9a32cd" stroke-dasharray="5,2" d="M463.48,-139.15C468.16,-137.97 471,-136.25 471,-134 471,-130.4 463.73,-128.16 453.31,-127.29"/>
<polygon fill="#9a32cd" stroke="#9a32cd" points="462.67,-135.74 453.31,-140.71 463.73,-142.65 462.67,-135.74"/>
<text text-anchor="middle" x="477.5" y="-131.5" font-family="Helvetica,sans-Serif" font-size="10.00"> cf</text>
</g>
<!-- Node5&#45;&gt;Node14 -->
<g id="edge21" class="edge">
<title>Node5&#45;&gt;Node14</title>
<path fill="none" stroke="#9a32cd" stroke-dasharray="5,2" d="M418.73,-118.6C423.3,-114.96 427.69,-110.72 431,-106 444.97,-86.1 450.25,-57.11 452.1,-42.74"/>
<polygon fill="#9a32cd" stroke="#9a32cd" points="416.58,-115.83 410.49,-124.5 420.66,-121.52 416.58,-115.83"/>
<text text-anchor="middle" x="451" y="-92.5" font-family="Helvetica,sans-Serif" font-size="10.00"> ga</text>
</g>
<!-- Node6&#45;&gt;Node5 -->
<g id="edge10" class="edge">
<title>Node6&#45;&gt;Node5</title>
<path fill="none" stroke="#9a32cd" stroke-dasharray="5,2" d="M311.56,-195.19C322.4,-185.18 337.07,-172.25 351,-162 360.09,-155.31 370.9,-148.66 379.52,-143.64"/>
<polygon fill="#9a32cd" stroke="#9a32cd" points="309.01,-192.78 304.11,-202.17 313.8,-197.89 309.01,-192.78"/>
<text text-anchor="middle" x="365" y="-170.5" font-family="Helvetica,sans-Serif" font-size="10.00"> stats</text>
</g>
<!-- Node7 -->
<g id="node7" class="node">
<title>Node7</title>
<g id="a_node7"><a xlink:title=" ">
<polygon fill="white" stroke="#bfbfbf" points="320.5,-314.5 320.5,-333.5 385.5,-333.5 385.5,-314.5 320.5,-314.5"/>
<text text-anchor="middle" x="353" y="-321.5" font-family="Helvetica,sans-Serif" font-size="10.00">std::string</text>
</a>
</g>
</g>
<!-- Node7&#45;&gt;Node6 -->
<g id="edge12" class="edge">
<title>Node7&#45;&gt;Node6</title>
<path fill="none" stroke="#9a32cd" stroke-dasharray="5,2" d="M312.03,-309.91C305.67,-306.09 299.93,-301.22 296,-295 281.48,-272.01 288.07,-237.68 292.35,-221.73"/>
<polygon fill="#9a32cd" stroke="#9a32cd" points="310.46,-313.04 320.96,-314.48 313.65,-306.81 310.46,-313.04"/>
<text text-anchor="middle" x="318.5" y="-265" font-family="Helvetica,sans-Serif" font-size="10.00"> scorefile</text>
</g>
<!-- Node8 -->
<g id="node8" class="node">
<title>Node8</title>
<g id="a_node8"><a xlink:title=" ">
<polygon fill="white" stroke="#bfbfbf" points="166,-382.5 166,-412.5 270,-412.5 270,-382.5 166,-382.5"/>
<text text-anchor="start" x="174" y="-400.5" font-family="Helvetica,sans-Serif" font-size="10.00">std::basic_string&lt;</text>
<text text-anchor="middle" x="218" y="-389.5" font-family="Helvetica,sans-Serif" font-size="10.00"> Char &gt;</text>
</a>
</g>
</g>
<!-- Node8&#45;&gt;Node7 -->
<g id="edge13" class="edge">
<title>Node8&#45;&gt;Node7</title>
<path fill="none" stroke="midnightblue" d="M253.77,-377.56C280.61,-363.34 316.13,-344.53 336.58,-333.7"/>
<polygon fill="midnightblue" stroke="midnightblue" points="251.87,-374.6 244.67,-382.37 255.15,-380.79 251.87,-374.6"/>
</g>
<!-- Node9 -->
<g id="node9" class="node">
<title>Node9</title>
<g id="a_node9"><a xlink:title=" ">
<polygon fill="white" stroke="#bfbfbf" points="66.5,-314.5 66.5,-333.5 179.5,-333.5 179.5,-314.5 66.5,-314.5"/>
<text text-anchor="middle" x="123" y="-321.5" font-family="Helvetica,sans-Serif" font-size="10.00">std::vector&lt; float &gt;</text>
</a>
</g>
</g>
<!-- Node9&#45;&gt;Node6 -->
<g id="edge14" class="edge">
<title>Node9&#45;&gt;Node6</title>
<path fill="none" stroke="#9a32cd" stroke-dasharray="5,2" d="M132.42,-305.62C143.64,-286.61 164.14,-256.64 190,-240 209.95,-227.17 235.69,-220.43 256.7,-216.89"/>
<polygon fill="#9a32cd" stroke="#9a32cd" points="129.31,-304.01 127.43,-314.44 135.4,-307.46 129.31,-304.01"/>
<text text-anchor="middle" x="214.5" y="-287" font-family="Helvetica,sans-Serif" font-size="10.00"> aveScore</text>
<text text-anchor="middle" x="214.5" y="-276" font-family="Helvetica,sans-Serif" font-size="10.00">devScore</text>
<text text-anchor="middle" x="214.5" y="-265" font-family="Helvetica,sans-Serif" font-size="10.00">divScore</text>
<text text-anchor="middle" x="214.5" y="-254" font-family="Helvetica,sans-Serif" font-size="10.00">maxScore</text>
<text text-anchor="middle" x="214.5" y="-243" font-family="Helvetica,sans-Serif" font-size="10.00">minScore</text>
</g>
<!-- Node10 -->
<g id="node10" class="node">
<title>Node10</title>
<g id="a_node10"><a xlink:title=" ">
<polygon fill="white" stroke="#bfbfbf" points="198,-314.5 198,-333.5 302,-333.5 302,-314.5 198,-314.5"/>
<text text-anchor="middle" x="250" y="-321.5" font-family="Helvetica,sans-Serif" font-size="10.00">std::vector&lt; int &gt;</text>
</a>
</g>
</g>
<!-- Node10&#45;&gt;Node6 -->
<g id="edge15" class="edge">
<title>Node10&#45;&gt;Node6</title>
<path fill="none" stroke="#9a32cd" stroke-dasharray="5,2" d="M245.35,-304.33C242,-286.58 239.8,-259.73 251,-240 255.6,-231.89 263.73,-225.92 271.75,-221.68"/>
<polygon fill="#9a32cd" stroke="#9a32cd" points="241.97,-305.28 247.53,-314.29 248.81,-303.78 241.97,-305.28"/>
<text text-anchor="middle" x="262" y="-265" font-family="Helvetica,sans-Serif" font-size="10.00"> gen</text>
</g>
<!-- Node11 -->
<g id="node11" class="node">
<title>Node11</title>
<g id="a_node11"><a xlink:href="classGAParameterList.html" target="_top" xlink:title=" ">
<polygon fill="white" stroke="black" points="542,-202.5 542,-221.5 640,-221.5 640,-202.5 542,-202.5"/>
<text text-anchor="middle" x="591" y="-209.5" font-family="Helvetica,sans-Serif" font-size="10.00">GAParameterList</text>
</a>
</g>
</g>
<!-- Node11&#45;&gt;Node5 -->
<g id="edge16" class="edge">
<title>Node11&#45;&gt;Node5</title>
<path fill="none" stroke="#9a32cd" stroke-dasharray="5,2" d="M531.83,-207C506.18,-203.42 476.48,-196.67 452,-184 439.44,-177.5 439.66,-171.3 429,-162 421.61,-155.56 412.96,-148.7 406.23,-143.5"/>
<polygon fill="#9a32cd" stroke="#9a32cd" points="531.45,-210.48 541.81,-208.27 532.33,-203.54 531.45,-210.48"/>
<text text-anchor="middle" x="472" y="-170.5" font-family="Helvetica,sans-Serif" font-size="10.00"> params</text>
</g>
<!-- Node12 -->
<g id="node12" class="node">
<title>Node12</title>
<g id="a_node12"><a xlink:title=" ">
<polygon fill="white" stroke="#bfbfbf" points="556.5,-314.5 556.5,-333.5 637.5,-333.5 637.5,-314.5 556.5,-314.5"/>
<text text-anchor="middle" x="597" y="-321.5" font-family="Helvetica,sans-Serif" font-size="10.00">std::list&lt; T &gt;</text>
</a>
</g>
</g>
<!-- Node12&#45;&gt;Node11 -->
<g id="edge17" class="edge">
<title>Node12&#45;&gt;Node11</title>
<path fill="none" stroke="midnightblue" d="M595.98,-304.35C594.67,-280.25 592.43,-239.31 591.47,-221.59"/>
<polygon fill="midnightblue" stroke="midnightblue" points="592.49,-304.57 596.53,-314.37 599.48,-304.19 592.49,-304.57"/>
</g>
<!-- Node13 -->
<g id="node13" class="node">
<title>Node13</title>
<g id="a_node13"><a xlink:title=" ">
<polygon fill="white" stroke="#bfbfbf" points="583.5,-388 583.5,-407 612.5,-407 612.5,-388 583.5,-388"/>
<text text-anchor="middle" x="598" y="-395" font-family="Helvetica,sans-Serif" font-size="10.00">T</text>
</a>
</g>
</g>
<!-- Node13&#45;&gt;Node12 -->
<g id="edge18" class="edge">
<title>Node13&#45;&gt;Node12</title>
<path fill="none" stroke="#9a32cd" stroke-dasharray="5,2" d="M597.74,-377.59C597.54,-363.43 597.28,-344.7 597.12,-333.84"/>
<polygon fill="#9a32cd" stroke="#9a32cd" points="594.24,-377.78 597.88,-387.73 601.24,-377.68 594.24,-377.78"/>
<text text-anchor="middle" x="621.5" y="-356" font-family="Helvetica,sans-Serif" font-size="10.00"> elements</text>
</g>
<!-- Node14&#45;&gt;Node3 -->
<g id="edge27" class="edge">
<title>Node14&#45;&gt;Node3</title>
<path fill="none" stroke="#9a32cd" stroke-dasharray="5,2" d="M463.48,-51.57C473.32,-69.19 487.36,-97.43 493,-124 508.71,-198.05 465.05,-286.64 449.94,-314.31"/>
<polygon fill="#9a32cd" stroke="#9a32cd" points="466.29,-49.44 458.26,-42.52 460.22,-52.94 466.29,-49.44"/>
<text text-anchor="middle" x="508" y="-176" font-family="Helvetica,sans-Serif" font-size="10.00"> rind</text>
<text text-anchor="middle" x="508" y="-165" font-family="Helvetica,sans-Serif" font-size="10.00">sind</text>
</g>
<!-- Node14&#45;&gt;Node5 -->
<g id="edge19" class="edge">
<title>Node14&#45;&gt;Node5</title>
<path fill="none" stroke="#9a32cd" stroke-dasharray="5,2" d="M428.87,-48.22C416.63,-56.86 402.93,-69.11 396,-84 389.97,-96.96 391.42,-114.01 393.14,-124.2"/>
<polygon fill="#9a32cd" stroke="#9a32cd" points="431,-51.01 437.4,-42.57 427.13,-45.17 431,-51.01"/>
<text text-anchor="middle" x="413.5" y="-98" font-family="Helvetica,sans-Serif" font-size="10.00"> across</text>
<text text-anchor="middle" x="413.5" y="-87" font-family="Helvetica,sans-Serif" font-size="10.00">scross</text>
</g>
<!-- Node14&#45;&gt;Node14 -->
<g id="edge23" class="edge">
<title>Node14&#45;&gt;Node14</title>
<path fill="none" stroke="#9a32cd" stroke-dasharray="5,2" d="M481.76,-44.38C495.22,-45.66 507,-41.87 507,-33 507,-21.98 488.8,-18.8 471.82,-23.44"/>
<polygon fill="#9a32cd" stroke="#9a32cd" points="482.29,-40.92 471.82,-42.56 481.02,-47.81 482.29,-40.92"/>
<text text-anchor="middle" x="533" y="-58" font-family="Helvetica,sans-Serif" font-size="10.00"> asexcross</text>
<text text-anchor="middle" x="533" y="-47" font-family="Helvetica,sans-Serif" font-size="10.00">cmp</text>
<text text-anchor="middle" x="533" y="-36" font-family="Helvetica,sans-Serif" font-size="10.00">eval</text>
<text text-anchor="middle" x="533" y="-25" font-family="Helvetica,sans-Serif" font-size="10.00">init</text>
<text text-anchor="middle" x="533" y="-14" font-family="Helvetica,sans-Serif" font-size="10.00">mutr</text>
<text text-anchor="middle" x="533" y="-3" font-family="Helvetica,sans-Serif" font-size="10.00">sexcross</text>
</g>
<!-- Node15 -->
<g id="node15" class="node">
<title>Node15</title>
<g id="a_node15"><a xlink:href="classGAEvalData.html" target="_top" xlink:title=" ">
<polygon fill="white" stroke="black" points="637.5,-388 637.5,-407 712.5,-407 712.5,-388 637.5,-388"/>
<text text-anchor="middle" x="675" y="-395" font-family="Helvetica,sans-Serif" font-size="10.00">GAEvalData</text>
</a>
</g>
</g>
<!-- Node15&#45;&gt;Node3 -->
<g id="edge26" class="edge">
<title>Node15&#45;&gt;Node3</title>
<path fill="none" stroke="#9a32cd" stroke-dasharray="5,2" d="M634.65,-385.32C630.38,-384.18 626.11,-383.05 622,-382 588.8,-373.48 579.75,-374.14 547,-364 518.02,-355.02 485.42,-342.03 465.05,-333.55"/>
<polygon fill="#9a32cd" stroke="#9a32cd" points="633.93,-388.75 644.49,-387.98 635.75,-381.99 633.93,-388.75"/>
<text text-anchor="middle" x="570" y="-356" font-family="Helvetica,sans-Serif" font-size="10.00"> evaldata</text>
</g>
<!-- Node15&#45;&gt;Node14 -->
<g id="edge22" class="edge">
<title>Node15&#45;&gt;Node14</title>
<path fill="none" stroke="#9a32cd" stroke-dasharray="5,2" d="M675.41,-377.57C675.69,-363.15 676,-342.83 676,-325 676,-325 676,-325 676,-133 676,-52.31 552.51,-36.89 489.33,-34.28"/>
<polygon fill="#9a32cd" stroke="#9a32cd" points="671.91,-377.63 675.2,-387.69 678.91,-377.77 671.91,-377.63"/>
<text text-anchor="middle" x="687" y="-209.5" font-family="Helvetica,sans-Serif" font-size="10.00"> evd</text>
</g>
</g>
</svg>
        <g id="navigator" transform="translate(0 0)" fill="#404254">
                <rect fill="#f2f5e9" fill-opacity="0.5" stroke="#606060" stroke-width=".5" x="0" y="0" width="60" height="60"/>
                <use id="zoomplus" xlink:href="#zoomPlus" x="17" y="9" onmousedown="handleZoom(evt,'in')"/>
                <use id="zoomminus" xlink:href="#zoomMin" x="42" y="9" onmousedown="handleZoom(evt,'out')"/>
                <use id="reset" xlink:href="#resetDef" x="30" y="36" onmousedown="handleReset()"/>
                <g id="arrowUp" xlink:href="#dirArrow" transform="translate(30 24)" onmousedown="handlePan(0,-1)">
                  <use xlink:href="#rim" fill="#404040">
                        <set attributeName="fill" to="#808080" begin="arrowUp.mouseover" end="arrowUp.mouseout"/>
                  </use>
                  <path fill="none" stroke="white" stroke-width="1.5" d="M0,-3.0v7 M-2.5,-0.5L0,-3.0L2.5,-0.5"/>
                </g>
                <g id="arrowRight" xlink:href="#dirArrow" transform="rotate(90) translate(36 -43)" onmousedown="handlePan(1,0)">
                  <use xlink:href="#rim" fill="#404040">
                        <set attributeName="fill" to="#808080" begin="arrowRight.mouseover" end="arrowRight.mouseout"/>
                  </use>
                  <path fill="none" stroke="white" stroke-width="1.5" d="M0,-3.0v7 M-2.5,-0.5L0,-3.0L2.5,-0.5"/>
                </g>
                <g id="arrowDown" xlink:href="#dirArrow" transform="rotate(180) translate(-30 -48)" onmousedown="handlePan(0,1)">
                  <use xlink:href="#rim" fill="#404040">
                        <set attributeName="fill" to="#808080" begin="arrowDown.mouseover" end="arrowDown.mouseout"/>
                  </use>
                  <path fill="none" stroke="white" stroke-width="1.5" d="M0,-3.0v7 M-2.5,-0.5L0,-3.0L2.5,-0.5"/>
                </g>
                <g id="arrowLeft" xlink:href="#dirArrow" transform="rotate(270) translate(-36 17)" onmousedown="handlePan(-1,0)">
                  <use xlink:href="#rim" fill="#404040">
                        <set attributeName="fill" to="#808080" begin="arrowLeft.mouseover" end="arrowLeft.mouseout"/>
                  </use>
                  <path fill="none" stroke="white" stroke-width="1.5" d="M0,-3.0v7 M-2.5,-0.5L0,-3.0L2.5,-0.5"/>
                </g>
        </g>
        <svg viewBox="0 0 15 15" width="100%" height="30px" preserveAspectRatio="xMaxYMin meet">
         <g id="arrow_out" transform="scale(0.3 0.3)">
          <a xlink:href="classGASelectionScheme__coll__graph_org.svg" target="_base">
           <rect id="button" ry="5" rx="5" y="6" x="6" height="38" width="38"
                fill="#f2f5e9" fill-opacity="0.5" stroke="#606060" stroke-width="1.0"/>
           <path id="arrow"
             d="M 11.500037,31.436501 C 11.940474,20.09759 22.043105,11.32322 32.158766,21.979434 L 37.068811,17.246167 C 37.068811,17.246167 37.088388,32 37.088388,32 L 22.160133,31.978069 C 22.160133,31.978069 26.997745,27.140456 26.997745,27.140456 C 18.528582,18.264221 13.291696,25.230495 11.500037,31.436501 z"
             style="fill:#404040;"/>
          </a>
         </g>
        </svg>
</svg>
