<?xml version="1.0" encoding="UTF-8" standalone="no"?>
<!DOCTYPE svg PUBLIC "-//W3C//DTD SVG 1.1//EN"
 "http://www.w3.org/Graphics/SVG/1.1/DTD/svg11.dtd">
<!-- Generated by graphviz version 2.43.0 (0)
 -->
<!-- Title: GAParameter Pages: 1 -->
<svg width="225pt" height="174pt"
 viewBox="0.00 0.00 225.00 174.00" xmlns="http://www.w3.org/2000/svg" xmlns:xlink="http://www.w3.org/1999/xlink">
<g id="graph0" class="graph" transform="scale(1 1) rotate(0) translate(4 170)">
<title>GAParameter</title>
<polygon fill="white" stroke="transparent" points="-4,4 -4,-170 221,-170 221,4 -4,4"/>
<!-- Node1 -->
<g id="node1" class="node">
<title>Node1</title>
<g id="a_node1"><a xlink:title="This object is used for naming the parameters.">
<polygon fill="#bfbfbf" stroke="black" points="37.5,-0.5 37.5,-19.5 118.5,-19.5 118.5,-0.5 37.5,-0.5"/>
<text text-anchor="middle" x="78" y="-7.5" font-family="Helvetica,sans-Serif" font-size="10.00">GAParameter</text>
</a>
</g>
</g>
<!-- Node2 -->
<g id="node2" class="node">
<title>Node2</title>
<g id="a_node2"><a xlink:href="unionGAParameter_1_1Value.html" target="_top" xlink:title=" ">
<polygon fill="white" stroke="black" points="0,-78.5 0,-97.5 114,-97.5 114,-78.5 0,-78.5"/>
<text text-anchor="middle" x="57" y="-85.5" font-family="Helvetica,sans-Serif" font-size="10.00">GAParameter::Value</text>
</a>
</g>
</g>
<!-- Node2&#45;&gt;Node1 -->
<g id="edge1" class="edge">
<title>Node2&#45;&gt;Node1</title>
<path fill="none" stroke="#9a32cd" stroke-dasharray="5,2" d="M62.19,-68.22C66.48,-52.7 72.37,-31.36 75.62,-19.62"/>
<polygon fill="#9a32cd" stroke="#9a32cd" points="58.7,-67.71 59.41,-78.28 65.45,-69.58 58.7,-67.71"/>
<text text-anchor="middle" x="79.5" y="-46.5" font-family="Helvetica,sans-Serif" font-size="10.00"> val</text>
</g>
<!-- Node3 -->
<g id="node3" class="node">
<title>Node3</title>
<g id="a_node3"><a xlink:title=" ">
<polygon fill="white" stroke="#bfbfbf" points="132.5,-78.5 132.5,-97.5 197.5,-97.5 197.5,-78.5 132.5,-78.5"/>
<text text-anchor="middle" x="165" y="-85.5" font-family="Helvetica,sans-Serif" font-size="10.00">std::string</text>
</a>
</g>
</g>
<!-- Node3&#45;&gt;Node1 -->
<g id="edge2" class="edge">
<title>Node3&#45;&gt;Node1</title>
<path fill="none" stroke="#9a32cd" stroke-dasharray="5,2" d="M147.03,-71.3C129.1,-55.64 102.22,-32.16 87.86,-19.62"/>
<polygon fill="#9a32cd" stroke="#9a32cd" points="145.19,-74.34 155.02,-78.28 149.79,-69.07 145.19,-74.34"/>
<text text-anchor="middle" x="148.5" y="-52" font-family="Helvetica,sans-Serif" font-size="10.00"> fname</text>
<text text-anchor="middle" x="148.5" y="-41" font-family="Helvetica,sans-Serif" font-size="10.00">sname</text>
</g>
<!-- Node4 -->
<g id="node4" class="node">
<title>Node4</title>
<g id="a_node4"><a xlink:title=" ">
<polygon fill="white" stroke="#bfbfbf" points="113,-135.5 113,-165.5 217,-165.5 217,-135.5 113,-135.5"/>
<text text-anchor="start" x="121" y="-153.5" font-family="Helvetica,sans-Serif" font-size="10.00">std::basic_string&lt;</text>
<text text-anchor="middle" x="165" y="-142.5" font-family="Helvetica,sans-Serif" font-size="10.00"> Char &gt;</text>
</a>
</g>
</g>
<!-- Node4&#45;&gt;Node3 -->
<g id="edge3" class="edge">
<title>Node4&#45;&gt;Node3</title>
<path fill="none" stroke="midnightblue" d="M165,-125.35C165,-115.51 165,-104.78 165,-97.54"/>
<polygon fill="midnightblue" stroke="midnightblue" points="161.5,-125.47 165,-135.47 168.5,-125.47 161.5,-125.47"/>
</g>
</g>
</svg>
