<?xml version="1.0" encoding="UTF-8" standalone="no"?>
<!DOCTYPE svg PUBLIC "-//W3C//DTD SVG 1.1//EN"
 "http://www.w3.org/Graphics/SVG/1.1/DTD/svg11.dtd">
<!-- Generated by graphviz version 2.43.0 (0)
 -->
<!-- Title: GAGeneticAlgorithm Pages: 1 -->
<!--zoomable 492 -->
<svg id="main" version="1.1" xmlns="http://www.w3.org/2000/svg" xmlns:xlink="http://www.w3.org/1999/xlink" xml:space="preserve" onload="init(evt)">
<style type="text/css"><![CDATA[
.edge:hover path { stroke: red; }
.edge:hover polygon { stroke: red; fill: red; }
]]></style>
<script type="text/javascript"><![CDATA[
var edges = document.getElementsByTagName('g');
if (edges && edges.length) {
  for (var i=0;i<edges.length;i++) {
    if (edges[i].id.substr(0,4)=='edge') {
      edges[i].setAttribute('class','edge');
    }
  }
}
]]></script>
        <defs>
                <circle id="rim" cx="0" cy="0" r="7"/>
                <circle id="rim2" cx="0" cy="0" r="3.5"/>
                <g id="zoomPlus">
                        <use xlink:href="#rim" fill="#404040">
                                <set attributeName="fill" to="#808080" begin="zoomplus.mouseover" end="zoomplus.mouseout"/>
                        </use>
                        <path d="M-4,0h8M0,-4v8" fill="none" stroke="white" stroke-width="1.5" pointer-events="none"/>
                </g>
                <g id="zoomMin">
                        <use xlink:href="#rim" fill="#404040">
                                <set attributeName="fill" to="#808080" begin="zoomminus.mouseover" end="zoomminus.mouseout"/>
                        </use>
                        <path d="M-4,0h8" fill="none" stroke="white" stroke-width="1.5" pointer-events="none"/>
                </g>
                <g id="dirArrow">
                        <path fill="none" stroke="white" stroke-width="1.5" d="M0,-3.0v7 M-2.5,-0.5L0,-3.0L2.5,-0.5"/>
                </g>
               <g id="resetDef">
                       <use xlink:href="#rim2" fill="#404040">
                               <set attributeName="fill" to="#808080" begin="reset.mouseover" end="reset.mouseout"/>
                       </use>
               </g>
        </defs>

<script type="text/javascript">
var viewWidth = 1152;
var viewHeight = 492;
var sectionId = 'dynsection-1';
</script>
<script xlink:href="svgpan.js"/>
<svg id="graph" class="graph">
<g id="viewport">
<title>GAGeneticAlgorithm</title>
<polygon fill="white" stroke="transparent" points="-4,4 -4,-488 1148,-488 1148,4 -4,4"/>
<!-- Node1 -->
<g id="node1" class="node">
<title>Node1</title>
<g id="a_node1"><a xlink:title=" ">
<polygon fill="#bfbfbf" stroke="black" points="406,-198.5 406,-217.5 522,-217.5 522,-198.5 406,-198.5"/>
<text text-anchor="middle" x="464" y="-205.5" font-family="Helvetica,sans-Serif" font-size="10.00">GAGeneticAlgorithm</text>
</a>
</g>
</g>
<!-- Node1&#45;&gt;Node1 -->
<g id="edge2" class="edge">
<title>Node1&#45;&gt;Node1</title>
<path fill="none" stroke="#9a32cd" stroke-dasharray="5,2" d="M446.22,-227.4C447.41,-232.31 453.34,-236 464,-236 481.06,-236 485.99,-226.57 478.8,-217.76"/>
<polygon fill="#9a32cd" stroke="#9a32cd" points="449.59,-228.34 449.2,-217.76 442.91,-226.28 449.59,-228.34"/>
<text text-anchor="middle" x="464" y="-239" font-family="Helvetica,sans-Serif" font-size="10.00"> cf</text>
</g>
<!-- Node3 -->
<g id="node3" class="node">
<title>Node3</title>
<g id="a_node3"><a xlink:href="classGAPopulation.html" target="_top" xlink:title=" ">
<polygon fill="white" stroke="black" points="846,-289.5 846,-308.5 929,-308.5 929,-289.5 846,-289.5"/>
<text text-anchor="middle" x="887.5" y="-296.5" font-family="Helvetica,sans-Serif" font-size="10.00">GAPopulation</text>
</a>
</g>
</g>
<!-- Node1&#45;&gt;Node3 -->
<g id="edge7" class="edge">
<title>Node1&#45;&gt;Node3</title>
<path fill="none" stroke="#9a32cd" stroke-dasharray="5,2" d="M493.61,-194.27C507.33,-188.29 524.2,-181.78 540,-178 638.23,-154.5 671.95,-132.82 767,-167 827.8,-188.86 868.97,-263.01 882.04,-289.5"/>
<polygon fill="#9a32cd" stroke="#9a32cd" points="491.91,-191.2 484.23,-198.5 494.78,-197.58 491.91,-191.2"/>
<text text-anchor="middle" x="715" y="-170" font-family="Helvetica,sans-Serif" font-size="10.00"> ga</text>
</g>
<!-- Node7 -->
<g id="node7" class="node">
<title>Node7</title>
<g id="a_node7"><a xlink:href="classGAGenome.html" target="_top" xlink:title="The base genome class just defines the genome interface &#45; how to mutate, crossover,...">
<polygon fill="white" stroke="black" points="679,-220.5 679,-239.5 751,-239.5 751,-220.5 679,-220.5"/>
<text text-anchor="middle" x="715" y="-227.5" font-family="Helvetica,sans-Serif" font-size="10.00">GAGenome</text>
</a>
</g>
</g>
<!-- Node1&#45;&gt;Node7 -->
<g id="edge15" class="edge">
<title>Node1&#45;&gt;Node7</title>
<path fill="none" stroke="#9a32cd" stroke-dasharray="5,2" d="M487.21,-223.17C501.57,-232.04 521.05,-242.37 540,-247 588.5,-258.86 646.52,-248.46 681.79,-239.51"/>
<polygon fill="#9a32cd" stroke="#9a32cd" points="488.88,-220.08 478.57,-217.63 485.1,-225.97 488.88,-220.08"/>
<text text-anchor="middle" x="592.5" y="-256" font-family="Helvetica,sans-Serif" font-size="10.00"> ga</text>
</g>
<!-- Node2 -->
<g id="node2" class="node">
<title>Node2</title>
<g id="a_node2"><a xlink:href="classGAID.html" target="_top" xlink:title=" ">
<polygon fill="white" stroke="black" points="260.5,-389.5 260.5,-408.5 301.5,-408.5 301.5,-389.5 260.5,-389.5"/>
<text text-anchor="middle" x="281" y="-396.5" font-family="Helvetica,sans-Serif" font-size="10.00">GAID</text>
</a>
</g>
</g>
<!-- Node2&#45;&gt;Node1 -->
<g id="edge1" class="edge">
<title>Node2&#45;&gt;Node1</title>
<path fill="none" stroke="midnightblue" d="M289.66,-379.88C300.1,-355.51 320.69,-313.09 348,-284 376.01,-254.17 417.91,-230.28 442.65,-217.71"/>
<polygon fill="midnightblue" stroke="midnightblue" points="286.3,-378.82 285.7,-389.4 292.77,-381.51 286.3,-378.82"/>
</g>
<!-- Node2&#45;&gt;Node3 -->
<g id="edge4" class="edge">
<title>Node2&#45;&gt;Node3</title>
<path fill="none" stroke="midnightblue" d="M312.21,-400.16C389.37,-402.36 599.46,-403.54 767,-360 808.03,-349.34 851.12,-323 872.6,-308.67"/>
<polygon fill="midnightblue" stroke="midnightblue" points="311.91,-396.65 301.81,-399.83 311.69,-403.65 311.91,-396.65"/>
</g>
<!-- Node4 -->
<g id="node4" class="node">
<title>Node4</title>
<g id="a_node4"><a xlink:href="classGAScalingScheme.html" target="_top" xlink:title=" ">
<polygon fill="white" stroke="black" points="540,-431.5 540,-450.5 645,-450.5 645,-431.5 540,-431.5"/>
<text text-anchor="middle" x="592.5" y="-438.5" font-family="Helvetica,sans-Serif" font-size="10.00">GAScalingScheme</text>
</a>
</g>
</g>
<!-- Node2&#45;&gt;Node4 -->
<g id="edge6" class="edge">
<title>Node2&#45;&gt;Node4</title>
<path fill="none" stroke="midnightblue" d="M311.42,-405.86C322.8,-408.35 335.96,-411.04 348,-413 413.73,-423.73 490.09,-431.8 539.53,-436.46"/>
<polygon fill="midnightblue" stroke="midnightblue" points="312.07,-402.42 301.55,-403.65 310.54,-409.25 312.07,-402.42"/>
</g>
<!-- Node5 -->
<g id="node5" class="node">
<title>Node5</title>
<g id="a_node5"><a xlink:href="classGASelectionScheme.html" target="_top" xlink:title=" ">
<polygon fill="white" stroke="black" points="1029,-323.5 1029,-342.5 1144,-342.5 1144,-323.5 1029,-323.5"/>
<text text-anchor="middle" x="1086.5" y="-330.5" font-family="Helvetica,sans-Serif" font-size="10.00">GASelectionScheme</text>
</a>
</g>
</g>
<!-- Node2&#45;&gt;Node5 -->
<g id="edge10" class="edge">
<title>Node2&#45;&gt;Node5</title>
<path fill="none" stroke="midnightblue" d="M301.41,-415.13C333.11,-439.78 398.9,-484 463,-484 463,-484 463,-484 888.5,-484 981.58,-484 1057.83,-376.5 1079.39,-342.91"/>
<polygon fill="midnightblue" stroke="midnightblue" points="303.4,-412.25 293.4,-408.75 299.04,-417.72 303.4,-412.25"/>
</g>
<!-- Node2&#45;&gt;Node7 -->
<g id="edge14" class="edge">
<title>Node2&#45;&gt;Node7</title>
<path fill="none" stroke="midnightblue" d="M304.73,-383.73C328.92,-368.07 368.78,-343.95 406,-329 507.73,-288.14 543.06,-308.32 645,-268 664.58,-260.25 685.58,-248.08 699.19,-239.6"/>
<polygon fill="midnightblue" stroke="midnightblue" points="302.7,-380.87 296.26,-389.28 306.54,-386.73 302.7,-380.87"/>
</g>
<!-- Node3&#45;&gt;Node1 -->
<g id="edge3" class="edge">
<title>Node3&#45;&gt;Node1</title>
<path fill="none" stroke="#9a32cd" stroke-dasharray="5,2" d="M872.59,-281.61C852.32,-257.83 812.15,-216.27 767,-200 676.7,-167.46 561.18,-185.53 502.64,-198.48"/>
<polygon fill="#9a32cd" stroke="#9a32cd" points="870.04,-284.02 879.12,-289.48 875.43,-279.55 870.04,-284.02"/>
<text text-anchor="middle" x="715" y="-203" font-family="Helvetica,sans-Serif" font-size="10.00"> pop</text>
</g>
<!-- Node3&#45;&gt;Node3 -->
<g id="edge8" class="edge">
<title>Node3&#45;&gt;Node3</title>
<path fill="none" stroke="#9a32cd" stroke-dasharray="5,2" d="M871.2,-318.4C872.29,-323.31 877.72,-327 887.5,-327 903.14,-327 907.66,-317.57 901.06,-308.76"/>
<polygon fill="#9a32cd" stroke="#9a32cd" points="874.58,-319.33 873.94,-308.76 867.84,-317.42 874.58,-319.33"/>
<text text-anchor="middle" x="887.5" y="-341" font-family="Helvetica,sans-Serif" font-size="10.00"> eval</text>
<text text-anchor="middle" x="887.5" y="-330" font-family="Helvetica,sans-Serif" font-size="10.00">init</text>
</g>
<!-- Node3&#45;&gt;Node5 -->
<g id="edge11" class="edge">
<title>Node3&#45;&gt;Node5</title>
<path fill="none" stroke="#9a32cd" stroke-dasharray="5,2" d="M939.25,-307.76C967.08,-312.56 1001.64,-318.53 1030.16,-323.45"/>
<polygon fill="#9a32cd" stroke="#9a32cd" points="939.77,-304.3 929.32,-306.04 938.58,-311.19 939.77,-304.3"/>
<text text-anchor="middle" x="986.5" y="-323" font-family="Helvetica,sans-Serif" font-size="10.00"> pop</text>
</g>
<!-- Node8 -->
<g id="node8" class="node">
<title>Node8</title>
<g id="a_node8"><a xlink:href="classGAStatistics.html" target="_top" xlink:title="Statistics class.">
<polygon fill="white" stroke="black" points="1048.5,-74.5 1048.5,-93.5 1124.5,-93.5 1124.5,-74.5 1048.5,-74.5"/>
<text text-anchor="middle" x="1086.5" y="-81.5" font-family="Helvetica,sans-Serif" font-size="10.00">GAStatistics</text>
</a>
</g>
</g>
<!-- Node3&#45;&gt;Node8 -->
<g id="edge19" class="edge">
<title>Node3&#45;&gt;Node8</title>
<path fill="none" stroke="#9a32cd" stroke-dasharray="5,2" d="M904.22,-281.84C943.58,-238.88 1045.46,-127.7 1076.43,-93.9"/>
<polygon fill="#9a32cd" stroke="#9a32cd" points="901.39,-279.75 897.22,-289.48 906.56,-284.48 901.39,-279.75"/>
<text text-anchor="middle" x="986.5" y="-221" font-family="Helvetica,sans-Serif" font-size="10.00"> boa</text>
</g>
<!-- Node4&#45;&gt;Node3 -->
<g id="edge5" class="edge">
<title>Node4&#45;&gt;Node3</title>
<path fill="none" stroke="#9a32cd" stroke-dasharray="5,2" d="M655.06,-446.53C701.83,-447.74 765.92,-442.68 813,-413 853.24,-387.63 875.74,-331.32 883.44,-308.69"/>
<polygon fill="#9a32cd" stroke="#9a32cd" points="655.18,-443.03 645.06,-446.17 654.93,-450.03 655.18,-443.03"/>
<text text-anchor="middle" x="715" y="-449" font-family="Helvetica,sans-Serif" font-size="10.00"> sclscm</text>
</g>
<!-- Node5&#45;&gt;Node3 -->
<g id="edge9" class="edge">
<title>Node5&#45;&gt;Node3</title>
<path fill="none" stroke="#9a32cd" stroke-dasharray="5,2" d="M1060.29,-318.73C1046.25,-311.6 1028.19,-303.71 1011,-300 984.18,-294.21 953.29,-294 929.23,-295.22"/>
<polygon fill="#9a32cd" stroke="#9a32cd" points="1058.82,-321.92 1069.3,-323.49 1062.09,-315.73 1058.82,-321.92"/>
<text text-anchor="middle" x="986.5" y="-303" font-family="Helvetica,sans-Serif" font-size="10.00"> slct</text>
</g>
<!-- Node6 -->
<g id="node6" class="node">
<title>Node6</title>
<g id="a_node6"><a xlink:href="classGAEvalData.html" target="_top" xlink:title=" ">
<polygon fill="white" stroke="black" points="426.5,-338.5 426.5,-357.5 501.5,-357.5 501.5,-338.5 426.5,-338.5"/>
<text text-anchor="middle" x="464" y="-345.5" font-family="Helvetica,sans-Serif" font-size="10.00">GAEvalData</text>
</a>
</g>
</g>
<!-- Node6&#45;&gt;Node3 -->
<g id="edge12" class="edge">
<title>Node6&#45;&gt;Node3</title>
<path fill="none" stroke="#9a32cd" stroke-dasharray="5,2" d="M511.92,-349.76C571.72,-351.07 678.03,-350.26 767,-333 798.55,-326.88 833.86,-316.36 857.86,-308.65"/>
<polygon fill="#9a32cd" stroke="#9a32cd" points="511.74,-346.25 501.66,-349.5 511.57,-353.25 511.74,-346.25"/>
<text text-anchor="middle" x="715" y="-348" font-family="Helvetica,sans-Serif" font-size="10.00"> evaldata</text>
</g>
<!-- Node6&#45;&gt;Node7 -->
<g id="edge16" class="edge">
<title>Node6&#45;&gt;Node7</title>
<path fill="none" stroke="#9a32cd" stroke-dasharray="5,2" d="M511.4,-340.08C560.84,-331.38 633.57,-317.76 645,-311 675.37,-293.04 698.83,-256.79 708.79,-239.54"/>
<polygon fill="#9a32cd" stroke="#9a32cd" points="510.79,-336.63 501.54,-341.8 512,-343.53 510.79,-336.63"/>
<text text-anchor="middle" x="592.5" y="-337" font-family="Helvetica,sans-Serif" font-size="10.00"> evd</text>
</g>
<!-- Node7&#45;&gt;Node1 -->
<g id="edge27" class="edge">
<title>Node7&#45;&gt;Node1</title>
<path fill="none" stroke="#9a32cd" stroke-dasharray="5,2" d="M669.02,-223.75C661.03,-222.75 652.77,-221.79 645,-221 604.01,-216.85 557.64,-213.53 522.22,-211.29"/>
<polygon fill="#9a32cd" stroke="#9a32cd" points="668.58,-227.22 678.94,-225.03 669.47,-220.28 668.58,-227.22"/>
<text text-anchor="middle" x="592.5" y="-235" font-family="Helvetica,sans-Serif" font-size="10.00"> across</text>
<text text-anchor="middle" x="592.5" y="-224" font-family="Helvetica,sans-Serif" font-size="10.00">scross</text>
</g>
<!-- Node7&#45;&gt;Node3 -->
<g id="edge13" class="edge">
<title>Node7&#45;&gt;Node3</title>
<path fill="none" stroke="#9a32cd" stroke-dasharray="5,2" d="M749.07,-243.38C782.54,-256.93 833.44,-277.53 862.99,-289.49"/>
<polygon fill="#9a32cd" stroke="#9a32cd" points="750.29,-240.1 739.71,-239.59 747.66,-246.59 750.29,-240.1"/>
<text text-anchor="middle" x="799" y="-282" font-family="Helvetica,sans-Serif" font-size="10.00"> rind</text>
<text text-anchor="middle" x="799" y="-271" font-family="Helvetica,sans-Serif" font-size="10.00">sind</text>
</g>
<!-- Node7&#45;&gt;Node7 -->
<g id="edge17" class="edge">
<title>Node7&#45;&gt;Node7</title>
<path fill="none" stroke="#9a32cd" stroke-dasharray="5,2" d="M699.53,-249.77C700.75,-254.5 705.9,-258 715,-258 729.93,-258 734.25,-248.57 727.95,-239.76"/>
<polygon fill="#9a32cd" stroke="#9a32cd" points="703,-250.31 702.05,-239.76 696.22,-248.6 703,-250.31"/>
<text text-anchor="middle" x="715" y="-316" font-family="Helvetica,sans-Serif" font-size="10.00"> asexcross</text>
<text text-anchor="middle" x="715" y="-305" font-family="Helvetica,sans-Serif" font-size="10.00">cmp</text>
<text text-anchor="middle" x="715" y="-294" font-family="Helvetica,sans-Serif" font-size="10.00">eval</text>
<text text-anchor="middle" x="715" y="-283" font-family="Helvetica,sans-Serif" font-size="10.00">init</text>
<text text-anchor="middle" x="715" y="-272" font-family="Helvetica,sans-Serif" font-size="10.00">mutr</text>
<text text-anchor="middle" x="715" y="-261" font-family="Helvetica,sans-Serif" font-size="10.00">sexcross</text>
</g>
<!-- Node8&#45;&gt;Node1 -->
<g id="edge18" class="edge">
<title>Node8&#45;&gt;Node1</title>
<path fill="none" stroke="#9a32cd" stroke-dasharray="5,2" d="M1038.12,-72.18C958.6,-54.52 794.12,-27.3 663,-67 578.18,-92.68 499.28,-171.11 473.67,-198.47"/>
<polygon fill="#9a32cd" stroke="#9a32cd" points="1037.78,-75.7 1048.3,-74.5 1039.33,-68.87 1037.78,-75.7"/>
<text text-anchor="middle" x="799" y="-51" font-family="Helvetica,sans-Serif" font-size="10.00"> stats</text>
</g>
<!-- Node9 -->
<g id="node9" class="node">
<title>Node9</title>
<g id="a_node9"><a xlink:title=" ">
<polygon fill="white" stroke="#bfbfbf" points="855,-132.5 855,-151.5 920,-151.5 920,-132.5 855,-132.5"/>
<text text-anchor="middle" x="887.5" y="-139.5" font-family="Helvetica,sans-Serif" font-size="10.00">std::string</text>
</a>
</g>
</g>
<!-- Node9&#45;&gt;Node8 -->
<g id="edge20" class="edge">
<title>Node9&#45;&gt;Node8</title>
<path fill="none" stroke="#9a32cd" stroke-dasharray="5,2" d="M930.41,-147.62C954.6,-149.33 985.24,-148.84 1011,-140 1038.24,-130.65 1063.62,-107.23 1076.55,-93.83"/>
<polygon fill="#9a32cd" stroke="#9a32cd" points="930.39,-144.11 920.13,-146.74 929.79,-151.08 930.39,-144.11"/>
<text text-anchor="middle" x="986.5" y="-152" font-family="Helvetica,sans-Serif" font-size="10.00"> scorefile</text>
</g>
<!-- Node10 -->
<g id="node10" class="node">
<title>Node10</title>
<g id="a_node10"><a xlink:title=" ">
<polygon fill="white" stroke="#bfbfbf" points="663,-77 663,-107 767,-107 767,-77 663,-77"/>
<text text-anchor="start" x="671" y="-95" font-family="Helvetica,sans-Serif" font-size="10.00">std::basic_string&lt;</text>
<text text-anchor="middle" x="715" y="-84" font-family="Helvetica,sans-Serif" font-size="10.00"> Char &gt;</text>
</a>
</g>
</g>
<!-- Node10&#45;&gt;Node9 -->
<g id="edge21" class="edge">
<title>Node10&#45;&gt;Node9</title>
<path fill="none" stroke="midnightblue" d="M777.07,-109.91C803.42,-117.64 833.14,-126.35 854.94,-132.75"/>
<polygon fill="midnightblue" stroke="midnightblue" points="777.74,-106.46 767.16,-107 775.77,-113.17 777.74,-106.46"/>
</g>
<!-- Node11 -->
<g id="node11" class="node">
<title>Node11</title>
<g id="a_node11"><a xlink:title=" ">
<polygon fill="white" stroke="#bfbfbf" points="831,-76.5 831,-95.5 944,-95.5 944,-76.5 831,-76.5"/>
<text text-anchor="middle" x="887.5" y="-83.5" font-family="Helvetica,sans-Serif" font-size="10.00">std::vector&lt; float &gt;</text>
</a>
</g>
</g>
<!-- Node11&#45;&gt;Node8 -->
<g id="edge22" class="edge">
<title>Node11&#45;&gt;Node8</title>
<path fill="none" stroke="#9a32cd" stroke-dasharray="5,2" d="M954.34,-85.09C956.93,-85.06 959.49,-85.03 962,-85 991.05,-84.68 1023.95,-84.42 1048.48,-84.25"/>
<polygon fill="#9a32cd" stroke="#9a32cd" points="954.24,-81.59 944.28,-85.21 954.32,-88.59 954.24,-81.59"/>
<text text-anchor="middle" x="986.5" y="-132" font-family="Helvetica,sans-Serif" font-size="10.00"> aveScore</text>
<text text-anchor="middle" x="986.5" y="-121" font-family="Helvetica,sans-Serif" font-size="10.00">devScore</text>
<text text-anchor="middle" x="986.5" y="-110" font-family="Helvetica,sans-Serif" font-size="10.00">divScore</text>
<text text-anchor="middle" x="986.5" y="-99" font-family="Helvetica,sans-Serif" font-size="10.00">maxScore</text>
<text text-anchor="middle" x="986.5" y="-88" font-family="Helvetica,sans-Serif" font-size="10.00">minScore</text>
</g>
<!-- Node12 -->
<g id="node12" class="node">
<title>Node12</title>
<g id="a_node12"><a xlink:title=" ">
<polygon fill="white" stroke="#bfbfbf" points="835.5,-0.5 835.5,-19.5 939.5,-19.5 939.5,-0.5 835.5,-0.5"/>
<text text-anchor="middle" x="887.5" y="-7.5" font-family="Helvetica,sans-Serif" font-size="10.00">std::vector&lt; int &gt;</text>
</a>
</g>
</g>
<!-- Node12&#45;&gt;Node8 -->
<g id="edge23" class="edge">
<title>Node12&#45;&gt;Node8</title>
<path fill="none" stroke="#9a32cd" stroke-dasharray="5,2" d="M949.62,-9.57C969.79,-11.22 991.93,-15.03 1011,-23 1038.76,-34.6 1064.32,-60.05 1077.04,-74.13"/>
<polygon fill="#9a32cd" stroke="#9a32cd" points="949.8,-6.08 939.59,-8.91 949.34,-13.06 949.8,-6.08"/>
<text text-anchor="middle" x="986.5" y="-26" font-family="Helvetica,sans-Serif" font-size="10.00"> gen</text>
</g>
<!-- Node13 -->
<g id="node13" class="node">
<title>Node13</title>
<g id="a_node13"><a xlink:href="classGAParameterList.html" target="_top" xlink:title="Parameter List.">
<polygon fill="white" stroke="black" points="232,-198.5 232,-217.5 330,-217.5 330,-198.5 232,-198.5"/>
<text text-anchor="middle" x="281" y="-205.5" font-family="Helvetica,sans-Serif" font-size="10.00">GAParameterList</text>
</a>
</g>
</g>
<!-- Node13&#45;&gt;Node1 -->
<g id="edge24" class="edge">
<title>Node13&#45;&gt;Node1</title>
<path fill="none" stroke="#9a32cd" stroke-dasharray="5,2" d="M340.1,-208C361.11,-208 384.79,-208 405.72,-208"/>
<polygon fill="#9a32cd" stroke="#9a32cd" points="340.03,-204.5 330.03,-208 340.03,-211.5 340.03,-204.5"/>
<text text-anchor="middle" x="368" y="-211" font-family="Helvetica,sans-Serif" font-size="10.00"> params</text>
</g>
<!-- Node14 -->
<g id="node14" class="node">
<title>Node14</title>
<g id="a_node14"><a xlink:title=" ">
<polygon fill="white" stroke="#bfbfbf" points="114,-198.5 114,-217.5 195,-217.5 195,-198.5 114,-198.5"/>
<text text-anchor="middle" x="154.5" y="-205.5" font-family="Helvetica,sans-Serif" font-size="10.00">std::list&lt; T &gt;</text>
</a>
</g>
</g>
<!-- Node14&#45;&gt;Node13 -->
<g id="edge25" class="edge">
<title>Node14&#45;&gt;Node13</title>
<path fill="none" stroke="midnightblue" d="M205.33,-208C214.1,-208 223.21,-208 231.93,-208"/>
<polygon fill="midnightblue" stroke="midnightblue" points="205.23,-204.5 195.23,-208 205.23,-211.5 205.23,-204.5"/>
</g>
<!-- Node15 -->
<g id="node15" class="node">
<title>Node15</title>
<g id="a_node15"><a xlink:title=" ">
<polygon fill="white" stroke="#bfbfbf" points="0,-198.5 0,-217.5 29,-217.5 29,-198.5 0,-198.5"/>
<text text-anchor="middle" x="14.5" y="-205.5" font-family="Helvetica,sans-Serif" font-size="10.00">T</text>
</a>
</g>
</g>
<!-- Node15&#45;&gt;Node14 -->
<g id="edge26" class="edge">
<title>Node15&#45;&gt;Node14</title>
<path fill="none" stroke="#9a32cd" stroke-dasharray="5,2" d="M39.28,-208C59.79,-208 89.81,-208 113.93,-208"/>
<polygon fill="#9a32cd" stroke="#9a32cd" points="39.24,-204.5 29.24,-208 39.24,-211.5 39.24,-204.5"/>
<text text-anchor="middle" x="71.5" y="-211" font-family="Helvetica,sans-Serif" font-size="10.00"> elements</text>
</g>
</g>
</svg>
        <g id="navigator" transform="translate(0 0)" fill="#404254">
                <rect fill="#f2f5e9" fill-opacity="0.5" stroke="#606060" stroke-width=".5" x="0" y="0" width="60" height="60"/>
                <use id="zoomplus" xlink:href="#zoomPlus" x="17" y="9" onmousedown="handleZoom(evt,'in')"/>
                <use id="zoomminus" xlink:href="#zoomMin" x="42" y="9" onmousedown="handleZoom(evt,'out')"/>
                <use id="reset" xlink:href="#resetDef" x="30" y="36" onmousedown="handleReset()"/>
                <g id="arrowUp" xlink:href="#dirArrow" transform="translate(30 24)" onmousedown="handlePan(0,-1)">
                  <use xlink:href="#rim" fill="#404040">
                        <set attributeName="fill" to="#808080" begin="arrowUp.mouseover" end="arrowUp.mouseout"/>
                  </use>
                  <path fill="none" stroke="white" stroke-width="1.5" d="M0,-3.0v7 M-2.5,-0.5L0,-3.0L2.5,-0.5"/>
                </g>
                <g id="arrowRight" xlink:href="#dirArrow" transform="rotate(90) translate(36 -43)" onmousedown="handlePan(1,0)">
                  <use xlink:href="#rim" fill="#404040">
                        <set attributeName="fill" to="#808080" begin="arrowRight.mouseover" end="arrowRight.mouseout"/>
                  </use>
                  <path fill="none" stroke="white" stroke-width="1.5" d="M0,-3.0v7 M-2.5,-0.5L0,-3.0L2.5,-0.5"/>
                </g>
                <g id="arrowDown" xlink:href="#dirArrow" transform="rotate(180) translate(-30 -48)" onmousedown="handlePan(0,1)">
                  <use xlink:href="#rim" fill="#404040">
                        <set attributeName="fill" to="#808080" begin="arrowDown.mouseover" end="arrowDown.mouseout"/>
                  </use>
                  <path fill="none" stroke="white" stroke-width="1.5" d="M0,-3.0v7 M-2.5,-0.5L0,-3.0L2.5,-0.5"/>
                </g>
                <g id="arrowLeft" xlink:href="#dirArrow" transform="rotate(270) translate(-36 17)" onmousedown="handlePan(-1,0)">
                  <use xlink:href="#rim" fill="#404040">
                        <set attributeName="fill" to="#808080" begin="arrowLeft.mouseover" end="arrowLeft.mouseout"/>
                  </use>
                  <path fill="none" stroke="white" stroke-width="1.5" d="M0,-3.0v7 M-2.5,-0.5L0,-3.0L2.5,-0.5"/>
                </g>
        </g>
        <svg viewBox="0 0 15 15" width="100%" height="30px" preserveAspectRatio="xMaxYMin meet">
         <g id="arrow_out" transform="scale(0.3 0.3)">
          <a xlink:href="classGAGeneticAlgorithm__coll__graph_org.svg" target="_base">
           <rect id="button" ry="5" rx="5" y="6" x="6" height="38" width="38"
                fill="#f2f5e9" fill-opacity="0.5" stroke="#606060" stroke-width="1.0"/>
           <path id="arrow"
             d="M 11.500037,31.436501 C 11.940474,20.09759 22.043105,11.32322 32.158766,21.979434 L 37.068811,17.246167 C 37.068811,17.246167 37.088388,32 37.088388,32 L 22.160133,31.978069 C 22.160133,31.978069 26.997745,27.140456 26.997745,27.140456 C 18.528582,18.264221 13.291696,25.230495 11.500037,31.436501 z"
             style="fill:#404040;"/>
          </a>
         </g>
        </svg>
</svg>
