<?xml version="1.0" encoding="UTF-8" standalone="no"?>
<!DOCTYPE svg PUBLIC "-//W3C//DTD SVG 1.1//EN"
 "http://www.w3.org/Graphics/SVG/1.1/DTD/svg11.dtd">
<!-- Generated by graphviz version 2.43.0 (0)
 -->
<!-- Title: GAGenome Pages: 1 -->
<svg width="543pt" height="294pt"
 viewBox="0.00 0.00 543.00 294.00" xmlns="http://www.w3.org/2000/svg" xmlns:xlink="http://www.w3.org/1999/xlink">
<g id="graph0" class="graph" transform="scale(1 1) rotate(0) translate(4 290)">
<title>GAGenome</title>
<polygon fill="white" stroke="transparent" points="-4,4 -4,-290 539,-290 539,4 -4,4"/>
<!-- Node1 -->
<g id="node1" class="node">
<title>Node1</title>
<g id="a_node1"><a xlink:title="The base genome class just defines the genome interface &#45; how to mutate, crossover,...">
<polygon fill="#bfbfbf" stroke="black" points="77,-133.5 77,-152.5 149,-152.5 149,-133.5 77,-133.5"/>
<text text-anchor="middle" x="113" y="-140.5" font-family="Helvetica,sans-Serif" font-size="10.00">GAGenome</text>
</a>
</g>
</g>
<!-- Node3 -->
<g id="node3" class="node">
<title>Node3</title>
<g id="a_node3"><a xlink:href="classGA1DArrayGenome.html" target="_top" xlink:title="1 dimensional Array Genome">
<polygon fill="white" stroke="black" points="188,-266.5 188,-285.5 328,-285.5 328,-266.5 188,-266.5"/>
<text text-anchor="middle" x="258" y="-273.5" font-family="Helvetica,sans-Serif" font-size="10.00">GA1DArrayGenome&lt; T &gt;</text>
</a>
</g>
</g>
<!-- Node1&#45;&gt;Node3 -->
<g id="edge2" class="edge">
<title>Node1&#45;&gt;Node3</title>
<path fill="none" stroke="midnightblue" d="M120.82,-162.35C130.84,-187.95 152.01,-232.65 185,-257 190.3,-260.92 196.35,-264.03 202.64,-266.49"/>
<polygon fill="midnightblue" stroke="midnightblue" points="123.98,-160.82 117.2,-152.67 117.42,-163.26 123.98,-160.82"/>
</g>
<!-- Node5 -->
<g id="node5" class="node">
<title>Node5</title>
<g id="a_node5"><a xlink:href="classGA1DBinaryStringGenome.html" target="_top" xlink:title=" ">
<polygon fill="white" stroke="black" points="185,-228.5 185,-247.5 331,-247.5 331,-228.5 185,-228.5"/>
<text text-anchor="middle" x="258" y="-235.5" font-family="Helvetica,sans-Serif" font-size="10.00">GA1DBinaryStringGenome</text>
</a>
</g>
</g>
<!-- Node1&#45;&gt;Node5 -->
<g id="edge4" class="edge">
<title>Node1&#45;&gt;Node5</title>
<path fill="none" stroke="midnightblue" d="M125.98,-160.76C138.64,-178.17 160.19,-204.17 185,-219 191.44,-222.85 198.65,-225.93 205.96,-228.39"/>
<polygon fill="midnightblue" stroke="midnightblue" points="128.82,-158.71 120.2,-152.55 123.09,-162.74 128.82,-158.71"/>
</g>
<!-- Node7 -->
<g id="node7" class="node">
<title>Node7</title>
<g id="a_node7"><a xlink:href="classGA2DArrayGenome.html" target="_top" xlink:title=" ">
<polygon fill="white" stroke="black" points="188,-190.5 188,-209.5 328,-209.5 328,-190.5 188,-190.5"/>
<text text-anchor="middle" x="258" y="-197.5" font-family="Helvetica,sans-Serif" font-size="10.00">GA2DArrayGenome&lt; T &gt;</text>
</a>
</g>
</g>
<!-- Node1&#45;&gt;Node7 -->
<g id="edge6" class="edge">
<title>Node1&#45;&gt;Node7</title>
<path fill="none" stroke="midnightblue" d="M137.93,-157.62C151.39,-165.38 168.72,-174.6 185,-181 194.26,-184.64 204.47,-187.81 214.21,-190.47"/>
<polygon fill="midnightblue" stroke="midnightblue" points="139.68,-154.59 129.29,-152.54 136.14,-160.62 139.68,-154.59"/>
</g>
<!-- Node9 -->
<g id="node9" class="node">
<title>Node9</title>
<g id="a_node9"><a xlink:href="classGA2DBinaryStringGenome.html" target="_top" xlink:title=" ">
<polygon fill="white" stroke="black" points="185,-152.5 185,-171.5 331,-171.5 331,-152.5 185,-152.5"/>
<text text-anchor="middle" x="258" y="-159.5" font-family="Helvetica,sans-Serif" font-size="10.00">GA2DBinaryStringGenome</text>
</a>
</g>
</g>
<!-- Node1&#45;&gt;Node9 -->
<g id="edge8" class="edge">
<title>Node1&#45;&gt;Node9</title>
<path fill="none" stroke="midnightblue" d="M159.51,-149.05C167.8,-150.15 176.62,-151.32 185.45,-152.49"/>
<polygon fill="midnightblue" stroke="midnightblue" points="159.72,-145.54 149.35,-147.7 158.8,-152.48 159.72,-145.54"/>
</g>
<!-- Node10 -->
<g id="node10" class="node">
<title>Node10</title>
<g id="a_node10"><a xlink:href="classGA3DArrayGenome.html" target="_top" xlink:title=" ">
<polygon fill="white" stroke="black" points="188,-114.5 188,-133.5 328,-133.5 328,-114.5 188,-114.5"/>
<text text-anchor="middle" x="258" y="-121.5" font-family="Helvetica,sans-Serif" font-size="10.00">GA3DArrayGenome&lt; T &gt;</text>
</a>
</g>
</g>
<!-- Node1&#45;&gt;Node10 -->
<g id="edge9" class="edge">
<title>Node1&#45;&gt;Node10</title>
<path fill="none" stroke="midnightblue" d="M159.34,-136.98C168.47,-135.76 178.27,-134.46 188,-133.17"/>
<polygon fill="midnightblue" stroke="midnightblue" points="158.8,-133.52 149.35,-138.3 159.72,-140.46 158.8,-133.52"/>
</g>
<!-- Node12 -->
<g id="node12" class="node">
<title>Node12</title>
<g id="a_node12"><a xlink:href="classGA3DBinaryStringGenome.html" target="_top" xlink:title=" ">
<polygon fill="white" stroke="black" points="185,-76.5 185,-95.5 331,-95.5 331,-76.5 185,-76.5"/>
<text text-anchor="middle" x="258" y="-83.5" font-family="Helvetica,sans-Serif" font-size="10.00">GA3DBinaryStringGenome</text>
</a>
</g>
</g>
<!-- Node1&#45;&gt;Node12 -->
<g id="edge11" class="edge">
<title>Node1&#45;&gt;Node12</title>
<path fill="none" stroke="midnightblue" d="M137.93,-128.38C151.39,-120.62 168.72,-111.4 185,-105 194.26,-101.36 204.47,-98.19 214.21,-95.53"/>
<polygon fill="midnightblue" stroke="midnightblue" points="136.14,-125.38 129.29,-133.46 139.68,-131.41 136.14,-125.38"/>
</g>
<!-- Node13 -->
<g id="node13" class="node">
<title>Node13</title>
<g id="a_node13"><a xlink:href="classGAListGenome.html" target="_top" xlink:title=" ">
<polygon fill="white" stroke="black" points="199,-38.5 199,-57.5 317,-57.5 317,-38.5 199,-38.5"/>
<text text-anchor="middle" x="258" y="-45.5" font-family="Helvetica,sans-Serif" font-size="10.00">GAListGenome&lt; T &gt;</text>
</a>
</g>
</g>
<!-- Node1&#45;&gt;Node13 -->
<g id="edge12" class="edge">
<title>Node1&#45;&gt;Node13</title>
<path fill="none" stroke="midnightblue" d="M125.98,-125.24C138.64,-107.83 160.19,-81.83 185,-67 191.44,-63.15 198.65,-60.07 205.96,-57.61"/>
<polygon fill="midnightblue" stroke="midnightblue" points="123.09,-123.26 120.2,-133.45 128.82,-127.29 123.09,-123.26"/>
</g>
<!-- Node14 -->
<g id="node14" class="node">
<title>Node14</title>
<g id="a_node14"><a xlink:href="classGATreeGenome.html" target="_top" xlink:title=" ">
<polygon fill="white" stroke="black" points="198,-0.5 198,-19.5 318,-19.5 318,-0.5 198,-0.5"/>
<text text-anchor="middle" x="258" y="-7.5" font-family="Helvetica,sans-Serif" font-size="10.00">GATreeGenome&lt; T &gt;</text>
</a>
</g>
</g>
<!-- Node1&#45;&gt;Node14 -->
<g id="edge13" class="edge">
<title>Node1&#45;&gt;Node14</title>
<path fill="none" stroke="midnightblue" d="M120.82,-123.65C130.84,-98.05 152.01,-53.35 185,-29 190.3,-25.08 196.35,-21.97 202.64,-19.51"/>
<polygon fill="midnightblue" stroke="midnightblue" points="117.42,-122.74 117.2,-133.33 123.98,-125.18 117.42,-122.74"/>
</g>
<!-- Node2 -->
<g id="node2" class="node">
<title>Node2</title>
<g id="a_node2"><a xlink:href="classGAID.html" target="_top" xlink:title=" ">
<polygon fill="white" stroke="black" points="0,-133.5 0,-152.5 41,-152.5 41,-133.5 0,-133.5"/>
<text text-anchor="middle" x="20.5" y="-140.5" font-family="Helvetica,sans-Serif" font-size="10.00">GAID</text>
</a>
</g>
</g>
<!-- Node2&#45;&gt;Node1 -->
<g id="edge1" class="edge">
<title>Node2&#45;&gt;Node1</title>
<path fill="none" stroke="midnightblue" d="M51.29,-143C59.42,-143 68.3,-143 76.71,-143"/>
<polygon fill="midnightblue" stroke="midnightblue" points="51.14,-139.5 41.14,-143 51.14,-146.5 51.14,-139.5"/>
</g>
<!-- Node4 -->
<g id="node4" class="node">
<title>Node4</title>
<g id="a_node4"><a xlink:href="classGA1DArrayAlleleGenome.html" target="_top" xlink:title=" ">
<polygon fill="white" stroke="black" points="367,-266.5 367,-285.5 535,-285.5 535,-266.5 367,-266.5"/>
<text text-anchor="middle" x="451" y="-273.5" font-family="Helvetica,sans-Serif" font-size="10.00">GA1DArrayAlleleGenome&lt; T &gt;</text>
</a>
</g>
</g>
<!-- Node3&#45;&gt;Node4 -->
<g id="edge3" class="edge">
<title>Node3&#45;&gt;Node4</title>
<path fill="none" stroke="midnightblue" d="M338.3,-276C347.68,-276 357.27,-276 366.7,-276"/>
<polygon fill="midnightblue" stroke="midnightblue" points="338.23,-272.5 328.23,-276 338.23,-279.5 338.23,-272.5"/>
</g>
<!-- Node6 -->
<g id="node6" class="node">
<title>Node6</title>
<g id="a_node6"><a xlink:href="classGABin2DecGenome.html" target="_top" xlink:title=" ">
<polygon fill="white" stroke="black" points="394.5,-228.5 394.5,-247.5 507.5,-247.5 507.5,-228.5 394.5,-228.5"/>
<text text-anchor="middle" x="451" y="-235.5" font-family="Helvetica,sans-Serif" font-size="10.00">GABin2DecGenome</text>
</a>
</g>
</g>
<!-- Node5&#45;&gt;Node6 -->
<g id="edge5" class="edge">
<title>Node5&#45;&gt;Node6</title>
<path fill="none" stroke="midnightblue" d="M341.61,-238C359.44,-238 377.87,-238 394.37,-238"/>
<polygon fill="midnightblue" stroke="midnightblue" points="341.21,-234.5 331.21,-238 341.21,-241.5 341.21,-234.5"/>
</g>
<!-- Node8 -->
<g id="node8" class="node">
<title>Node8</title>
<g id="a_node8"><a xlink:href="classGA2DArrayAlleleGenome.html" target="_top" xlink:title=" ">
<polygon fill="white" stroke="black" points="367,-190.5 367,-209.5 535,-209.5 535,-190.5 367,-190.5"/>
<text text-anchor="middle" x="451" y="-197.5" font-family="Helvetica,sans-Serif" font-size="10.00">GA2DArrayAlleleGenome&lt; T &gt;</text>
</a>
</g>
</g>
<!-- Node7&#45;&gt;Node8 -->
<g id="edge7" class="edge">
<title>Node7&#45;&gt;Node8</title>
<path fill="none" stroke="midnightblue" d="M338.3,-200C347.68,-200 357.27,-200 366.7,-200"/>
<polygon fill="midnightblue" stroke="midnightblue" points="338.23,-196.5 328.23,-200 338.23,-203.5 338.23,-196.5"/>
</g>
<!-- Node11 -->
<g id="node11" class="node">
<title>Node11</title>
<g id="a_node11"><a xlink:href="classGA3DArrayAlleleGenome.html" target="_top" xlink:title=" ">
<polygon fill="white" stroke="black" points="367,-114.5 367,-133.5 535,-133.5 535,-114.5 367,-114.5"/>
<text text-anchor="middle" x="451" y="-121.5" font-family="Helvetica,sans-Serif" font-size="10.00">GA3DArrayAlleleGenome&lt; T &gt;</text>
</a>
</g>
</g>
<!-- Node10&#45;&gt;Node11 -->
<g id="edge10" class="edge">
<title>Node10&#45;&gt;Node11</title>
<path fill="none" stroke="midnightblue" d="M338.3,-124C347.68,-124 357.27,-124 366.7,-124"/>
<polygon fill="midnightblue" stroke="midnightblue" points="338.23,-120.5 328.23,-124 338.23,-127.5 338.23,-120.5"/>
</g>
</g>
</svg>
