<?xml version="1.0" encoding="UTF-8" standalone="no"?>
<!DOCTYPE svg PUBLIC "-//W3C//DTD SVG 1.1//EN"
 "http://www.w3.org/Graphics/SVG/1.1/DTD/svg11.dtd">
<!-- Generated by graphviz version 2.43.0 (0)
 -->
<!-- Title: GAListGenome&lt; T &gt; Pages: 1 -->
<svg width="176pt" height="140pt"
 viewBox="0.00 0.00 175.50 140.00" xmlns="http://www.w3.org/2000/svg" xmlns:xlink="http://www.w3.org/1999/xlink">
<g id="graph0" class="graph" transform="scale(1 1) rotate(0) translate(4 136)">
<title>GAListGenome&lt; T &gt;</title>
<polygon fill="white" stroke="transparent" points="-4,4 -4,-136 171.5,-136 171.5,4 -4,4"/>
<!-- Node1 -->
<g id="node1" class="node">
<title>Node1</title>
<g id="a_node1"><a xlink:title=" ">
<polygon fill="#bfbfbf" stroke="black" points="25.5,-0.5 25.5,-19.5 143.5,-19.5 143.5,-0.5 25.5,-0.5"/>
<text text-anchor="middle" x="84.5" y="-7.5" font-family="Helvetica,sans-Serif" font-size="10.00">GAListGenome&lt; T &gt;</text>
</a>
</g>
</g>
<!-- Node2 -->
<g id="node2" class="node">
<title>Node2</title>
<g id="a_node2"><a xlink:href="classGAList.html" target="_top" xlink:title="This object is a container for nodes that have a list structure.">
<polygon fill="white" stroke="black" points="0,-56.5 0,-75.5 77,-75.5 77,-56.5 0,-56.5"/>
<text text-anchor="middle" x="38.5" y="-63.5" font-family="Helvetica,sans-Serif" font-size="10.00">GAList&lt; T &gt;</text>
</a>
</g>
</g>
<!-- Node2&#45;&gt;Node1 -->
<g id="edge1" class="edge">
<title>Node2&#45;&gt;Node1</title>
<path fill="none" stroke="midnightblue" d="M52.61,-48.43C60.68,-38.97 70.46,-27.48 77.05,-19.75"/>
<polygon fill="midnightblue" stroke="midnightblue" points="49.92,-46.2 46.1,-56.08 55.25,-50.74 49.92,-46.2"/>
</g>
<!-- Node3 -->
<g id="node3" class="node">
<title>Node3</title>
<g id="a_node3"><a xlink:href="classGAListBASE.html" target="_top" xlink:title=" ">
<polygon fill="white" stroke="black" points="1.5,-112.5 1.5,-131.5 75.5,-131.5 75.5,-112.5 1.5,-112.5"/>
<text text-anchor="middle" x="38.5" y="-119.5" font-family="Helvetica,sans-Serif" font-size="10.00">GAListBASE</text>
</a>
</g>
</g>
<!-- Node3&#45;&gt;Node2 -->
<g id="edge2" class="edge">
<title>Node3&#45;&gt;Node2</title>
<path fill="none" stroke="midnightblue" d="M38.5,-101.8C38.5,-92.91 38.5,-82.78 38.5,-75.75"/>
<polygon fill="midnightblue" stroke="midnightblue" points="35,-102.08 38.5,-112.08 42,-102.08 35,-102.08"/>
</g>
<!-- Node4 -->
<g id="node4" class="node">
<title>Node4</title>
<g id="a_node4"><a xlink:href="classGAGenome.html" target="_top" xlink:title=" ">
<polygon fill="white" stroke="black" points="95.5,-56.5 95.5,-75.5 167.5,-75.5 167.5,-56.5 95.5,-56.5"/>
<text text-anchor="middle" x="131.5" y="-63.5" font-family="Helvetica,sans-Serif" font-size="10.00">GAGenome</text>
</a>
</g>
</g>
<!-- Node4&#45;&gt;Node1 -->
<g id="edge3" class="edge">
<title>Node4&#45;&gt;Node1</title>
<path fill="none" stroke="midnightblue" d="M117.08,-48.43C108.84,-38.97 98.85,-27.48 92.12,-19.75"/>
<polygon fill="midnightblue" stroke="midnightblue" points="114.53,-50.84 123.74,-56.08 119.81,-46.24 114.53,-50.84"/>
</g>
<!-- Node5 -->
<g id="node5" class="node">
<title>Node5</title>
<g id="a_node5"><a xlink:href="classGAID.html" target="_top" xlink:title=" ">
<polygon fill="white" stroke="black" points="111,-112.5 111,-131.5 152,-131.5 152,-112.5 111,-112.5"/>
<text text-anchor="middle" x="131.5" y="-119.5" font-family="Helvetica,sans-Serif" font-size="10.00">GAID</text>
</a>
</g>
</g>
<!-- Node5&#45;&gt;Node4 -->
<g id="edge4" class="edge">
<title>Node5&#45;&gt;Node4</title>
<path fill="none" stroke="midnightblue" d="M131.5,-101.8C131.5,-92.91 131.5,-82.78 131.5,-75.75"/>
<polygon fill="midnightblue" stroke="midnightblue" points="128,-102.08 131.5,-112.08 135,-102.08 128,-102.08"/>
</g>
</g>
</svg>
