<?xml version="1.0" encoding="UTF-8" standalone="no"?>
<!DOCTYPE svg PUBLIC "-//W3C//DTD SVG 1.1//EN"
 "http://www.w3.org/Graphics/SVG/1.1/DTD/svg11.dtd">
<!-- Generated by graphviz version 2.43.0 (0)
 -->
<!-- Title: GAID Pages: 1 -->
<svg width="587pt" height="522pt"
 viewBox="0.00 0.00 587.00 522.00" xmlns="http://www.w3.org/2000/svg" xmlns:xlink="http://www.w3.org/1999/xlink">
<g id="graph0" class="graph" transform="scale(1 1) rotate(0) translate(4 518)">
<title>GAID</title>
<polygon fill="white" stroke="transparent" points="-4,4 -4,-518 583,-518 583,4 -4,4"/>
<!-- Node1 -->
<g id="node1" class="node">
<title>Node1</title>
<g id="a_node1"><a xlink:title=" ">
<polygon fill="#bfbfbf" stroke="black" points="0,-133.5 0,-152.5 41,-152.5 41,-133.5 0,-133.5"/>
<text text-anchor="middle" x="20.5" y="-140.5" font-family="Helvetica,sans-Serif" font-size="10.00">GAID</text>
</a>
</g>
</g>
<!-- Node2 -->
<g id="node2" class="node">
<title>Node2</title>
<g id="a_node2"><a xlink:href="classGAGeneticAlgorithm.html" target="_top" xlink:title=" ">
<polygon fill="white" stroke="black" points="77,-399.5 77,-418.5 193,-418.5 193,-399.5 77,-399.5"/>
<text text-anchor="middle" x="135" y="-406.5" font-family="Helvetica,sans-Serif" font-size="10.00">GAGeneticAlgorithm</text>
</a>
</g>
</g>
<!-- Node1&#45;&gt;Node2 -->
<g id="edge1" class="edge">
<title>Node1&#45;&gt;Node2</title>
<path fill="none" stroke="midnightblue" d="M29.67,-162.32C52.01,-215.14 113.55,-360.65 129.94,-399.41"/>
<polygon fill="midnightblue" stroke="midnightblue" points="32.76,-160.63 25.64,-152.78 26.31,-163.36 32.76,-160.63"/>
</g>
<!-- Node8 -->
<g id="node8" class="node">
<title>Node8</title>
<g id="a_node8"><a xlink:href="classGAGenome.html" target="_top" xlink:title=" ">
<polygon fill="white" stroke="black" points="99,-171.5 99,-190.5 171,-190.5 171,-171.5 99,-171.5"/>
<text text-anchor="middle" x="135" y="-178.5" font-family="Helvetica,sans-Serif" font-size="10.00">GAGenome</text>
</a>
</g>
</g>
<!-- Node1&#45;&gt;Node8 -->
<g id="edge7" class="edge">
<title>Node1&#45;&gt;Node8</title>
<path fill="none" stroke="midnightblue" d="M50.54,-152.99C59.06,-155.91 68.4,-159.09 77,-162 86.19,-165.1 96.23,-168.46 105.28,-171.48"/>
<polygon fill="midnightblue" stroke="midnightblue" points="51.6,-149.66 41.01,-149.72 49.33,-156.28 51.6,-149.66"/>
</g>
<!-- Node21 -->
<g id="node21" class="node">
<title>Node21</title>
<g id="a_node21"><a xlink:href="classGAPopulation.html" target="_top" xlink:title=" ">
<polygon fill="white" stroke="black" points="93.5,-133.5 93.5,-152.5 176.5,-152.5 176.5,-133.5 93.5,-133.5"/>
<text text-anchor="middle" x="135" y="-140.5" font-family="Helvetica,sans-Serif" font-size="10.00">GAPopulation</text>
</a>
</g>
</g>
<!-- Node1&#45;&gt;Node21 -->
<g id="edge20" class="edge">
<title>Node1&#45;&gt;Node21</title>
<path fill="none" stroke="midnightblue" d="M51.24,-143C64.09,-143 79.33,-143 93.21,-143"/>
<polygon fill="midnightblue" stroke="midnightblue" points="51.1,-139.5 41.1,-143 51.1,-146.5 51.1,-139.5"/>
</g>
<!-- Node22 -->
<g id="node22" class="node">
<title>Node22</title>
<g id="a_node22"><a xlink:href="classGAScalingScheme.html" target="_top" xlink:title=" ">
<polygon fill="white" stroke="black" points="82.5,-95.5 82.5,-114.5 187.5,-114.5 187.5,-95.5 82.5,-95.5"/>
<text text-anchor="middle" x="135" y="-102.5" font-family="Helvetica,sans-Serif" font-size="10.00">GAScalingScheme</text>
</a>
</g>
</g>
<!-- Node1&#45;&gt;Node22 -->
<g id="edge21" class="edge">
<title>Node1&#45;&gt;Node22</title>
<path fill="none" stroke="midnightblue" d="M50.54,-133.01C59.06,-130.09 68.4,-126.91 77,-124 86.19,-120.9 96.23,-117.54 105.28,-114.52"/>
<polygon fill="midnightblue" stroke="midnightblue" points="49.33,-129.72 41.01,-136.28 51.6,-136.34 49.33,-129.72"/>
</g>
<!-- Node24 -->
<g id="node24" class="node">
<title>Node24</title>
<g id="a_node24"><a xlink:href="classGASelectionScheme.html" target="_top" xlink:title=" ">
<polygon fill="white" stroke="black" points="77.5,-57.5 77.5,-76.5 192.5,-76.5 192.5,-57.5 77.5,-57.5"/>
<text text-anchor="middle" x="135" y="-64.5" font-family="Helvetica,sans-Serif" font-size="10.00">GASelectionScheme</text>
</a>
</g>
</g>
<!-- Node1&#45;&gt;Node24 -->
<g id="edge23" class="edge">
<title>Node1&#45;&gt;Node24</title>
<path fill="none" stroke="midnightblue" d="M34.97,-125.19C45.26,-112.68 60.46,-96.38 77,-86 83.01,-82.23 89.85,-79.12 96.65,-76.59"/>
<polygon fill="midnightblue" stroke="midnightblue" points="32.14,-123.12 28.67,-133.13 37.63,-127.47 32.14,-123.12"/>
</g>
<!-- Node3 -->
<g id="node3" class="node">
<title>Node3</title>
<g id="a_node3"><a xlink:href="classGADCrowdingGA.html" target="_top" xlink:title=" ">
<polygon fill="white" stroke="black" points="253,-494.5 253,-513.5 351,-513.5 351,-494.5 253,-494.5"/>
<text text-anchor="middle" x="302" y="-501.5" font-family="Helvetica,sans-Serif" font-size="10.00">GADCrowdingGA</text>
</a>
</g>
</g>
<!-- Node2&#45;&gt;Node3 -->
<g id="edge2" class="edge">
<title>Node2&#45;&gt;Node3</title>
<path fill="none" stroke="midnightblue" d="M152.18,-425.96C169.6,-443.24 198.88,-469.64 229,-485 236.49,-488.82 244.81,-491.92 253.07,-494.43"/>
<polygon fill="midnightblue" stroke="midnightblue" points="154.57,-423.39 145.06,-418.73 149.58,-428.3 154.57,-423.39"/>
</g>
<!-- Node4 -->
<g id="node4" class="node">
<title>Node4</title>
<g id="a_node4"><a xlink:href="classGADemeGA.html" target="_top" xlink:title=" ">
<polygon fill="white" stroke="black" points="265,-456.5 265,-475.5 339,-475.5 339,-456.5 265,-456.5"/>
<text text-anchor="middle" x="302" y="-463.5" font-family="Helvetica,sans-Serif" font-size="10.00">GADemeGA</text>
</a>
</g>
</g>
<!-- Node2&#45;&gt;Node4 -->
<g id="edge3" class="edge">
<title>Node2&#45;&gt;Node4</title>
<path fill="none" stroke="midnightblue" d="M166.52,-422.64C184.49,-430.38 207.79,-439.9 229,-447 240.52,-450.86 253.29,-454.44 264.84,-457.44"/>
<polygon fill="midnightblue" stroke="midnightblue" points="167.69,-419.34 157.13,-418.55 164.9,-425.75 167.69,-419.34"/>
</g>
<!-- Node5 -->
<g id="node5" class="node">
<title>Node5</title>
<g id="a_node5"><a xlink:href="classGAIncrementalGA.html" target="_top" xlink:title=" ">
<polygon fill="white" stroke="black" points="250,-418.5 250,-437.5 354,-437.5 354,-418.5 250,-418.5"/>
<text text-anchor="middle" x="302" y="-425.5" font-family="Helvetica,sans-Serif" font-size="10.00">GAIncrementalGA</text>
</a>
</g>
</g>
<!-- Node2&#45;&gt;Node5 -->
<g id="edge4" class="edge">
<title>Node2&#45;&gt;Node5</title>
<path fill="none" stroke="midnightblue" d="M203.34,-416.75C218.89,-418.55 235.19,-420.42 249.92,-422.12"/>
<polygon fill="midnightblue" stroke="midnightblue" points="203.58,-413.26 193.25,-415.59 202.78,-420.21 203.58,-413.26"/>
</g>
<!-- Node6 -->
<g id="node6" class="node">
<title>Node6</title>
<g id="a_node6"><a xlink:href="classGASimpleGA.html" target="_top" xlink:title=" ">
<polygon fill="white" stroke="black" points="262.5,-380.5 262.5,-399.5 341.5,-399.5 341.5,-380.5 262.5,-380.5"/>
<text text-anchor="middle" x="302" y="-387.5" font-family="Helvetica,sans-Serif" font-size="10.00">GASimpleGA</text>
</a>
</g>
</g>
<!-- Node2&#45;&gt;Node6 -->
<g id="edge5" class="edge">
<title>Node2&#45;&gt;Node6</title>
<path fill="none" stroke="midnightblue" d="M203.29,-401.25C223.36,-398.94 244.67,-396.49 262.26,-394.46"/>
<polygon fill="midnightblue" stroke="midnightblue" points="202.78,-397.79 193.25,-402.41 203.58,-404.74 202.78,-397.79"/>
</g>
<!-- Node7 -->
<g id="node7" class="node">
<title>Node7</title>
<g id="a_node7"><a xlink:href="classGASteadyStateGA.html" target="_top" xlink:title=" ">
<polygon fill="white" stroke="black" points="250,-342.5 250,-361.5 354,-361.5 354,-342.5 250,-342.5"/>
<text text-anchor="middle" x="302" y="-349.5" font-family="Helvetica,sans-Serif" font-size="10.00">GASteadyStateGA</text>
</a>
</g>
</g>
<!-- Node2&#45;&gt;Node7 -->
<g id="edge6" class="edge">
<title>Node2&#45;&gt;Node7</title>
<path fill="none" stroke="midnightblue" d="M166.52,-395.36C184.49,-387.62 207.79,-378.1 229,-371 239.3,-367.55 250.59,-364.32 261.11,-361.54"/>
<polygon fill="midnightblue" stroke="midnightblue" points="164.9,-392.25 157.13,-399.45 167.69,-398.66 164.9,-392.25"/>
</g>
<!-- Node9 -->
<g id="node9" class="node">
<title>Node9</title>
<g id="a_node9"><a xlink:href="classGA1DArrayGenome.html" target="_top" xlink:title="1D Arrray Genome">
<polygon fill="white" stroke="black" points="232,-304.5 232,-323.5 372,-323.5 372,-304.5 232,-304.5"/>
<text text-anchor="middle" x="302" y="-311.5" font-family="Helvetica,sans-Serif" font-size="10.00">GA1DArrayGenome&lt; T &gt;</text>
</a>
</g>
</g>
<!-- Node8&#45;&gt;Node9 -->
<g id="edge8" class="edge">
<title>Node8&#45;&gt;Node9</title>
<path fill="none" stroke="midnightblue" d="M146.13,-199.68C160.93,-225.17 190.9,-270.46 229,-295 234.98,-298.85 241.71,-301.92 248.6,-304.38"/>
<polygon fill="midnightblue" stroke="midnightblue" points="149.02,-197.67 141.06,-190.68 142.92,-201.11 149.02,-197.67"/>
</g>
<!-- Node11 -->
<g id="node11" class="node">
<title>Node11</title>
<g id="a_node11"><a xlink:href="classGA1DBinaryStringGenome.html" target="_top" xlink:title=" ">
<polygon fill="white" stroke="black" points="229,-266.5 229,-285.5 375,-285.5 375,-266.5 229,-266.5"/>
<text text-anchor="middle" x="302" y="-273.5" font-family="Helvetica,sans-Serif" font-size="10.00">GA1DBinaryStringGenome</text>
</a>
</g>
</g>
<!-- Node8&#45;&gt;Node11 -->
<g id="edge10" class="edge">
<title>Node8&#45;&gt;Node11</title>
<path fill="none" stroke="midnightblue" d="M152.18,-197.96C169.6,-215.24 198.88,-241.64 229,-257 236.49,-260.82 244.81,-263.92 253.07,-266.43"/>
<polygon fill="midnightblue" stroke="midnightblue" points="154.57,-195.39 145.06,-190.73 149.58,-200.3 154.57,-195.39"/>
</g>
<!-- Node13 -->
<g id="node13" class="node">
<title>Node13</title>
<g id="a_node13"><a xlink:href="classGA2DArrayGenome.html" target="_top" xlink:title=" ">
<polygon fill="white" stroke="black" points="232,-228.5 232,-247.5 372,-247.5 372,-228.5 232,-228.5"/>
<text text-anchor="middle" x="302" y="-235.5" font-family="Helvetica,sans-Serif" font-size="10.00">GA2DArrayGenome&lt; T &gt;</text>
</a>
</g>
</g>
<!-- Node8&#45;&gt;Node13 -->
<g id="edge12" class="edge">
<title>Node8&#45;&gt;Node13</title>
<path fill="none" stroke="midnightblue" d="M166.52,-194.64C184.49,-202.38 207.79,-211.9 229,-219 239.3,-222.45 250.59,-225.68 261.11,-228.46"/>
<polygon fill="midnightblue" stroke="midnightblue" points="167.69,-191.34 157.13,-190.55 164.9,-197.75 167.69,-191.34"/>
</g>
<!-- Node15 -->
<g id="node15" class="node">
<title>Node15</title>
<g id="a_node15"><a xlink:href="classGA2DBinaryStringGenome.html" target="_top" xlink:title=" ">
<polygon fill="white" stroke="black" points="229,-190.5 229,-209.5 375,-209.5 375,-190.5 229,-190.5"/>
<text text-anchor="middle" x="302" y="-197.5" font-family="Helvetica,sans-Serif" font-size="10.00">GA2DBinaryStringGenome</text>
</a>
</g>
</g>
<!-- Node8&#45;&gt;Node15 -->
<g id="edge14" class="edge">
<title>Node8&#45;&gt;Node15</title>
<path fill="none" stroke="midnightblue" d="M181.63,-186.25C196.2,-187.93 212.7,-189.83 228.68,-191.67"/>
<polygon fill="midnightblue" stroke="midnightblue" points="181.73,-182.74 171.4,-185.08 180.93,-189.7 181.73,-182.74"/>
</g>
<!-- Node16 -->
<g id="node16" class="node">
<title>Node16</title>
<g id="a_node16"><a xlink:href="classGA3DArrayGenome.html" target="_top" xlink:title=" ">
<polygon fill="white" stroke="black" points="232,-152.5 232,-171.5 372,-171.5 372,-152.5 232,-152.5"/>
<text text-anchor="middle" x="302" y="-159.5" font-family="Helvetica,sans-Serif" font-size="10.00">GA3DArrayGenome&lt; T &gt;</text>
</a>
</g>
</g>
<!-- Node8&#45;&gt;Node16 -->
<g id="edge15" class="edge">
<title>Node8&#45;&gt;Node16</title>
<path fill="none" stroke="midnightblue" d="M181.72,-175.74C197.19,-173.95 214.82,-171.92 231.7,-169.98"/>
<polygon fill="midnightblue" stroke="midnightblue" points="180.93,-172.3 171.4,-176.92 181.73,-179.26 180.93,-172.3"/>
</g>
<!-- Node18 -->
<g id="node18" class="node">
<title>Node18</title>
<g id="a_node18"><a xlink:href="classGA3DBinaryStringGenome.html" target="_top" xlink:title=" ">
<polygon fill="white" stroke="black" points="229,-114.5 229,-133.5 375,-133.5 375,-114.5 229,-114.5"/>
<text text-anchor="middle" x="302" y="-121.5" font-family="Helvetica,sans-Serif" font-size="10.00">GA3DBinaryStringGenome</text>
</a>
</g>
</g>
<!-- Node8&#45;&gt;Node18 -->
<g id="edge17" class="edge">
<title>Node8&#45;&gt;Node18</title>
<path fill="none" stroke="midnightblue" d="M177.24,-168.15C182.6,-166.22 187.96,-164.15 193,-162 209.64,-154.89 212.14,-149.57 229,-143 238.27,-139.38 248.48,-136.22 258.23,-133.57"/>
<polygon fill="midnightblue" stroke="midnightblue" points="176.01,-164.87 167.7,-171.46 178.3,-171.49 176.01,-164.87"/>
</g>
<!-- Node19 -->
<g id="node19" class="node">
<title>Node19</title>
<g id="a_node19"><a xlink:href="classGAListGenome.html" target="_top" xlink:title=" ">
<polygon fill="white" stroke="black" points="243,-76.5 243,-95.5 361,-95.5 361,-76.5 243,-76.5"/>
<text text-anchor="middle" x="302" y="-83.5" font-family="Helvetica,sans-Serif" font-size="10.00">GAListGenome&lt; T &gt;</text>
</a>
</g>
</g>
<!-- Node8&#45;&gt;Node19 -->
<g id="edge18" class="edge">
<title>Node8&#45;&gt;Node19</title>
<path fill="none" stroke="midnightblue" d="M180.42,-169.64C184.91,-167.5 189.2,-164.98 193,-162 216.59,-143.52 204.84,-122.72 229,-105 234.32,-101.1 240.37,-98 246.66,-95.54"/>
<polygon fill="midnightblue" stroke="midnightblue" points="178.97,-166.45 171.06,-173.49 181.64,-172.92 178.97,-166.45"/>
</g>
<!-- Node20 -->
<g id="node20" class="node">
<title>Node20</title>
<g id="a_node20"><a xlink:href="classGATreeGenome.html" target="_top" xlink:title=" ">
<polygon fill="white" stroke="black" points="242,-38.5 242,-57.5 362,-57.5 362,-38.5 242,-38.5"/>
<text text-anchor="middle" x="302" y="-45.5" font-family="Helvetica,sans-Serif" font-size="10.00">GATreeGenome&lt; T &gt;</text>
</a>
</g>
</g>
<!-- Node8&#45;&gt;Node20 -->
<g id="edge19" class="edge">
<title>Node8&#45;&gt;Node20</title>
<path fill="none" stroke="midnightblue" d="M180.73,-170.55C185.22,-168.24 189.43,-165.43 193,-162 225.57,-130.73 195.45,-97.22 229,-67 233.32,-63.11 238.35,-59.99 243.7,-57.51"/>
<polygon fill="midnightblue" stroke="midnightblue" points="179.06,-167.45 171.25,-174.6 181.82,-173.89 179.06,-167.45"/>
</g>
<!-- Node10 -->
<g id="node10" class="node">
<title>Node10</title>
<g id="a_node10"><a xlink:href="classGA1DArrayAlleleGenome.html" target="_top" xlink:title=" ">
<polygon fill="white" stroke="black" points="411,-304.5 411,-323.5 579,-323.5 579,-304.5 411,-304.5"/>
<text text-anchor="middle" x="495" y="-311.5" font-family="Helvetica,sans-Serif" font-size="10.00">GA1DArrayAlleleGenome&lt; T &gt;</text>
</a>
</g>
</g>
<!-- Node9&#45;&gt;Node10 -->
<g id="edge9" class="edge">
<title>Node9&#45;&gt;Node10</title>
<path fill="none" stroke="midnightblue" d="M382.3,-314C391.68,-314 401.27,-314 410.7,-314"/>
<polygon fill="midnightblue" stroke="midnightblue" points="382.23,-310.5 372.23,-314 382.23,-317.5 382.23,-310.5"/>
</g>
<!-- Node12 -->
<g id="node12" class="node">
<title>Node12</title>
<g id="a_node12"><a xlink:href="classGABin2DecGenome.html" target="_top" xlink:title=" ">
<polygon fill="white" stroke="black" points="438.5,-266.5 438.5,-285.5 551.5,-285.5 551.5,-266.5 438.5,-266.5"/>
<text text-anchor="middle" x="495" y="-273.5" font-family="Helvetica,sans-Serif" font-size="10.00">GABin2DecGenome</text>
</a>
</g>
</g>
<!-- Node11&#45;&gt;Node12 -->
<g id="edge11" class="edge">
<title>Node11&#45;&gt;Node12</title>
<path fill="none" stroke="midnightblue" d="M385.61,-276C403.44,-276 421.87,-276 438.37,-276"/>
<polygon fill="midnightblue" stroke="midnightblue" points="385.21,-272.5 375.21,-276 385.21,-279.5 385.21,-272.5"/>
</g>
<!-- Node14 -->
<g id="node14" class="node">
<title>Node14</title>
<g id="a_node14"><a xlink:href="classGA2DArrayAlleleGenome.html" target="_top" xlink:title=" ">
<polygon fill="white" stroke="black" points="411,-228.5 411,-247.5 579,-247.5 579,-228.5 411,-228.5"/>
<text text-anchor="middle" x="495" y="-235.5" font-family="Helvetica,sans-Serif" font-size="10.00">GA2DArrayAlleleGenome&lt; T &gt;</text>
</a>
</g>
</g>
<!-- Node13&#45;&gt;Node14 -->
<g id="edge13" class="edge">
<title>Node13&#45;&gt;Node14</title>
<path fill="none" stroke="midnightblue" d="M382.3,-238C391.68,-238 401.27,-238 410.7,-238"/>
<polygon fill="midnightblue" stroke="midnightblue" points="382.23,-234.5 372.23,-238 382.23,-241.5 382.23,-234.5"/>
</g>
<!-- Node17 -->
<g id="node17" class="node">
<title>Node17</title>
<g id="a_node17"><a xlink:href="classGA3DArrayAlleleGenome.html" target="_top" xlink:title=" ">
<polygon fill="white" stroke="black" points="411,-152.5 411,-171.5 579,-171.5 579,-152.5 411,-152.5"/>
<text text-anchor="middle" x="495" y="-159.5" font-family="Helvetica,sans-Serif" font-size="10.00">GA3DArrayAlleleGenome&lt; T &gt;</text>
</a>
</g>
</g>
<!-- Node16&#45;&gt;Node17 -->
<g id="edge16" class="edge">
<title>Node16&#45;&gt;Node17</title>
<path fill="none" stroke="midnightblue" d="M382.3,-162C391.68,-162 401.27,-162 410.7,-162"/>
<polygon fill="midnightblue" stroke="midnightblue" points="382.23,-158.5 372.23,-162 382.23,-165.5 382.23,-158.5"/>
</g>
<!-- Node23 -->
<g id="node23" class="node">
<title>Node23</title>
<g id="a_node23"><a xlink:href="classGANoScaling.html" target="_top" xlink:title=" ">
<polygon fill="white" stroke="black" points="262,-0.5 262,-19.5 342,-19.5 342,-0.5 262,-0.5"/>
<text text-anchor="middle" x="302" y="-7.5" font-family="Helvetica,sans-Serif" font-size="10.00">GANoScaling</text>
</a>
</g>
</g>
<!-- Node22&#45;&gt;Node23 -->
<g id="edge22" class="edge">
<title>Node22&#45;&gt;Node23</title>
<path fill="none" stroke="midnightblue" d="M185.6,-90.94C188.2,-89.45 190.69,-87.81 193,-86 216.59,-67.52 204.84,-46.72 229,-29 238.49,-22.04 250.33,-17.63 261.65,-14.83"/>
<polygon fill="midnightblue" stroke="midnightblue" points="183.86,-87.89 176.41,-95.43 186.93,-94.18 183.86,-87.89"/>
</g>
</g>
</svg>
