<?xml version="1.0" encoding="UTF-8" standalone="no"?>
<!DOCTYPE svg PUBLIC "-//W3C//DTD SVG 1.1//EN"
 "http://www.w3.org/Graphics/SVG/1.1/DTD/svg11.dtd">
<!-- Generated by graphviz version 2.43.0 (0)
 -->
<!-- Title: GA1DBinaryStringGenome Pages: 1 -->
<svg width="190pt" height="196pt"
 viewBox="0.00 0.00 189.50 196.00" xmlns="http://www.w3.org/2000/svg" xmlns:xlink="http://www.w3.org/1999/xlink">
<g id="graph0" class="graph" transform="scale(1 1) rotate(0) translate(4 192)">
<title>GA1DBinaryStringGenome</title>
<polygon fill="white" stroke="transparent" points="-4,4 -4,-192 185.5,-192 185.5,4 -4,4"/>
<!-- Node1 -->
<g id="node1" class="node">
<title>Node1</title>
<g id="a_node1"><a xlink:title="Interface for the 1D binary string genome, including crossover objects and all the default and built&#45;...">
<polygon fill="#bfbfbf" stroke="black" points="22.5,-56.5 22.5,-75.5 168.5,-75.5 168.5,-56.5 22.5,-56.5"/>
<text text-anchor="middle" x="95.5" y="-63.5" font-family="Helvetica,sans-Serif" font-size="10.00">GA1DBinaryStringGenome</text>
</a>
</g>
</g>
<!-- Node5 -->
<g id="node5" class="node">
<title>Node5</title>
<g id="a_node5"><a xlink:href="classGABin2DecGenome.html" target="_top" xlink:title=" ">
<polygon fill="white" stroke="black" points="39,-0.5 39,-19.5 152,-19.5 152,-0.5 39,-0.5"/>
<text text-anchor="middle" x="95.5" y="-7.5" font-family="Helvetica,sans-Serif" font-size="10.00">GABin2DecGenome</text>
</a>
</g>
</g>
<!-- Node1&#45;&gt;Node5 -->
<g id="edge4" class="edge">
<title>Node1&#45;&gt;Node5</title>
<path fill="none" stroke="midnightblue" d="M95.5,-45.8C95.5,-36.91 95.5,-26.78 95.5,-19.75"/>
<polygon fill="midnightblue" stroke="midnightblue" points="92,-46.08 95.5,-56.08 99,-46.08 92,-46.08"/>
</g>
<!-- Node2 -->
<g id="node2" class="node">
<title>Node2</title>
<g id="a_node2"><a xlink:href="classGABinaryString.html" target="_top" xlink:title="This header defines the interface for the binary string.">
<polygon fill="white" stroke="black" points="0,-112.5 0,-131.5 91,-131.5 91,-112.5 0,-112.5"/>
<text text-anchor="middle" x="45.5" y="-119.5" font-family="Helvetica,sans-Serif" font-size="10.00">GABinaryString</text>
</a>
</g>
</g>
<!-- Node2&#45;&gt;Node1 -->
<g id="edge1" class="edge">
<title>Node2&#45;&gt;Node1</title>
<path fill="none" stroke="midnightblue" d="M60.58,-104.72C69.39,-95.2 80.17,-83.56 87.4,-75.75"/>
<polygon fill="midnightblue" stroke="midnightblue" points="57.98,-102.37 53.76,-112.08 63.12,-107.12 57.98,-102.37"/>
</g>
<!-- Node3 -->
<g id="node3" class="node">
<title>Node3</title>
<g id="a_node3"><a xlink:href="classGAGenome.html" target="_top" xlink:title="The base genome class just defines the genome interface &#45; how to mutate, crossover,...">
<polygon fill="white" stroke="black" points="109.5,-112.5 109.5,-131.5 181.5,-131.5 181.5,-112.5 109.5,-112.5"/>
<text text-anchor="middle" x="145.5" y="-119.5" font-family="Helvetica,sans-Serif" font-size="10.00">GAGenome</text>
</a>
</g>
</g>
<!-- Node3&#45;&gt;Node1 -->
<g id="edge2" class="edge">
<title>Node3&#45;&gt;Node1</title>
<path fill="none" stroke="midnightblue" d="M130.42,-104.72C121.61,-95.2 110.83,-83.56 103.6,-75.75"/>
<polygon fill="midnightblue" stroke="midnightblue" points="127.88,-107.12 137.24,-112.08 133.02,-102.37 127.88,-107.12"/>
</g>
<!-- Node4 -->
<g id="node4" class="node">
<title>Node4</title>
<g id="a_node4"><a xlink:href="classGAID.html" target="_top" xlink:title="This defines the identifiers for polymorphic classes.">
<polygon fill="white" stroke="black" points="125,-168.5 125,-187.5 166,-187.5 166,-168.5 125,-168.5"/>
<text text-anchor="middle" x="145.5" y="-175.5" font-family="Helvetica,sans-Serif" font-size="10.00">GAID</text>
</a>
</g>
</g>
<!-- Node4&#45;&gt;Node3 -->
<g id="edge3" class="edge">
<title>Node4&#45;&gt;Node3</title>
<path fill="none" stroke="midnightblue" d="M145.5,-157.8C145.5,-148.91 145.5,-138.78 145.5,-131.75"/>
<polygon fill="midnightblue" stroke="midnightblue" points="142,-158.08 145.5,-168.08 149,-158.08 142,-158.08"/>
</g>
</g>
</svg>
