<?xml version="1.0" encoding="UTF-8" standalone="no"?>
<!DOCTYPE svg PUBLIC "-//W3C//DTD SVG 1.1//EN"
 "http://www.w3.org/Graphics/SVG/1.1/DTD/svg11.dtd">
<!-- Generated by graphviz version 2.43.0 (0)
 -->
<!-- Title: GATreeIter&lt; T &gt; Pages: 1 -->
<svg width="155pt" height="243pt"
 viewBox="0.00 0.00 155.00 243.00" xmlns="http://www.w3.org/2000/svg" xmlns:xlink="http://www.w3.org/1999/xlink">
<g id="graph0" class="graph" transform="scale(1 1) rotate(0) translate(4 239)">
<title>GATreeIter&lt; T &gt;</title>
<polygon fill="white" stroke="transparent" points="-4,4 -4,-239 151,-239 151,4 -4,4"/>
<!-- Node1 -->
<g id="node1" class="node">
<title>Node1</title>
<g id="a_node1"><a xlink:title=" ">
<polygon fill="#bfbfbf" stroke="black" points="6.5,-0.5 6.5,-19.5 101.5,-19.5 101.5,-0.5 6.5,-0.5"/>
<text text-anchor="middle" x="54" y="-7.5" font-family="Helvetica,sans-Serif" font-size="10.00">GATreeIter&lt; T &gt;</text>
</a>
</g>
</g>
<!-- Node2 -->
<g id="node2" class="node">
<title>Node2</title>
<g id="a_node2"><a xlink:href="classGATreeIterBASE.html" target="_top" xlink:title=" ">
<polygon fill="white" stroke="black" points="8,-57.5 8,-76.5 100,-76.5 100,-57.5 8,-57.5"/>
<text text-anchor="middle" x="54" y="-64.5" font-family="Helvetica,sans-Serif" font-size="10.00">GATreeIterBASE</text>
</a>
</g>
</g>
<!-- Node2&#45;&gt;Node1 -->
<g id="edge1" class="edge">
<title>Node2&#45;&gt;Node1</title>
<path fill="none" stroke="midnightblue" d="M54,-47.12C54,-37.82 54,-27.06 54,-19.71"/>
<polygon fill="midnightblue" stroke="midnightblue" points="50.5,-47.41 54,-57.41 57.5,-47.41 50.5,-47.41"/>
</g>
<!-- Node3 -->
<g id="node3" class="node">
<title>Node3</title>
<g id="a_node3"><a xlink:href="classGATreeBASE.html" target="_top" xlink:title=" ">
<polygon fill="white" stroke="black" points="71,-124.5 71,-143.5 147,-143.5 147,-124.5 71,-124.5"/>
<text text-anchor="middle" x="109" y="-131.5" font-family="Helvetica,sans-Serif" font-size="10.00">GATreeBASE</text>
</a>
</g>
</g>
<!-- Node3&#45;&gt;Node2 -->
<g id="edge2" class="edge">
<title>Node3&#45;&gt;Node2</title>
<path fill="none" stroke="#9a32cd" stroke-dasharray="5,2" d="M94.84,-116.27C84.12,-103.6 69.82,-86.7 61.3,-76.63"/>
<polygon fill="#9a32cd" stroke="#9a32cd" points="92.45,-118.86 101.58,-124.23 97.79,-114.34 92.45,-118.86"/>
<text text-anchor="middle" x="95.5" y="-98" font-family="Helvetica,sans-Serif" font-size="10.00"> tree</text>
</g>
<!-- Node4 -->
<g id="node4" class="node">
<title>Node4</title>
<g id="a_node4"><a xlink:href="structGANodeBASE.html" target="_top" xlink:title="This is the basic node object.">
<polygon fill="white" stroke="black" points="0,-203.5 0,-222.5 82,-222.5 82,-203.5 0,-203.5"/>
<text text-anchor="middle" x="41" y="-210.5" font-family="Helvetica,sans-Serif" font-size="10.00">GANodeBASE</text>
</a>
</g>
</g>
<!-- Node4&#45;&gt;Node2 -->
<g id="edge5" class="edge">
<title>Node4&#45;&gt;Node2</title>
<path fill="none" stroke="#9a32cd" stroke-dasharray="5,2" d="M36.85,-193.48C33.48,-175.59 29.88,-147.77 34,-124 37,-106.71 44.83,-87.69 49.76,-76.86"/>
<polygon fill="#9a32cd" stroke="#9a32cd" points="33.46,-194.35 38.91,-203.44 40.32,-192.94 33.46,-194.35"/>
<text text-anchor="middle" x="48" y="-131.5" font-family="Helvetica,sans-Serif" font-size="10.00"> node</text>
</g>
<!-- Node4&#45;&gt;Node3 -->
<g id="edge3" class="edge">
<title>Node4&#45;&gt;Node3</title>
<path fill="none" stroke="#9a32cd" stroke-dasharray="5,2" d="M55.52,-195.56C69.5,-179.73 90.11,-156.39 101.22,-143.81"/>
<polygon fill="#9a32cd" stroke="#9a32cd" points="52.53,-193.65 48.54,-203.47 57.78,-198.29 52.53,-193.65"/>
<text text-anchor="middle" x="90.5" y="-165" font-family="Helvetica,sans-Serif" font-size="10.00"> rt</text>
</g>
<!-- Node4&#45;&gt;Node4 -->
<g id="edge4" class="edge">
<title>Node4&#45;&gt;Node4</title>
<path fill="none" stroke="#9a32cd" stroke-dasharray="5,2" d="M92.26,-219.59C97.01,-218.23 100,-216.03 100,-213 100,-208.14 92.34,-205.43 82.08,-204.86"/>
<polygon fill="#9a32cd" stroke="#9a32cd" points="91.44,-216.18 82.08,-221.14 92.5,-223.1 91.44,-216.18"/>
<text text-anchor="middle" x="116" y="-227" font-family="Helvetica,sans-Serif" font-size="10.00"> child</text>
<text text-anchor="middle" x="116" y="-216" font-family="Helvetica,sans-Serif" font-size="10.00">next</text>
<text text-anchor="middle" x="116" y="-205" font-family="Helvetica,sans-Serif" font-size="10.00">parent</text>
<text text-anchor="middle" x="116" y="-194" font-family="Helvetica,sans-Serif" font-size="10.00">prev</text>
</g>
</g>
</svg>
