<?xml version="1.0" encoding="UTF-8" standalone="no"?>
<!DOCTYPE svg PUBLIC "-//W3C//DTD SVG 1.1//EN"
 "http://www.w3.org/Graphics/SVG/1.1/DTD/svg11.dtd">
<!-- Generated by graphviz version 2.43.0 (0)
 -->
<!-- Title: GADCrowdingGA Pages: 1 -->
<!--zoomable 529 -->

<svg id="main" version="1.1" xmlns="http://www.w3.org/2000/svg" xmlns:xlink="http://www.w3.org/1999/xlink" xml:space="preserve" onload="init(evt)">
<style type="text/css"><![CDATA[
.node, .edge {opacity: 0.7;}
.node.selected, .edge.selected {opacity: 1;}
.edge:hover path { stroke: red; }
.edge:hover polygon { stroke: red; fill: red; }
]]></style>

<defs>
  <circle id="rim" cx="0" cy="0" r="7"/>
  <circle id="rim2" cx="0" cy="0" r="3.5"/>
  <g id="zoomPlus">
    <use xlink:href="#rim" fill="#404040"><set attributeName="fill" to="#808080" begin="zoomplus.mouseover" end="zoomplus.mouseout"/></use>
    <path d="M-4,0h8M0,-4v8" fill="none" stroke="white" stroke-width="1.5" pointer-events="none"/>
  </g>
  <g id="zoomMin">
    <use xlink:href="#rim" fill="#404040"><set attributeName="fill" to="#808080" begin="zoomminus.mouseover" end="zoomminus.mouseout"/></use>
    <path d="M-4,0h8" fill="none" stroke="white" stroke-width="1.5" pointer-events="none"/>
  </g>
  <g id="arrowUp" transform="translate(30 24)">
    <use xlink:href="#rim"/>
    <path pointer-events="none" fill="none" stroke="white" stroke-width="1.5" d="M0,-3.0v7 M-2.5,-0.5L0,-3.0L2.5,-0.5"/>
  </g>
  <g id="arrowRight" transform="rotate(90) translate(36 -43)">
    <use xlink:href="#rim"/>
    <path pointer-events="none" fill="none" stroke="white" stroke-width="1.5" d="M0,-3.0v7 M-2.5,-0.5L0,-3.0L2.5,-0.5"/>
  </g>
  <g id="arrowDown" transform="rotate(180) translate(-30 -48)">
    <use xlink:href="#rim"/>
    <path pointer-events="none" fill="none" stroke="white" stroke-width="1.5" d="M0,-3.0v7 M-2.5,-0.5L0,-3.0L2.5,-0.5"/>
  </g>
  <g id="arrowLeft" transform="rotate(270) translate(-36 17)">
    <use xlink:href="#rim"/>
    <path pointer-events="none" fill="none" stroke="white" stroke-width="1.5" d="M0,-3.0v7 M-2.5,-0.5L0,-3.0L2.5,-0.5"/>
  </g>
  <g id="resetDef">
    <use xlink:href="#rim2" fill="#404040"><set attributeName="fill" to="#808080" begin="reset.mouseover" end="reset.mouseout"/></use>
  </g>
</defs>
<script type="application/ecmascript">
var viewWidth = 793;
var viewHeight = 529;
var sectionId = 'dynsection-1';
</script>
<script type="application/ecmascript" xlink:href="svg.min.js"/>
<svg id="graph" class="graph">
<g id="viewport">
<title>GADCrowdingGA</title>
<!-- Node1 -->
<g id="Node000001" class="node">
<title>Node1</title>
<g id="a_Node000001"><a xlink:title=" ">
<polygon fill="#999999" stroke="#666666" points="98,-232.5 0,-232.5 0,-213.5 98,-213.5 98,-232.5"/>
<text text-anchor="middle" x="49" y="-220.5" font-family="Helvetica,sans-Serif" font-size="10.00">GADCrowdingGA</text>
</a>
</g>
</g>
<!-- Node2 -->
<g id="Node000002" class="node">
<title>Node2</title>
<g id="a_Node000002"><a xlink:href="classGAGeneticAlgorithm.html" target="_top" xlink:title="The base GA class is virtual &#45; it defines the core data elements and parts of the interface that are ...">
<polygon fill="white" stroke="#666666" points="362,-333 246,-333 246,-314 362,-314 362,-333"/>
<text text-anchor="middle" x="304" y="-321" font-family="Helvetica,sans-Serif" font-size="10.00">GAGeneticAlgorithm</text>
</a>
</g>
</g>
<!-- Node2&#45;&gt;Node1 -->
<g id="edge1_Node000001_Node000002" class="edge">
<title>Node2&#45;&gt;Node1</title>
<g id="a_edge1_Node000001_Node000002"><a xlink:title=" ">
<path fill="none" stroke="#63b8ff" d="M235.81,-318.13C189.49,-314.21 132.97,-307.31 112,-296 84.08,-280.94 62.75,-248.27 53.72,-232.66"/>
<polygon fill="#63b8ff" stroke="#63b8ff" points="235.58,-321.62 245.83,-318.94 236.14,-314.64 235.58,-321.62"/>
</a>
</g>
</g>
<!-- Node2&#45;&gt;Node2 -->
<g id="edge27_Node000002_Node000002" class="edge">
<title>Node2&#45;&gt;Node2</title>
<g id="a_edge27_Node000002_Node000002"><a xlink:title=" ">
<path fill="none" stroke="#9a32cd" stroke-dasharray="5,2" d="M372.48,-327.84C377.16,-326.84 380,-325.39 380,-323.5 380,-320.47 372.73,-318.59 362.31,-317.85"/>
<polygon fill="#9a32cd" stroke="#9a32cd" points="371.78,-324.4 362.31,-329.15 372.68,-331.34 371.78,-324.4"/>
</a>
</g>
<text text-anchor="middle" x="386.5" y="-321" font-family="Helvetica,sans-Serif" font-size="10.00" fill="grey"> cf</text>
</g>
<!-- Node9 -->
<g id="Node000009" class="node">
<title>Node9</title>
<g id="a_Node000009"><a xlink:href="classGAPopulation.html" target="_top" xlink:title=" ">
<polygon fill="white" stroke="#bfbfbf" points="573.5,-130.5 490.5,-130.5 490.5,-111.5 573.5,-111.5 573.5,-130.5"/>
<text text-anchor="middle" x="532" y="-118.5" font-family="Helvetica,sans-Serif" font-size="10.00">GAPopulation</text>
</a>
</g>
</g>
<!-- Node2&#45;&gt;Node9 -->
<g id="edge21_Node000009_Node000002" class="edge">
<title>Node2&#45;&gt;Node9</title>
<g id="a_edge21_Node000009_Node000002"><a xlink:title=" ">
<path fill="none" stroke="#9a32cd" stroke-dasharray="5,2" d="M303.83,-303.71C304.62,-267.4 312.06,-187.86 360,-150 381.51,-133.02 455,-136.69 482,-132 484.7,-131.53 487.49,-131.03 490.29,-130.51"/>
<polygon fill="#9a32cd" stroke="#9a32cd" points="300.33,-303.85 303.76,-313.87 307.33,-303.89 300.33,-303.85"/>
</a>
</g>
<text text-anchor="middle" x="336" y="-220.5" font-family="Helvetica,sans-Serif" font-size="10.00" fill="grey"> ga</text>
</g>
<!-- Node10 -->
<g id="Node000010" class="node">
<title>Node10</title>
<g id="a_Node000010"><a xlink:href="classGAGenome.html" target="_top" xlink:title="The base genome class just defines the genome interface &#45; how to mutate, crossover,...">
<polygon fill="white" stroke="#666666" points="532,-232.5 460,-232.5 460,-213.5 532,-213.5 532,-232.5"/>
<text text-anchor="middle" x="496" y="-220.5" font-family="Helvetica,sans-Serif" font-size="10.00">GAGenome</text>
</a>
</g>
</g>
<!-- Node2&#45;&gt;Node10 -->
<g id="edge12_Node000010_Node000002" class="edge">
<title>Node2&#45;&gt;Node10</title>
<g id="a_edge12_Node000010_Node000002"><a xlink:title=" ">
<path fill="none" stroke="#9a32cd" stroke-dasharray="5,2" d="M372.04,-316.39C391.99,-312.52 413.2,-306.22 431,-296 438.23,-291.85 473.16,-251.05 488.62,-232.77"/>
<polygon fill="#9a32cd" stroke="#9a32cd" points="371.3,-312.97 362.06,-318.16 372.52,-319.86 371.3,-312.97"/>
</a>
</g>
<text text-anchor="middle" x="460" y="-282.5" font-family="Helvetica,sans-Serif" font-size="10.00" fill="grey"> ga</text>
</g>
<!-- Node3 -->
<g id="Node000003" class="node">
<title>Node3</title>
<g id="a_Node000003"><a xlink:href="classGAID.html" target="_top" xlink:title="This defines the identifiers for polymorphic classes.">
<polygon fill="white" stroke="#666666" points="562.5,-399 521.5,-399 521.5,-380 562.5,-380 562.5,-399"/>
<text text-anchor="middle" x="542" y="-387" font-family="Helvetica,sans-Serif" font-size="10.00">GAID</text>
</a>
</g>
</g>
<!-- Node3&#45;&gt;Node2 -->
<g id="edge2_Node000002_Node000003" class="edge">
<title>Node3&#45;&gt;Node2</title>
<g id="a_edge2_Node000002_Node000003"><a xlink:title=" ">
<path fill="none" stroke="#63b8ff" d="M510.97,-383.82C483.4,-379.32 442.14,-371.78 407,-362 377.85,-353.89 345.18,-341.38 324.6,-333.08"/>
<polygon fill="#63b8ff" stroke="#63b8ff" points="510.76,-387.33 521.18,-385.44 511.86,-380.41 510.76,-387.33"/>
</a>
</g>
</g>
<!-- Node3&#45;&gt;Node9 -->
<g id="edge9_Node000009_Node000003" class="edge">
<title>Node3&#45;&gt;Node9</title>
<g id="a_edge9_Node000009_Node000003"><a xlink:title=" ">
<path fill="none" stroke="#63b8ff" d="M514.17,-375.16C476.6,-355.32 411.61,-314.03 388,-256 376.95,-228.83 374.16,-215.86 388,-190 403.12,-161.74 419.21,-164.08 448,-150 464.43,-141.96 483.74,-135.35 499.7,-130.57"/>
<polygon fill="#63b8ff" stroke="#63b8ff" points="513.05,-378.52 523.54,-379.97 516.24,-372.29 513.05,-378.52"/>
</a>
</g>
</g>
<!-- Node3&#45;&gt;Node10 -->
<g id="edge11_Node000010_Node000003" class="edge">
<title>Node3&#45;&gt;Node10</title>
<g id="a_edge11_Node000010_Node000003"><a xlink:title=" ">
<path fill="none" stroke="#63b8ff" d="M541.09,-369.81C539.51,-346.73 535.26,-306.53 524,-274 518.66,-258.58 508.67,-242.4 502.18,-232.76"/>
<polygon fill="#63b8ff" stroke="#63b8ff" points="537.6,-370.14 541.68,-379.92 544.59,-369.73 537.6,-370.14"/>
</a>
</g>
</g>
<!-- Node12 -->
<g id="Node000012" class="node">
<title>Node12</title>
<g id="a_Node000012"><a xlink:href="classGAScalingScheme.html" target="_top" xlink:title=" ">
<polygon fill="white" stroke="#bfbfbf" points="764.5,-294.5 659.5,-294.5 659.5,-275.5 764.5,-275.5 764.5,-294.5"/>
<text text-anchor="middle" x="712" y="-282.5" font-family="Helvetica,sans-Serif" font-size="10.00">GAScalingScheme</text>
</a>
</g>
</g>
<!-- Node3&#45;&gt;Node12 -->
<g id="edge16_Node000012_Node000003" class="edge">
<title>Node3&#45;&gt;Node12</title>
<g id="a_edge16_Node000012_Node000003"><a xlink:title=" ">
<path fill="none" stroke="#63b8ff" d="M572.68,-379.38C599.89,-370.36 639.87,-354.75 670,-333 685.08,-322.11 698.65,-304.96 706.07,-294.66"/>
<polygon fill="#63b8ff" stroke="#63b8ff" points="571.38,-376.13 562.93,-382.52 573.52,-382.79 571.38,-376.13"/>
</a>
</g>
</g>
<!-- Node13 -->
<g id="Node000013" class="node">
<title>Node13</title>
<g id="a_Node000013"><a xlink:href="classGASelectionScheme.html" target="_top" xlink:title=" ">
<polygon fill="white" stroke="#bfbfbf" points="634.5,-19 519.5,-19 519.5,0 634.5,0 634.5,-19"/>
<text text-anchor="middle" x="577" y="-7" font-family="Helvetica,sans-Serif" font-size="10.00">GASelectionScheme</text>
</a>
</g>
</g>
<!-- Node3&#45;&gt;Node13 -->
<g id="edge18_Node000013_Node000003" class="edge">
<title>Node3&#45;&gt;Node13</title>
<g id="a_edge18_Node000013_Node000003"><a xlink:title=" ">
<path fill="none" stroke="#63b8ff" d="M572.85,-386.85C638.27,-382.49 785,-367.89 785,-324.5 785,-324.5 785,-324.5 785,-120 785,-51.75 696.22,-25.94 634.66,-16.25"/>
<polygon fill="#63b8ff" stroke="#63b8ff" points="572.48,-383.36 562.72,-387.48 572.92,-390.35 572.48,-383.36"/>
</a>
</g>
</g>
<!-- Node4 -->
<g id="Node000004" class="node">
<title>Node4</title>
<g id="a_Node000004"><a xlink:href="classGAStatistics.html" target="_top" xlink:title="Statistics class.">
<polygon fill="white" stroke="#666666" points="371,-19 295,-19 295,0 371,0 371,-19"/>
<text text-anchor="middle" x="333" y="-7" font-family="Helvetica,sans-Serif" font-size="10.00">GAStatistics</text>
</a>
</g>
</g>
<!-- Node4&#45;&gt;Node2 -->
<g id="edge3_Node000002_Node000004" class="edge">
<title>Node4&#45;&gt;Node2</title>
<g id="a_edge3_Node000002_Node000004"><a xlink:title=" ">
<path fill="none" stroke="#9a32cd" stroke-dasharray="5,2" d="M284.98,-19.38C238.31,-31.01 170.81,-56.56 145,-110 115.93,-170.18 139.04,-203.98 181,-256 205.16,-285.95 246.55,-304.3 274.58,-313.94"/>
<polygon fill="#9a32cd" stroke="#9a32cd" points="285.96,-22.75 294.89,-17.04 284.35,-15.93 285.96,-22.75"/>
</a>
</g>
<text text-anchor="middle" x="147" y="-158.5" font-family="Helvetica,sans-Serif" font-size="10.00" fill="grey"> stats</text>
</g>
<!-- Node5 -->
<g id="Node000005" class="node">
<title>Node5</title>
<g id="a_Node000005"><a xlink:title=" ">
<polygon fill="white" stroke="#666666" points="258,-130.5 154,-130.5 154,-111.5 258,-111.5 258,-130.5"/>
<text text-anchor="middle" x="206" y="-118.5" font-family="Helvetica,sans-Serif" font-size="10.00">std::vector&lt; int &gt;</text>
</a>
</g>
</g>
<!-- Node5&#45;&gt;Node4 -->
<g id="edge4_Node000004_Node000005" class="edge">
<title>Node5&#45;&gt;Node4</title>
<g id="a_edge4_Node000004_Node000005"><a xlink:title=" ">
<path fill="none" stroke="#9a32cd" stroke-dasharray="5,2" d="M223.88,-104.58C251.02,-81.18 301.7,-37.49 323.08,-19.05"/>
<polygon fill="#9a32cd" stroke="#9a32cd" points="221.25,-102.23 215.97,-111.41 225.82,-107.53 221.25,-102.23"/>
</a>
</g>
<text text-anchor="middle" x="310" y="-62" font-family="Helvetica,sans-Serif" font-size="10.00" fill="grey"> gen</text>
</g>
<!-- Node6 -->
<g id="Node000006" class="node">
<title>Node6</title>
<g id="a_Node000006"><a xlink:title=" ">
<polygon fill="white" stroke="#666666" points="389.5,-130.5 276.5,-130.5 276.5,-111.5 389.5,-111.5 389.5,-130.5"/>
<text text-anchor="middle" x="333" y="-118.5" font-family="Helvetica,sans-Serif" font-size="10.00">std::vector&lt; float &gt;</text>
</a>
</g>
</g>
<!-- Node6&#45;&gt;Node4 -->
<g id="edge5_Node000004_Node000006" class="edge">
<title>Node6&#45;&gt;Node4</title>
<g id="a_edge5_Node000004_Node000006"><a xlink:title=" ">
<path fill="none" stroke="#9a32cd" stroke-dasharray="5,2" d="M333,-101.11C333,-77.08 333,-36.61 333,-19.05"/>
<polygon fill="#9a32cd" stroke="#9a32cd" points="329.5,-101.41 333,-111.41 336.5,-101.41 329.5,-101.41"/>
</a>
</g>
<text text-anchor="middle" x="357.5" y="-84" font-family="Helvetica,sans-Serif" font-size="10.00" fill="grey"> aveScore</text>
<text text-anchor="middle" x="357.5" y="-73" font-family="Helvetica,sans-Serif" font-size="10.00" fill="grey">devScore</text>
<text text-anchor="middle" x="357.5" y="-62" font-family="Helvetica,sans-Serif" font-size="10.00" fill="grey">divScore</text>
<text text-anchor="middle" x="357.5" y="-51" font-family="Helvetica,sans-Serif" font-size="10.00" fill="grey">maxScore</text>
<text text-anchor="middle" x="357.5" y="-40" font-family="Helvetica,sans-Serif" font-size="10.00" fill="grey">minScore</text>
</g>
<!-- Node7 -->
<g id="Node000007" class="node">
<title>Node7</title>
<g id="a_Node000007"><a xlink:title=" ">
<polygon fill="white" stroke="#666666" points="472.5,-130.5 407.5,-130.5 407.5,-111.5 472.5,-111.5 472.5,-130.5"/>
<text text-anchor="middle" x="440" y="-118.5" font-family="Helvetica,sans-Serif" font-size="10.00">std::string</text>
</a>
</g>
</g>
<!-- Node7&#45;&gt;Node4 -->
<g id="edge6_Node000004_Node000007" class="edge">
<title>Node7&#45;&gt;Node4</title>
<g id="a_edge6_Node000004_Node000007"><a xlink:title=" ">
<path fill="none" stroke="#9a32cd" stroke-dasharray="5,2" d="M425.67,-103.53C422.68,-99.83 419.64,-95.85 417,-92 401.15,-68.85 406.33,-56.34 386,-37 377.88,-29.27 367.06,-23.32 357.32,-19.03"/>
<polygon fill="#9a32cd" stroke="#9a32cd" points="423.23,-106.07 432.34,-111.48 428.6,-101.57 423.23,-106.07"/>
</a>
</g>
<text text-anchor="middle" x="439.5" y="-62" font-family="Helvetica,sans-Serif" font-size="10.00" fill="grey"> scorefile</text>
</g>
<!-- Node8 -->
<g id="Node000008" class="node">
<title>Node8</title>
<g id="a_Node000008"><a xlink:title=" ">
<polygon fill="white" stroke="#666666" points="294,-238 190,-238 190,-208 294,-208 294,-238"/>
<text text-anchor="start" x="198" y="-226" font-family="Helvetica,sans-Serif" font-size="10.00">std::basic_string&lt;</text>
<text text-anchor="middle" x="242" y="-215" font-family="Helvetica,sans-Serif" font-size="10.00"> Char &gt;</text>
</a>
</g>
</g>
<!-- Node8&#45;&gt;Node7 -->
<g id="edge7_Node000007_Node000008" class="edge">
<title>Node8&#45;&gt;Node7</title>
<g id="a_edge7_Node000007_Node000008"><a xlink:title=" ">
<path fill="none" stroke="#63b8ff" d="M258.83,-200C272.48,-183.71 293.15,-162.3 316,-150 348.85,-132.31 361.63,-140.32 398,-132 401.07,-131.3 404.26,-130.56 407.45,-129.81"/>
<polygon fill="#63b8ff" stroke="#63b8ff" points="255.94,-198 252.36,-207.97 261.38,-202.42 255.94,-198"/>
</a>
</g>
</g>
<!-- Node9&#45;&gt;Node2 -->
<g id="edge26_Node000002_Node000009" class="edge">
<title>Node9&#45;&gt;Node2</title>
<g id="a_edge26_Node000002_Node000009"><a xlink:title=" ">
<path fill="none" stroke="#9a32cd" stroke-dasharray="5,2" d="M507.72,-135.84C486.12,-148.65 454.15,-168.86 429,-190 379.37,-231.72 329.07,-291.59 311,-313.79"/>
<polygon fill="#9a32cd" stroke="#9a32cd" points="509.71,-138.73 516.57,-130.66 506.17,-132.69 509.71,-138.73"/>
</a>
</g>
<text text-anchor="middle" x="440" y="-220.5" font-family="Helvetica,sans-Serif" font-size="10.00" fill="grey"> pop</text>
</g>
<!-- Node9&#45;&gt;Node4 -->
<g id="edge8_Node000004_Node000009" class="edge">
<title>Node9&#45;&gt;Node4</title>
<g id="a_edge8_Node000004_Node000009"><a xlink:title=" ">
<path fill="none" stroke="#9a32cd" stroke-dasharray="5,2" d="M509.58,-105.21C504.46,-101.26 499.28,-96.76 495,-92 475.95,-70.79 485.26,-53.48 462,-37 435.51,-18.23 398.72,-12.13 371.2,-10.42"/>
<polygon fill="#9a32cd" stroke="#9a32cd" points="507.8,-108.25 517.96,-111.27 511.91,-102.57 507.8,-108.25"/>
</a>
</g>
<text text-anchor="middle" x="506" y="-62" font-family="Helvetica,sans-Serif" font-size="10.00" fill="grey"> boa</text>
</g>
<!-- Node9&#45;&gt;Node9 -->
<g id="edge20_Node000009_Node000009" class="edge">
<title>Node9&#45;&gt;Node9</title>
<g id="a_edge20_Node000009_Node000009"><a xlink:title=" ">
<path fill="none" stroke="#9a32cd" stroke-dasharray="5,2" d="M583.82,-126.96C588.53,-125.72 591.5,-123.73 591.5,-121 591.5,-116.62 583.91,-114.16 573.71,-113.62"/>
<polygon fill="#9a32cd" stroke="#9a32cd" points="583.12,-123.52 573.71,-128.38 584.1,-130.46 583.12,-123.52"/>
</a>
</g>
<text text-anchor="middle" x="604" y="-124" font-family="Helvetica,sans-Serif" font-size="10.00" fill="grey"> eval</text>
<text text-anchor="middle" x="604" y="-113" font-family="Helvetica,sans-Serif" font-size="10.00" fill="grey">init</text>
</g>
<!-- Node9&#45;&gt;Node13 -->
<g id="edge19_Node000013_Node000009" class="edge">
<title>Node9&#45;&gt;Node13</title>
<g id="a_edge19_Node000013_Node000009"><a xlink:title=" ">
<path fill="none" stroke="#9a32cd" stroke-dasharray="5,2" d="M525.94,-101.51C521.29,-83.7 517.41,-56.64 529,-37 533.79,-28.88 542.05,-23.08 550.39,-19.02"/>
<polygon fill="#9a32cd" stroke="#9a32cd" points="522.63,-102.65 528.81,-111.25 529.34,-100.67 522.63,-102.65"/>
</a>
</g>
<text text-anchor="middle" x="540" y="-62" font-family="Helvetica,sans-Serif" font-size="10.00" fill="grey"> pop</text>
</g>
<!-- Node10&#45;&gt;Node2 -->
<g id="edge28_Node000002_Node000010" class="edge">
<title>Node10&#45;&gt;Node2</title>
<g id="a_edge28_Node000002_Node000010"><a xlink:title=" ">
<path fill="none" stroke="#9a32cd" stroke-dasharray="5,2" d="M494.43,-242.85C492,-259.43 485.81,-282.92 470,-296 453.81,-309.4 403.31,-316.11 362.22,-319.41"/>
<polygon fill="#9a32cd" stroke="#9a32cd" points="497.94,-243.01 495.59,-232.68 490.98,-242.22 497.94,-243.01"/>
</a>
</g>
<text text-anchor="middle" x="502.5" y="-288" font-family="Helvetica,sans-Serif" font-size="10.00" fill="grey"> across</text>
<text text-anchor="middle" x="502.5" y="-277" font-family="Helvetica,sans-Serif" font-size="10.00" fill="grey">scross</text>
</g>
<!-- Node10&#45;&gt;Node9 -->
<g id="edge10_Node000009_Node000010" class="edge">
<title>Node10&#45;&gt;Node9</title>
<g id="a_edge10_Node000009_Node000010"><a xlink:title=" ">
<path fill="none" stroke="#9a32cd" stroke-dasharray="5,2" d="M502.55,-203.79C510.38,-182.06 523.13,-146.65 528.94,-130.5"/>
<polygon fill="#9a32cd" stroke="#9a32cd" points="499.16,-202.88 499.07,-213.47 505.75,-205.25 499.16,-202.88"/>
</a>
</g>
<text text-anchor="middle" x="532" y="-164" font-family="Helvetica,sans-Serif" font-size="10.00" fill="grey"> rind</text>
<text text-anchor="middle" x="532" y="-153" font-family="Helvetica,sans-Serif" font-size="10.00" fill="grey">sind</text>
</g>
<!-- Node10&#45;&gt;Node10 -->
<g id="edge13_Node000010_Node000010" class="edge">
<title>Node10&#45;&gt;Node10</title>
<g id="a_edge13_Node000010_Node000010"><a xlink:title=" ">
<path fill="none" stroke="#9a32cd" stroke-dasharray="5,2" d="M524.76,-234.38C538.22,-235.66 550,-231.87 550,-223 550,-211.98 531.8,-208.8 514.82,-213.44"/>
<polygon fill="#9a32cd" stroke="#9a32cd" points="525.29,-230.92 514.82,-232.56 524.02,-237.81 525.29,-230.92"/>
</a>
</g>
<text text-anchor="middle" x="576" y="-248" font-family="Helvetica,sans-Serif" font-size="10.00" fill="grey"> asexcross</text>
<text text-anchor="middle" x="576" y="-237" font-family="Helvetica,sans-Serif" font-size="10.00" fill="grey">cmp</text>
<text text-anchor="middle" x="576" y="-226" font-family="Helvetica,sans-Serif" font-size="10.00" fill="grey">eval</text>
<text text-anchor="middle" x="576" y="-215" font-family="Helvetica,sans-Serif" font-size="10.00" fill="grey">init</text>
<text text-anchor="middle" x="576" y="-204" font-family="Helvetica,sans-Serif" font-size="10.00" fill="grey">mutr</text>
<text text-anchor="middle" x="576" y="-193" font-family="Helvetica,sans-Serif" font-size="10.00" fill="grey">sexcross</text>
</g>
<!-- Node11 -->
<g id="Node000011" class="node">
<title>Node11</title>
<g id="a_Node000011"><a xlink:href="classGAEvalData.html" target="_top" xlink:title="This is the basic interface for the object that contains evaluation data.">
<polygon fill="white" stroke="#666666" points="660.5,-333 585.5,-333 585.5,-314 660.5,-314 660.5,-333"/>
<text text-anchor="middle" x="623" y="-321" font-family="Helvetica,sans-Serif" font-size="10.00">GAEvalData</text>
</a>
</g>
</g>
<!-- Node11&#45;&gt;Node9 -->
<g id="edge22_Node000009_Node000011" class="edge">
<title>Node11&#45;&gt;Node9</title>
<g id="a_edge22_Node000009_Node000011"><a xlink:title=" ">
<path fill="none" stroke="#9a32cd" stroke-dasharray="5,2" d="M625.51,-303.9C628.24,-277.11 629.96,-226.84 611,-190 596.92,-162.64 566.71,-141.63 547.99,-130.6"/>
<polygon fill="#9a32cd" stroke="#9a32cd" points="622.04,-303.49 624.34,-313.83 628.99,-304.31 622.04,-303.49"/>
</a>
</g>
<text text-anchor="middle" x="649" y="-220.5" font-family="Helvetica,sans-Serif" font-size="10.00" fill="grey"> evaldata</text>
</g>
<!-- Node11&#45;&gt;Node10 -->
<g id="edge14_Node000010_Node000011" class="edge">
<title>Node11&#45;&gt;Node10</title>
<g id="a_edge14_Node000010_Node000011"><a xlink:title=" ">
<path fill="none" stroke="#9a32cd" stroke-dasharray="5,2" d="M603.79,-307.6C576.84,-286.7 528.7,-249.36 507.06,-232.58"/>
<polygon fill="#9a32cd" stroke="#9a32cd" points="601.68,-310.4 611.73,-313.76 605.97,-304.86 601.68,-310.4"/>
</a>
</g>
<text text-anchor="middle" x="596" y="-282.5" font-family="Helvetica,sans-Serif" font-size="10.00" fill="grey"> evd</text>
</g>
<!-- Node12&#45;&gt;Node9 -->
<g id="edge15_Node000009_Node000012" class="edge">
<title>Node12&#45;&gt;Node9</title>
<g id="a_edge15_Node000009_Node000012"><a xlink:title=" ">
<path fill="none" stroke="#9a32cd" stroke-dasharray="5,2" d="M709.93,-265.38C707.14,-245.7 700.96,-214.21 688,-190 676.71,-168.91 672.59,-162.17 652,-150 628.24,-135.96 597.95,-128.96 573.75,-125.47"/>
<polygon fill="#9a32cd" stroke="#9a32cd" points="706.48,-265.98 711.2,-275.46 713.42,-265.1 706.48,-265.98"/>
</a>
</g>
<text text-anchor="middle" x="726.5" y="-220.5" font-family="Helvetica,sans-Serif" font-size="10.00" fill="grey"> sclscm</text>
</g>
<!-- Node13&#45;&gt;Node9 -->
<g id="edge17_Node000009_Node000013" class="edge">
<title>Node13&#45;&gt;Node9</title>
<g id="a_edge17_Node000009_Node000013"><a xlink:title=" ">
<path fill="none" stroke="#9a32cd" stroke-dasharray="5,2" d="M574.25,-29.32C571.23,-46.39 565.36,-71.89 555,-92 551.31,-99.16 545.56,-106.16 540.73,-111.37"/>
<polygon fill="#9a32cd" stroke="#9a32cd" points="577.77,-29.45 575.91,-19.02 570.86,-28.34 577.77,-29.45"/>
</a>
</g>
<text text-anchor="middle" x="582.5" y="-62" font-family="Helvetica,sans-Serif" font-size="10.00" fill="grey"> slct</text>
</g>
<!-- Node14 -->
<g id="Node000014" class="node">
<title>Node14</title>
<g id="a_Node000014"><a xlink:href="classGAParameterList.html" target="_top" xlink:title="Parameter List.">
<polygon fill="white" stroke="#666666" points="353,-399 255,-399 255,-380 353,-380 353,-399"/>
<text text-anchor="middle" x="304" y="-387" font-family="Helvetica,sans-Serif" font-size="10.00">GAParameterList</text>
</a>
</g>
</g>
<!-- Node14&#45;&gt;Node2 -->
<g id="edge23_Node000002_Node000014" class="edge">
<title>Node14&#45;&gt;Node2</title>
<g id="a_edge23_Node000002_Node000014"><a xlink:title=" ">
<path fill="none" stroke="#9a32cd" stroke-dasharray="5,2" d="M304,-369.58C304,-357.63 304,-342.72 304,-333.41"/>
<polygon fill="#9a32cd" stroke="#9a32cd" points="300.5,-369.87 304,-379.87 307.5,-369.87 300.5,-369.87"/>
</a>
</g>
<text text-anchor="middle" x="324" y="-354" font-family="Helvetica,sans-Serif" font-size="10.00" fill="grey"> params</text>
</g>
<!-- Node15 -->
<g id="Node000015" class="node">
<title>Node15</title>
<g id="a_Node000015"><a xlink:title=" ">
<polygon fill="white" stroke="#666666" points="344.5,-455 263.5,-455 263.5,-436 344.5,-436 344.5,-455"/>
<text text-anchor="middle" x="304" y="-443" font-family="Helvetica,sans-Serif" font-size="10.00">std::list&lt; T &gt;</text>
</a>
</g>
</g>
<!-- Node15&#45;&gt;Node14 -->
<g id="edge24_Node000014_Node000015" class="edge">
<title>Node15&#45;&gt;Node14</title>
<g id="a_edge24_Node000014_Node000015"><a xlink:title=" ">
<path fill="none" stroke="#63b8ff" d="M304,-425.3C304,-416.41 304,-406.28 304,-399.25"/>
<polygon fill="#63b8ff" stroke="#63b8ff" points="300.5,-425.58 304,-435.58 307.5,-425.58 300.5,-425.58"/>
</a>
</g>
</g>
<!-- Node16 -->
<g id="Node000016" class="node">
<title>Node16</title>
<g id="a_Node000016"><a xlink:title=" ">
<polygon fill="white" stroke="#bfbfbf" points="318.5,-521 289.5,-521 289.5,-502 318.5,-502 318.5,-521"/>
<text text-anchor="middle" x="304" y="-509" font-family="Helvetica,sans-Serif" font-size="10.00">T</text>
</a>
</g>
</g>
<!-- Node16&#45;&gt;Node15 -->
<g id="edge25_Node000015_Node000016" class="edge">
<title>Node16&#45;&gt;Node15</title>
<g id="a_edge25_Node000015_Node000016"><a xlink:title=" ">
<path fill="none" stroke="#9a32cd" stroke-dasharray="5,2" d="M304,-491.58C304,-479.63 304,-464.72 304,-455.41"/>
<polygon fill="#9a32cd" stroke="#9a32cd" points="300.5,-491.87 304,-501.87 307.5,-491.87 300.5,-491.87"/>
</a>
</g>
<text text-anchor="middle" x="328.5" y="-476" font-family="Helvetica,sans-Serif" font-size="10.00" fill="grey"> elements</text>
</g>
</g>
</svg>

<g id="navigator" transform="translate(0 0)" fill="#404254">
  <rect fill="#f2f5e9" fill-opacity="0.5" stroke="#606060" stroke-width=".5" x="0" y="0" width="60" height="60"/>
  <use id="zoomplus" xlink:href="#zoomPlus" x="17" y="9" onmousedown="handleZoom(evt,'in')"/>
  <use id="zoomminus" xlink:href="#zoomMin" x="42" y="9" onmousedown="handleZoom(evt,'out')"/>
  <use id="reset" xlink:href="#resetDef" x="30" y="36" onmousedown="handleReset()"/>
   <use id="arrowup" xlink:href="#arrowUp" x="0" y="0" onmousedown="handlePan(0,-1)"/>
  <use id="arrowright" xlink:href="#arrowRight" x="0" y="0" onmousedown="handlePan(1,0)"/>
  <use id="arrowdown" xlink:href="#arrowDown" x="0" y="0" onmousedown="handlePan(0,1)"/>
  <use id="arrowleft" xlink:href="#arrowLeft" x="0" y="0" onmousedown="handlePan(-1,0)"/>
</g>
<svg viewBox="0 0 15 15" width="100%" height="30px" preserveAspectRatio="xMaxYMin meet">
 <g id="arrow_out" transform="scale(0.3 0.3)">
  <a xlink:href="classGADCrowdingGA__coll__graph_org.svg" target="_base">
   <rect id="button" ry="5" rx="5" y="6" x="6" height="38" width="38"
        fill="#f2f5e9" fill-opacity="0.5" stroke="#606060" stroke-width="1.0"/>
   <path id="arrow"
     d="M 11.500037,31.436501 C 11.940474,20.09759 22.043105,11.32322 32.158766,21.979434 L 37.068811,17.246167 C 37.068811,17.246167 37.088388,32 37.088388,32 L 22.160133,31.978069 C 22.160133,31.978069 26.997745,27.140456 26.997745,27.140456 C 18.528582,18.264221 13.291696,25.230495 11.500037,31.436501 z"
     style="fill:#404040;"/>
  </a>
 </g>
</svg>

<style type='text/css'>
<![CDATA[
[data-mouse-over-selected='false'] { opacity: 0.7; }
[data-mouse-over-selected='true']  { opacity: 1.0; }
]]>
</style>
<script type="application/ecmascript"><![CDATA[
document.addEventListener('DOMContentLoaded', (event) => {
  highlightEdges();
  highlightAdjacentNodes();
});
]]></script>
</svg>
