<?xml version="1.0" encoding="UTF-8" standalone="no"?>
<!DOCTYPE svg PUBLIC "-//W3C//DTD SVG 1.1//EN"
 "http://www.w3.org/Graphics/SVG/1.1/DTD/svg11.dtd">
<!-- Generated by graphviz version 2.43.0 (0)
 -->
<!-- Title: GAListGenome&lt; T &gt; Pages: 1 -->
<!--zoomable 526 -->
<svg id="main" version="1.1" xmlns="http://www.w3.org/2000/svg" xmlns:xlink="http://www.w3.org/1999/xlink" xml:space="preserve" onload="init(evt)">
<style type="text/css"><![CDATA[
.edge:hover path { stroke: red; }
.edge:hover polygon { stroke: red; fill: red; }
]]></style>
<script type="text/javascript"><![CDATA[
var edges = document.getElementsByTagName('g');
if (edges && edges.length) {
  for (var i=0;i<edges.length;i++) {
    if (edges[i].id.substr(0,4)=='edge') {
      edges[i].setAttribute('class','edge');
    }
  }
}
]]></script>
        <defs>
                <circle id="rim" cx="0" cy="0" r="7"/>
                <circle id="rim2" cx="0" cy="0" r="3.5"/>
                <g id="zoomPlus">
                        <use xlink:href="#rim" fill="#404040">
                                <set attributeName="fill" to="#808080" begin="zoomplus.mouseover" end="zoomplus.mouseout"/>
                        </use>
                        <path d="M-4,0h8M0,-4v8" fill="none" stroke="white" stroke-width="1.5" pointer-events="none"/>
                </g>
                <g id="zoomMin">
                        <use xlink:href="#rim" fill="#404040">
                                <set attributeName="fill" to="#808080" begin="zoomminus.mouseover" end="zoomminus.mouseout"/>
                        </use>
                        <path d="M-4,0h8" fill="none" stroke="white" stroke-width="1.5" pointer-events="none"/>
                </g>
                <g id="dirArrow">
                        <path fill="none" stroke="white" stroke-width="1.5" d="M0,-3.0v7 M-2.5,-0.5L0,-3.0L2.5,-0.5"/>
                </g>
               <g id="resetDef">
                       <use xlink:href="#rim2" fill="#404040">
                               <set attributeName="fill" to="#808080" begin="reset.mouseover" end="reset.mouseout"/>
                       </use>
               </g>
        </defs>

<script type="text/javascript">
var viewWidth = 1042;
var viewHeight = 526;
var sectionId = 'dynsection-1';
</script>
<script xlink:href="svgpan.js"/>
<svg id="graph" class="graph">
<g id="viewport">
<title>GAListGenome&lt; T &gt;</title>
<polygon fill="white" stroke="transparent" points="-4,4 -4,-521.5 1038,-521.5 1038,4 -4,4"/>
<!-- Node1 -->
<g id="node1" class="node">
<title>Node1</title>
<g id="a_node1"><a xlink:title=" ">
<polygon fill="#bfbfbf" stroke="black" points="545,-275 545,-294 663,-294 663,-275 545,-275"/>
<text text-anchor="middle" x="604" y="-282" font-family="Helvetica,sans-Serif" font-size="10.00">GAListGenome&lt; T &gt;</text>
</a>
</g>
</g>
<!-- Node2 -->
<g id="node2" class="node">
<title>Node2</title>
<g id="a_node2"><a xlink:href="classGAList.html" target="_top" xlink:title="This object is a container for nodes that have a list structure.">
<polygon fill="white" stroke="black" points="316.5,-436 316.5,-455 393.5,-455 393.5,-436 316.5,-436"/>
<text text-anchor="middle" x="355" y="-443" font-family="Helvetica,sans-Serif" font-size="10.00">GAList&lt; T &gt;</text>
</a>
</g>
</g>
<!-- Node2&#45;&gt;Node1 -->
<g id="edge1" class="edge">
<title>Node2&#45;&gt;Node1</title>
<path fill="none" stroke="midnightblue" d="M403.71,-438.27C441.12,-430.43 492.46,-414.59 527,-383.5 540.59,-371.27 534.64,-361.57 545,-346.5 559.03,-326.1 579.63,-305.77 592.13,-294.21"/>
<polygon fill="midnightblue" stroke="midnightblue" points="402.69,-434.9 393.56,-440.28 404.05,-441.77 402.69,-434.9"/>
</g>
<!-- Node3 -->
<g id="node3" class="node">
<title>Node3</title>
<g id="a_node3"><a xlink:href="classGAListBASE.html" target="_top" xlink:title=" ">
<polygon fill="white" stroke="black" points="170.5,-436 170.5,-455 244.5,-455 244.5,-436 170.5,-436"/>
<text text-anchor="middle" x="207.5" y="-443" font-family="Helvetica,sans-Serif" font-size="10.00">GAListBASE</text>
</a>
</g>
</g>
<!-- Node3&#45;&gt;Node2 -->
<g id="edge2" class="edge">
<title>Node3&#45;&gt;Node2</title>
<path fill="none" stroke="midnightblue" d="M254.9,-445.5C274.73,-445.5 297.59,-445.5 316.35,-445.5"/>
<polygon fill="midnightblue" stroke="midnightblue" points="254.84,-442 244.84,-445.5 254.84,-449 254.84,-442"/>
</g>
<!-- Node4 -->
<g id="node4" class="node">
<title>Node4</title>
<g id="a_node4"><a xlink:href="structGANodeBASE.html" target="_top" xlink:title="This is the basic node object.">
<polygon fill="white" stroke="black" points="0,-436 0,-455 82,-455 82,-436 0,-436"/>
<text text-anchor="middle" x="41" y="-443" font-family="Helvetica,sans-Serif" font-size="10.00">GANodeBASE</text>
</a>
</g>
</g>
<!-- Node4&#45;&gt;Node3 -->
<g id="edge3" class="edge">
<title>Node4&#45;&gt;Node3</title>
<path fill="none" stroke="#9a32cd" stroke-dasharray="5,2" d="M92.35,-445.5C117.53,-445.5 147.44,-445.5 170.32,-445.5"/>
<polygon fill="#9a32cd" stroke="#9a32cd" points="92.24,-442 82.24,-445.5 92.24,-449 92.24,-442"/>
<text text-anchor="middle" x="124.5" y="-448.5" font-family="Helvetica,sans-Serif" font-size="10.00"> hd</text>
</g>
<!-- Node4&#45;&gt;Node4 -->
<g id="edge4" class="edge">
<title>Node4&#45;&gt;Node4</title>
<path fill="none" stroke="#9a32cd" stroke-dasharray="5,2" d="M25.9,-465.27C27.09,-470 32.12,-473.5 41,-473.5 55.57,-473.5 59.79,-464.07 53.64,-455.26"/>
<polygon fill="#9a32cd" stroke="#9a32cd" points="29.37,-465.8 28.36,-455.26 22.57,-464.13 29.37,-465.8"/>
<text text-anchor="middle" x="41" y="-509.5" font-family="Helvetica,sans-Serif" font-size="10.00"> child</text>
<text text-anchor="middle" x="41" y="-498.5" font-family="Helvetica,sans-Serif" font-size="10.00">next</text>
<text text-anchor="middle" x="41" y="-487.5" font-family="Helvetica,sans-Serif" font-size="10.00">parent</text>
<text text-anchor="middle" x="41" y="-476.5" font-family="Helvetica,sans-Serif" font-size="10.00">prev</text>
</g>
<!-- Node5 -->
<g id="node5" class="node">
<title>Node5</title>
<g id="a_node5"><a xlink:href="classGAGenome.html" target="_top" xlink:title=" ">
<polygon fill="white" stroke="black" points="319,-191 319,-210 391,-210 391,-191 319,-191"/>
<text text-anchor="middle" x="355" y="-198" font-family="Helvetica,sans-Serif" font-size="10.00">GAGenome</text>
</a>
</g>
</g>
<!-- Node5&#45;&gt;Node1 -->
<g id="edge5" class="edge">
<title>Node5&#45;&gt;Node1</title>
<path fill="none" stroke="midnightblue" d="M374.14,-217.04C386.7,-227.61 404.28,-240.75 422,-248.5 461.04,-265.59 508.37,-274.64 544.83,-279.39"/>
<polygon fill="midnightblue" stroke="midnightblue" points="376.15,-214.15 366.3,-210.23 371.55,-219.44 376.15,-214.15"/>
</g>
<!-- Node5&#45;&gt;Node5 -->
<g id="edge32" class="edge">
<title>Node5&#45;&gt;Node5</title>
<path fill="none" stroke="#9a32cd" stroke-dasharray="5,2" d="M340.64,-220.27C341.76,-225 346.55,-228.5 355,-228.5 368.86,-228.5 372.87,-219.07 367.02,-210.26"/>
<polygon fill="#9a32cd" stroke="#9a32cd" points="344.11,-220.79 342.98,-210.26 337.29,-219.2 344.11,-220.79"/>
<text text-anchor="middle" x="355" y="-286.5" font-family="Helvetica,sans-Serif" font-size="10.00"> asexcross</text>
<text text-anchor="middle" x="355" y="-275.5" font-family="Helvetica,sans-Serif" font-size="10.00">cmp</text>
<text text-anchor="middle" x="355" y="-264.5" font-family="Helvetica,sans-Serif" font-size="10.00">eval</text>
<text text-anchor="middle" x="355" y="-253.5" font-family="Helvetica,sans-Serif" font-size="10.00">init</text>
<text text-anchor="middle" x="355" y="-242.5" font-family="Helvetica,sans-Serif" font-size="10.00">mutr</text>
<text text-anchor="middle" x="355" y="-231.5" font-family="Helvetica,sans-Serif" font-size="10.00">sexcross</text>
</g>
<!-- Node7 -->
<g id="node7" class="node">
<title>Node7</title>
<g id="a_node7"><a xlink:href="classGAGeneticAlgorithm.html" target="_top" xlink:title=" ">
<polygon fill="white" stroke="black" points="546,-150 546,-169 662,-169 662,-150 546,-150"/>
<text text-anchor="middle" x="604" y="-157" font-family="Helvetica,sans-Serif" font-size="10.00">GAGeneticAlgorithm</text>
</a>
</g>
</g>
<!-- Node5&#45;&gt;Node7 -->
<g id="edge30" class="edge">
<title>Node5&#45;&gt;Node7</title>
<path fill="none" stroke="#9a32cd" stroke-dasharray="5,2" d="M375.94,-184.48C388.39,-175.53 405.19,-165.25 422,-160.5 462.22,-149.14 509.5,-149.32 545.66,-152.11"/>
<polygon fill="#9a32cd" stroke="#9a32cd" points="373.6,-181.86 367.71,-190.67 377.81,-187.46 373.6,-181.86"/>
<text text-anchor="middle" x="474.5" y="-174.5" font-family="Helvetica,sans-Serif" font-size="10.00"> across</text>
<text text-anchor="middle" x="474.5" y="-163.5" font-family="Helvetica,sans-Serif" font-size="10.00">scross</text>
</g>
<!-- Node8 -->
<g id="node8" class="node">
<title>Node8</title>
<g id="a_node8"><a xlink:href="classGAPopulation.html" target="_top" xlink:title=" ">
<polygon fill="white" stroke="black" points="736,-226 736,-245 819,-245 819,-226 736,-226"/>
<text text-anchor="middle" x="777.5" y="-233" font-family="Helvetica,sans-Serif" font-size="10.00">GAPopulation</text>
</a>
</g>
</g>
<!-- Node5&#45;&gt;Node8 -->
<g id="edge20" class="edge">
<title>Node5&#45;&gt;Node8</title>
<path fill="none" stroke="#9a32cd" stroke-dasharray="5,2" d="M401.15,-210.22C408.11,-211.47 415.23,-212.63 422,-213.5 535.14,-228.09 669.89,-233.08 735.93,-234.73"/>
<polygon fill="#9a32cd" stroke="#9a32cd" points="401.62,-206.74 391.14,-208.32 400.31,-213.62 401.62,-206.74"/>
<text text-anchor="middle" x="604" y="-245.5" font-family="Helvetica,sans-Serif" font-size="10.00"> rind</text>
<text text-anchor="middle" x="604" y="-234.5" font-family="Helvetica,sans-Serif" font-size="10.00">sind</text>
</g>
<!-- Node6 -->
<g id="node6" class="node">
<title>Node6</title>
<g id="a_node6"><a xlink:href="classGAID.html" target="_top" xlink:title=" ">
<polygon fill="white" stroke="black" points="187,-313 187,-332 228,-332 228,-313 187,-313"/>
<text text-anchor="middle" x="207.5" y="-320" font-family="Helvetica,sans-Serif" font-size="10.00">GAID</text>
</a>
</g>
</g>
<!-- Node6&#45;&gt;Node5 -->
<g id="edge6" class="edge">
<title>Node6&#45;&gt;Node5</title>
<path fill="none" stroke="midnightblue" d="M227.79,-306.33C258.56,-280.52 317.82,-230.83 342.64,-210.03"/>
<polygon fill="midnightblue" stroke="midnightblue" points="225.33,-303.82 219.92,-312.93 229.83,-309.18 225.33,-303.82"/>
</g>
<!-- Node6&#45;&gt;Node7 -->
<g id="edge8" class="edge">
<title>Node6&#45;&gt;Node7</title>
<path fill="none" stroke="midnightblue" d="M216.53,-303.54C230.34,-273.22 261.45,-213.94 306,-181.5 381.86,-126.26 499.44,-138.29 561.45,-149.97"/>
<polygon fill="midnightblue" stroke="midnightblue" points="213.21,-302.4 212.38,-312.97 219.61,-305.23 213.21,-302.4"/>
</g>
<!-- Node6&#45;&gt;Node8 -->
<g id="edge11" class="edge">
<title>Node6&#45;&gt;Node8</title>
<path fill="none" stroke="midnightblue" d="M238.07,-326.19C311.75,-334.33 508.68,-349.68 663,-303.5 703.93,-291.25 745.3,-260.9 764.86,-245.22"/>
<polygon fill="midnightblue" stroke="midnightblue" points="238.45,-322.71 228.11,-325.05 237.65,-329.66 238.45,-322.71"/>
</g>
<!-- Node9 -->
<g id="node9" class="node">
<title>Node9</title>
<g id="a_node9"><a xlink:href="classGAScalingScheme.html" target="_top" xlink:title=" ">
<polygon fill="white" stroke="black" points="422,-355 422,-374 527,-374 527,-355 422,-355"/>
<text text-anchor="middle" x="474.5" y="-362" font-family="Helvetica,sans-Serif" font-size="10.00">GAScalingScheme</text>
</a>
</g>
</g>
<!-- Node6&#45;&gt;Node9 -->
<g id="edge13" class="edge">
<title>Node6&#45;&gt;Node9</title>
<path fill="none" stroke="midnightblue" d="M238.05,-330.32C246.99,-332.52 256.86,-334.77 266,-336.5 318.69,-346.44 379.55,-354.22 421.67,-359.03"/>
<polygon fill="midnightblue" stroke="midnightblue" points="238.63,-326.86 228.08,-327.81 236.92,-333.65 238.63,-326.86"/>
</g>
<!-- Node10 -->
<g id="node10" class="node">
<title>Node10</title>
<g id="a_node10"><a xlink:href="classGASelectionScheme.html" target="_top" xlink:title=" ">
<polygon fill="white" stroke="black" points="919,-294 919,-313 1034,-313 1034,-294 919,-294"/>
<text text-anchor="middle" x="976.5" y="-301" font-family="Helvetica,sans-Serif" font-size="10.00">GASelectionScheme</text>
</a>
</g>
</g>
<!-- Node6&#45;&gt;Node10 -->
<g id="edge17" class="edge">
<title>Node6&#45;&gt;Node10</title>
<path fill="none" stroke="midnightblue" d="M224.48,-339.59C249.52,-364.41 300.68,-407.5 354,-407.5 354,-407.5 354,-407.5 778.5,-407.5 858.94,-407.5 938.72,-338.84 965.8,-313.1"/>
<polygon fill="midnightblue" stroke="midnightblue" points="226.8,-336.95 217.3,-332.25 221.8,-341.85 226.8,-336.95"/>
</g>
<!-- Node7&#45;&gt;Node5 -->
<g id="edge7" class="edge">
<title>Node7&#45;&gt;Node5</title>
<path fill="none" stroke="#9a32cd" stroke-dasharray="5,2" d="M571.13,-172.9C557.73,-177.99 541.84,-183.31 527,-186.5 480.69,-196.44 425.94,-199.44 391.1,-200.28"/>
<polygon fill="#9a32cd" stroke="#9a32cd" points="572.8,-176.01 580.83,-169.1 570.24,-169.49 572.8,-176.01"/>
<text text-anchor="middle" x="474.5" y="-201.5" font-family="Helvetica,sans-Serif" font-size="10.00"> ga</text>
</g>
<!-- Node7&#45;&gt;Node7 -->
<g id="edge9" class="edge">
<title>Node7&#45;&gt;Node7</title>
<path fill="none" stroke="#9a32cd" stroke-dasharray="5,2" d="M587.7,-178.9C588.79,-183.81 594.22,-187.5 604,-187.5 619.64,-187.5 624.16,-178.07 617.56,-169.26"/>
<polygon fill="#9a32cd" stroke="#9a32cd" points="591.08,-179.83 590.44,-169.26 584.34,-177.92 591.08,-179.83"/>
<text text-anchor="middle" x="604" y="-190.5" font-family="Helvetica,sans-Serif" font-size="10.00"> cf</text>
</g>
<!-- Node7&#45;&gt;Node8 -->
<g id="edge14" class="edge">
<title>Node7&#45;&gt;Node8</title>
<path fill="none" stroke="#9a32cd" stroke-dasharray="5,2" d="M636.28,-173.36C670.68,-188.6 725.03,-212.69 754.96,-225.95"/>
<polygon fill="#9a32cd" stroke="#9a32cd" points="637.28,-169.98 626.72,-169.13 634.45,-176.38 637.28,-169.98"/>
<text text-anchor="middle" x="692" y="-204.5" font-family="Helvetica,sans-Serif" font-size="10.00"> ga</text>
</g>
<!-- Node8&#45;&gt;Node7 -->
<g id="edge10" class="edge">
<title>Node8&#45;&gt;Node7</title>
<path fill="none" stroke="#9a32cd" stroke-dasharray="5,2" d="M762.01,-218.04C748.44,-202.99 726.73,-182.07 703,-171.5 690.4,-165.88 676.03,-162.61 662.25,-160.77"/>
<polygon fill="#9a32cd" stroke="#9a32cd" points="759.47,-220.45 768.68,-225.69 764.75,-215.85 759.47,-220.45"/>
<text text-anchor="middle" x="692" y="-174.5" font-family="Helvetica,sans-Serif" font-size="10.00"> pop</text>
</g>
<!-- Node8&#45;&gt;Node8 -->
<g id="edge15" class="edge">
<title>Node8&#45;&gt;Node8</title>
<path fill="none" stroke="#9a32cd" stroke-dasharray="5,2" d="M762.03,-255.27C763.25,-260 768.4,-263.5 777.5,-263.5 792.43,-263.5 796.75,-254.07 790.45,-245.26"/>
<polygon fill="#9a32cd" stroke="#9a32cd" points="765.5,-255.81 764.55,-245.26 758.72,-254.1 765.5,-255.81"/>
<text text-anchor="middle" x="777.5" y="-277.5" font-family="Helvetica,sans-Serif" font-size="10.00"> eval</text>
<text text-anchor="middle" x="777.5" y="-266.5" font-family="Helvetica,sans-Serif" font-size="10.00">init</text>
</g>
<!-- Node8&#45;&gt;Node10 -->
<g id="edge18" class="edge">
<title>Node8&#45;&gt;Node10</title>
<path fill="none" stroke="#9a32cd" stroke-dasharray="5,2" d="M829.01,-246.98C851.35,-252.6 877.77,-259.99 901,-268.5 920.86,-275.78 942.66,-286.34 957.51,-293.95"/>
<polygon fill="#9a32cd" stroke="#9a32cd" points="829.6,-243.52 819.05,-244.52 827.93,-250.32 829.6,-243.52"/>
<text text-anchor="middle" x="876.5" y="-271.5" font-family="Helvetica,sans-Serif" font-size="10.00"> pop</text>
</g>
<!-- Node12 -->
<g id="node12" class="node">
<title>Node12</title>
<g id="a_node12"><a xlink:href="classGAStatistics.html" target="_top" xlink:title=" ">
<polygon fill="white" stroke="black" points="938.5,-114 938.5,-133 1014.5,-133 1014.5,-114 938.5,-114"/>
<text text-anchor="middle" x="976.5" y="-121" font-family="Helvetica,sans-Serif" font-size="10.00">GAStatistics</text>
</a>
</g>
</g>
<!-- Node8&#45;&gt;Node12 -->
<g id="edge22" class="edge">
<title>Node8&#45;&gt;Node12</title>
<path fill="none" stroke="#9a32cd" stroke-dasharray="5,2" d="M829.1,-229.99C852.25,-225.79 879.28,-218.42 901,-205.5 932.57,-186.72 958.5,-150.32 969.64,-133.04"/>
<polygon fill="#9a32cd" stroke="#9a32cd" points="828.4,-226.55 819.11,-231.65 829.55,-233.46 828.4,-226.55"/>
<text text-anchor="middle" x="876.5" y="-227.5" font-family="Helvetica,sans-Serif" font-size="10.00"> boa</text>
</g>
<!-- Node9&#45;&gt;Node8 -->
<g id="edge12" class="edge">
<title>Node9&#45;&gt;Node8</title>
<path fill="none" stroke="#9a32cd" stroke-dasharray="5,2" d="M537.11,-369.75C585.45,-370.98 652.74,-366.09 703,-336.5 740.19,-314.61 763.97,-265.72 772.72,-245.04"/>
<polygon fill="#9a32cd" stroke="#9a32cd" points="537.21,-366.25 527.1,-369.4 536.97,-373.24 537.21,-366.25"/>
<text text-anchor="middle" x="604" y="-372.5" font-family="Helvetica,sans-Serif" font-size="10.00"> sclscm</text>
</g>
<!-- Node10&#45;&gt;Node8 -->
<g id="edge16" class="edge">
<title>Node10&#45;&gt;Node8</title>
<path fill="none" stroke="#9a32cd" stroke-dasharray="5,2" d="M908.95,-296.43C890.14,-293.16 869.92,-288.4 852,-281.5 828.54,-272.46 804.41,-255.64 790.47,-245.04"/>
<polygon fill="#9a32cd" stroke="#9a32cd" points="908.51,-299.9 918.94,-298.05 909.63,-293 908.51,-299.9"/>
<text text-anchor="middle" x="876.5" y="-296.5" font-family="Helvetica,sans-Serif" font-size="10.00"> slct</text>
</g>
<!-- Node11 -->
<g id="node11" class="node">
<title>Node11</title>
<g id="a_node11"><a xlink:href="classGAEvalData.html" target="_top" xlink:title=" ">
<polygon fill="white" stroke="black" points="170,-50 170,-69 245,-69 245,-50 170,-50"/>
<text text-anchor="middle" x="207.5" y="-57" font-family="Helvetica,sans-Serif" font-size="10.00">GAEvalData</text>
</a>
</g>
</g>
<!-- Node11&#45;&gt;Node5 -->
<g id="edge31" class="edge">
<title>Node11&#45;&gt;Node5</title>
<path fill="none" stroke="#9a32cd" stroke-dasharray="5,2" d="M241.43,-74.03C243.72,-75.43 245.94,-76.92 248,-78.5 292.83,-112.72 332.61,-168.41 347.63,-190.76"/>
<polygon fill="#9a32cd" stroke="#9a32cd" points="242.84,-70.81 232.39,-69.06 239.47,-76.94 242.84,-70.81"/>
<text text-anchor="middle" x="277" y="-116.5" font-family="Helvetica,sans-Serif" font-size="10.00"> evd</text>
</g>
<!-- Node11&#45;&gt;Node8 -->
<g id="edge19" class="edge">
<title>Node11&#45;&gt;Node8</title>
<path fill="none" stroke="#9a32cd" stroke-dasharray="5,2" d="M255.48,-56.71C318.35,-54.2 432.85,-53.95 527,-77.5 610.9,-98.49 634.19,-108.1 703,-160.5 712.51,-167.75 712.75,-171.84 721,-180.5 736.54,-196.8 755.26,-215.09 766.5,-225.93"/>
<polygon fill="#9a32cd" stroke="#9a32cd" points="255.31,-53.22 245.47,-57.15 255.61,-60.21 255.31,-53.22"/>
<text text-anchor="middle" x="474.5" y="-80.5" font-family="Helvetica,sans-Serif" font-size="10.00"> evaldata</text>
</g>
<!-- Node12&#45;&gt;Node7 -->
<g id="edge21" class="edge">
<title>Node12&#45;&gt;Node7</title>
<path fill="none" stroke="#9a32cd" stroke-dasharray="5,2" d="M939.35,-110.89C889.46,-95.37 797.05,-73.38 721,-93.5 679.34,-104.52 636.98,-134.37 616.93,-149.87"/>
<polygon fill="#9a32cd" stroke="#9a32cd" points="938.44,-114.28 949.03,-113.99 940.57,-107.61 938.44,-114.28"/>
<text text-anchor="middle" x="777.5" y="-96.5" font-family="Helvetica,sans-Serif" font-size="10.00"> stats</text>
</g>
<!-- Node13 -->
<g id="node13" class="node">
<title>Node13</title>
<g id="a_node13"><a xlink:title=" ">
<polygon fill="white" stroke="#bfbfbf" points="745,-18 745,-37 810,-37 810,-18 745,-18"/>
<text text-anchor="middle" x="777.5" y="-25" font-family="Helvetica,sans-Serif" font-size="10.00">std::string</text>
</a>
</g>
</g>
<!-- Node13&#45;&gt;Node12 -->
<g id="edge23" class="edge">
<title>Node13&#45;&gt;Node12</title>
<path fill="none" stroke="#9a32cd" stroke-dasharray="5,2" d="M820.2,-33.54C844.73,-38.26 875.79,-46.29 901,-59.5 928.19,-73.74 953.97,-99.6 966.89,-113.69"/>
<polygon fill="#9a32cd" stroke="#9a32cd" points="820.59,-30.05 810.13,-31.72 819.34,-36.94 820.59,-30.05"/>
<text text-anchor="middle" x="876.5" y="-62.5" font-family="Helvetica,sans-Serif" font-size="10.00"> scorefile</text>
</g>
<!-- Node14 -->
<g id="node14" class="node">
<title>Node14</title>
<g id="a_node14"><a xlink:title=" ">
<polygon fill="white" stroke="#bfbfbf" points="552,-0.5 552,-30.5 656,-30.5 656,-0.5 552,-0.5"/>
<text text-anchor="start" x="560" y="-18.5" font-family="Helvetica,sans-Serif" font-size="10.00">std::basic_string&lt;</text>
<text text-anchor="middle" x="604" y="-7.5" font-family="Helvetica,sans-Serif" font-size="10.00"> Char &gt;</text>
</a>
</g>
</g>
<!-- Node14&#45;&gt;Node13 -->
<g id="edge24" class="edge">
<title>Node14&#45;&gt;Node13</title>
<path fill="none" stroke="midnightblue" d="M666.78,-19.82C693.2,-21.67 722.92,-23.75 744.76,-25.28"/>
<polygon fill="midnightblue" stroke="midnightblue" points="666.68,-16.31 656.46,-19.1 666.19,-23.29 666.68,-16.31"/>
</g>
<!-- Node15 -->
<g id="node15" class="node">
<title>Node15</title>
<g id="a_node15"><a xlink:title=" ">
<polygon fill="white" stroke="#bfbfbf" points="721,-152 721,-171 834,-171 834,-152 721,-152"/>
<text text-anchor="middle" x="777.5" y="-159" font-family="Helvetica,sans-Serif" font-size="10.00">std::vector&lt; float &gt;</text>
</a>
</g>
</g>
<!-- Node15&#45;&gt;Node12 -->
<g id="edge25" class="edge">
<title>Node15&#45;&gt;Node12</title>
<path fill="none" stroke="#9a32cd" stroke-dasharray="5,2" d="M837.87,-150.05C870.57,-143.74 910.15,-136.1 938.46,-130.64"/>
<polygon fill="#9a32cd" stroke="#9a32cd" points="837.11,-146.63 827.96,-151.96 838.44,-153.5 837.11,-146.63"/>
<text text-anchor="middle" x="876.5" y="-193.5" font-family="Helvetica,sans-Serif" font-size="10.00"> aveScore</text>
<text text-anchor="middle" x="876.5" y="-182.5" font-family="Helvetica,sans-Serif" font-size="10.00">devScore</text>
<text text-anchor="middle" x="876.5" y="-171.5" font-family="Helvetica,sans-Serif" font-size="10.00">divScore</text>
<text text-anchor="middle" x="876.5" y="-160.5" font-family="Helvetica,sans-Serif" font-size="10.00">maxScore</text>
<text text-anchor="middle" x="876.5" y="-149.5" font-family="Helvetica,sans-Serif" font-size="10.00">minScore</text>
</g>
<!-- Node16 -->
<g id="node16" class="node">
<title>Node16</title>
<g id="a_node16"><a xlink:title=" ">
<polygon fill="white" stroke="#bfbfbf" points="725.5,-114 725.5,-133 829.5,-133 829.5,-114 725.5,-114"/>
<text text-anchor="middle" x="777.5" y="-121" font-family="Helvetica,sans-Serif" font-size="10.00">std::vector&lt; int &gt;</text>
</a>
</g>
</g>
<!-- Node16&#45;&gt;Node12 -->
<g id="edge26" class="edge">
<title>Node16&#45;&gt;Node12</title>
<path fill="none" stroke="#9a32cd" stroke-dasharray="5,2" d="M839.96,-123.5C872.15,-123.5 910.52,-123.5 938.2,-123.5"/>
<polygon fill="#9a32cd" stroke="#9a32cd" points="839.75,-120 829.75,-123.5 839.75,-127 839.75,-120"/>
<text text-anchor="middle" x="876.5" y="-126.5" font-family="Helvetica,sans-Serif" font-size="10.00"> gen</text>
</g>
<!-- Node17 -->
<g id="node17" class="node">
<title>Node17</title>
<g id="a_node17"><a xlink:href="classGAParameterList.html" target="_top" xlink:title=" ">
<polygon fill="white" stroke="black" points="306,-90 306,-109 404,-109 404,-90 306,-90"/>
<text text-anchor="middle" x="355" y="-97" font-family="Helvetica,sans-Serif" font-size="10.00">GAParameterList</text>
</a>
</g>
</g>
<!-- Node17&#45;&gt;Node7 -->
<g id="edge27" class="edge">
<title>Node17&#45;&gt;Node7</title>
<path fill="none" stroke="#9a32cd" stroke-dasharray="5,2" d="M414.3,-93.36C448.08,-91.8 490.92,-93.29 527,-105.5 553.98,-114.63 579.79,-136.73 593.28,-149.65"/>
<polygon fill="#9a32cd" stroke="#9a32cd" points="413.92,-89.88 404.13,-93.94 414.31,-96.87 413.92,-89.88"/>
<text text-anchor="middle" x="474.5" y="-108.5" font-family="Helvetica,sans-Serif" font-size="10.00"> params</text>
</g>
<!-- Node18 -->
<g id="node18" class="node">
<title>Node18</title>
<g id="a_node18"><a xlink:title=" ">
<polygon fill="white" stroke="#bfbfbf" points="167,-88 167,-107 248,-107 248,-88 167,-88"/>
<text text-anchor="middle" x="207.5" y="-95" font-family="Helvetica,sans-Serif" font-size="10.00">std::list&lt; T &gt;</text>
</a>
</g>
</g>
<!-- Node18&#45;&gt;Node17 -->
<g id="edge28" class="edge">
<title>Node18&#45;&gt;Node17</title>
<path fill="none" stroke="midnightblue" d="M258.22,-98.11C268.09,-98.23 278.37,-98.37 288,-98.5 293.73,-98.58 299.74,-98.67 305.7,-98.75"/>
<polygon fill="midnightblue" stroke="midnightblue" points="258.17,-94.6 248.13,-97.98 258.08,-101.6 258.17,-94.6"/>
</g>
<!-- Node19 -->
<g id="node19" class="node">
<title>Node19</title>
<g id="a_node19"><a xlink:title=" ">
<polygon fill="white" stroke="#bfbfbf" points="26.5,-88 26.5,-107 55.5,-107 55.5,-88 26.5,-88"/>
<text text-anchor="middle" x="41" y="-95" font-family="Helvetica,sans-Serif" font-size="10.00">T</text>
</a>
</g>
</g>
<!-- Node19&#45;&gt;Node18 -->
<g id="edge29" class="edge">
<title>Node19&#45;&gt;Node18</title>
<path fill="none" stroke="#9a32cd" stroke-dasharray="5,2" d="M65.98,-97.5C92.42,-97.5 135.37,-97.5 166.83,-97.5"/>
<polygon fill="#9a32cd" stroke="#9a32cd" points="65.74,-94 55.74,-97.5 65.74,-101 65.74,-94"/>
<text text-anchor="middle" x="124.5" y="-100.5" font-family="Helvetica,sans-Serif" font-size="10.00"> elements</text>
</g>
</g>
</svg>
        <g id="navigator" transform="translate(0 0)" fill="#404254">
                <rect fill="#f2f5e9" fill-opacity="0.5" stroke="#606060" stroke-width=".5" x="0" y="0" width="60" height="60"/>
                <use id="zoomplus" xlink:href="#zoomPlus" x="17" y="9" onmousedown="handleZoom(evt,'in')"/>
                <use id="zoomminus" xlink:href="#zoomMin" x="42" y="9" onmousedown="handleZoom(evt,'out')"/>
                <use id="reset" xlink:href="#resetDef" x="30" y="36" onmousedown="handleReset()"/>
                <g id="arrowUp" xlink:href="#dirArrow" transform="translate(30 24)" onmousedown="handlePan(0,-1)">
                  <use xlink:href="#rim" fill="#404040">
                        <set attributeName="fill" to="#808080" begin="arrowUp.mouseover" end="arrowUp.mouseout"/>
                  </use>
                  <path fill="none" stroke="white" stroke-width="1.5" d="M0,-3.0v7 M-2.5,-0.5L0,-3.0L2.5,-0.5"/>
                </g>
                <g id="arrowRight" xlink:href="#dirArrow" transform="rotate(90) translate(36 -43)" onmousedown="handlePan(1,0)">
                  <use xlink:href="#rim" fill="#404040">
                        <set attributeName="fill" to="#808080" begin="arrowRight.mouseover" end="arrowRight.mouseout"/>
                  </use>
                  <path fill="none" stroke="white" stroke-width="1.5" d="M0,-3.0v7 M-2.5,-0.5L0,-3.0L2.5,-0.5"/>
                </g>
                <g id="arrowDown" xlink:href="#dirArrow" transform="rotate(180) translate(-30 -48)" onmousedown="handlePan(0,1)">
                  <use xlink:href="#rim" fill="#404040">
                        <set attributeName="fill" to="#808080" begin="arrowDown.mouseover" end="arrowDown.mouseout"/>
                  </use>
                  <path fill="none" stroke="white" stroke-width="1.5" d="M0,-3.0v7 M-2.5,-0.5L0,-3.0L2.5,-0.5"/>
                </g>
                <g id="arrowLeft" xlink:href="#dirArrow" transform="rotate(270) translate(-36 17)" onmousedown="handlePan(-1,0)">
                  <use xlink:href="#rim" fill="#404040">
                        <set attributeName="fill" to="#808080" begin="arrowLeft.mouseover" end="arrowLeft.mouseout"/>
                  </use>
                  <path fill="none" stroke="white" stroke-width="1.5" d="M0,-3.0v7 M-2.5,-0.5L0,-3.0L2.5,-0.5"/>
                </g>
        </g>
        <svg viewBox="0 0 15 15" width="100%" height="30px" preserveAspectRatio="xMaxYMin meet">
         <g id="arrow_out" transform="scale(0.3 0.3)">
          <a xlink:href="classGAListGenome__coll__graph_org.svg" target="_base">
           <rect id="button" ry="5" rx="5" y="6" x="6" height="38" width="38"
                fill="#f2f5e9" fill-opacity="0.5" stroke="#606060" stroke-width="1.0"/>
           <path id="arrow"
             d="M 11.500037,31.436501 C 11.940474,20.09759 22.043105,11.32322 32.158766,21.979434 L 37.068811,17.246167 C 37.068811,17.246167 37.088388,32 37.088388,32 L 22.160133,31.978069 C 22.160133,31.978069 26.997745,27.140456 26.997745,27.140456 C 18.528582,18.264221 13.291696,25.230495 11.500037,31.436501 z"
             style="fill:#404040;"/>
          </a>
         </g>
        </svg>
</svg>
