<?xml version="1.0" encoding="UTF-8" standalone="no"?>
<!DOCTYPE svg PUBLIC "-//W3C//DTD SVG 1.1//EN"
 "http://www.w3.org/Graphics/SVG/1.1/DTD/svg11.dtd">
<!-- Generated by graphviz version 2.43.0 (0)
 -->
<!-- Title: GATreeGenome&lt; T &gt; Pages: 1 -->
<svg width="178pt" height="140pt"
 viewBox="0.00 0.00 177.50 140.00" xmlns="http://www.w3.org/2000/svg" xmlns:xlink="http://www.w3.org/1999/xlink">
<g id="graph0" class="graph" transform="scale(1 1) rotate(0) translate(4 136)">
<title>GATreeGenome&lt; T &gt;</title>
<polygon fill="white" stroke="transparent" points="-4,4 -4,-136 173.5,-136 173.5,4 -4,4"/>
<!-- Node1 -->
<g id="node1" class="node">
<title>Node1</title>
<g id="a_node1"><a xlink:title=" ">
<polygon fill="#bfbfbf" stroke="black" points="26.5,-0.5 26.5,-19.5 146.5,-19.5 146.5,-0.5 26.5,-0.5"/>
<text text-anchor="middle" x="86.5" y="-7.5" font-family="Helvetica,sans-Serif" font-size="10.00">GATreeGenome&lt; T &gt;</text>
</a>
</g>
</g>
<!-- Node2 -->
<g id="node2" class="node">
<title>Node2</title>
<g id="a_node2"><a xlink:href="classGATree.html" target="_top" xlink:title=" ">
<polygon fill="white" stroke="black" points="0,-56.5 0,-75.5 79,-75.5 79,-56.5 0,-56.5"/>
<text text-anchor="middle" x="39.5" y="-63.5" font-family="Helvetica,sans-Serif" font-size="10.00">GATree&lt; T &gt;</text>
</a>
</g>
</g>
<!-- Node2&#45;&gt;Node1 -->
<g id="edge1" class="edge">
<title>Node2&#45;&gt;Node1</title>
<path fill="none" stroke="midnightblue" d="M53.92,-48.43C62.16,-38.97 72.15,-27.48 78.88,-19.75"/>
<polygon fill="midnightblue" stroke="midnightblue" points="51.19,-46.24 47.26,-56.08 56.47,-50.84 51.19,-46.24"/>
</g>
<!-- Node3 -->
<g id="node3" class="node">
<title>Node3</title>
<g id="a_node3"><a xlink:href="classGATreeBASE.html" target="_top" xlink:title=" ">
<polygon fill="white" stroke="black" points="1.5,-112.5 1.5,-131.5 77.5,-131.5 77.5,-112.5 1.5,-112.5"/>
<text text-anchor="middle" x="39.5" y="-119.5" font-family="Helvetica,sans-Serif" font-size="10.00">GATreeBASE</text>
</a>
</g>
</g>
<!-- Node3&#45;&gt;Node2 -->
<g id="edge2" class="edge">
<title>Node3&#45;&gt;Node2</title>
<path fill="none" stroke="midnightblue" d="M39.5,-101.8C39.5,-92.91 39.5,-82.78 39.5,-75.75"/>
<polygon fill="midnightblue" stroke="midnightblue" points="36,-102.08 39.5,-112.08 43,-102.08 36,-102.08"/>
</g>
<!-- Node4 -->
<g id="node4" class="node">
<title>Node4</title>
<g id="a_node4"><a xlink:href="classGAGenome.html" target="_top" xlink:title=" ">
<polygon fill="white" stroke="black" points="97.5,-56.5 97.5,-75.5 169.5,-75.5 169.5,-56.5 97.5,-56.5"/>
<text text-anchor="middle" x="133.5" y="-63.5" font-family="Helvetica,sans-Serif" font-size="10.00">GAGenome</text>
</a>
</g>
</g>
<!-- Node4&#45;&gt;Node1 -->
<g id="edge3" class="edge">
<title>Node4&#45;&gt;Node1</title>
<path fill="none" stroke="midnightblue" d="M119.08,-48.43C110.84,-38.97 100.85,-27.48 94.12,-19.75"/>
<polygon fill="midnightblue" stroke="midnightblue" points="116.53,-50.84 125.74,-56.08 121.81,-46.24 116.53,-50.84"/>
</g>
<!-- Node5 -->
<g id="node5" class="node">
<title>Node5</title>
<g id="a_node5"><a xlink:href="classGAID.html" target="_top" xlink:title=" ">
<polygon fill="white" stroke="black" points="113,-112.5 113,-131.5 154,-131.5 154,-112.5 113,-112.5"/>
<text text-anchor="middle" x="133.5" y="-119.5" font-family="Helvetica,sans-Serif" font-size="10.00">GAID</text>
</a>
</g>
</g>
<!-- Node5&#45;&gt;Node4 -->
<g id="edge4" class="edge">
<title>Node5&#45;&gt;Node4</title>
<path fill="none" stroke="midnightblue" d="M133.5,-101.8C133.5,-92.91 133.5,-82.78 133.5,-75.75"/>
<polygon fill="midnightblue" stroke="midnightblue" points="130,-102.08 133.5,-112.08 137,-102.08 130,-102.08"/>
</g>
</g>
</svg>
