<?xml version="1.0" encoding="UTF-8" standalone="no"?>
<!DOCTYPE svg PUBLIC "-//W3C//DTD SVG 1.1//EN"
 "http://www.w3.org/Graphics/SVG/1.1/DTD/svg11.dtd">
<!-- Generated by graphviz version 2.43.0 (0)
 -->
<!-- Title: GAArray&lt; T &gt; Pages: 1 -->
<svg width="548pt" height="140pt"
 viewBox="0.00 0.00 548.00 140.00" xmlns="http://www.w3.org/2000/svg" xmlns:xlink="http://www.w3.org/1999/xlink">
<g id="graph0" class="graph" transform="scale(1 1) rotate(0) translate(4 136)">
<title>GAArray&lt; T &gt;</title>
<polygon fill="white" stroke="transparent" points="-4,4 -4,-136 544,-136 544,4 -4,4"/>
<!-- Node1 -->
<g id="node1" class="node">
<title>Node1</title>
<g id="a_node1"><a xlink:title="Array Base Class.">
<polygon fill="#bfbfbf" stroke="black" points="227,-112.5 227,-131.5 313,-131.5 313,-112.5 227,-112.5"/>
<text text-anchor="middle" x="270" y="-119.5" font-family="Helvetica,sans-Serif" font-size="10.00">GAArray&lt; T &gt;</text>
</a>
</g>
</g>
<!-- Node2 -->
<g id="node2" class="node">
<title>Node2</title>
<g id="a_node2"><a xlink:href="classGA1DArrayGenome.html" target="_top" xlink:title="1 dimensional Array Genome">
<polygon fill="white" stroke="black" points="28,-56.5 28,-75.5 168,-75.5 168,-56.5 28,-56.5"/>
<text text-anchor="middle" x="98" y="-63.5" font-family="Helvetica,sans-Serif" font-size="10.00">GA1DArrayGenome&lt; T &gt;</text>
</a>
</g>
</g>
<!-- Node1&#45;&gt;Node2 -->
<g id="edge1" class="edge">
<title>Node1&#45;&gt;Node2</title>
<path fill="none" stroke="midnightblue" d="M233.17,-109.44C200.74,-99.26 154.26,-84.66 125.13,-75.52"/>
<polygon fill="midnightblue" stroke="midnightblue" points="232.16,-112.79 242.75,-112.44 234.25,-106.11 232.16,-112.79"/>
</g>
<!-- Node4 -->
<g id="node4" class="node">
<title>Node4</title>
<g id="a_node4"><a xlink:href="classGA2DArrayGenome.html" target="_top" xlink:title=" ">
<polygon fill="white" stroke="black" points="200,-56.5 200,-75.5 340,-75.5 340,-56.5 200,-56.5"/>
<text text-anchor="middle" x="270" y="-63.5" font-family="Helvetica,sans-Serif" font-size="10.00">GA2DArrayGenome&lt; T &gt;</text>
</a>
</g>
</g>
<!-- Node1&#45;&gt;Node4 -->
<g id="edge3" class="edge">
<title>Node1&#45;&gt;Node4</title>
<path fill="none" stroke="midnightblue" d="M270,-101.8C270,-92.91 270,-82.78 270,-75.75"/>
<polygon fill="midnightblue" stroke="midnightblue" points="266.5,-102.08 270,-112.08 273.5,-102.08 266.5,-102.08"/>
</g>
<!-- Node6 -->
<g id="node6" class="node">
<title>Node6</title>
<g id="a_node6"><a xlink:href="classGA3DArrayGenome.html" target="_top" xlink:title=" ">
<polygon fill="white" stroke="black" points="372,-56.5 372,-75.5 512,-75.5 512,-56.5 372,-56.5"/>
<text text-anchor="middle" x="442" y="-63.5" font-family="Helvetica,sans-Serif" font-size="10.00">GA3DArrayGenome&lt; T &gt;</text>
</a>
</g>
</g>
<!-- Node1&#45;&gt;Node6 -->
<g id="edge5" class="edge">
<title>Node1&#45;&gt;Node6</title>
<path fill="none" stroke="midnightblue" d="M306.83,-109.44C339.26,-99.26 385.74,-84.66 414.87,-75.52"/>
<polygon fill="midnightblue" stroke="midnightblue" points="305.75,-106.11 297.25,-112.44 307.84,-112.79 305.75,-106.11"/>
</g>
<!-- Node3 -->
<g id="node3" class="node">
<title>Node3</title>
<g id="a_node3"><a xlink:href="classGA1DArrayAlleleGenome.html" target="_top" xlink:title=" ">
<polygon fill="white" stroke="black" points="0,-0.5 0,-19.5 168,-19.5 168,-0.5 0,-0.5"/>
<text text-anchor="middle" x="84" y="-7.5" font-family="Helvetica,sans-Serif" font-size="10.00">GA1DArrayAlleleGenome&lt; T &gt;</text>
</a>
</g>
</g>
<!-- Node2&#45;&gt;Node3 -->
<g id="edge2" class="edge">
<title>Node2&#45;&gt;Node3</title>
<path fill="none" stroke="midnightblue" d="M93.18,-46.4C90.83,-37.36 88.13,-26.94 86.27,-19.75"/>
<polygon fill="midnightblue" stroke="midnightblue" points="89.79,-47.28 95.69,-56.08 96.57,-45.52 89.79,-47.28"/>
</g>
<!-- Node5 -->
<g id="node5" class="node">
<title>Node5</title>
<g id="a_node5"><a xlink:href="classGA2DArrayAlleleGenome.html" target="_top" xlink:title=" ">
<polygon fill="white" stroke="black" points="186,-0.5 186,-19.5 354,-19.5 354,-0.5 186,-0.5"/>
<text text-anchor="middle" x="270" y="-7.5" font-family="Helvetica,sans-Serif" font-size="10.00">GA2DArrayAlleleGenome&lt; T &gt;</text>
</a>
</g>
</g>
<!-- Node4&#45;&gt;Node5 -->
<g id="edge4" class="edge">
<title>Node4&#45;&gt;Node5</title>
<path fill="none" stroke="midnightblue" d="M270,-45.8C270,-36.91 270,-26.78 270,-19.75"/>
<polygon fill="midnightblue" stroke="midnightblue" points="266.5,-46.08 270,-56.08 273.5,-46.08 266.5,-46.08"/>
</g>
<!-- Node7 -->
<g id="node7" class="node">
<title>Node7</title>
<g id="a_node7"><a xlink:href="classGA3DArrayAlleleGenome.html" target="_top" xlink:title=" ">
<polygon fill="white" stroke="black" points="372,-0.5 372,-19.5 540,-19.5 540,-0.5 372,-0.5"/>
<text text-anchor="middle" x="456" y="-7.5" font-family="Helvetica,sans-Serif" font-size="10.00">GA3DArrayAlleleGenome&lt; T &gt;</text>
</a>
</g>
</g>
<!-- Node6&#45;&gt;Node7 -->
<g id="edge6" class="edge">
<title>Node6&#45;&gt;Node7</title>
<path fill="none" stroke="midnightblue" d="M446.82,-46.4C449.17,-37.36 451.87,-26.94 453.73,-19.75"/>
<polygon fill="midnightblue" stroke="midnightblue" points="443.43,-45.52 444.31,-56.08 450.21,-47.28 443.43,-45.52"/>
</g>
</g>
</svg>
