<?xml version="1.0" encoding="UTF-8" standalone="no"?>
<!DOCTYPE svg PUBLIC "-//W3C//DTD SVG 1.1//EN"
 "http://www.w3.org/Graphics/SVG/1.1/DTD/svg11.dtd">
<!-- Generated by graphviz version 2.43.0 (0)
 -->
<!-- Title: GAGeneticAlgorithm Pages: 1 -->
<svg width="540pt" height="140pt"
 viewBox="0.00 0.00 540.00 140.00" xmlns="http://www.w3.org/2000/svg" xmlns:xlink="http://www.w3.org/1999/xlink">
<g id="graph0" class="graph" transform="scale(1 1) rotate(0) translate(4 136)">
<title>GAGeneticAlgorithm</title>
<polygon fill="white" stroke="transparent" points="-4,4 -4,-136 536,-136 536,4 -4,4"/>
<!-- Node1 -->
<g id="node1" class="node">
<title>Node1</title>
<g id="a_node1"><a xlink:title=" ">
<polygon fill="#bfbfbf" stroke="black" points="202,-56.5 202,-75.5 318,-75.5 318,-56.5 202,-56.5"/>
<text text-anchor="middle" x="260" y="-63.5" font-family="Helvetica,sans-Serif" font-size="10.00">GAGeneticAlgorithm</text>
</a>
</g>
</g>
<!-- Node3 -->
<g id="node3" class="node">
<title>Node3</title>
<g id="a_node3"><a xlink:href="classGADCrowdingGA.html" target="_top" xlink:title=" ">
<polygon fill="white" stroke="black" points="0,-0.5 0,-19.5 98,-19.5 98,-0.5 0,-0.5"/>
<text text-anchor="middle" x="49" y="-7.5" font-family="Helvetica,sans-Serif" font-size="10.00">GADCrowdingGA</text>
</a>
</g>
</g>
<!-- Node1&#45;&gt;Node3 -->
<g id="edge2" class="edge">
<title>Node1&#45;&gt;Node3</title>
<path fill="none" stroke="midnightblue" d="M216.86,-53.96C177.01,-43.76 118.64,-28.82 82.28,-19.52"/>
<polygon fill="midnightblue" stroke="midnightblue" points="216.01,-57.35 226.57,-56.44 217.75,-50.57 216.01,-57.35"/>
</g>
<!-- Node4 -->
<g id="node4" class="node">
<title>Node4</title>
<g id="a_node4"><a xlink:href="classGADemeGA.html" target="_top" xlink:title=" ">
<polygon fill="white" stroke="black" points="116,-0.5 116,-19.5 190,-19.5 190,-0.5 116,-0.5"/>
<text text-anchor="middle" x="153" y="-7.5" font-family="Helvetica,sans-Serif" font-size="10.00">GADemeGA</text>
</a>
</g>
</g>
<!-- Node1&#45;&gt;Node4 -->
<g id="edge3" class="edge">
<title>Node1&#45;&gt;Node4</title>
<path fill="none" stroke="midnightblue" d="M233.7,-51.73C213.89,-41.73 187.29,-28.31 170.15,-19.65"/>
<polygon fill="midnightblue" stroke="midnightblue" points="232.3,-54.94 242.81,-56.32 235.46,-48.69 232.3,-54.94"/>
</g>
<!-- Node5 -->
<g id="node5" class="node">
<title>Node5</title>
<g id="a_node5"><a xlink:href="classGAIncrementalGA.html" target="_top" xlink:title=" ">
<polygon fill="white" stroke="black" points="208,-0.5 208,-19.5 312,-19.5 312,-0.5 208,-0.5"/>
<text text-anchor="middle" x="260" y="-7.5" font-family="Helvetica,sans-Serif" font-size="10.00">GAIncrementalGA</text>
</a>
</g>
</g>
<!-- Node1&#45;&gt;Node5 -->
<g id="edge4" class="edge">
<title>Node1&#45;&gt;Node5</title>
<path fill="none" stroke="midnightblue" d="M260,-45.8C260,-36.91 260,-26.78 260,-19.75"/>
<polygon fill="midnightblue" stroke="midnightblue" points="256.5,-46.08 260,-56.08 263.5,-46.08 256.5,-46.08"/>
</g>
<!-- Node6 -->
<g id="node6" class="node">
<title>Node6</title>
<g id="a_node6"><a xlink:href="classGASimpleGA.html" target="_top" xlink:title="Header file for the simple genetic algorithm class.">
<polygon fill="white" stroke="black" points="330.5,-0.5 330.5,-19.5 409.5,-19.5 409.5,-0.5 330.5,-0.5"/>
<text text-anchor="middle" x="370" y="-7.5" font-family="Helvetica,sans-Serif" font-size="10.00">GASimpleGA</text>
</a>
</g>
</g>
<!-- Node1&#45;&gt;Node6 -->
<g id="edge5" class="edge">
<title>Node1&#45;&gt;Node6</title>
<path fill="none" stroke="midnightblue" d="M286.76,-51.86C307.16,-41.85 334.67,-28.35 352.37,-19.65"/>
<polygon fill="midnightblue" stroke="midnightblue" points="285.11,-48.78 277.67,-56.32 288.19,-55.06 285.11,-48.78"/>
</g>
<!-- Node7 -->
<g id="node7" class="node">
<title>Node7</title>
<g id="a_node7"><a xlink:href="classGASteadyStateGA.html" target="_top" xlink:title="Header file for the steady&#45;state genetic algorithm class.">
<polygon fill="white" stroke="black" points="428,-0.5 428,-19.5 532,-19.5 532,-0.5 428,-0.5"/>
<text text-anchor="middle" x="480" y="-7.5" font-family="Helvetica,sans-Serif" font-size="10.00">GASteadyStateGA</text>
</a>
</g>
</g>
<!-- Node1&#45;&gt;Node7 -->
<g id="edge6" class="edge">
<title>Node1&#45;&gt;Node7</title>
<path fill="none" stroke="midnightblue" d="M304.72,-54.02C346.28,-43.82 407.31,-28.84 445.3,-19.52"/>
<polygon fill="midnightblue" stroke="midnightblue" points="303.74,-50.66 294.86,-56.44 305.41,-57.46 303.74,-50.66"/>
</g>
<!-- Node2 -->
<g id="node2" class="node">
<title>Node2</title>
<g id="a_node2"><a xlink:href="classGAID.html" target="_top" xlink:title=" ">
<polygon fill="white" stroke="black" points="239.5,-112.5 239.5,-131.5 280.5,-131.5 280.5,-112.5 239.5,-112.5"/>
<text text-anchor="middle" x="260" y="-119.5" font-family="Helvetica,sans-Serif" font-size="10.00">GAID</text>
</a>
</g>
</g>
<!-- Node2&#45;&gt;Node1 -->
<g id="edge1" class="edge">
<title>Node2&#45;&gt;Node1</title>
<path fill="none" stroke="midnightblue" d="M260,-101.8C260,-92.91 260,-82.78 260,-75.75"/>
<polygon fill="midnightblue" stroke="midnightblue" points="256.5,-102.08 260,-112.08 263.5,-102.08 256.5,-102.08"/>
</g>
</g>
</svg>
