<?xml version="1.0" encoding="UTF-8" standalone="no"?>
<!DOCTYPE svg PUBLIC "-//W3C//DTD SVG 1.1//EN"
 "http://www.w3.org/Graphics/SVG/1.1/DTD/svg11.dtd">
<!-- Generated by graphviz version 2.43.0 (0)
 -->
<!-- Title: GABin2DecGenome Pages: 1 -->
<svg width="1115pt" height="472pt"
 viewBox="0.00 0.00 1115.00 471.50" xmlns="http://www.w3.org/2000/svg" xmlns:xlink="http://www.w3.org/1999/xlink">
<g id="graph0" class="graph" transform="scale(1 1) rotate(0) translate(4 467.5)">
<title>GABin2DecGenome</title>
<polygon fill="white" stroke="transparent" points="-4,4 -4,-467.5 1111,-467.5 1111,4 -4,4"/>
<!-- Node1 -->
<g id="node1" class="node">
<title>Node1</title>
<g id="a_node1"><a xlink:title=" ">
<polygon fill="#bfbfbf" stroke="black" points="794,-120 794,-139 907,-139 907,-120 794,-120"/>
<text text-anchor="middle" x="850.5" y="-127" font-family="Helvetica,sans-Serif" font-size="10.00">GABin2DecGenome</text>
</a>
</g>
</g>
<!-- Node2 -->
<g id="node2" class="node">
<title>Node2</title>
<g id="a_node2"><a xlink:href="classGA1DBinaryStringGenome.html" target="_top" xlink:title=" ">
<polygon fill="white" stroke="black" points="581,-118 581,-137 727,-137 727,-118 581,-118"/>
<text text-anchor="middle" x="654" y="-125" font-family="Helvetica,sans-Serif" font-size="10.00">GA1DBinaryStringGenome</text>
</a>
</g>
</g>
<!-- Node2&#45;&gt;Node1 -->
<g id="edge1" class="edge">
<title>Node2&#45;&gt;Node1</title>
<path fill="none" stroke="midnightblue" d="M737.34,-128.35C756.41,-128.54 776.27,-128.75 793.88,-128.93"/>
<polygon fill="midnightblue" stroke="midnightblue" points="737.18,-124.84 727.15,-128.24 737.11,-131.84 737.18,-124.84"/>
</g>
<!-- Node3 -->
<g id="node3" class="node">
<title>Node3</title>
<g id="a_node3"><a xlink:href="classGABinaryString.html" target="_top" xlink:title=" ">
<polygon fill="white" stroke="black" points="321.5,-99 321.5,-118 412.5,-118 412.5,-99 321.5,-99"/>
<text text-anchor="middle" x="367" y="-106" font-family="Helvetica,sans-Serif" font-size="10.00">GABinaryString</text>
</a>
</g>
</g>
<!-- Node3&#45;&gt;Node2 -->
<g id="edge2" class="edge">
<title>Node3&#45;&gt;Node2</title>
<path fill="none" stroke="midnightblue" d="M422.72,-109.57C461.84,-110.62 515.72,-112.65 563,-116.5 568.81,-116.97 574.81,-117.54 580.84,-118.16"/>
<polygon fill="midnightblue" stroke="midnightblue" points="422.68,-106.06 412.59,-109.31 422.5,-113.06 422.68,-106.06"/>
</g>
<!-- Node4 -->
<g id="node4" class="node">
<title>Node4</title>
<g id="a_node4"><a xlink:title=" ">
<polygon fill="white" stroke="#bfbfbf" points="114,-99 114,-118 233,-118 233,-99 114,-99"/>
<text text-anchor="middle" x="173.5" y="-106" font-family="Helvetica,sans-Serif" font-size="10.00">std::vector&lt; GABit &gt;</text>
</a>
</g>
</g>
<!-- Node4&#45;&gt;Node3 -->
<g id="edge3" class="edge">
<title>Node4&#45;&gt;Node3</title>
<path fill="none" stroke="#9a32cd" stroke-dasharray="5,2" d="M243.42,-108.5C269.37,-108.5 298.18,-108.5 321.35,-108.5"/>
<polygon fill="#9a32cd" stroke="#9a32cd" points="243.26,-105 233.26,-108.5 243.26,-112 243.26,-105"/>
<text text-anchor="middle" x="263.5" y="-111.5" font-family="Helvetica,sans-Serif" font-size="10.00"> data</text>
</g>
<!-- Node5 -->
<g id="node5" class="node">
<title>Node5</title>
<g id="a_node5"><a xlink:href="classGAGenome.html" target="_top" xlink:title=" ">
<polygon fill="white" stroke="black" points="331,-180 331,-199 403,-199 403,-180 331,-180"/>
<text text-anchor="middle" x="367" y="-187" font-family="Helvetica,sans-Serif" font-size="10.00">GAGenome</text>
</a>
</g>
</g>
<!-- Node5&#45;&gt;Node2 -->
<g id="edge4" class="edge">
<title>Node5&#45;&gt;Node2</title>
<path fill="none" stroke="midnightblue" d="M413.12,-183.16C422.62,-180.36 432.13,-176.32 440,-170.5 452.2,-161.48 445.02,-149.34 458,-141.5 496.93,-117.98 548.53,-115.25 588.87,-117.98"/>
<polygon fill="midnightblue" stroke="midnightblue" points="412.14,-179.8 403.31,-185.66 413.86,-186.58 412.14,-179.8"/>
</g>
<!-- Node5&#45;&gt;Node5 -->
<g id="edge31" class="edge">
<title>Node5&#45;&gt;Node5</title>
<path fill="none" stroke="#9a32cd" stroke-dasharray="5,2" d="M348.11,-208.9C349.37,-213.81 355.67,-217.5 367,-217.5 385.13,-217.5 390.37,-208.07 382.72,-199.26"/>
<polygon fill="#9a32cd" stroke="#9a32cd" points="351.48,-209.85 351.28,-199.26 344.83,-207.67 351.48,-209.85"/>
<text text-anchor="middle" x="367" y="-275.5" font-family="Helvetica,sans-Serif" font-size="10.00"> asexcross</text>
<text text-anchor="middle" x="367" y="-264.5" font-family="Helvetica,sans-Serif" font-size="10.00">cmp</text>
<text text-anchor="middle" x="367" y="-253.5" font-family="Helvetica,sans-Serif" font-size="10.00">eval</text>
<text text-anchor="middle" x="367" y="-242.5" font-family="Helvetica,sans-Serif" font-size="10.00">init</text>
<text text-anchor="middle" x="367" y="-231.5" font-family="Helvetica,sans-Serif" font-size="10.00">mutr</text>
<text text-anchor="middle" x="367" y="-220.5" font-family="Helvetica,sans-Serif" font-size="10.00">sexcross</text>
</g>
<!-- Node7 -->
<g id="node7" class="node">
<title>Node7</title>
<g id="a_node7"><a xlink:href="classGAGeneticAlgorithm.html" target="_top" xlink:title=" ">
<polygon fill="white" stroke="black" points="596,-206 596,-225 712,-225 712,-206 596,-206"/>
<text text-anchor="middle" x="654" y="-213" font-family="Helvetica,sans-Serif" font-size="10.00">GAGeneticAlgorithm</text>
</a>
</g>
</g>
<!-- Node5&#45;&gt;Node7 -->
<g id="edge29" class="edge">
<title>Node5&#45;&gt;Node7</title>
<path fill="none" stroke="#9a32cd" stroke-dasharray="5,2" d="M413.35,-199.35C427.58,-202.1 443.38,-204.79 458,-206.5 504.12,-211.89 556.72,-214.09 595.66,-214.97"/>
<polygon fill="#9a32cd" stroke="#9a32cd" points="413.79,-195.87 403.3,-197.36 412.43,-202.74 413.79,-195.87"/>
<text text-anchor="middle" x="510.5" y="-227.5" font-family="Helvetica,sans-Serif" font-size="10.00"> across</text>
<text text-anchor="middle" x="510.5" y="-216.5" font-family="Helvetica,sans-Serif" font-size="10.00">scross</text>
</g>
<!-- Node8 -->
<g id="node8" class="node">
<title>Node8</title>
<g id="a_node8"><a xlink:href="classGAPopulation.html" target="_top" xlink:title=" ">
<polygon fill="white" stroke="black" points="809,-310 809,-329 892,-329 892,-310 809,-310"/>
<text text-anchor="middle" x="850.5" y="-317" font-family="Helvetica,sans-Serif" font-size="10.00">GAPopulation</text>
</a>
</g>
</g>
<!-- Node5&#45;&gt;Node8 -->
<g id="edge19" class="edge">
<title>Node5&#45;&gt;Node8</title>
<path fill="none" stroke="#9a32cd" stroke-dasharray="5,2" d="M390.46,-204.53C408.13,-215.71 433.73,-230.52 458,-239.5 581.3,-285.11 736.58,-307.03 808.93,-315.34"/>
<polygon fill="#9a32cd" stroke="#9a32cd" points="392.3,-201.55 382,-199.07 388.5,-207.43 392.3,-201.55"/>
<text text-anchor="middle" x="654" y="-317.5" font-family="Helvetica,sans-Serif" font-size="10.00"> rind</text>
<text text-anchor="middle" x="654" y="-306.5" font-family="Helvetica,sans-Serif" font-size="10.00">sind</text>
</g>
<!-- Node6 -->
<g id="node6" class="node">
<title>Node6</title>
<g id="a_node6"><a xlink:href="classGAID.html" target="_top" xlink:title=" ">
<polygon fill="white" stroke="black" points="153,-340 153,-359 194,-359 194,-340 153,-340"/>
<text text-anchor="middle" x="173.5" y="-347" font-family="Helvetica,sans-Serif" font-size="10.00">GAID</text>
</a>
</g>
</g>
<!-- Node6&#45;&gt;Node5 -->
<g id="edge5" class="edge">
<title>Node6&#45;&gt;Node5</title>
<path fill="none" stroke="midnightblue" d="M184.66,-331.17C197.67,-309.03 222.03,-271.77 251,-247.5 277.57,-225.25 314.12,-208.68 338.83,-199.07"/>
<polygon fill="midnightblue" stroke="midnightblue" points="181.59,-329.49 179.66,-339.91 187.66,-332.97 181.59,-329.49"/>
</g>
<!-- Node6&#45;&gt;Node7 -->
<g id="edge7" class="edge">
<title>Node6&#45;&gt;Node7</title>
<path fill="none" stroke="midnightblue" d="M204.03,-344.51C253.39,-335.87 355.56,-316.71 440,-292.5 510.31,-272.35 590.89,-240.83 629.7,-225.1"/>
<polygon fill="midnightblue" stroke="midnightblue" points="203.3,-341.09 194.04,-346.24 204.49,-347.98 203.3,-341.09"/>
</g>
<!-- Node6&#45;&gt;Node8 -->
<g id="edge10" class="edge">
<title>Node6&#45;&gt;Node8</title>
<path fill="none" stroke="midnightblue" d="M204.3,-356.08C218.39,-358.89 235.48,-361.9 251,-363.5 461.46,-385.16 518.99,-396.19 727,-357.5 761.59,-351.07 800.14,-338.1 824.6,-329.11"/>
<polygon fill="midnightblue" stroke="midnightblue" points="204.69,-352.58 194.19,-353.98 203.27,-359.44 204.69,-352.58"/>
</g>
<!-- Node9 -->
<g id="node9" class="node">
<title>Node9</title>
<g id="a_node9"><a xlink:href="classGAScalingScheme.html" target="_top" xlink:title=" ">
<polygon fill="white" stroke="black" points="458,-340 458,-359 563,-359 563,-340 458,-340"/>
<text text-anchor="middle" x="510.5" y="-347" font-family="Helvetica,sans-Serif" font-size="10.00">GAScalingScheme</text>
</a>
</g>
</g>
<!-- Node6&#45;&gt;Node9 -->
<g id="edge12" class="edge">
<title>Node6&#45;&gt;Node9</title>
<path fill="none" stroke="midnightblue" d="M204.65,-349.5C261.95,-349.5 387.14,-349.5 457.98,-349.5"/>
<polygon fill="midnightblue" stroke="midnightblue" points="204.45,-346 194.45,-349.5 204.45,-353 204.45,-346"/>
</g>
<!-- Node10 -->
<g id="node10" class="node">
<title>Node10</title>
<g id="a_node10"><a xlink:href="classGASelectionScheme.html" target="_top" xlink:title=" ">
<polygon fill="white" stroke="black" points="992,-344 992,-363 1107,-363 1107,-344 992,-344"/>
<text text-anchor="middle" x="1049.5" y="-351" font-family="Helvetica,sans-Serif" font-size="10.00">GASelectionScheme</text>
</a>
</g>
</g>
<!-- Node6&#45;&gt;Node10 -->
<g id="edge16" class="edge">
<title>Node6&#45;&gt;Node10</title>
<path fill="none" stroke="midnightblue" d="M198.24,-364.52C247.37,-395.47 356.44,-463.5 366,-463.5 366,-463.5 366,-463.5 851.5,-463.5 933.37,-463.5 1012.87,-390.18 1039.3,-363.26"/>
<polygon fill="midnightblue" stroke="midnightblue" points="199.86,-361.4 189.53,-359.02 196.12,-367.32 199.86,-361.4"/>
</g>
<!-- Node7&#45;&gt;Node5 -->
<g id="edge6" class="edge">
<title>Node7&#45;&gt;Node5</title>
<path fill="none" stroke="#9a32cd" stroke-dasharray="5,2" d="M607.38,-203.62C593.25,-200.41 577.57,-197.33 563,-195.5 507.38,-188.53 442.18,-188.06 403.03,-188.61"/>
<polygon fill="#9a32cd" stroke="#9a32cd" points="606.82,-207.08 617.36,-205.96 608.42,-200.27 606.82,-207.08"/>
<text text-anchor="middle" x="510.5" y="-198.5" font-family="Helvetica,sans-Serif" font-size="10.00"> ga</text>
</g>
<!-- Node7&#45;&gt;Node7 -->
<g id="edge8" class="edge">
<title>Node7&#45;&gt;Node7</title>
<path fill="none" stroke="#9a32cd" stroke-dasharray="5,2" d="M634.37,-234.9C635.68,-239.81 642.23,-243.5 654,-243.5 672.84,-243.5 678.29,-234.07 670.34,-225.26"/>
<polygon fill="#9a32cd" stroke="#9a32cd" points="637.74,-235.85 637.66,-225.26 631.12,-233.59 637.74,-235.85"/>
<text text-anchor="middle" x="654" y="-246.5" font-family="Helvetica,sans-Serif" font-size="10.00"> cf</text>
</g>
<!-- Node7&#45;&gt;Node8 -->
<g id="edge13" class="edge">
<title>Node7&#45;&gt;Node8</title>
<path fill="none" stroke="#9a32cd" stroke-dasharray="5,2" d="M693.39,-228.65C717.74,-237.64 749.54,-250.6 776,-265.5 799.46,-278.71 824.17,-298.19 838.13,-309.78"/>
<polygon fill="#9a32cd" stroke="#9a32cd" points="694.37,-225.28 683.78,-225.16 691.98,-231.86 694.37,-225.28"/>
<text text-anchor="middle" x="760.5" y="-268.5" font-family="Helvetica,sans-Serif" font-size="10.00"> ga</text>
</g>
<!-- Node8&#45;&gt;Node7 -->
<g id="edge9" class="edge">
<title>Node8&#45;&gt;Node7</title>
<path fill="none" stroke="#9a32cd" stroke-dasharray="5,2" d="M840.29,-300.88C828.57,-279.41 806.17,-244.95 776,-228.5 756.8,-218.03 733.35,-213.9 712.22,-212.7"/>
<polygon fill="#9a32cd" stroke="#9a32cd" points="837.31,-302.74 845.04,-309.99 843.51,-299.5 837.31,-302.74"/>
<text text-anchor="middle" x="760.5" y="-231.5" font-family="Helvetica,sans-Serif" font-size="10.00"> pop</text>
</g>
<!-- Node8&#45;&gt;Node8 -->
<g id="edge14" class="edge">
<title>Node8&#45;&gt;Node8</title>
<path fill="none" stroke="#9a32cd" stroke-dasharray="5,2" d="M833.83,-338.9C834.95,-343.81 840.5,-347.5 850.5,-347.5 866.5,-347.5 871.12,-338.07 864.37,-329.26"/>
<polygon fill="#9a32cd" stroke="#9a32cd" points="837.21,-339.84 836.63,-329.26 830.48,-337.89 837.21,-339.84"/>
<text text-anchor="middle" x="850.5" y="-361.5" font-family="Helvetica,sans-Serif" font-size="10.00"> eval</text>
<text text-anchor="middle" x="850.5" y="-350.5" font-family="Helvetica,sans-Serif" font-size="10.00">init</text>
</g>
<!-- Node8&#45;&gt;Node10 -->
<g id="edge17" class="edge">
<title>Node8&#45;&gt;Node10</title>
<path fill="none" stroke="#9a32cd" stroke-dasharray="5,2" d="M902.25,-328.26C930.08,-333.06 964.64,-339.03 993.16,-343.95"/>
<polygon fill="#9a32cd" stroke="#9a32cd" points="902.77,-324.8 892.32,-326.54 901.58,-331.69 902.77,-324.8"/>
<text text-anchor="middle" x="949.5" y="-343.5" font-family="Helvetica,sans-Serif" font-size="10.00"> pop</text>
</g>
<!-- Node12 -->
<g id="node12" class="node">
<title>Node12</title>
<g id="a_node12"><a xlink:href="classGAStatistics.html" target="_top" xlink:title=" ">
<polygon fill="white" stroke="black" points="1011.5,-82 1011.5,-101 1087.5,-101 1087.5,-82 1011.5,-82"/>
<text text-anchor="middle" x="1049.5" y="-89" font-family="Helvetica,sans-Serif" font-size="10.00">GAStatistics</text>
</a>
</g>
</g>
<!-- Node8&#45;&gt;Node12 -->
<g id="edge21" class="edge">
<title>Node8&#45;&gt;Node12</title>
<path fill="none" stroke="#9a32cd" stroke-dasharray="5,2" d="M868.84,-302.51C893.19,-278.38 938.51,-232.44 974,-190.5 1000.68,-158.97 1029.25,-119.05 1041.86,-101.06"/>
<polygon fill="#9a32cd" stroke="#9a32cd" points="866.09,-300.31 861.43,-309.82 871.01,-305.29 866.09,-300.31"/>
<text text-anchor="middle" x="949.5" y="-247.5" font-family="Helvetica,sans-Serif" font-size="10.00"> boa</text>
</g>
<!-- Node9&#45;&gt;Node8 -->
<g id="edge11" class="edge">
<title>Node9&#45;&gt;Node8</title>
<path fill="none" stroke="#9a32cd" stroke-dasharray="5,2" d="M573.43,-344C641.97,-337.92 750.46,-328.29 808.94,-323.1"/>
<polygon fill="#9a32cd" stroke="#9a32cd" points="572.85,-340.54 563.2,-344.91 573.47,-347.51 572.85,-340.54"/>
<text text-anchor="middle" x="654" y="-345.5" font-family="Helvetica,sans-Serif" font-size="10.00"> sclscm</text>
</g>
<!-- Node10&#45;&gt;Node8 -->
<g id="edge15" class="edge">
<title>Node10&#45;&gt;Node8</title>
<path fill="none" stroke="#9a32cd" stroke-dasharray="5,2" d="M1023.29,-339.23C1009.25,-332.1 991.19,-324.21 974,-320.5 947.18,-314.71 916.29,-314.5 892.23,-315.72"/>
<polygon fill="#9a32cd" stroke="#9a32cd" points="1021.82,-342.42 1032.3,-343.99 1025.09,-336.23 1021.82,-342.42"/>
<text text-anchor="middle" x="949.5" y="-323.5" font-family="Helvetica,sans-Serif" font-size="10.00"> slct</text>
</g>
<!-- Node11 -->
<g id="node11" class="node">
<title>Node11</title>
<g id="a_node11"><a xlink:href="classGAEvalData.html" target="_top" xlink:title=" ">
<polygon fill="white" stroke="black" points="136,-397 136,-416 211,-416 211,-397 136,-397"/>
<text text-anchor="middle" x="173.5" y="-404" font-family="Helvetica,sans-Serif" font-size="10.00">GAEvalData</text>
</a>
</g>
</g>
<!-- Node11&#45;&gt;Node5 -->
<g id="edge30" class="edge">
<title>Node11&#45;&gt;Node5</title>
<path fill="none" stroke="#9a32cd" stroke-dasharray="5,2" d="M201.59,-391.69C212.01,-385.31 223.64,-377.28 233,-368.5 292.27,-312.85 343.8,-228.05 360.4,-199.37"/>
<polygon fill="#9a32cd" stroke="#9a32cd" points="199.66,-388.77 192.83,-396.86 203.22,-394.79 199.66,-388.77"/>
<text text-anchor="middle" x="263.5" y="-349.5" font-family="Helvetica,sans-Serif" font-size="10.00"> evd</text>
</g>
<!-- Node11&#45;&gt;Node8 -->
<g id="edge18" class="edge">
<title>Node11&#45;&gt;Node8</title>
<path fill="none" stroke="#9a32cd" stroke-dasharray="5,2" d="M221.54,-409.78C317.79,-415.31 543.6,-422.24 727,-381.5 769.81,-371.99 814.37,-344.12 836.04,-329.2"/>
<polygon fill="#9a32cd" stroke="#9a32cd" points="221.46,-406.27 211.27,-409.16 221.04,-413.25 221.46,-406.27"/>
<text text-anchor="middle" x="510.5" y="-414.5" font-family="Helvetica,sans-Serif" font-size="10.00"> evaldata</text>
</g>
<!-- Node12&#45;&gt;Node7 -->
<g id="edge20" class="edge">
<title>Node12&#45;&gt;Node7</title>
<path fill="none" stroke="#9a32cd" stroke-dasharray="5,2" d="M1031.96,-108.43C1017.81,-121.9 996.26,-140.15 974,-150.5 888.16,-190.43 778.09,-205.94 712.24,-211.88"/>
<polygon fill="#9a32cd" stroke="#9a32cd" points="1034.69,-110.65 1039.38,-101.14 1029.79,-105.65 1034.69,-110.65"/>
<text text-anchor="middle" x="850.5" y="-203.5" font-family="Helvetica,sans-Serif" font-size="10.00"> stats</text>
</g>
<!-- Node13 -->
<g id="node13" class="node">
<title>Node13</title>
<g id="a_node13"><a xlink:title=" ">
<polygon fill="white" stroke="#bfbfbf" points="818,-6 818,-25 883,-25 883,-6 818,-6"/>
<text text-anchor="middle" x="850.5" y="-13" font-family="Helvetica,sans-Serif" font-size="10.00">std::string</text>
</a>
</g>
</g>
<!-- Node13&#45;&gt;Node12 -->
<g id="edge22" class="edge">
<title>Node13&#45;&gt;Node12</title>
<path fill="none" stroke="#9a32cd" stroke-dasharray="5,2" d="M892.9,-25.91C916.96,-32.47 947.64,-41.73 974,-52.5 994.81,-61 1017.55,-73.39 1032.36,-81.91"/>
<polygon fill="#9a32cd" stroke="#9a32cd" points="893.59,-22.47 883.03,-23.26 891.78,-29.23 893.59,-22.47"/>
<text text-anchor="middle" x="949.5" y="-55.5" font-family="Helvetica,sans-Serif" font-size="10.00"> scorefile</text>
</g>
<!-- Node14 -->
<g id="node14" class="node">
<title>Node14</title>
<g id="a_node14"><a xlink:title=" ">
<polygon fill="white" stroke="#bfbfbf" points="602,-0.5 602,-30.5 706,-30.5 706,-0.5 602,-0.5"/>
<text text-anchor="start" x="610" y="-18.5" font-family="Helvetica,sans-Serif" font-size="10.00">std::basic_string&lt;</text>
<text text-anchor="middle" x="654" y="-7.5" font-family="Helvetica,sans-Serif" font-size="10.00"> Char &gt;</text>
</a>
</g>
</g>
<!-- Node14&#45;&gt;Node13 -->
<g id="edge23" class="edge">
<title>Node14&#45;&gt;Node13</title>
<path fill="none" stroke="midnightblue" d="M716.33,-15.5C750.06,-15.5 790.5,-15.5 817.9,-15.5"/>
<polygon fill="midnightblue" stroke="midnightblue" points="716.1,-12 706.1,-15.5 716.1,-19 716.1,-12"/>
</g>
<!-- Node15 -->
<g id="node15" class="node">
<title>Node15</title>
<g id="a_node15"><a xlink:title=" ">
<polygon fill="white" stroke="#bfbfbf" points="794,-82 794,-101 907,-101 907,-82 794,-82"/>
<text text-anchor="middle" x="850.5" y="-89" font-family="Helvetica,sans-Serif" font-size="10.00">std::vector&lt; float &gt;</text>
</a>
</g>
</g>
<!-- Node15&#45;&gt;Node12 -->
<g id="edge24" class="edge">
<title>Node15&#45;&gt;Node12</title>
<path fill="none" stroke="#9a32cd" stroke-dasharray="5,2" d="M917.55,-91.5C948.8,-91.5 984.95,-91.5 1011.34,-91.5"/>
<polygon fill="#9a32cd" stroke="#9a32cd" points="917.16,-88 907.16,-91.5 917.16,-95 917.16,-88"/>
<text text-anchor="middle" x="949.5" y="-138.5" font-family="Helvetica,sans-Serif" font-size="10.00"> aveScore</text>
<text text-anchor="middle" x="949.5" y="-127.5" font-family="Helvetica,sans-Serif" font-size="10.00">devScore</text>
<text text-anchor="middle" x="949.5" y="-116.5" font-family="Helvetica,sans-Serif" font-size="10.00">divScore</text>
<text text-anchor="middle" x="949.5" y="-105.5" font-family="Helvetica,sans-Serif" font-size="10.00">maxScore</text>
<text text-anchor="middle" x="949.5" y="-94.5" font-family="Helvetica,sans-Serif" font-size="10.00">minScore</text>
</g>
<!-- Node16 -->
<g id="node16" class="node">
<title>Node16</title>
<g id="a_node16"><a xlink:title=" ">
<polygon fill="white" stroke="#bfbfbf" points="798.5,-44 798.5,-63 902.5,-63 902.5,-44 798.5,-44"/>
<text text-anchor="middle" x="850.5" y="-51" font-family="Helvetica,sans-Serif" font-size="10.00">std::vector&lt; int &gt;</text>
</a>
</g>
</g>
<!-- Node16&#45;&gt;Node12 -->
<g id="edge25" class="edge">
<title>Node16&#45;&gt;Node12</title>
<path fill="none" stroke="#9a32cd" stroke-dasharray="5,2" d="M912.8,-64.85C932.37,-68.51 954.1,-72.63 974,-76.5 986.17,-78.87 999.45,-81.52 1011.38,-83.93"/>
<polygon fill="#9a32cd" stroke="#9a32cd" points="913.26,-61.37 902.79,-62.97 911.97,-68.25 913.26,-61.37"/>
<text text-anchor="middle" x="949.5" y="-79.5" font-family="Helvetica,sans-Serif" font-size="10.00"> gen</text>
</g>
<!-- Node17 -->
<g id="node17" class="node">
<title>Node17</title>
<g id="a_node17"><a xlink:href="classGAParameterList.html" target="_top" xlink:title="Parameter List.">
<polygon fill="white" stroke="black" points="318,-142 318,-161 416,-161 416,-142 318,-142"/>
<text text-anchor="middle" x="367" y="-149" font-family="Helvetica,sans-Serif" font-size="10.00">GAParameterList</text>
</a>
</g>
</g>
<!-- Node17&#45;&gt;Node7 -->
<g id="edge26" class="edge">
<title>Node17&#45;&gt;Node7</title>
<path fill="none" stroke="#9a32cd" stroke-dasharray="5,2" d="M426.3,-153.15C465.56,-155.46 518.15,-160.87 563,-173.5 590.05,-181.12 619.14,-196.06 636.71,-205.91"/>
<polygon fill="#9a32cd" stroke="#9a32cd" points="426.29,-149.65 416.11,-152.61 425.91,-156.64 426.29,-149.65"/>
<text text-anchor="middle" x="510.5" y="-176.5" font-family="Helvetica,sans-Serif" font-size="10.00"> params</text>
</g>
<!-- Node18 -->
<g id="node18" class="node">
<title>Node18</title>
<g id="a_node18"><a xlink:title=" ">
<polygon fill="white" stroke="#bfbfbf" points="133,-142 133,-161 214,-161 214,-142 133,-142"/>
<text text-anchor="middle" x="173.5" y="-149" font-family="Helvetica,sans-Serif" font-size="10.00">std::list&lt; T &gt;</text>
</a>
</g>
</g>
<!-- Node18&#45;&gt;Node17 -->
<g id="edge27" class="edge">
<title>Node18&#45;&gt;Node17</title>
<path fill="none" stroke="midnightblue" d="M224.45,-151.5C253.28,-151.5 289.37,-151.5 317.89,-151.5"/>
<polygon fill="midnightblue" stroke="midnightblue" points="224.18,-148 214.18,-151.5 224.18,-155 224.18,-148"/>
</g>
<!-- Node19 -->
<g id="node19" class="node">
<title>Node19</title>
<g id="a_node19"><a xlink:title=" ">
<polygon fill="white" stroke="#bfbfbf" points="0,-142 0,-161 29,-161 29,-142 0,-142"/>
<text text-anchor="middle" x="14.5" y="-149" font-family="Helvetica,sans-Serif" font-size="10.00">T</text>
</a>
</g>
</g>
<!-- Node19&#45;&gt;Node18 -->
<g id="edge28" class="edge">
<title>Node19&#45;&gt;Node18</title>
<path fill="none" stroke="#9a32cd" stroke-dasharray="5,2" d="M39.47,-151.5C64.31,-151.5 103.54,-151.5 132.98,-151.5"/>
<polygon fill="#9a32cd" stroke="#9a32cd" points="39.16,-148 29.16,-151.5 39.16,-155 39.16,-148"/>
<text text-anchor="middle" x="71.5" y="-154.5" font-family="Helvetica,sans-Serif" font-size="10.00"> elements</text>
</g>
<!-- Node20 -->
<g id="node20" class="node">
<title>Node20</title>
<g id="a_node20"><a xlink:href="classGABin2DecPhenotype.html" target="_top" xlink:title=" ">
<polygon fill="white" stroke="black" points="592.5,-76 592.5,-95 715.5,-95 715.5,-76 592.5,-76"/>
<text text-anchor="middle" x="654" y="-83" font-family="Helvetica,sans-Serif" font-size="10.00">GABin2DecPhenotype</text>
</a>
</g>
</g>
<!-- Node20&#45;&gt;Node1 -->
<g id="edge32" class="edge">
<title>Node20&#45;&gt;Node1</title>
<path fill="none" stroke="#9a32cd" stroke-dasharray="5,2" d="M707.09,-97.28C738.49,-104.39 777.96,-113.32 807.38,-119.97"/>
<polygon fill="#9a32cd" stroke="#9a32cd" points="707.73,-93.84 697.2,-95.05 706.18,-100.67 707.73,-93.84"/>
<text text-anchor="middle" x="760.5" y="-116.5" font-family="Helvetica,sans-Serif" font-size="10.00"> ptype</text>
</g>
<!-- Node21 -->
<g id="node21" class="node">
<title>Node21</title>
<g id="a_node21"><a xlink:href="classGABin2DecPhenotypeCore.html" target="_top" xlink:title=" ">
<polygon fill="white" stroke="black" points="294,-61 294,-80 440,-80 440,-61 294,-61"/>
<text text-anchor="middle" x="367" y="-68" font-family="Helvetica,sans-Serif" font-size="10.00">GABin2DecPhenotypeCore</text>
</a>
</g>
</g>
<!-- Node21&#45;&gt;Node20 -->
<g id="edge33" class="edge">
<title>Node21&#45;&gt;Node20</title>
<path fill="none" stroke="#9a32cd" stroke-dasharray="5,2" d="M450.39,-72.49C485.16,-73.59 526.07,-75.2 563,-77.5 572.39,-78.09 582.33,-78.84 592.03,-79.64"/>
<polygon fill="#9a32cd" stroke="#9a32cd" points="450.38,-68.99 440.28,-72.19 450.17,-75.99 450.38,-68.99"/>
<text text-anchor="middle" x="510.5" y="-80.5" font-family="Helvetica,sans-Serif" font-size="10.00"> core</text>
</g>
</g>
</svg>
