<?xml version="1.0" encoding="UTF-8" standalone="no"?>
<!DOCTYPE svg PUBLIC "-//W3C//DTD SVG 1.1//EN"
 "http://www.w3.org/Graphics/SVG/1.1/DTD/svg11.dtd">
<!-- Generated by graphviz version 2.43.0 (0)
 -->
<!-- Title: GA3DArrayGenome&lt; T &gt; Pages: 1 -->
<!--zoomable 473 -->

<svg id="main" version="1.1" xmlns="http://www.w3.org/2000/svg" xmlns:xlink="http://www.w3.org/1999/xlink" xml:space="preserve" onload="init(evt)">
<style type="text/css"><![CDATA[
.node, .edge {opacity: 0.7;}
.node.selected, .edge.selected {opacity: 1;}
.edge:hover path { stroke: red; }
.edge:hover polygon { stroke: red; fill: red; }
]]></style>

<defs>
  <circle id="rim" cx="0" cy="0" r="7"/>
  <circle id="rim2" cx="0" cy="0" r="3.5"/>
  <g id="zoomPlus">
    <use xlink:href="#rim" fill="#404040"><set attributeName="fill" to="#808080" begin="zoomplus.mouseover" end="zoomplus.mouseout"/></use>
    <path d="M-4,0h8M0,-4v8" fill="none" stroke="white" stroke-width="1.5" pointer-events="none"/>
  </g>
  <g id="zoomMin">
    <use xlink:href="#rim" fill="#404040"><set attributeName="fill" to="#808080" begin="zoomminus.mouseover" end="zoomminus.mouseout"/></use>
    <path d="M-4,0h8" fill="none" stroke="white" stroke-width="1.5" pointer-events="none"/>
  </g>
  <g id="arrowUp" transform="translate(30 24)">
    <use xlink:href="#rim"/>
    <path pointer-events="none" fill="none" stroke="white" stroke-width="1.5" d="M0,-3.0v7 M-2.5,-0.5L0,-3.0L2.5,-0.5"/>
  </g>
  <g id="arrowRight" transform="rotate(90) translate(36 -43)">
    <use xlink:href="#rim"/>
    <path pointer-events="none" fill="none" stroke="white" stroke-width="1.5" d="M0,-3.0v7 M-2.5,-0.5L0,-3.0L2.5,-0.5"/>
  </g>
  <g id="arrowDown" transform="rotate(180) translate(-30 -48)">
    <use xlink:href="#rim"/>
    <path pointer-events="none" fill="none" stroke="white" stroke-width="1.5" d="M0,-3.0v7 M-2.5,-0.5L0,-3.0L2.5,-0.5"/>
  </g>
  <g id="arrowLeft" transform="rotate(270) translate(-36 17)">
    <use xlink:href="#rim"/>
    <path pointer-events="none" fill="none" stroke="white" stroke-width="1.5" d="M0,-3.0v7 M-2.5,-0.5L0,-3.0L2.5,-0.5"/>
  </g>
  <g id="resetDef">
    <use xlink:href="#rim2" fill="#404040"><set attributeName="fill" to="#808080" begin="reset.mouseover" end="reset.mouseout"/></use>
  </g>
</defs>
<script type="application/ecmascript">
var viewWidth = 719;
var viewHeight = 473;
var sectionId = 'dynsection-1';
</script>
<script type="application/ecmascript" xlink:href="svg.min.js"/>
<svg id="graph" class="graph">
<g id="viewport">
<title>GA3DArrayGenome&lt; T &gt;</title>
<!-- Node1 -->
<g id="Node000001" class="node">
<title>Node1</title>
<g id="a_Node000001"><a xlink:title=" ">
<polygon fill="#999999" stroke="#666666" points="312,-203.5 172,-203.5 172,-184.5 312,-184.5 312,-203.5"/>
<text text-anchor="middle" x="242" y="-191.5" font-family="Helvetica,sans-Serif" font-size="10.00">GA3DArrayGenome&lt; T &gt;</text>
</a>
</g>
</g>
<!-- Node2 -->
<g id="Node000002" class="node">
<title>Node2</title>
<g id="a_Node000002"><a xlink:href="classGAArray.html" target="_top" xlink:title="Array Base Class.">
<polygon fill="white" stroke="#666666" points="246,-309.5 160,-309.5 160,-290.5 246,-290.5 246,-309.5"/>
<text text-anchor="middle" x="203" y="-297.5" font-family="Helvetica,sans-Serif" font-size="10.00">GAArray&lt; T &gt;</text>
</a>
</g>
</g>
<!-- Node2&#45;&gt;Node1 -->
<g id="edge1_Node000001_Node000002" class="edge">
<title>Node2&#45;&gt;Node1</title>
<g id="a_edge1_Node000001_Node000002"><a xlink:title=" ">
<path fill="none" stroke="#63b8ff" d="M209.73,-281.05C218.2,-258.46 232.41,-220.56 238.76,-203.63"/>
<polygon fill="#63b8ff" stroke="#63b8ff" points="206.43,-279.9 206.19,-290.49 212.98,-282.35 206.43,-279.9"/>
</a>
</g>
</g>
<!-- Node3 -->
<g id="Node000003" class="node">
<title>Node3</title>
<g id="a_Node000003"><a xlink:href="classGAGenome.html" target="_top" xlink:title="The base genome class just defines the genome interface &#45; how to mutate, crossover,...">
<polygon fill="white" stroke="#666666" points="452,-309.5 380,-309.5 380,-290.5 452,-290.5 452,-309.5"/>
<text text-anchor="middle" x="416" y="-297.5" font-family="Helvetica,sans-Serif" font-size="10.00">GAGenome</text>
</a>
</g>
</g>
<!-- Node3&#45;&gt;Node1 -->
<g id="edge2_Node000001_Node000003" class="edge">
<title>Node3&#45;&gt;Node1</title>
<g id="a_edge2_Node000001_Node000003"><a xlink:title=" ">
<path fill="none" stroke="#63b8ff" d="M405.28,-281.87C394.15,-265.46 375.26,-241.15 353,-227 335.31,-215.76 313.57,-208.36 294.03,-203.54"/>
<polygon fill="#63b8ff" stroke="#63b8ff" points="402.51,-284.03 410.91,-290.49 408.37,-280.2 402.51,-284.03"/>
</a>
</g>
</g>
<!-- Node3&#45;&gt;Node3 -->
<g id="edge28_Node000003_Node000003" class="edge">
<title>Node3&#45;&gt;Node3</title>
<g id="a_edge28_Node000003_Node000003"><a xlink:title=" ">
<path fill="none" stroke="#9a32cd" stroke-dasharray="5,2" d="M449.1,-310.5C460.65,-310.63 470,-307.14 470,-300 470,-290.87 454.68,-287.69 439.03,-290.47"/>
<polygon fill="#9a32cd" stroke="#9a32cd" points="449.32,-307 439.03,-309.53 448.65,-313.97 449.32,-307"/>
</a>
</g>
<text text-anchor="middle" x="496" y="-325" font-family="Helvetica,sans-Serif" font-size="10.00" fill="grey"> asexcross</text>
<text text-anchor="middle" x="496" y="-314" font-family="Helvetica,sans-Serif" font-size="10.00" fill="grey">cmp</text>
<text text-anchor="middle" x="496" y="-303" font-family="Helvetica,sans-Serif" font-size="10.00" fill="grey">eval</text>
<text text-anchor="middle" x="496" y="-292" font-family="Helvetica,sans-Serif" font-size="10.00" fill="grey">init</text>
<text text-anchor="middle" x="496" y="-281" font-family="Helvetica,sans-Serif" font-size="10.00" fill="grey">mutr</text>
<text text-anchor="middle" x="496" y="-270" font-family="Helvetica,sans-Serif" font-size="10.00" fill="grey">sexcross</text>
</g>
<!-- Node5 -->
<g id="Node000005" class="node">
<title>Node5</title>
<g id="a_Node000005"><a xlink:href="classGAGeneticAlgorithm.html" target="_top" xlink:title="The base GA class is virtual &#45; it defines the core data elements and parts of the interface that are ...">
<polygon fill="white" stroke="#666666" points="458,-203.5 342,-203.5 342,-184.5 458,-184.5 458,-203.5"/>
<text text-anchor="middle" x="400" y="-191.5" font-family="Helvetica,sans-Serif" font-size="10.00">GAGeneticAlgorithm</text>
</a>
</g>
</g>
<!-- Node3&#45;&gt;Node5 -->
<g id="edge27_Node000005_Node000003" class="edge">
<title>Node3&#45;&gt;Node5</title>
<g id="a_edge27_Node000005_Node000003"><a xlink:title=" ">
<path fill="none" stroke="#9a32cd" stroke-dasharray="5,2" d="M418.87,-280.11C420.48,-265.41 421.39,-244.61 417,-227 414.9,-218.58 410.13,-209.94 406.17,-203.76"/>
<polygon fill="#9a32cd" stroke="#9a32cd" points="415.34,-280.04 417.51,-290.41 422.29,-280.96 415.34,-280.04"/>
</a>
</g>
<text text-anchor="middle" x="436.5" y="-241" font-family="Helvetica,sans-Serif" font-size="10.00" fill="grey"> across</text>
<text text-anchor="middle" x="436.5" y="-230" font-family="Helvetica,sans-Serif" font-size="10.00" fill="grey">scross</text>
</g>
<!-- Node11 -->
<g id="Node000011" class="node">
<title>Node11</title>
<g id="a_Node000011"><a xlink:href="classGAPopulation.html" target="_top" xlink:title=" ">
<polygon fill="white" stroke="#bfbfbf" points="566.5,-130.5 483.5,-130.5 483.5,-111.5 566.5,-111.5 566.5,-130.5"/>
<text text-anchor="middle" x="525" y="-118.5" font-family="Helvetica,sans-Serif" font-size="10.00">GAPopulation</text>
</a>
</g>
</g>
<!-- Node3&#45;&gt;Node11 -->
<g id="edge13_Node000011_Node000003" class="edge">
<title>Node3&#45;&gt;Node11</title>
<g id="a_edge13_Node000011_Node000003"><a xlink:title=" ">
<path fill="none" stroke="#9a32cd" stroke-dasharray="5,2" d="M434.11,-283.58C452.61,-266.92 480.97,-238.75 498,-209 513.09,-182.65 520.73,-146.89 523.61,-130.65"/>
<polygon fill="#9a32cd" stroke="#9a32cd" points="431.57,-281.15 426.38,-290.39 436.2,-286.4 431.57,-281.15"/>
</a>
</g>
<text text-anchor="middle" x="521" y="-197" font-family="Helvetica,sans-Serif" font-size="10.00" fill="grey"> rind</text>
<text text-anchor="middle" x="521" y="-186" font-family="Helvetica,sans-Serif" font-size="10.00" fill="grey">sind</text>
</g>
<!-- Node4 -->
<g id="Node000004" class="node">
<title>Node4</title>
<g id="a_Node000004"><a xlink:href="classGAID.html" target="_top" xlink:title="This defines the identifiers for polymorphic classes.">
<polygon fill="white" stroke="#666666" points="608.5,-399 567.5,-399 567.5,-380 608.5,-380 608.5,-399"/>
<text text-anchor="middle" x="588" y="-387" font-family="Helvetica,sans-Serif" font-size="10.00">GAID</text>
</a>
</g>
</g>
<!-- Node4&#45;&gt;Node3 -->
<g id="edge3_Node000003_Node000004" class="edge">
<title>Node4&#45;&gt;Node3</title>
<g id="a_edge3_Node000003_Node000004"><a xlink:title=" ">
<path fill="none" stroke="#63b8ff" d="M561.89,-375.22C526.14,-357.03 462.98,-324.9 432.87,-309.58"/>
<polygon fill="#63b8ff" stroke="#63b8ff" points="560.69,-378.54 571.19,-379.95 563.87,-372.3 560.69,-378.54"/>
</a>
</g>
</g>
<!-- Node4&#45;&gt;Node5 -->
<g id="edge5_Node000005_Node000004" class="edge">
<title>Node4&#45;&gt;Node5</title>
<g id="a_edge5_Node000005_Node000004"><a xlink:title=" ">
<path fill="none" stroke="#63b8ff" d="M578.51,-370.9C576.97,-367.95 575.42,-364.9 574,-362 553.61,-320.38 562.48,-301.02 531,-267 501.56,-235.19 454.79,-214.24 425.82,-203.52"/>
<polygon fill="#63b8ff" stroke="#63b8ff" points="575.42,-372.54 583.2,-379.74 581.6,-369.26 575.42,-372.54"/>
</a>
</g>
</g>
<!-- Node4&#45;&gt;Node11 -->
<g id="edge12_Node000011_Node000004" class="edge">
<title>Node4&#45;&gt;Node11</title>
<g id="a_edge12_Node000011_Node000004"><a xlink:title=" ">
<path fill="none" stroke="#63b8ff" d="M583.83,-370.18C578.4,-346.38 568.59,-303.57 560,-267 547.77,-214.95 544.71,-201.94 532,-150 530.43,-143.58 528.62,-136.33 527.23,-130.82"/>
<polygon fill="#63b8ff" stroke="#63b8ff" points="580.42,-370.98 586.06,-379.95 587.25,-369.42 580.42,-370.98"/>
</a>
</g>
</g>
<!-- Node12 -->
<g id="Node000012" class="node">
<title>Node12</title>
<g id="a_Node000012"><a xlink:href="classGAScalingScheme.html" target="_top" xlink:title=" ">
<polygon fill="white" stroke="#bfbfbf" points="695.5,-247.5 590.5,-247.5 590.5,-228.5 695.5,-228.5 695.5,-247.5"/>
<text text-anchor="middle" x="643" y="-235.5" font-family="Helvetica,sans-Serif" font-size="10.00">GAScalingScheme</text>
</a>
</g>
</g>
<!-- Node4&#45;&gt;Node12 -->
<g id="edge15_Node000012_Node000004" class="edge">
<title>Node4&#45;&gt;Node12</title>
<g id="a_edge15_Node000012_Node000004"><a xlink:title=" ">
<path fill="none" stroke="#63b8ff" d="M597.75,-371.02C599.26,-368.05 600.73,-364.97 602,-362 619.87,-320.19 635.07,-267.78 640.68,-247.53"/>
<polygon fill="#63b8ff" stroke="#63b8ff" points="594.66,-369.37 593.04,-379.84 600.84,-372.67 594.66,-369.37"/>
</a>
</g>
</g>
<!-- Node13 -->
<g id="Node000013" class="node">
<title>Node13</title>
<g id="a_Node000013"><a xlink:href="classGASelectionScheme.html" target="_top" xlink:title=" ">
<polygon fill="white" stroke="#bfbfbf" points="626.5,-19 511.5,-19 511.5,0 626.5,0 626.5,-19"/>
<text text-anchor="middle" x="569" y="-7" font-family="Helvetica,sans-Serif" font-size="10.00">GASelectionScheme</text>
</a>
</g>
</g>
<!-- Node4&#45;&gt;Node13 -->
<g id="edge17_Node000013_Node000004" class="edge">
<title>Node4&#45;&gt;Node13</title>
<g id="a_edge17_Node000013_Node000004"><a xlink:title=" ">
<path fill="none" stroke="#63b8ff" d="M618.27,-381.21C654.69,-370.42 711,-346.39 711,-301 711,-301 711,-301 711,-120 711,-64.12 641.19,-32.77 599.46,-19.02"/>
<polygon fill="#63b8ff" stroke="#63b8ff" points="617.28,-377.85 608.59,-383.91 619.16,-384.59 617.28,-377.85"/>
</a>
</g>
</g>
<!-- Node5&#45;&gt;Node3 -->
<g id="edge4_Node000003_Node000005" class="edge">
<title>Node5&#45;&gt;Node3</title>
<g id="a_edge4_Node000003_Node000005"><a xlink:title=" ">
<path fill="none" stroke="#9a32cd" stroke-dasharray="5,2" d="M399.1,-213.89C398.91,-224.31 399.19,-237.43 401,-249 403.32,-263.86 408.94,-280.47 412.6,-290.32"/>
<polygon fill="#9a32cd" stroke="#9a32cd" points="402.59,-213.97 399.43,-203.86 395.6,-213.73 402.59,-213.97"/>
</a>
</g>
<text text-anchor="middle" x="409" y="-235.5" font-family="Helvetica,sans-Serif" font-size="10.00" fill="grey"> ga</text>
</g>
<!-- Node5&#45;&gt;Node5 -->
<g id="edge26_Node000005_Node000005" class="edge">
<title>Node5&#45;&gt;Node5</title>
<g id="a_edge26_Node000005_Node000005"><a xlink:title=" ">
<path fill="none" stroke="#9a32cd" stroke-dasharray="5,2" d="M468.48,-199.15C473.16,-197.97 476,-196.25 476,-194 476,-190.4 468.73,-188.16 458.31,-187.29"/>
<polygon fill="#9a32cd" stroke="#9a32cd" points="467.67,-195.74 458.31,-200.71 468.73,-202.65 467.67,-195.74"/>
</a>
</g>
<text text-anchor="middle" x="482.5" y="-191.5" font-family="Helvetica,sans-Serif" font-size="10.00" fill="grey"> cf</text>
</g>
<!-- Node5&#45;&gt;Node11 -->
<g id="edge20_Node000011_Node000005" class="edge">
<title>Node5&#45;&gt;Node11</title>
<g id="a_edge20_Node000011_Node000005"><a xlink:title=" ">
<path fill="none" stroke="#9a32cd" stroke-dasharray="5,2" d="M407.09,-175.02C411.36,-166.31 417.62,-156.39 426,-150 435.23,-142.96 460.62,-135.85 483.37,-130.56"/>
<polygon fill="#9a32cd" stroke="#9a32cd" points="403.79,-173.84 402.97,-184.4 410.2,-176.65 403.79,-173.84"/>
</a>
</g>
<text text-anchor="middle" x="434" y="-153" font-family="Helvetica,sans-Serif" font-size="10.00" fill="grey"> ga</text>
</g>
<!-- Node6 -->
<g id="Node000006" class="node">
<title>Node6</title>
<g id="a_Node000006"><a xlink:href="classGAStatistics.html" target="_top" xlink:title="Statistics class.">
<polygon fill="white" stroke="#666666" points="320,-19 244,-19 244,0 320,0 320,-19"/>
<text text-anchor="middle" x="282" y="-7" font-family="Helvetica,sans-Serif" font-size="10.00">GAStatistics</text>
</a>
</g>
</g>
<!-- Node6&#45;&gt;Node5 -->
<g id="edge6_Node000005_Node000006" class="edge">
<title>Node6&#45;&gt;Node5</title>
<g id="a_edge6_Node000005_Node000006"><a xlink:title=" ">
<path fill="none" stroke="#9a32cd" stroke-dasharray="5,2" d="M258.3,-24.59C223.1,-47.3 164.11,-93.36 193,-132 203.29,-145.76 305.19,-171.14 362.07,-184.41"/>
<polygon fill="#9a32cd" stroke="#9a32cd" points="260.47,-27.36 267.08,-19.09 256.75,-21.43 260.47,-27.36"/>
</a>
</g>
<text text-anchor="middle" x="207" y="-118.5" font-family="Helvetica,sans-Serif" font-size="10.00" fill="grey"> stats</text>
</g>
<!-- Node7 -->
<g id="Node000007" class="node">
<title>Node7</title>
<g id="a_Node000007"><a xlink:title=" ">
<polygon fill="white" stroke="#666666" points="334,-130.5 230,-130.5 230,-111.5 334,-111.5 334,-130.5"/>
<text text-anchor="middle" x="282" y="-118.5" font-family="Helvetica,sans-Serif" font-size="10.00">std::vector&lt; int &gt;</text>
</a>
</g>
</g>
<!-- Node7&#45;&gt;Node6 -->
<g id="edge7_Node000006_Node000007" class="edge">
<title>Node7&#45;&gt;Node6</title>
<g id="a_edge7_Node000006_Node000007"><a xlink:title=" ">
<path fill="none" stroke="#9a32cd" stroke-dasharray="5,2" d="M282,-101.11C282,-77.08 282,-36.61 282,-19.05"/>
<polygon fill="#9a32cd" stroke="#9a32cd" points="278.5,-101.41 282,-111.41 285.5,-101.41 278.5,-101.41"/>
</a>
</g>
<text text-anchor="middle" x="293" y="-62" font-family="Helvetica,sans-Serif" font-size="10.00" fill="grey"> gen</text>
</g>
<!-- Node8 -->
<g id="Node000008" class="node">
<title>Node8</title>
<g id="a_Node000008"><a xlink:title=" ">
<polygon fill="white" stroke="#666666" points="465.5,-130.5 352.5,-130.5 352.5,-111.5 465.5,-111.5 465.5,-130.5"/>
<text text-anchor="middle" x="409" y="-118.5" font-family="Helvetica,sans-Serif" font-size="10.00">std::vector&lt; float &gt;</text>
</a>
</g>
</g>
<!-- Node8&#45;&gt;Node6 -->
<g id="edge8_Node000006_Node000008" class="edge">
<title>Node8&#45;&gt;Node6</title>
<g id="a_edge8_Node000006_Node000008"><a xlink:title=" ">
<path fill="none" stroke="#9a32cd" stroke-dasharray="5,2" d="M391.12,-104.58C363.98,-81.18 313.3,-37.49 291.92,-19.05"/>
<polygon fill="#9a32cd" stroke="#9a32cd" points="389.18,-107.53 399.03,-111.41 393.75,-102.23 389.18,-107.53"/>
</a>
</g>
<text text-anchor="middle" x="398.5" y="-84" font-family="Helvetica,sans-Serif" font-size="10.00" fill="grey"> aveScore</text>
<text text-anchor="middle" x="398.5" y="-73" font-family="Helvetica,sans-Serif" font-size="10.00" fill="grey">devScore</text>
<text text-anchor="middle" x="398.5" y="-62" font-family="Helvetica,sans-Serif" font-size="10.00" fill="grey">divScore</text>
<text text-anchor="middle" x="398.5" y="-51" font-family="Helvetica,sans-Serif" font-size="10.00" fill="grey">maxScore</text>
<text text-anchor="middle" x="398.5" y="-40" font-family="Helvetica,sans-Serif" font-size="10.00" fill="grey">minScore</text>
</g>
<!-- Node9 -->
<g id="Node000009" class="node">
<title>Node9</title>
<g id="a_Node000009"><a xlink:title=" ">
<polygon fill="white" stroke="#666666" points="116.5,-130.5 51.5,-130.5 51.5,-111.5 116.5,-111.5 116.5,-130.5"/>
<text text-anchor="middle" x="84" y="-118.5" font-family="Helvetica,sans-Serif" font-size="10.00">std::string</text>
</a>
</g>
</g>
<!-- Node9&#45;&gt;Node6 -->
<g id="edge9_Node000006_Node000009" class="edge">
<title>Node9&#45;&gt;Node6</title>
<g id="a_edge9_Node000006_Node000009"><a xlink:title=" ">
<path fill="none" stroke="#9a32cd" stroke-dasharray="5,2" d="M87.91,-101.56C93,-82.29 103.88,-52.71 125,-37 143.35,-23.35 203.59,-16.27 243.89,-12.98"/>
<polygon fill="#9a32cd" stroke="#9a32cd" points="84.5,-100.76 85.59,-111.29 91.31,-102.38 84.5,-100.76"/>
</a>
</g>
<text text-anchor="middle" x="147.5" y="-62" font-family="Helvetica,sans-Serif" font-size="10.00" fill="grey"> scorefile</text>
</g>
<!-- Node10 -->
<g id="Node000010" class="node">
<title>Node10</title>
<g id="a_Node000010"><a xlink:title=" ">
<polygon fill="white" stroke="#666666" points="104,-209 0,-209 0,-179 104,-179 104,-209"/>
<text text-anchor="start" x="8" y="-197" font-family="Helvetica,sans-Serif" font-size="10.00">std::basic_string&lt;</text>
<text text-anchor="middle" x="52" y="-186" font-family="Helvetica,sans-Serif" font-size="10.00"> Char &gt;</text>
</a>
</g>
</g>
<!-- Node10&#45;&gt;Node9 -->
<g id="edge10_Node000009_Node000010" class="edge">
<title>Node10&#45;&gt;Node9</title>
<g id="a_edge10_Node000009_Node000010"><a xlink:title=" ">
<path fill="none" stroke="#63b8ff" d="M62.45,-169.81C68.5,-156.4 75.75,-140.31 80.11,-130.64"/>
<polygon fill="#63b8ff" stroke="#63b8ff" points="59.24,-168.42 58.32,-178.97 65.62,-171.29 59.24,-168.42"/>
</a>
</g>
</g>
<!-- Node11&#45;&gt;Node5 -->
<g id="edge25_Node000005_Node000011" class="edge">
<title>Node11&#45;&gt;Node5</title>
<g id="a_edge25_Node000005_Node000011"><a xlink:title=" ">
<path fill="none" stroke="#9a32cd" stroke-dasharray="5,2" d="M500.99,-135.64C475.73,-149.99 436.72,-172.15 415.33,-184.29"/>
<polygon fill="#9a32cd" stroke="#9a32cd" points="502.97,-138.54 509.94,-130.56 499.51,-132.45 502.97,-138.54"/>
</a>
</g>
<text text-anchor="middle" x="484" y="-153" font-family="Helvetica,sans-Serif" font-size="10.00" fill="grey"> pop</text>
</g>
<!-- Node11&#45;&gt;Node6 -->
<g id="edge11_Node000006_Node000011" class="edge">
<title>Node11&#45;&gt;Node6</title>
<g id="a_edge11_Node000006_Node000011"><a xlink:title=" ">
<path fill="none" stroke="#9a32cd" stroke-dasharray="5,2" d="M506.56,-104.93C501.5,-100.77 496.02,-96.23 491,-92 462.3,-67.86 460.85,-53.16 427,-37 393.05,-20.8 350.28,-14.46 320.01,-12.01"/>
<polygon fill="#9a32cd" stroke="#9a32cd" points="504.59,-107.84 514.54,-111.48 509.03,-102.43 504.59,-107.84"/>
</a>
</g>
<text text-anchor="middle" x="502" y="-62" font-family="Helvetica,sans-Serif" font-size="10.00" fill="grey"> boa</text>
</g>
<!-- Node11&#45;&gt;Node11 -->
<g id="edge19_Node000011_Node000011" class="edge">
<title>Node11&#45;&gt;Node11</title>
<g id="a_edge19_Node000011_Node000011"><a xlink:title=" ">
<path fill="none" stroke="#9a32cd" stroke-dasharray="5,2" d="M576.82,-126.07C581.53,-125.01 584.5,-123.32 584.5,-121 584.5,-117.28 576.91,-115.19 566.71,-114.72"/>
<polygon fill="#9a32cd" stroke="#9a32cd" points="576.22,-122.61 566.71,-127.28 577.05,-129.56 576.22,-122.61"/>
</a>
</g>
<text text-anchor="middle" x="597" y="-124" font-family="Helvetica,sans-Serif" font-size="10.00" fill="grey"> eval</text>
<text text-anchor="middle" x="597" y="-113" font-family="Helvetica,sans-Serif" font-size="10.00" fill="grey">init</text>
</g>
<!-- Node11&#45;&gt;Node13 -->
<g id="edge18_Node000013_Node000011" class="edge">
<title>Node11&#45;&gt;Node13</title>
<g id="a_edge18_Node000013_Node000011"><a xlink:title=" ">
<path fill="none" stroke="#9a32cd" stroke-dasharray="5,2" d="M539.89,-103.26C542.54,-99.71 545.06,-95.87 547,-92 559.35,-67.37 565.43,-34.96 567.78,-19.48"/>
<polygon fill="#9a32cd" stroke="#9a32cd" points="536.94,-101.34 533.34,-111.31 542.37,-105.76 536.94,-101.34"/>
</a>
</g>
<text text-anchor="middle" x="575" y="-62" font-family="Helvetica,sans-Serif" font-size="10.00" fill="grey"> pop</text>
</g>
<!-- Node12&#45;&gt;Node11 -->
<g id="edge14_Node000011_Node000012" class="edge">
<title>Node12&#45;&gt;Node11</title>
<g id="a_edge14_Node000011_Node000012"><a xlink:title=" ">
<path fill="none" stroke="#9a32cd" stroke-dasharray="5,2" d="M635.71,-218.95C627.1,-199.62 611.11,-169.15 589,-150 579.01,-141.34 565.92,-134.98 554.19,-130.53"/>
<polygon fill="#9a32cd" stroke="#9a32cd" points="632.59,-220.57 639.73,-228.4 639.04,-217.83 632.59,-220.57"/>
</a>
</g>
<text text-anchor="middle" x="648.5" y="-191.5" font-family="Helvetica,sans-Serif" font-size="10.00" fill="grey"> sclscm</text>
</g>
<!-- Node13&#45;&gt;Node11 -->
<g id="edge16_Node000011_Node000013" class="edge">
<title>Node13&#45;&gt;Node11</title>
<g id="a_edge16_Node000011_Node000013"><a xlink:title=" ">
<path fill="none" stroke="#9a32cd" stroke-dasharray="5,2" d="M537.6,-24.46C532.96,-27.89 528.81,-32.04 526,-37 512.44,-60.95 518.56,-95.36 522.54,-111.3"/>
<polygon fill="#9a32cd" stroke="#9a32cd" points="539.65,-27.31 546.28,-19.04 535.94,-21.37 539.65,-27.31"/>
</a>
</g>
<text text-anchor="middle" x="536.5" y="-62" font-family="Helvetica,sans-Serif" font-size="10.00" fill="grey"> slct</text>
</g>
<!-- Node14 -->
<g id="Node000014" class="node">
<title>Node14</title>
<g id="a_Node000014"><a xlink:href="classGAEvalData.html" target="_top" xlink:title="This is the basic interface for the object that contains evaluation data.">
<polygon fill="white" stroke="#666666" points="346.5,-399 271.5,-399 271.5,-380 346.5,-380 346.5,-399"/>
<text text-anchor="middle" x="309" y="-387" font-family="Helvetica,sans-Serif" font-size="10.00">GAEvalData</text>
</a>
</g>
</g>
<!-- Node14&#45;&gt;Node3 -->
<g id="edge29_Node000003_Node000014" class="edge">
<title>Node14&#45;&gt;Node3</title>
<g id="a_edge29_Node000003_Node000014"><a xlink:title=" ">
<path fill="none" stroke="#9a32cd" stroke-dasharray="5,2" d="M327.48,-373.38C349.99,-354.98 387.24,-324.52 405.39,-309.67"/>
<polygon fill="#9a32cd" stroke="#9a32cd" points="325.18,-370.75 319.65,-379.79 329.61,-376.17 325.18,-370.75"/>
</a>
</g>
<text text-anchor="middle" x="363" y="-354" font-family="Helvetica,sans-Serif" font-size="10.00" fill="grey"> evd</text>
</g>
<!-- Node14&#45;&gt;Node11 -->
<g id="edge21_Node000011_Node000014" class="edge">
<title>Node14&#45;&gt;Node11</title>
<g id="a_edge21_Node000011_Node000014"><a xlink:title=" ">
<path fill="none" stroke="#9a32cd" stroke-dasharray="5,2" d="M261.37,-385.91C224.55,-381.1 175.81,-368.02 151,-333 111.31,-276.99 114.8,-227.88 163,-179 212.23,-129.08 405.94,-144.1 475,-132 477.7,-131.53 480.48,-131.02 483.29,-130.5"/>
<polygon fill="#9a32cd" stroke="#9a32cd" points="261.07,-389.4 271.4,-387.06 261.87,-382.44 261.07,-389.4"/>
</a>
</g>
<text text-anchor="middle" x="153" y="-235.5" font-family="Helvetica,sans-Serif" font-size="10.00" fill="grey"> evaldata</text>
</g>
<!-- Node15 -->
<g id="Node000015" class="node">
<title>Node15</title>
<g id="a_Node000015"><a xlink:href="classGAParameterList.html" target="_top" xlink:title="Parameter List.">
<polygon fill="white" stroke="#666666" points="362,-309.5 264,-309.5 264,-290.5 362,-290.5 362,-309.5"/>
<text text-anchor="middle" x="313" y="-297.5" font-family="Helvetica,sans-Serif" font-size="10.00">GAParameterList</text>
</a>
</g>
</g>
<!-- Node15&#45;&gt;Node5 -->
<g id="edge22_Node000005_Node000015" class="edge">
<title>Node15&#45;&gt;Node5</title>
<g id="a_edge22_Node000005_Node000015"><a xlink:title=" ">
<path fill="none" stroke="#9a32cd" stroke-dasharray="5,2" d="M320.94,-280.78C328.28,-265.32 340.25,-243.14 355,-227 363.54,-217.66 375.23,-209.44 384.56,-203.68"/>
<polygon fill="#9a32cd" stroke="#9a32cd" points="317.59,-279.7 316.63,-290.25 323.96,-282.6 317.59,-279.7"/>
</a>
</g>
<text text-anchor="middle" x="375" y="-235.5" font-family="Helvetica,sans-Serif" font-size="10.00" fill="grey"> params</text>
</g>
<!-- Node16 -->
<g id="Node000016" class="node">
<title>Node16</title>
<g id="a_Node000016"><a xlink:title=" ">
<polygon fill="white" stroke="#666666" points="147.5,-399 66.5,-399 66.5,-380 147.5,-380 147.5,-399"/>
<text text-anchor="middle" x="107" y="-387" font-family="Helvetica,sans-Serif" font-size="10.00">std::list&lt; T &gt;</text>
</a>
</g>
</g>
<!-- Node16&#45;&gt;Node15 -->
<g id="edge23_Node000015_Node000016" class="edge">
<title>Node16&#45;&gt;Node15</title>
<g id="a_edge23_Node000015_Node000016"><a xlink:title=" ">
<path fill="none" stroke="#63b8ff" d="M142.85,-376.7C173.2,-366.32 217.6,-350.22 255,-333 270.25,-325.98 286.97,-316.56 298.52,-309.76"/>
<polygon fill="#63b8ff" stroke="#63b8ff" points="141.48,-373.47 133.13,-379.99 143.73,-380.1 141.48,-373.47"/>
</a>
</g>
</g>
<!-- Node17 -->
<g id="Node000017" class="node">
<title>Node17</title>
<g id="a_Node000017"><a xlink:title=" ">
<polygon fill="white" stroke="#bfbfbf" points="121.5,-465 92.5,-465 92.5,-446 121.5,-446 121.5,-465"/>
<text text-anchor="middle" x="107" y="-453" font-family="Helvetica,sans-Serif" font-size="10.00">T</text>
</a>
</g>
</g>
<!-- Node17&#45;&gt;Node16 -->
<g id="edge24_Node000016_Node000017" class="edge">
<title>Node17&#45;&gt;Node16</title>
<g id="a_edge24_Node000016_Node000017"><a xlink:title=" ">
<path fill="none" stroke="#9a32cd" stroke-dasharray="5,2" d="M107,-435.58C107,-423.63 107,-408.72 107,-399.41"/>
<polygon fill="#9a32cd" stroke="#9a32cd" points="103.5,-435.87 107,-445.87 110.5,-435.87 103.5,-435.87"/>
</a>
</g>
<text text-anchor="middle" x="131.5" y="-420" font-family="Helvetica,sans-Serif" font-size="10.00" fill="grey"> elements</text>
</g>
</g>
</svg>

<g id="navigator" transform="translate(0 0)" fill="#404254">
  <rect fill="#f2f5e9" fill-opacity="0.5" stroke="#606060" stroke-width=".5" x="0" y="0" width="60" height="60"/>
  <use id="zoomplus" xlink:href="#zoomPlus" x="17" y="9" onmousedown="handleZoom(evt,'in')"/>
  <use id="zoomminus" xlink:href="#zoomMin" x="42" y="9" onmousedown="handleZoom(evt,'out')"/>
  <use id="reset" xlink:href="#resetDef" x="30" y="36" onmousedown="handleReset()"/>
   <use id="arrowup" xlink:href="#arrowUp" x="0" y="0" onmousedown="handlePan(0,-1)"/>
  <use id="arrowright" xlink:href="#arrowRight" x="0" y="0" onmousedown="handlePan(1,0)"/>
  <use id="arrowdown" xlink:href="#arrowDown" x="0" y="0" onmousedown="handlePan(0,1)"/>
  <use id="arrowleft" xlink:href="#arrowLeft" x="0" y="0" onmousedown="handlePan(-1,0)"/>
</g>
<svg viewBox="0 0 15 15" width="100%" height="30px" preserveAspectRatio="xMaxYMin meet">
 <g id="arrow_out" transform="scale(0.3 0.3)">
  <a xlink:href="classGA3DArrayGenome__coll__graph_org.svg" target="_base">
   <rect id="button" ry="5" rx="5" y="6" x="6" height="38" width="38"
        fill="#f2f5e9" fill-opacity="0.5" stroke="#606060" stroke-width="1.0"/>
   <path id="arrow"
     d="M 11.500037,31.436501 C 11.940474,20.09759 22.043105,11.32322 32.158766,21.979434 L 37.068811,17.246167 C 37.068811,17.246167 37.088388,32 37.088388,32 L 22.160133,31.978069 C 22.160133,31.978069 26.997745,27.140456 26.997745,27.140456 C 18.528582,18.264221 13.291696,25.230495 11.500037,31.436501 z"
     style="fill:#404040;"/>
  </a>
 </g>
</svg>

<style type='text/css'>
<![CDATA[
[data-mouse-over-selected='false'] { opacity: 0.7; }
[data-mouse-over-selected='true']  { opacity: 1.0; }
]]>
</style>
<script type="application/ecmascript"><![CDATA[
document.addEventListener('DOMContentLoaded', (event) => {
  highlightEdges();
  highlightAdjacentNodes();
});
]]></script>
</svg>
