<?xml version="1.0" encoding="UTF-8" standalone="no"?>
<!DOCTYPE svg PUBLIC "-//W3C//DTD SVG 1.1//EN"
 "http://www.w3.org/Graphics/SVG/1.1/DTD/svg11.dtd">
<!-- Generated by graphviz version 2.43.0 (0)
 -->
<!-- Title: GAListIterBASE Pages: 1 -->
<svg width="153pt" height="186pt"
 viewBox="0.00 0.00 153.00 186.00" xmlns="http://www.w3.org/2000/svg" xmlns:xlink="http://www.w3.org/1999/xlink">
<g id="graph0" class="graph" transform="scale(1 1) rotate(0) translate(4 182)">
<title>GAListIterBASE</title>
<polygon fill="white" stroke="transparent" points="-4,4 -4,-182 149,-182 149,4 -4,4"/>
<!-- Node1 -->
<g id="node1" class="node">
<title>Node1</title>
<g id="a_node1"><a xlink:title="This is the base class for iterators for the list objects.">
<polygon fill="#bfbfbf" stroke="black" points="9,-0.5 9,-19.5 99,-19.5 99,-0.5 9,-0.5"/>
<text text-anchor="middle" x="54" y="-7.5" font-family="Helvetica,sans-Serif" font-size="10.00">GAListIterBASE</text>
</a>
</g>
</g>
<!-- Node2 -->
<g id="node2" class="node">
<title>Node2</title>
<g id="a_node2"><a xlink:href="classGAListBASE.html" target="_top" xlink:title=" ">
<polygon fill="white" stroke="black" points="71,-67.5 71,-86.5 145,-86.5 145,-67.5 71,-67.5"/>
<text text-anchor="middle" x="108" y="-74.5" font-family="Helvetica,sans-Serif" font-size="10.00">GAListBASE</text>
</a>
</g>
</g>
<!-- Node2&#45;&gt;Node1 -->
<g id="edge1" class="edge">
<title>Node2&#45;&gt;Node1</title>
<path fill="none" stroke="#9a32cd" stroke-dasharray="5,2" d="M94.1,-59.27C83.57,-46.6 69.54,-29.7 61.17,-19.63"/>
<polygon fill="#9a32cd" stroke="#9a32cd" points="91.63,-61.78 100.72,-67.23 97.02,-57.31 91.63,-61.78"/>
<text text-anchor="middle" x="93.5" y="-41" font-family="Helvetica,sans-Serif" font-size="10.00"> list</text>
</g>
<!-- Node3 -->
<g id="node3" class="node">
<title>Node3</title>
<g id="a_node3"><a xlink:href="structGANodeBASE.html" target="_top" xlink:title="This is the basic node object.">
<polygon fill="white" stroke="black" points="0,-146.5 0,-165.5 82,-165.5 82,-146.5 0,-146.5"/>
<text text-anchor="middle" x="41" y="-153.5" font-family="Helvetica,sans-Serif" font-size="10.00">GANodeBASE</text>
</a>
</g>
</g>
<!-- Node3&#45;&gt;Node1 -->
<g id="edge4" class="edge">
<title>Node3&#45;&gt;Node1</title>
<path fill="none" stroke="#9a32cd" stroke-dasharray="5,2" d="M36.85,-136.48C33.48,-118.59 29.88,-90.77 34,-67 37,-49.71 44.83,-30.69 49.76,-19.86"/>
<polygon fill="#9a32cd" stroke="#9a32cd" points="33.46,-137.35 38.91,-146.44 40.32,-135.94 33.46,-137.35"/>
<text text-anchor="middle" x="48" y="-74.5" font-family="Helvetica,sans-Serif" font-size="10.00"> node</text>
</g>
<!-- Node3&#45;&gt;Node2 -->
<g id="edge2" class="edge">
<title>Node3&#45;&gt;Node2</title>
<path fill="none" stroke="#9a32cd" stroke-dasharray="5,2" d="M55.31,-138.56C69.08,-122.73 89.39,-99.39 100.33,-86.81"/>
<polygon fill="#9a32cd" stroke="#9a32cd" points="52.35,-136.62 48.43,-146.47 57.63,-141.22 52.35,-136.62"/>
<text text-anchor="middle" x="92" y="-108" font-family="Helvetica,sans-Serif" font-size="10.00"> hd</text>
</g>
<!-- Node3&#45;&gt;Node3 -->
<g id="edge3" class="edge">
<title>Node3&#45;&gt;Node3</title>
<path fill="none" stroke="#9a32cd" stroke-dasharray="5,2" d="M92.26,-162.59C97.01,-161.23 100,-159.03 100,-156 100,-151.14 92.34,-148.43 82.08,-147.86"/>
<polygon fill="#9a32cd" stroke="#9a32cd" points="91.44,-159.18 82.08,-164.14 92.5,-166.1 91.44,-159.18"/>
<text text-anchor="middle" x="116" y="-170" font-family="Helvetica,sans-Serif" font-size="10.00"> child</text>
<text text-anchor="middle" x="116" y="-159" font-family="Helvetica,sans-Serif" font-size="10.00">next</text>
<text text-anchor="middle" x="116" y="-148" font-family="Helvetica,sans-Serif" font-size="10.00">parent</text>
<text text-anchor="middle" x="116" y="-137" font-family="Helvetica,sans-Serif" font-size="10.00">prev</text>
</g>
</g>
</svg>
