<?xml version="1.0" encoding="UTF-8" standalone="no"?>
<!DOCTYPE svg PUBLIC "-//W3C//DTD SVG 1.1//EN"
 "http://www.w3.org/Graphics/SVG/1.1/DTD/svg11.dtd">
<!-- Generated by graphviz version 2.43.0 (0)
 -->
<!-- Title: GAListBASE Pages: 1 -->
<svg width="140pt" height="119pt"
 viewBox="0.00 0.00 140.00 119.00" xmlns="http://www.w3.org/2000/svg" xmlns:xlink="http://www.w3.org/1999/xlink">
<g id="graph0" class="graph" transform="scale(1 1) rotate(0) translate(4 115)">
<title>GAListBASE</title>
<polygon fill="white" stroke="transparent" points="-4,4 -4,-115 136,-115 136,4 -4,4"/>
<!-- Node1 -->
<g id="node1" class="node">
<title>Node1</title>
<g id="a_node1"><a xlink:title=" ">
<polygon fill="#bfbfbf" stroke="black" points="4,-0.5 4,-19.5 78,-19.5 78,-0.5 4,-0.5"/>
<text text-anchor="middle" x="41" y="-7.5" font-family="Helvetica,sans-Serif" font-size="10.00">GAListBASE</text>
</a>
</g>
</g>
<!-- Node2 -->
<g id="node2" class="node">
<title>Node2</title>
<g id="a_node2"><a xlink:href="structGANodeBASE.html" target="_top" xlink:title="This is the basic node object.">
<polygon fill="white" stroke="black" points="0,-79.5 0,-98.5 82,-98.5 82,-79.5 0,-79.5"/>
<text text-anchor="middle" x="41" y="-86.5" font-family="Helvetica,sans-Serif" font-size="10.00">GANodeBASE</text>
</a>
</g>
</g>
<!-- Node2&#45;&gt;Node1 -->
<g id="edge1" class="edge">
<title>Node2&#45;&gt;Node1</title>
<path fill="none" stroke="#9a32cd" stroke-dasharray="5,2" d="M41,-69.31C41,-53.59 41,-31.81 41,-19.81"/>
<polygon fill="#9a32cd" stroke="#9a32cd" points="37.5,-69.47 41,-79.47 44.5,-69.47 37.5,-69.47"/>
<text text-anchor="middle" x="49" y="-41" font-family="Helvetica,sans-Serif" font-size="10.00"> hd</text>
</g>
<!-- Node2&#45;&gt;Node2 -->
<g id="edge2" class="edge">
<title>Node2&#45;&gt;Node2</title>
<path fill="none" stroke="#9a32cd" stroke-dasharray="5,2" d="M92.26,-95.59C97.01,-94.23 100,-92.03 100,-89 100,-84.14 92.34,-81.43 82.08,-80.86"/>
<polygon fill="#9a32cd" stroke="#9a32cd" points="91.44,-92.18 82.08,-97.14 92.5,-99.1 91.44,-92.18"/>
<text text-anchor="middle" x="116" y="-103" font-family="Helvetica,sans-Serif" font-size="10.00"> child</text>
<text text-anchor="middle" x="116" y="-92" font-family="Helvetica,sans-Serif" font-size="10.00">next</text>
<text text-anchor="middle" x="116" y="-81" font-family="Helvetica,sans-Serif" font-size="10.00">parent</text>
<text text-anchor="middle" x="116" y="-70" font-family="Helvetica,sans-Serif" font-size="10.00">prev</text>
</g>
</g>
</svg>
