<?xml version="1.0" encoding="UTF-8" standalone="no"?>
<!DOCTYPE svg PUBLIC "-//W3C//DTD SVG 1.1//EN"
 "http://www.w3.org/Graphics/SVG/1.1/DTD/svg11.dtd">
<!-- Generated by graphviz version 2.43.0 (0)
 -->
<!-- Title: GAListGenome&lt; T &gt; Pages: 1 -->
<svg width="805pt" height="498pt"
 viewBox="0.00 0.00 805.00 498.00" xmlns="http://www.w3.org/2000/svg" xmlns:xlink="http://www.w3.org/1999/xlink">
<g id="graph0" class="graph" transform="scale(1 1) rotate(0) translate(4 494)">
<title>GAListGenome&lt; T &gt;</title>
<!-- Node1 -->
<g id="Node000001" class="node">
<title>Node1</title>
<g id="a_Node000001"><a xlink:title="GAListGenome.">
<polygon fill="#999999" stroke="#666666" points="655,-203.5 537,-203.5 537,-184.5 655,-184.5 655,-203.5"/>
<text text-anchor="middle" x="596" y="-191.5" font-family="Helvetica,sans-Serif" font-size="10.00">GAListGenome&lt; T &gt;</text>
</a>
</g>
</g>
<!-- Node2 -->
<g id="Node000002" class="node">
<title>Node2</title>
<g id="a_Node000002"><a xlink:href="classGAList.html" target="_top" xlink:title="Container for nodes that have a list structure.">
<polygon fill="white" stroke="#666666" points="627.5,-309.5 550.5,-309.5 550.5,-290.5 627.5,-290.5 627.5,-309.5"/>
<text text-anchor="middle" x="589" y="-297.5" font-family="Helvetica,sans-Serif" font-size="10.00">GAList&lt; T &gt;</text>
</a>
</g>
</g>
<!-- Node2&#45;&gt;Node1 -->
<g id="edge1_Node000001_Node000002" class="edge">
<title>Node2&#45;&gt;Node1</title>
<g id="a_edge1_Node000001_Node000002"><a xlink:title=" ">
<path fill="none" stroke="#63b8ff" d="M590.25,-280.43C591.77,-257.77 594.29,-220.41 595.42,-203.63"/>
<polygon fill="#63b8ff" stroke="#63b8ff" points="586.75,-280.28 589.57,-290.49 593.74,-280.75 586.75,-280.28"/>
</a>
</g>
</g>
<!-- Node3 -->
<g id="Node000003" class="node">
<title>Node3</title>
<g id="a_Node000003"><a xlink:href="classGAListBASE.html" target="_top" xlink:title=" ">
<polygon fill="white" stroke="#bfbfbf" points="626,-399 552,-399 552,-380 626,-380 626,-399"/>
<text text-anchor="middle" x="589" y="-387" font-family="Helvetica,sans-Serif" font-size="10.00">GAListBASE</text>
</a>
</g>
</g>
<!-- Node3&#45;&gt;Node2 -->
<g id="edge2_Node000002_Node000003" class="edge">
<title>Node3&#45;&gt;Node2</title>
<g id="a_edge2_Node000002_Node000003"><a xlink:title=" ">
<path fill="none" stroke="#63b8ff" d="M589,-369.59C589,-351.02 589,-323.54 589,-309.67"/>
<polygon fill="#63b8ff" stroke="#63b8ff" points="585.5,-369.79 589,-379.79 592.5,-369.79 585.5,-369.79"/>
</a>
</g>
</g>
<!-- Node4 -->
<g id="Node000004" class="node">
<title>Node4</title>
<g id="a_Node000004"><a xlink:href="structGANodeBASE.html" target="_top" xlink:title="This is the basic node object.">
<polygon fill="white" stroke="#666666" points="630,-477.5 548,-477.5 548,-458.5 630,-458.5 630,-477.5"/>
<text text-anchor="middle" x="589" y="-465.5" font-family="Helvetica,sans-Serif" font-size="10.00">GANodeBASE</text>
</a>
</g>
</g>
<!-- Node4&#45;&gt;Node3 -->
<g id="edge3_Node000003_Node000004" class="edge">
<title>Node4&#45;&gt;Node3</title>
<g id="a_edge3_Node000003_Node000004"><a xlink:title=" ">
<path fill="none" stroke="#9a32cd" stroke-dasharray="5,2" d="M589,-448.1C589,-432.47 589,-410.99 589,-399.17"/>
<polygon fill="#9a32cd" stroke="#9a32cd" points="585.5,-448.22 589,-458.22 592.5,-448.22 585.5,-448.22"/>
</a>
</g>
<text text-anchor="middle" x="597" y="-420" font-family="Helvetica,sans-Serif" font-size="10.00" fill="grey"> hd</text>
</g>
<!-- Node4&#45;&gt;Node4 -->
<g id="edge4_Node000004_Node000004" class="edge">
<title>Node4&#45;&gt;Node4</title>
<g id="a_edge4_Node000004_Node000004"><a xlink:title=" ">
<path fill="none" stroke="#9a32cd" stroke-dasharray="5,2" d="M640.26,-474.59C645.01,-473.23 648,-471.03 648,-468 648,-463.14 640.34,-460.43 630.08,-459.86"/>
<polygon fill="#9a32cd" stroke="#9a32cd" points="639.44,-471.18 630.08,-476.14 640.5,-478.1 639.44,-471.18"/>
</a>
</g>
<text text-anchor="middle" x="664" y="-482" font-family="Helvetica,sans-Serif" font-size="10.00" fill="grey"> child</text>
<text text-anchor="middle" x="664" y="-471" font-family="Helvetica,sans-Serif" font-size="10.00" fill="grey">next</text>
<text text-anchor="middle" x="664" y="-460" font-family="Helvetica,sans-Serif" font-size="10.00" fill="grey">parent</text>
<text text-anchor="middle" x="664" y="-449" font-family="Helvetica,sans-Serif" font-size="10.00" fill="grey">prev</text>
</g>
<!-- Node5 -->
<g id="Node000005" class="node">
<title>Node5</title>
<g id="a_Node000005"><a xlink:href="classGAGenome.html" target="_top" xlink:title="The base genome class just defines the genome interface &#45; how to mutate, crossover,...">
<polygon fill="white" stroke="#666666" points="462,-309.5 390,-309.5 390,-290.5 462,-290.5 462,-309.5"/>
<text text-anchor="middle" x="426" y="-297.5" font-family="Helvetica,sans-Serif" font-size="10.00">GAGenome</text>
</a>
</g>
</g>
<!-- Node5&#45;&gt;Node1 -->
<g id="edge5_Node000001_Node000005" class="edge">
<title>Node5&#45;&gt;Node1</title>
<g id="a_edge5_Node000001_Node000005"><a xlink:title=" ">
<path fill="none" stroke="#63b8ff" d="M449.61,-285.4C466.74,-275.46 490.42,-261.59 511,-249 536.65,-233.31 566.21,-214.33 582.84,-203.56"/>
<polygon fill="#63b8ff" stroke="#63b8ff" points="447.74,-282.44 440.83,-290.48 451.24,-288.5 447.74,-282.44"/>
</a>
</g>
</g>
<!-- Node5&#45;&gt;Node5 -->
<g id="edge31_Node000005_Node000005" class="edge">
<title>Node5&#45;&gt;Node5</title>
<g id="a_edge31_Node000005_Node000005"><a xlink:title=" ">
<path fill="none" stroke="#9a32cd" stroke-dasharray="5,2" d="M459.1,-310.5C470.65,-310.63 480,-307.14 480,-300 480,-290.87 464.68,-287.69 449.03,-290.47"/>
<polygon fill="#9a32cd" stroke="#9a32cd" points="459.32,-307 449.03,-309.53 458.65,-313.97 459.32,-307"/>
</a>
</g>
<text text-anchor="middle" x="506" y="-325" font-family="Helvetica,sans-Serif" font-size="10.00" fill="grey"> asexcross</text>
<text text-anchor="middle" x="506" y="-314" font-family="Helvetica,sans-Serif" font-size="10.00" fill="grey">cmp</text>
<text text-anchor="middle" x="506" y="-303" font-family="Helvetica,sans-Serif" font-size="10.00" fill="grey">eval</text>
<text text-anchor="middle" x="506" y="-292" font-family="Helvetica,sans-Serif" font-size="10.00" fill="grey">init</text>
<text text-anchor="middle" x="506" y="-281" font-family="Helvetica,sans-Serif" font-size="10.00" fill="grey">mutr</text>
<text text-anchor="middle" x="506" y="-270" font-family="Helvetica,sans-Serif" font-size="10.00" fill="grey">sexcross</text>
</g>
<!-- Node7 -->
<g id="Node000007" class="node">
<title>Node7</title>
<g id="a_Node000007"><a xlink:href="classGAGeneticAlgorithm.html" target="_top" xlink:title="The base GA class is virtual &#45; it defines the core data elements and parts of the interface that are ...">
<polygon fill="white" stroke="#666666" points="430,-203.5 314,-203.5 314,-184.5 430,-184.5 430,-203.5"/>
<text text-anchor="middle" x="372" y="-191.5" font-family="Helvetica,sans-Serif" font-size="10.00">GAGeneticAlgorithm</text>
</a>
</g>
</g>
<!-- Node5&#45;&gt;Node7 -->
<g id="edge30_Node000007_Node000005" class="edge">
<title>Node5&#45;&gt;Node7</title>
<g id="a_edge30_Node000007_Node000005"><a xlink:title=" ">
<path fill="none" stroke="#9a32cd" stroke-dasharray="5,2" d="M422.51,-280.33C419.12,-265.19 412.99,-243.69 403,-227 397.6,-217.97 389.19,-209.51 382.49,-203.55"/>
<polygon fill="#9a32cd" stroke="#9a32cd" points="419.16,-281.4 424.59,-290.49 426.02,-279.99 419.16,-281.4"/>
</a>
</g>
<text text-anchor="middle" x="429.5" y="-241" font-family="Helvetica,sans-Serif" font-size="10.00" fill="grey"> across</text>
<text text-anchor="middle" x="429.5" y="-230" font-family="Helvetica,sans-Serif" font-size="10.00" fill="grey">scross</text>
</g>
<!-- Node13 -->
<g id="Node000013" class="node">
<title>Node13</title>
<g id="a_Node000013"><a xlink:href="classGAPopulation.html" target="_top" xlink:title=" ">
<polygon fill="white" stroke="#bfbfbf" points="523.5,-130.5 440.5,-130.5 440.5,-111.5 523.5,-111.5 523.5,-130.5"/>
<text text-anchor="middle" x="482" y="-118.5" font-family="Helvetica,sans-Serif" font-size="10.00">GAPopulation</text>
</a>
</g>
</g>
<!-- Node5&#45;&gt;Node13 -->
<g id="edge16_Node000013_Node000005" class="edge">
<title>Node5&#45;&gt;Node13</title>
<g id="a_edge16_Node000013_Node000005"><a xlink:title=" ">
<path fill="none" stroke="#9a32cd" stroke-dasharray="5,2" d="M435.13,-280.97C439.9,-271.48 445.82,-259.64 451,-249 459.62,-231.31 464.37,-227.86 470,-209 478.33,-181.1 480.91,-146.4 481.68,-130.58"/>
<polygon fill="#9a32cd" stroke="#9a32cd" points="431.86,-279.67 430.48,-290.18 438.11,-282.82 431.86,-279.67"/>
</a>
</g>
<text text-anchor="middle" x="487" y="-197" font-family="Helvetica,sans-Serif" font-size="10.00" fill="grey"> rind</text>
<text text-anchor="middle" x="487" y="-186" font-family="Helvetica,sans-Serif" font-size="10.00" fill="grey">sind</text>
</g>
<!-- Node6 -->
<g id="Node000006" class="node">
<title>Node6</title>
<g id="a_Node000006"><a xlink:href="classGAID.html" target="_top" xlink:title="This defines the identifiers for polymorphic classes.">
<polygon fill="white" stroke="#666666" points="714.5,-399 673.5,-399 673.5,-380 714.5,-380 714.5,-399"/>
<text text-anchor="middle" x="694" y="-387" font-family="Helvetica,sans-Serif" font-size="10.00">GAID</text>
</a>
</g>
</g>
<!-- Node6&#45;&gt;Node5 -->
<g id="edge6_Node000005_Node000006" class="edge">
<title>Node6&#45;&gt;Node5</title>
<g id="a_edge6_Node000005_Node000006"><a xlink:title=" ">
<path fill="none" stroke="#63b8ff" d="M663.91,-378.67C610.96,-361.39 502.03,-325.82 452.08,-309.51"/>
<polygon fill="#63b8ff" stroke="#63b8ff" points="662.82,-382 673.42,-381.78 665,-375.35 662.82,-382"/>
</a>
</g>
</g>
<!-- Node6&#45;&gt;Node7 -->
<g id="edge8_Node000007_Node000006" class="edge">
<title>Node6&#45;&gt;Node7</title>
<g id="a_edge8_Node000007_Node000006"><a xlink:title=" ">
<path fill="none" stroke="#63b8ff" d="M690.43,-369.98C684.29,-343.22 669.16,-294.01 637,-267 604.65,-239.82 490.06,-215.76 422.62,-203.53"/>
<polygon fill="#63b8ff" stroke="#63b8ff" points="687.04,-370.88 692.53,-379.94 693.89,-369.43 687.04,-370.88"/>
</a>
</g>
</g>
<!-- Node6&#45;&gt;Node13 -->
<g id="edge15_Node000013_Node000006" class="edge">
<title>Node6&#45;&gt;Node13</title>
<g id="a_edge15_Node000013_Node000006"><a xlink:title=" ">
<path fill="none" stroke="#63b8ff" d="M704.92,-370.84C728.59,-330.11 778.28,-229.29 724,-179 695.19,-152.3 585.03,-134.76 523.75,-126.84"/>
<polygon fill="#63b8ff" stroke="#63b8ff" points="701.8,-369.24 699.67,-379.62 707.81,-372.83 701.8,-369.24"/>
</a>
</g>
</g>
<!-- Node14 -->
<g id="Node000014" class="node">
<title>Node14</title>
<g id="a_Node000014"><a xlink:href="classGAScalingScheme.html" target="_top" xlink:title=" ">
<polygon fill="white" stroke="#bfbfbf" points="743.5,-247.5 638.5,-247.5 638.5,-228.5 743.5,-228.5 743.5,-247.5"/>
<text text-anchor="middle" x="691" y="-235.5" font-family="Helvetica,sans-Serif" font-size="10.00">GAScalingScheme</text>
</a>
</g>
</g>
<!-- Node6&#45;&gt;Node14 -->
<g id="edge18_Node000014_Node000006" class="edge">
<title>Node6&#45;&gt;Node14</title>
<g id="a_edge18_Node000014_Node000006"><a xlink:title=" ">
<path fill="none" stroke="#63b8ff" d="M693.62,-369.54C692.96,-336.88 691.65,-271.24 691.17,-247.67"/>
<polygon fill="#63b8ff" stroke="#63b8ff" points="690.12,-369.67 693.82,-379.6 697.12,-369.53 690.12,-369.67"/>
</a>
</g>
</g>
<!-- Node15 -->
<g id="Node000015" class="node">
<title>Node15</title>
<g id="a_Node000015"><a xlink:href="classGASelectionScheme.html" target="_top" xlink:title=" ">
<polygon fill="white" stroke="#bfbfbf" points="584.5,-19 469.5,-19 469.5,0 584.5,0 584.5,-19"/>
<text text-anchor="middle" x="527" y="-7" font-family="Helvetica,sans-Serif" font-size="10.00">GASelectionScheme</text>
</a>
</g>
</g>
<!-- Node6&#45;&gt;Node15 -->
<g id="edge20_Node000015_Node000006" class="edge">
<title>Node6&#45;&gt;Node15</title>
<g id="a_edge20_Node000015_Node000006"><a xlink:title=" ">
<path fill="none" stroke="#63b8ff" d="M724.22,-377.68C754.61,-364.64 797,-339.53 797,-301 797,-301 797,-301 797,-120 797,-72.01 648.66,-35 571.89,-19.06"/>
<polygon fill="#63b8ff" stroke="#63b8ff" points="722.79,-374.49 714.84,-381.5 725.43,-380.97 722.79,-374.49"/>
</a>
</g>
</g>
<!-- Node7&#45;&gt;Node5 -->
<g id="edge7_Node000005_Node000007" class="edge">
<title>Node7&#45;&gt;Node5</title>
<g id="a_edge7_Node000005_Node000007"><a xlink:title=" ">
<path fill="none" stroke="#9a32cd" stroke-dasharray="5,2" d="M375.32,-213.74C377.67,-224.45 381.41,-237.91 387,-249 395.02,-264.93 408.51,-280.72 417.33,-290.17"/>
<polygon fill="#9a32cd" stroke="#9a32cd" points="378.72,-212.93 373.35,-203.8 371.86,-214.29 378.72,-212.93"/>
</a>
</g>
<text text-anchor="middle" x="395" y="-235.5" font-family="Helvetica,sans-Serif" font-size="10.00" fill="grey"> ga</text>
</g>
<!-- Node7&#45;&gt;Node7 -->
<g id="edge29_Node000007_Node000007" class="edge">
<title>Node7&#45;&gt;Node7</title>
<g id="a_edge29_Node000007_Node000007"><a xlink:title=" ">
<path fill="none" stroke="#9a32cd" stroke-dasharray="5,2" d="M440.48,-199.15C445.16,-197.97 448,-196.25 448,-194 448,-190.4 440.73,-188.16 430.31,-187.29"/>
<polygon fill="#9a32cd" stroke="#9a32cd" points="439.67,-195.74 430.31,-200.71 440.73,-202.65 439.67,-195.74"/>
</a>
</g>
<text text-anchor="middle" x="454.5" y="-191.5" font-family="Helvetica,sans-Serif" font-size="10.00" fill="grey"> cf</text>
</g>
<!-- Node7&#45;&gt;Node13 -->
<g id="edge23_Node000013_Node000007" class="edge">
<title>Node7&#45;&gt;Node13</title>
<g id="a_edge23_Node000013_Node000007"><a xlink:title=" ">
<path fill="none" stroke="#9a32cd" stroke-dasharray="5,2" d="M387.24,-177.12C396.22,-168.37 408.11,-157.75 420,-150 432.07,-142.14 446.72,-135.41 458.75,-130.52"/>
<polygon fill="#9a32cd" stroke="#9a32cd" points="384.76,-174.66 380.19,-184.21 389.72,-179.6 384.76,-174.66"/>
</a>
</g>
<text text-anchor="middle" x="428" y="-153" font-family="Helvetica,sans-Serif" font-size="10.00" fill="grey"> ga</text>
</g>
<!-- Node8 -->
<g id="Node000008" class="node">
<title>Node8</title>
<g id="a_Node000008"><a xlink:href="classGAStatistics.html" target="_top" xlink:title="Statistics class.">
<polygon fill="white" stroke="#666666" points="324,-19 248,-19 248,0 324,0 324,-19"/>
<text text-anchor="middle" x="286" y="-7" font-family="Helvetica,sans-Serif" font-size="10.00">GAStatistics</text>
</a>
</g>
</g>
<!-- Node8&#45;&gt;Node7 -->
<g id="edge9_Node000007_Node000008" class="edge">
<title>Node8&#45;&gt;Node7</title>
<g id="a_edge9_Node000007_Node000008"><a xlink:title=" ">
<path fill="none" stroke="#9a32cd" stroke-dasharray="5,2" d="M303.16,-26.33C306.31,-29.68 309.42,-33.32 312,-37 346.82,-86.66 364.78,-159.21 370.2,-184.18"/>
<polygon fill="#9a32cd" stroke="#9a32cd" points="305.51,-23.72 295.95,-19.15 300.57,-28.68 305.51,-23.72"/>
</a>
</g>
<text text-anchor="middle" x="369" y="-118.5" font-family="Helvetica,sans-Serif" font-size="10.00" fill="grey"> stats</text>
</g>
<!-- Node9 -->
<g id="Node000009" class="node">
<title>Node9</title>
<g id="a_Node000009"><a xlink:title=" ">
<polygon fill="white" stroke="#666666" points="338,-130.5 234,-130.5 234,-111.5 338,-111.5 338,-130.5"/>
<text text-anchor="middle" x="286" y="-118.5" font-family="Helvetica,sans-Serif" font-size="10.00">std::vector&lt; int &gt;</text>
</a>
</g>
</g>
<!-- Node9&#45;&gt;Node8 -->
<g id="edge10_Node000008_Node000009" class="edge">
<title>Node9&#45;&gt;Node8</title>
<g id="a_edge10_Node000008_Node000009"><a xlink:title=" ">
<path fill="none" stroke="#9a32cd" stroke-dasharray="5,2" d="M286,-101.11C286,-77.08 286,-36.61 286,-19.05"/>
<polygon fill="#9a32cd" stroke="#9a32cd" points="282.5,-101.41 286,-111.41 289.5,-101.41 282.5,-101.41"/>
</a>
</g>
<text text-anchor="middle" x="297" y="-62" font-family="Helvetica,sans-Serif" font-size="10.00" fill="grey"> gen</text>
</g>
<!-- Node10 -->
<g id="Node000010" class="node">
<title>Node10</title>
<g id="a_Node000010"><a xlink:title=" ">
<polygon fill="white" stroke="#666666" points="215.5,-130.5 102.5,-130.5 102.5,-111.5 215.5,-111.5 215.5,-130.5"/>
<text text-anchor="middle" x="159" y="-118.5" font-family="Helvetica,sans-Serif" font-size="10.00">std::vector&lt; float &gt;</text>
</a>
</g>
</g>
<!-- Node10&#45;&gt;Node8 -->
<g id="edge11_Node000008_Node000010" class="edge">
<title>Node10&#45;&gt;Node8</title>
<g id="a_edge11_Node000008_Node000010"><a xlink:title=" ">
<path fill="none" stroke="#9a32cd" stroke-dasharray="5,2" d="M171.18,-102.83C184.7,-84.72 207.93,-56.18 233,-37 242.48,-29.75 254.25,-23.63 264.29,-19.1"/>
<polygon fill="#9a32cd" stroke="#9a32cd" points="168.11,-101.11 165.04,-111.25 173.76,-105.24 168.11,-101.11"/>
</a>
</g>
<text text-anchor="middle" x="257.5" y="-84" font-family="Helvetica,sans-Serif" font-size="10.00" fill="grey"> aveScore</text>
<text text-anchor="middle" x="257.5" y="-73" font-family="Helvetica,sans-Serif" font-size="10.00" fill="grey">devScore</text>
<text text-anchor="middle" x="257.5" y="-62" font-family="Helvetica,sans-Serif" font-size="10.00" fill="grey">divScore</text>
<text text-anchor="middle" x="257.5" y="-51" font-family="Helvetica,sans-Serif" font-size="10.00" fill="grey">maxScore</text>
<text text-anchor="middle" x="257.5" y="-40" font-family="Helvetica,sans-Serif" font-size="10.00" fill="grey">minScore</text>
</g>
<!-- Node11 -->
<g id="Node000011" class="node">
<title>Node11</title>
<g id="a_Node000011"><a xlink:title=" ">
<polygon fill="white" stroke="#666666" points="84.5,-130.5 19.5,-130.5 19.5,-111.5 84.5,-111.5 84.5,-130.5"/>
<text text-anchor="middle" x="52" y="-118.5" font-family="Helvetica,sans-Serif" font-size="10.00">std::string</text>
</a>
</g>
</g>
<!-- Node11&#45;&gt;Node8 -->
<g id="edge12_Node000008_Node000011" class="edge">
<title>Node11&#45;&gt;Node8</title>
<g id="a_edge12_Node000008_Node000011"><a xlink:title=" ">
<path fill="none" stroke="#9a32cd" stroke-dasharray="5,2" d="M63.03,-103.04C76.57,-83.71 101.43,-52.76 131,-37 167.5,-17.55 215.08,-11.84 247.85,-10.42"/>
<polygon fill="#9a32cd" stroke="#9a32cd" points="60.02,-101.24 57.31,-111.48 65.82,-105.16 60.02,-101.24"/>
</a>
</g>
<text text-anchor="middle" x="153.5" y="-62" font-family="Helvetica,sans-Serif" font-size="10.00" fill="grey"> scorefile</text>
</g>
<!-- Node12 -->
<g id="Node000012" class="node">
<title>Node12</title>
<g id="a_Node000012"><a xlink:title=" ">
<polygon fill="white" stroke="#666666" points="104,-209 0,-209 0,-179 104,-179 104,-209"/>
<text text-anchor="start" x="8" y="-197" font-family="Helvetica,sans-Serif" font-size="10.00">std::basic_string&lt;</text>
<text text-anchor="middle" x="52" y="-186" font-family="Helvetica,sans-Serif" font-size="10.00"> Char &gt;</text>
</a>
</g>
</g>
<!-- Node12&#45;&gt;Node11 -->
<g id="edge13_Node000011_Node000012" class="edge">
<title>Node12&#45;&gt;Node11</title>
<g id="a_edge13_Node000011_Node000012"><a xlink:title=" ">
<path fill="none" stroke="#63b8ff" d="M52,-168.63C52,-155.47 52,-140.03 52,-130.64"/>
<polygon fill="#63b8ff" stroke="#63b8ff" points="48.5,-168.97 52,-178.97 55.5,-168.97 48.5,-168.97"/>
</a>
</g>
</g>
<!-- Node13&#45;&gt;Node7 -->
<g id="edge28_Node000007_Node000013" class="edge">
<title>Node13&#45;&gt;Node7</title>
<g id="a_edge28_Node000007_Node000013"><a xlink:title=" ">
<path fill="none" stroke="#9a32cd" stroke-dasharray="5,2" d="M465.41,-137.75C456.98,-145.3 446.35,-154.17 436,-161 422.11,-170.17 405.22,-178.51 392.29,-184.37"/>
<polygon fill="#9a32cd" stroke="#9a32cd" points="468.01,-140.11 473.01,-130.76 463.28,-134.95 468.01,-140.11"/>
</a>
</g>
<text text-anchor="middle" x="461" y="-153" font-family="Helvetica,sans-Serif" font-size="10.00" fill="grey"> pop</text>
</g>
<!-- Node13&#45;&gt;Node8 -->
<g id="edge14_Node000008_Node000013" class="edge">
<title>Node13&#45;&gt;Node8</title>
<g id="a_edge14_Node000008_Node000013"><a xlink:title=" ">
<path fill="none" stroke="#9a32cd" stroke-dasharray="5,2" d="M461.55,-105.21C456.07,-101.07 450.22,-96.47 445,-92 418.25,-69.12 418.71,-54.21 388,-37 368.37,-26 344.06,-19.45 324.09,-15.62"/>
<polygon fill="#9a32cd" stroke="#9a32cd" points="459.6,-108.12 469.72,-111.28 463.77,-102.5 459.6,-108.12"/>
</a>
</g>
<text text-anchor="middle" x="456" y="-62" font-family="Helvetica,sans-Serif" font-size="10.00" fill="grey"> boa</text>
</g>
<!-- Node13&#45;&gt;Node13 -->
<g id="edge22_Node000013_Node000013" class="edge">
<title>Node13&#45;&gt;Node13</title>
<g id="a_edge22_Node000013_Node000013"><a xlink:title=" ">
<path fill="none" stroke="#9a32cd" stroke-dasharray="5,2" d="M533.82,-126.07C538.53,-125.01 541.5,-123.32 541.5,-121 541.5,-117.28 533.91,-115.19 523.71,-114.72"/>
<polygon fill="#9a32cd" stroke="#9a32cd" points="533.22,-122.61 523.71,-127.28 534.05,-129.56 533.22,-122.61"/>
</a>
</g>
<text text-anchor="middle" x="554" y="-124" font-family="Helvetica,sans-Serif" font-size="10.00" fill="grey"> eval</text>
<text text-anchor="middle" x="554" y="-113" font-family="Helvetica,sans-Serif" font-size="10.00" fill="grey">init</text>
</g>
<!-- Node13&#45;&gt;Node15 -->
<g id="edge21_Node000015_Node000013" class="edge">
<title>Node13&#45;&gt;Node15</title>
<g id="a_edge21_Node000015_Node000013"><a xlink:title=" ">
<path fill="none" stroke="#9a32cd" stroke-dasharray="5,2" d="M475.94,-101.51C471.29,-83.7 467.41,-56.64 479,-37 483.79,-28.88 492.05,-23.08 500.39,-19.02"/>
<polygon fill="#9a32cd" stroke="#9a32cd" points="472.63,-102.65 478.81,-111.25 479.34,-100.67 472.63,-102.65"/>
</a>
</g>
<text text-anchor="middle" x="490" y="-62" font-family="Helvetica,sans-Serif" font-size="10.00" fill="grey"> pop</text>
</g>
<!-- Node14&#45;&gt;Node13 -->
<g id="edge17_Node000013_Node000014" class="edge">
<title>Node14&#45;&gt;Node13</title>
<g id="a_edge17_Node000013_Node000014"><a xlink:title=" ">
<path fill="none" stroke="#9a32cd" stroke-dasharray="5,2" d="M686.53,-218.16C682.6,-205.45 675.63,-189.19 664,-179 624.4,-144.31 563.78,-130.73 523.53,-125.41"/>
<polygon fill="#9a32cd" stroke="#9a32cd" points="683.25,-219.45 689.25,-228.18 690.01,-217.61 683.25,-219.45"/>
</a>
</g>
<text text-anchor="middle" x="701.5" y="-191.5" font-family="Helvetica,sans-Serif" font-size="10.00" fill="grey"> sclscm</text>
</g>
<!-- Node15&#45;&gt;Node13 -->
<g id="edge19_Node000013_Node000015" class="edge">
<title>Node15&#45;&gt;Node13</title>
<g id="a_edge19_Node000013_Node000015"><a xlink:title=" ">
<path fill="none" stroke="#9a32cd" stroke-dasharray="5,2" d="M524.25,-29.32C521.23,-46.39 515.36,-71.89 505,-92 501.31,-99.16 495.56,-106.16 490.73,-111.37"/>
<polygon fill="#9a32cd" stroke="#9a32cd" points="527.77,-29.45 525.91,-19.02 520.86,-28.34 527.77,-29.45"/>
</a>
</g>
<text text-anchor="middle" x="532.5" y="-62" font-family="Helvetica,sans-Serif" font-size="10.00" fill="grey"> slct</text>
</g>
<!-- Node16 -->
<g id="Node000016" class="node">
<title>Node16</title>
<g id="a_Node000016"><a xlink:href="classGAEvalData.html" target="_top" xlink:title="This is the basic interface for the object that contains evaluation data.">
<polygon fill="white" stroke="#666666" points="283.5,-399 208.5,-399 208.5,-380 283.5,-380 283.5,-399"/>
<text text-anchor="middle" x="246" y="-387" font-family="Helvetica,sans-Serif" font-size="10.00">GAEvalData</text>
</a>
</g>
</g>
<!-- Node16&#45;&gt;Node5 -->
<g id="edge32_Node000005_Node000016" class="edge">
<title>Node16&#45;&gt;Node5</title>
<g id="a_edge32_Node000005_Node000016"><a xlink:title=" ">
<path fill="none" stroke="#9a32cd" stroke-dasharray="5,2" d="M281.38,-376.48C309.22,-366.42 348.59,-350.88 381,-333 393.42,-326.15 406.52,-316.52 415.36,-309.62"/>
<polygon fill="#9a32cd" stroke="#9a32cd" points="279.92,-373.28 271.68,-379.93 282.27,-379.87 279.92,-373.28"/>
</a>
</g>
<text text-anchor="middle" x="352" y="-354" font-family="Helvetica,sans-Serif" font-size="10.00" fill="grey"> evd</text>
</g>
<!-- Node16&#45;&gt;Node13 -->
<g id="edge24_Node000013_Node000016" class="edge">
<title>Node16&#45;&gt;Node13</title>
<g id="a_edge24_Node000013_Node000016"><a xlink:title=" ">
<path fill="none" stroke="#9a32cd" stroke-dasharray="5,2" d="M244.34,-369.39C241.81,-326.34 242.71,-222.2 305,-179 346.12,-150.48 402.33,-135.6 440.29,-128.3"/>
<polygon fill="#9a32cd" stroke="#9a32cd" points="240.87,-369.87 245.08,-379.59 247.85,-369.37 240.87,-369.87"/>
</a>
</g>
<text text-anchor="middle" x="289" y="-235.5" font-family="Helvetica,sans-Serif" font-size="10.00" fill="grey"> evaldata</text>
</g>
<!-- Node17 -->
<g id="Node000017" class="node">
<title>Node17</title>
<g id="a_Node000017"><a xlink:href="classGAParameterList.html" target="_top" xlink:title="Parameter List.">
<polygon fill="white" stroke="#666666" points="372,-309.5 274,-309.5 274,-290.5 372,-290.5 372,-309.5"/>
<text text-anchor="middle" x="323" y="-297.5" font-family="Helvetica,sans-Serif" font-size="10.00">GAParameterList</text>
</a>
</g>
</g>
<!-- Node17&#45;&gt;Node7 -->
<g id="edge25_Node000007_Node000017" class="edge">
<title>Node17&#45;&gt;Node7</title>
<g id="a_edge25_Node000007_Node000017"><a xlink:title=" ">
<path fill="none" stroke="#9a32cd" stroke-dasharray="5,2" d="M318.75,-280.56C316.23,-265.26 315.06,-243.44 324,-227 329.74,-216.44 340.65,-208.75 350.62,-203.56"/>
<polygon fill="#9a32cd" stroke="#9a32cd" points="315.31,-281.25 320.69,-290.38 322.18,-279.89 315.31,-281.25"/>
</a>
</g>
<text text-anchor="middle" x="344" y="-235.5" font-family="Helvetica,sans-Serif" font-size="10.00" fill="grey"> params</text>
</g>
<!-- Node18 -->
<g id="Node000018" class="node">
<title>Node18</title>
<g id="a_Node000018"><a xlink:title=" ">
<polygon fill="white" stroke="#666666" points="382.5,-399 301.5,-399 301.5,-380 382.5,-380 382.5,-399"/>
<text text-anchor="middle" x="342" y="-387" font-family="Helvetica,sans-Serif" font-size="10.00">std::list&lt; T &gt;</text>
</a>
</g>
</g>
<!-- Node18&#45;&gt;Node17 -->
<g id="edge26_Node000017_Node000018" class="edge">
<title>Node18&#45;&gt;Node17</title>
<g id="a_edge26_Node000017_Node000018"><a xlink:title=" ">
<path fill="none" stroke="#63b8ff" d="M337.95,-369.85C333.92,-351.28 327.91,-323.61 324.88,-309.67"/>
<polygon fill="#63b8ff" stroke="#63b8ff" points="334.57,-370.76 340.11,-379.79 341.41,-369.28 334.57,-370.76"/>
</a>
</g>
</g>
<!-- Node19 -->
<g id="Node000019" class="node">
<title>Node19</title>
<g id="a_Node000019"><a xlink:title=" ">
<polygon fill="white" stroke="#bfbfbf" points="356.5,-477.5 327.5,-477.5 327.5,-458.5 356.5,-458.5 356.5,-477.5"/>
<text text-anchor="middle" x="342" y="-465.5" font-family="Helvetica,sans-Serif" font-size="10.00">T</text>
</a>
</g>
</g>
<!-- Node19&#45;&gt;Node18 -->
<g id="edge27_Node000018_Node000019" class="edge">
<title>Node19&#45;&gt;Node18</title>
<g id="a_edge27_Node000018_Node000019"><a xlink:title=" ">
<path fill="none" stroke="#9a32cd" stroke-dasharray="5,2" d="M342,-448.1C342,-432.47 342,-410.99 342,-399.17"/>
<polygon fill="#9a32cd" stroke="#9a32cd" points="338.5,-448.22 342,-458.22 345.5,-448.22 338.5,-448.22"/>
</a>
</g>
<text text-anchor="middle" x="366.5" y="-420" font-family="Helvetica,sans-Serif" font-size="10.00" fill="grey"> elements</text>
</g>
</g>
</svg>
