<?xml version="1.0" encoding="UTF-8" standalone="no"?>
<!DOCTYPE svg PUBLIC "-//W3C//DTD SVG 1.1//EN"
 "http://www.w3.org/Graphics/SVG/1.1/DTD/svg11.dtd">
<!-- Generated by graphviz version 2.43.0 (0)
 -->
<!-- Title: GA1DBinaryStringGenome Pages: 1 -->
<svg width="833pt" height="473pt"
 viewBox="0.00 0.00 833.00 473.00" xmlns="http://www.w3.org/2000/svg" xmlns:xlink="http://www.w3.org/1999/xlink">
<g id="graph0" class="graph" transform="scale(1 1) rotate(0) translate(4 469)">
<title>GA1DBinaryStringGenome</title>
<!-- Node1 -->
<g id="Node000001" class="node">
<title>Node1</title>
<g id="a_Node000001"><a xlink:title="Interface for the 1D binary string genome, including crossover objects and all the default and built&#45;...">
<polygon fill="#999999" stroke="#666666" points="683,-203.5 537,-203.5 537,-184.5 683,-184.5 683,-203.5"/>
<text text-anchor="middle" x="610" y="-191.5" font-family="Helvetica,sans-Serif" font-size="10.00">GA1DBinaryStringGenome</text>
</a>
</g>
</g>
<!-- Node2 -->
<g id="Node000002" class="node">
<title>Node2</title>
<g id="a_Node000002"><a xlink:href="classGABinaryString.html" target="_top" xlink:title="This header defines the interface for the binary string.">
<polygon fill="white" stroke="#666666" points="653.5,-309.5 562.5,-309.5 562.5,-290.5 653.5,-290.5 653.5,-309.5"/>
<text text-anchor="middle" x="608" y="-297.5" font-family="Helvetica,sans-Serif" font-size="10.00">GABinaryString</text>
</a>
</g>
</g>
<!-- Node2&#45;&gt;Node1 -->
<g id="edge1_Node000001_Node000002" class="edge">
<title>Node2&#45;&gt;Node1</title>
<g id="a_edge1_Node000001_Node000002"><a xlink:title=" ">
<path fill="none" stroke="#63b8ff" d="M608.36,-280.43C608.79,-257.77 609.51,-220.41 609.83,-203.63"/>
<polygon fill="#63b8ff" stroke="#63b8ff" points="604.86,-280.42 608.16,-290.49 611.86,-280.56 604.86,-280.42"/>
</a>
</g>
</g>
<!-- Node3 -->
<g id="Node000003" class="node">
<title>Node3</title>
<g id="a_Node000003"><a xlink:title=" ">
<polygon fill="white" stroke="#666666" points="667.5,-399 548.5,-399 548.5,-380 667.5,-380 667.5,-399"/>
<text text-anchor="middle" x="608" y="-387" font-family="Helvetica,sans-Serif" font-size="10.00">std::vector&lt; GABit &gt;</text>
</a>
</g>
</g>
<!-- Node3&#45;&gt;Node2 -->
<g id="edge2_Node000002_Node000003" class="edge">
<title>Node3&#45;&gt;Node2</title>
<g id="a_edge2_Node000002_Node000003"><a xlink:title=" ">
<path fill="none" stroke="#9a32cd" stroke-dasharray="5,2" d="M608,-369.59C608,-351.02 608,-323.54 608,-309.67"/>
<polygon fill="#9a32cd" stroke="#9a32cd" points="604.5,-369.79 608,-379.79 611.5,-369.79 604.5,-369.79"/>
</a>
</g>
<text text-anchor="middle" x="620.5" y="-354" font-family="Helvetica,sans-Serif" font-size="10.00" fill="grey"> data</text>
</g>
<!-- Node4 -->
<g id="Node000004" class="node">
<title>Node4</title>
<g id="a_Node000004"><a xlink:href="classGAGenome.html" target="_top" xlink:title="The base genome class just defines the genome interface &#45; how to mutate, crossover,...">
<polygon fill="white" stroke="#666666" points="474,-309.5 402,-309.5 402,-290.5 474,-290.5 474,-309.5"/>
<text text-anchor="middle" x="438" y="-297.5" font-family="Helvetica,sans-Serif" font-size="10.00">GAGenome</text>
</a>
</g>
</g>
<!-- Node4&#45;&gt;Node1 -->
<g id="edge3_Node000001_Node000004" class="edge">
<title>Node4&#45;&gt;Node1</title>
<g id="a_edge3_Node000001_Node000004"><a xlink:title=" ">
<path fill="none" stroke="#63b8ff" d="M460.9,-285.15C496.97,-263.34 565.95,-221.63 595.73,-203.63"/>
<polygon fill="#63b8ff" stroke="#63b8ff" points="458.82,-282.32 452.08,-290.49 462.44,-288.31 458.82,-282.32"/>
</a>
</g>
</g>
<!-- Node4&#45;&gt;Node4 -->
<g id="edge29_Node000004_Node000004" class="edge">
<title>Node4&#45;&gt;Node4</title>
<g id="a_edge29_Node000004_Node000004"><a xlink:title=" ">
<path fill="none" stroke="#9a32cd" stroke-dasharray="5,2" d="M471.1,-310.5C482.65,-310.63 492,-307.14 492,-300 492,-290.87 476.68,-287.69 461.03,-290.47"/>
<polygon fill="#9a32cd" stroke="#9a32cd" points="471.32,-307 461.03,-309.53 470.65,-313.97 471.32,-307"/>
</a>
</g>
<text text-anchor="middle" x="518" y="-325" font-family="Helvetica,sans-Serif" font-size="10.00" fill="grey"> asexcross</text>
<text text-anchor="middle" x="518" y="-314" font-family="Helvetica,sans-Serif" font-size="10.00" fill="grey">cmp</text>
<text text-anchor="middle" x="518" y="-303" font-family="Helvetica,sans-Serif" font-size="10.00" fill="grey">eval</text>
<text text-anchor="middle" x="518" y="-292" font-family="Helvetica,sans-Serif" font-size="10.00" fill="grey">init</text>
<text text-anchor="middle" x="518" y="-281" font-family="Helvetica,sans-Serif" font-size="10.00" fill="grey">mutr</text>
<text text-anchor="middle" x="518" y="-270" font-family="Helvetica,sans-Serif" font-size="10.00" fill="grey">sexcross</text>
</g>
<!-- Node6 -->
<g id="Node000006" class="node">
<title>Node6</title>
<g id="a_Node000006"><a xlink:href="classGAGeneticAlgorithm.html" target="_top" xlink:title="The base GA class is virtual &#45; it defines the core data elements and parts of the interface that are ...">
<polygon fill="white" stroke="#666666" points="430,-203.5 314,-203.5 314,-184.5 430,-184.5 430,-203.5"/>
<text text-anchor="middle" x="372" y="-191.5" font-family="Helvetica,sans-Serif" font-size="10.00">GAGeneticAlgorithm</text>
</a>
</g>
</g>
<!-- Node4&#45;&gt;Node6 -->
<g id="edge28_Node000006_Node000004" class="edge">
<title>Node4&#45;&gt;Node6</title>
<g id="a_edge28_Node000006_Node000004"><a xlink:title=" ">
<path fill="none" stroke="#9a32cd" stroke-dasharray="5,2" d="M435.64,-280.3C432.95,-264.84 427.36,-242.93 416,-227 408.98,-217.15 397.98,-209.15 388.74,-203.62"/>
<polygon fill="#9a32cd" stroke="#9a32cd" points="432.19,-280.86 437.13,-290.23 439.11,-279.83 432.19,-280.86"/>
</a>
</g>
<text text-anchor="middle" x="444.5" y="-241" font-family="Helvetica,sans-Serif" font-size="10.00" fill="grey"> across</text>
<text text-anchor="middle" x="444.5" y="-230" font-family="Helvetica,sans-Serif" font-size="10.00" fill="grey">scross</text>
</g>
<!-- Node12 -->
<g id="Node000012" class="node">
<title>Node12</title>
<g id="a_Node000012"><a xlink:href="classGAPopulation.html" target="_top" xlink:title=" ">
<polygon fill="white" stroke="#bfbfbf" points="520.5,-130.5 437.5,-130.5 437.5,-111.5 520.5,-111.5 520.5,-130.5"/>
<text text-anchor="middle" x="479" y="-118.5" font-family="Helvetica,sans-Serif" font-size="10.00">GAPopulation</text>
</a>
</g>
</g>
<!-- Node4&#45;&gt;Node12 -->
<g id="edge14_Node000012_Node000004" class="edge">
<title>Node4&#45;&gt;Node12</title>
<g id="a_edge14_Node000012_Node000004"><a xlink:title=" ">
<path fill="none" stroke="#9a32cd" stroke-dasharray="5,2" d="M450.02,-281.69C455.84,-272.42 462.35,-260.55 466,-249 479.56,-206.1 479.79,-151.38 479.3,-130.56"/>
<polygon fill="#9a32cd" stroke="#9a32cd" points="446.93,-280.02 444.34,-290.3 452.77,-283.87 446.93,-280.02"/>
</a>
</g>
<text text-anchor="middle" x="489" y="-197" font-family="Helvetica,sans-Serif" font-size="10.00" fill="grey"> rind</text>
<text text-anchor="middle" x="489" y="-186" font-family="Helvetica,sans-Serif" font-size="10.00" fill="grey">sind</text>
</g>
<!-- Node5 -->
<g id="Node000005" class="node">
<title>Node5</title>
<g id="a_Node000005"><a xlink:href="classGAID.html" target="_top" xlink:title="This defines the identifiers for polymorphic classes.">
<polygon fill="white" stroke="#666666" points="740.5,-399 699.5,-399 699.5,-380 740.5,-380 740.5,-399"/>
<text text-anchor="middle" x="720" y="-387" font-family="Helvetica,sans-Serif" font-size="10.00">GAID</text>
</a>
</g>
</g>
<!-- Node5&#45;&gt;Node4 -->
<g id="edge4_Node000004_Node000005" class="edge">
<title>Node5&#45;&gt;Node4</title>
<g id="a_edge4_Node000004_Node000005"><a xlink:title=" ">
<path fill="none" stroke="#63b8ff" d="M689.19,-381.93C660.44,-375.71 619.7,-366.66 604,-362 550.72,-346.2 489.8,-322.25 458.68,-309.57"/>
<polygon fill="#63b8ff" stroke="#63b8ff" points="688.65,-385.39 699.16,-384.07 690.13,-378.55 688.65,-385.39"/>
</a>
</g>
</g>
<!-- Node5&#45;&gt;Node6 -->
<g id="edge6_Node000006_Node000005" class="edge">
<title>Node5&#45;&gt;Node6</title>
<g id="a_edge6_Node000006_Node000005"><a xlink:title=" ">
<path fill="none" stroke="#63b8ff" d="M716.51,-369.88C710.47,-343 695.46,-293.65 663,-267 627.75,-238.06 504.39,-215 430.07,-203.34"/>
<polygon fill="#63b8ff" stroke="#63b8ff" points="713.12,-370.8 718.57,-379.89 719.98,-369.39 713.12,-370.8"/>
</a>
</g>
</g>
<!-- Node5&#45;&gt;Node12 -->
<g id="edge13_Node000012_Node000005" class="edge">
<title>Node5&#45;&gt;Node12</title>
<g id="a_edge13_Node000012_Node000005"><a xlink:title=" ">
<path fill="none" stroke="#63b8ff" d="M731.03,-371.09C755.21,-330.53 806.56,-229.37 752,-179 718.73,-148.29 588.4,-132.03 520.56,-125.5"/>
<polygon fill="#63b8ff" stroke="#63b8ff" points="728.04,-369.26 725.8,-379.62 734.01,-372.92 728.04,-369.26"/>
</a>
</g>
</g>
<!-- Node13 -->
<g id="Node000013" class="node">
<title>Node13</title>
<g id="a_Node000013"><a xlink:href="classGAScalingScheme.html" target="_top" xlink:title=" ">
<polygon fill="white" stroke="#bfbfbf" points="771.5,-247.5 666.5,-247.5 666.5,-228.5 771.5,-228.5 771.5,-247.5"/>
<text text-anchor="middle" x="719" y="-235.5" font-family="Helvetica,sans-Serif" font-size="10.00">GAScalingScheme</text>
</a>
</g>
</g>
<!-- Node5&#45;&gt;Node13 -->
<g id="edge16_Node000013_Node000005" class="edge">
<title>Node5&#45;&gt;Node13</title>
<g id="a_edge16_Node000013_Node000005"><a xlink:title=" ">
<path fill="none" stroke="#63b8ff" d="M719.87,-369.54C719.65,-336.88 719.22,-271.24 719.06,-247.67"/>
<polygon fill="#63b8ff" stroke="#63b8ff" points="716.37,-369.62 719.94,-379.6 723.37,-369.57 716.37,-369.62"/>
</a>
</g>
</g>
<!-- Node14 -->
<g id="Node000014" class="node">
<title>Node14</title>
<g id="a_Node000014"><a xlink:href="classGASelectionScheme.html" target="_top" xlink:title=" ">
<polygon fill="white" stroke="#bfbfbf" points="581.5,-19 466.5,-19 466.5,0 581.5,0 581.5,-19"/>
<text text-anchor="middle" x="524" y="-7" font-family="Helvetica,sans-Serif" font-size="10.00">GASelectionScheme</text>
</a>
</g>
</g>
<!-- Node5&#45;&gt;Node14 -->
<g id="edge18_Node000014_Node000005" class="edge">
<title>Node5&#45;&gt;Node14</title>
<g id="a_edge18_Node000014_Node000005"><a xlink:title=" ">
<path fill="none" stroke="#63b8ff" d="M750.3,-378.06C781.31,-365.22 825,-340.18 825,-301 825,-301 825,-301 825,-120 825,-68.35 666.53,-34.01 579.56,-19.04"/>
<polygon fill="#63b8ff" stroke="#63b8ff" points="748.78,-374.9 740.74,-381.81 751.33,-381.42 748.78,-374.9"/>
</a>
</g>
</g>
<!-- Node6&#45;&gt;Node4 -->
<g id="edge5_Node000004_Node000006" class="edge">
<title>Node6&#45;&gt;Node4</title>
<g id="a_edge5_Node000004_Node000006"><a xlink:title=" ">
<path fill="none" stroke="#9a32cd" stroke-dasharray="5,2" d="M380.3,-212.85C385.52,-223.58 392.64,-237.37 400,-249 409.68,-264.29 422.78,-280.78 430.8,-290.48"/>
<polygon fill="#9a32cd" stroke="#9a32cd" points="383.38,-211.2 375.93,-203.67 377.06,-214.2 383.38,-211.2"/>
</a>
</g>
<text text-anchor="middle" x="408" y="-235.5" font-family="Helvetica,sans-Serif" font-size="10.00" fill="grey"> ga</text>
</g>
<!-- Node6&#45;&gt;Node6 -->
<g id="edge27_Node000006_Node000006" class="edge">
<title>Node6&#45;&gt;Node6</title>
<g id="a_edge27_Node000006_Node000006"><a xlink:title=" ">
<path fill="none" stroke="#9a32cd" stroke-dasharray="5,2" d="M440.48,-199.15C445.16,-197.97 448,-196.25 448,-194 448,-190.4 440.73,-188.16 430.31,-187.29"/>
<polygon fill="#9a32cd" stroke="#9a32cd" points="439.67,-195.74 430.31,-200.71 440.73,-202.65 439.67,-195.74"/>
</a>
</g>
<text text-anchor="middle" x="454.5" y="-191.5" font-family="Helvetica,sans-Serif" font-size="10.00" fill="grey"> cf</text>
</g>
<!-- Node6&#45;&gt;Node12 -->
<g id="edge21_Node000012_Node000006" class="edge">
<title>Node6&#45;&gt;Node12</title>
<g id="a_edge21_Node000012_Node000006"><a xlink:title=" ">
<path fill="none" stroke="#9a32cd" stroke-dasharray="5,2" d="M387.57,-176.94C396.53,-168.27 408.3,-157.78 420,-150 431.61,-142.28 445.69,-135.51 457.18,-130.57"/>
<polygon fill="#9a32cd" stroke="#9a32cd" points="384.84,-174.73 380.22,-184.27 389.78,-179.69 384.84,-174.73"/>
</a>
</g>
<text text-anchor="middle" x="428" y="-153" font-family="Helvetica,sans-Serif" font-size="10.00" fill="grey"> ga</text>
</g>
<!-- Node7 -->
<g id="Node000007" class="node">
<title>Node7</title>
<g id="a_Node000007"><a xlink:href="classGAStatistics.html" target="_top" xlink:title="Statistics class.">
<polygon fill="white" stroke="#666666" points="324,-19 248,-19 248,0 324,0 324,-19"/>
<text text-anchor="middle" x="286" y="-7" font-family="Helvetica,sans-Serif" font-size="10.00">GAStatistics</text>
</a>
</g>
</g>
<!-- Node7&#45;&gt;Node6 -->
<g id="edge7_Node000006_Node000007" class="edge">
<title>Node7&#45;&gt;Node6</title>
<g id="a_edge7_Node000006_Node000007"><a xlink:title=" ">
<path fill="none" stroke="#9a32cd" stroke-dasharray="5,2" d="M303.16,-26.33C306.31,-29.68 309.42,-33.32 312,-37 346.82,-86.66 364.78,-159.21 370.2,-184.18"/>
<polygon fill="#9a32cd" stroke="#9a32cd" points="305.51,-23.72 295.95,-19.15 300.57,-28.68 305.51,-23.72"/>
</a>
</g>
<text text-anchor="middle" x="369" y="-118.5" font-family="Helvetica,sans-Serif" font-size="10.00" fill="grey"> stats</text>
</g>
<!-- Node8 -->
<g id="Node000008" class="node">
<title>Node8</title>
<g id="a_Node000008"><a xlink:title=" ">
<polygon fill="white" stroke="#666666" points="338,-130.5 234,-130.5 234,-111.5 338,-111.5 338,-130.5"/>
<text text-anchor="middle" x="286" y="-118.5" font-family="Helvetica,sans-Serif" font-size="10.00">std::vector&lt; int &gt;</text>
</a>
</g>
</g>
<!-- Node8&#45;&gt;Node7 -->
<g id="edge8_Node000007_Node000008" class="edge">
<title>Node8&#45;&gt;Node7</title>
<g id="a_edge8_Node000007_Node000008"><a xlink:title=" ">
<path fill="none" stroke="#9a32cd" stroke-dasharray="5,2" d="M286,-101.11C286,-77.08 286,-36.61 286,-19.05"/>
<polygon fill="#9a32cd" stroke="#9a32cd" points="282.5,-101.41 286,-111.41 289.5,-101.41 282.5,-101.41"/>
</a>
</g>
<text text-anchor="middle" x="297" y="-62" font-family="Helvetica,sans-Serif" font-size="10.00" fill="grey"> gen</text>
</g>
<!-- Node9 -->
<g id="Node000009" class="node">
<title>Node9</title>
<g id="a_Node000009"><a xlink:title=" ">
<polygon fill="white" stroke="#666666" points="215.5,-130.5 102.5,-130.5 102.5,-111.5 215.5,-111.5 215.5,-130.5"/>
<text text-anchor="middle" x="159" y="-118.5" font-family="Helvetica,sans-Serif" font-size="10.00">std::vector&lt; float &gt;</text>
</a>
</g>
</g>
<!-- Node9&#45;&gt;Node7 -->
<g id="edge9_Node000007_Node000009" class="edge">
<title>Node9&#45;&gt;Node7</title>
<g id="a_edge9_Node000007_Node000009"><a xlink:title=" ">
<path fill="none" stroke="#9a32cd" stroke-dasharray="5,2" d="M171.18,-102.83C184.7,-84.72 207.93,-56.18 233,-37 242.48,-29.75 254.25,-23.63 264.29,-19.1"/>
<polygon fill="#9a32cd" stroke="#9a32cd" points="168.11,-101.11 165.04,-111.25 173.76,-105.24 168.11,-101.11"/>
</a>
</g>
<text text-anchor="middle" x="257.5" y="-84" font-family="Helvetica,sans-Serif" font-size="10.00" fill="grey"> aveScore</text>
<text text-anchor="middle" x="257.5" y="-73" font-family="Helvetica,sans-Serif" font-size="10.00" fill="grey">devScore</text>
<text text-anchor="middle" x="257.5" y="-62" font-family="Helvetica,sans-Serif" font-size="10.00" fill="grey">divScore</text>
<text text-anchor="middle" x="257.5" y="-51" font-family="Helvetica,sans-Serif" font-size="10.00" fill="grey">maxScore</text>
<text text-anchor="middle" x="257.5" y="-40" font-family="Helvetica,sans-Serif" font-size="10.00" fill="grey">minScore</text>
</g>
<!-- Node10 -->
<g id="Node000010" class="node">
<title>Node10</title>
<g id="a_Node000010"><a xlink:title=" ">
<polygon fill="white" stroke="#666666" points="84.5,-130.5 19.5,-130.5 19.5,-111.5 84.5,-111.5 84.5,-130.5"/>
<text text-anchor="middle" x="52" y="-118.5" font-family="Helvetica,sans-Serif" font-size="10.00">std::string</text>
</a>
</g>
</g>
<!-- Node10&#45;&gt;Node7 -->
<g id="edge10_Node000007_Node000010" class="edge">
<title>Node10&#45;&gt;Node7</title>
<g id="a_edge10_Node000007_Node000010"><a xlink:title=" ">
<path fill="none" stroke="#9a32cd" stroke-dasharray="5,2" d="M63.03,-103.04C76.57,-83.71 101.43,-52.76 131,-37 167.5,-17.55 215.08,-11.84 247.85,-10.42"/>
<polygon fill="#9a32cd" stroke="#9a32cd" points="60.02,-101.24 57.31,-111.48 65.82,-105.16 60.02,-101.24"/>
</a>
</g>
<text text-anchor="middle" x="153.5" y="-62" font-family="Helvetica,sans-Serif" font-size="10.00" fill="grey"> scorefile</text>
</g>
<!-- Node11 -->
<g id="Node000011" class="node">
<title>Node11</title>
<g id="a_Node000011"><a xlink:title=" ">
<polygon fill="white" stroke="#666666" points="104,-209 0,-209 0,-179 104,-179 104,-209"/>
<text text-anchor="start" x="8" y="-197" font-family="Helvetica,sans-Serif" font-size="10.00">std::basic_string&lt;</text>
<text text-anchor="middle" x="52" y="-186" font-family="Helvetica,sans-Serif" font-size="10.00"> Char &gt;</text>
</a>
</g>
</g>
<!-- Node11&#45;&gt;Node10 -->
<g id="edge11_Node000010_Node000011" class="edge">
<title>Node11&#45;&gt;Node10</title>
<g id="a_edge11_Node000010_Node000011"><a xlink:title=" ">
<path fill="none" stroke="#63b8ff" d="M52,-168.63C52,-155.47 52,-140.03 52,-130.64"/>
<polygon fill="#63b8ff" stroke="#63b8ff" points="48.5,-168.97 52,-178.97 55.5,-168.97 48.5,-168.97"/>
</a>
</g>
</g>
<!-- Node12&#45;&gt;Node6 -->
<g id="edge26_Node000006_Node000012" class="edge">
<title>Node12&#45;&gt;Node6</title>
<g id="a_edge26_Node000006_Node000012"><a xlink:title=" ">
<path fill="none" stroke="#9a32cd" stroke-dasharray="5,2" d="M463.15,-138.3C455.39,-145.77 445.65,-154.4 436,-161 422.37,-170.33 405.62,-178.6 392.68,-184.4"/>
<polygon fill="#9a32cd" stroke="#9a32cd" points="466.06,-140.34 470.7,-130.82 461.13,-135.37 466.06,-140.34"/>
</a>
</g>
<text text-anchor="middle" x="460" y="-153" font-family="Helvetica,sans-Serif" font-size="10.00" fill="grey"> pop</text>
</g>
<!-- Node12&#45;&gt;Node7 -->
<g id="edge12_Node000007_Node000012" class="edge">
<title>Node12&#45;&gt;Node7</title>
<g id="a_edge12_Node000007_Node000012"><a xlink:title=" ">
<path fill="none" stroke="#9a32cd" stroke-dasharray="5,2" d="M458.47,-105.31C452.99,-101.16 447.16,-96.54 442,-92 416.27,-69.38 417.65,-54.15 388,-37 368.52,-25.73 344.21,-19.17 324.21,-15.4"/>
<polygon fill="#9a32cd" stroke="#9a32cd" points="456.53,-108.22 466.65,-111.35 460.69,-102.59 456.53,-108.22"/>
</a>
</g>
<text text-anchor="middle" x="453" y="-62" font-family="Helvetica,sans-Serif" font-size="10.00" fill="grey"> boa</text>
</g>
<!-- Node12&#45;&gt;Node12 -->
<g id="edge20_Node000012_Node000012" class="edge">
<title>Node12&#45;&gt;Node12</title>
<g id="a_edge20_Node000012_Node000012"><a xlink:title=" ">
<path fill="none" stroke="#9a32cd" stroke-dasharray="5,2" d="M530.82,-126.07C535.53,-125.01 538.5,-123.32 538.5,-121 538.5,-117.28 530.91,-115.19 520.71,-114.72"/>
<polygon fill="#9a32cd" stroke="#9a32cd" points="530.22,-122.61 520.71,-127.28 531.05,-129.56 530.22,-122.61"/>
</a>
</g>
<text text-anchor="middle" x="551" y="-124" font-family="Helvetica,sans-Serif" font-size="10.00" fill="grey"> eval</text>
<text text-anchor="middle" x="551" y="-113" font-family="Helvetica,sans-Serif" font-size="10.00" fill="grey">init</text>
</g>
<!-- Node12&#45;&gt;Node14 -->
<g id="edge19_Node000014_Node000012" class="edge">
<title>Node12&#45;&gt;Node14</title>
<g id="a_edge19_Node000014_Node000012"><a xlink:title=" ">
<path fill="none" stroke="#9a32cd" stroke-dasharray="5,2" d="M472.94,-101.51C468.29,-83.7 464.41,-56.64 476,-37 480.79,-28.88 489.05,-23.08 497.39,-19.02"/>
<polygon fill="#9a32cd" stroke="#9a32cd" points="469.63,-102.65 475.81,-111.25 476.34,-100.67 469.63,-102.65"/>
</a>
</g>
<text text-anchor="middle" x="487" y="-62" font-family="Helvetica,sans-Serif" font-size="10.00" fill="grey"> pop</text>
</g>
<!-- Node13&#45;&gt;Node12 -->
<g id="edge15_Node000012_Node000013" class="edge">
<title>Node13&#45;&gt;Node12</title>
<g id="a_edge15_Node000012_Node000013"><a xlink:title=" ">
<path fill="none" stroke="#9a32cd" stroke-dasharray="5,2" d="M714.78,-218.4C710.93,-205.55 703.96,-189.04 692,-179 643.03,-137.9 567.31,-126.17 520.58,-122.97"/>
<polygon fill="#9a32cd" stroke="#9a32cd" points="711.4,-219.31 717.32,-228.1 718.17,-217.54 711.4,-219.31"/>
</a>
</g>
<text text-anchor="middle" x="729.5" y="-191.5" font-family="Helvetica,sans-Serif" font-size="10.00" fill="grey"> sclscm</text>
</g>
<!-- Node14&#45;&gt;Node12 -->
<g id="edge17_Node000012_Node000014" class="edge">
<title>Node14&#45;&gt;Node12</title>
<g id="a_edge17_Node000012_Node000014"><a xlink:title=" ">
<path fill="none" stroke="#9a32cd" stroke-dasharray="5,2" d="M521.25,-29.32C518.23,-46.39 512.36,-71.89 502,-92 498.31,-99.16 492.56,-106.16 487.73,-111.37"/>
<polygon fill="#9a32cd" stroke="#9a32cd" points="524.77,-29.45 522.91,-19.02 517.86,-28.34 524.77,-29.45"/>
</a>
</g>
<text text-anchor="middle" x="529.5" y="-62" font-family="Helvetica,sans-Serif" font-size="10.00" fill="grey"> slct</text>
</g>
<!-- Node15 -->
<g id="Node000015" class="node">
<title>Node15</title>
<g id="a_Node000015"><a xlink:href="classGAEvalData.html" target="_top" xlink:title="This is the basic interface for the object that contains evaluation data.">
<polygon fill="white" stroke="#666666" points="295.5,-399 220.5,-399 220.5,-380 295.5,-380 295.5,-399"/>
<text text-anchor="middle" x="258" y="-387" font-family="Helvetica,sans-Serif" font-size="10.00">GAEvalData</text>
</a>
</g>
</g>
<!-- Node15&#45;&gt;Node4 -->
<g id="edge30_Node000004_Node000015" class="edge">
<title>Node15&#45;&gt;Node4</title>
<g id="a_edge30_Node000004_Node000015"><a xlink:title=" ">
<path fill="none" stroke="#9a32cd" stroke-dasharray="5,2" d="M293.38,-376.48C321.22,-366.42 360.59,-350.88 393,-333 405.42,-326.15 418.52,-316.52 427.36,-309.62"/>
<polygon fill="#9a32cd" stroke="#9a32cd" points="291.92,-373.28 283.68,-379.93 294.27,-379.87 291.92,-373.28"/>
</a>
</g>
<text text-anchor="middle" x="364" y="-354" font-family="Helvetica,sans-Serif" font-size="10.00" fill="grey"> evd</text>
</g>
<!-- Node15&#45;&gt;Node12 -->
<g id="edge22_Node000012_Node000015" class="edge">
<title>Node15&#45;&gt;Node12</title>
<g id="a_edge22_Node000012_Node000015"><a xlink:title=" ">
<path fill="none" stroke="#9a32cd" stroke-dasharray="5,2" d="M255.67,-369.91C251.62,-328.36 248.5,-227.74 305,-179 342.55,-146.61 398.95,-132.53 437.28,-126.47"/>
<polygon fill="#9a32cd" stroke="#9a32cd" points="252.21,-370.43 256.79,-379.98 259.16,-369.65 252.21,-370.43"/>
</a>
</g>
<text text-anchor="middle" x="294" y="-235.5" font-family="Helvetica,sans-Serif" font-size="10.00" fill="grey"> evaldata</text>
</g>
<!-- Node16 -->
<g id="Node000016" class="node">
<title>Node16</title>
<g id="a_Node000016"><a xlink:href="classGAParameterList.html" target="_top" xlink:title="Parameter List.">
<polygon fill="white" stroke="#666666" points="384,-309.5 286,-309.5 286,-290.5 384,-290.5 384,-309.5"/>
<text text-anchor="middle" x="335" y="-297.5" font-family="Helvetica,sans-Serif" font-size="10.00">GAParameterList</text>
</a>
</g>
</g>
<!-- Node16&#45;&gt;Node6 -->
<g id="edge23_Node000006_Node000016" class="edge">
<title>Node16&#45;&gt;Node6</title>
<g id="a_edge23_Node000006_Node000016"><a xlink:title=" ">
<path fill="none" stroke="#9a32cd" stroke-dasharray="5,2" d="M331.61,-279.93C329.83,-264.87 329.37,-243.67 337,-227 341.45,-217.27 350.41,-209.17 358.15,-203.55"/>
<polygon fill="#9a32cd" stroke="#9a32cd" points="328.18,-280.71 333.11,-290.08 335.11,-279.68 328.18,-280.71"/>
</a>
</g>
<text text-anchor="middle" x="357" y="-235.5" font-family="Helvetica,sans-Serif" font-size="10.00" fill="grey"> params</text>
</g>
<!-- Node17 -->
<g id="Node000017" class="node">
<title>Node17</title>
<g id="a_Node000017"><a xlink:title=" ">
<polygon fill="white" stroke="#666666" points="394.5,-399 313.5,-399 313.5,-380 394.5,-380 394.5,-399"/>
<text text-anchor="middle" x="354" y="-387" font-family="Helvetica,sans-Serif" font-size="10.00">std::list&lt; T &gt;</text>
</a>
</g>
</g>
<!-- Node17&#45;&gt;Node16 -->
<g id="edge24_Node000016_Node000017" class="edge">
<title>Node17&#45;&gt;Node16</title>
<g id="a_edge24_Node000016_Node000017"><a xlink:title=" ">
<path fill="none" stroke="#63b8ff" d="M349.95,-369.85C345.92,-351.28 339.91,-323.61 336.88,-309.67"/>
<polygon fill="#63b8ff" stroke="#63b8ff" points="346.57,-370.76 352.11,-379.79 353.41,-369.28 346.57,-370.76"/>
</a>
</g>
</g>
<!-- Node18 -->
<g id="Node000018" class="node">
<title>Node18</title>
<g id="a_Node000018"><a xlink:title=" ">
<polygon fill="white" stroke="#bfbfbf" points="368.5,-465 339.5,-465 339.5,-446 368.5,-446 368.5,-465"/>
<text text-anchor="middle" x="354" y="-453" font-family="Helvetica,sans-Serif" font-size="10.00">T</text>
</a>
</g>
</g>
<!-- Node18&#45;&gt;Node17 -->
<g id="edge25_Node000017_Node000018" class="edge">
<title>Node18&#45;&gt;Node17</title>
<g id="a_edge25_Node000017_Node000018"><a xlink:title=" ">
<path fill="none" stroke="#9a32cd" stroke-dasharray="5,2" d="M354,-435.58C354,-423.63 354,-408.72 354,-399.41"/>
<polygon fill="#9a32cd" stroke="#9a32cd" points="350.5,-435.87 354,-445.87 357.5,-435.87 350.5,-435.87"/>
</a>
</g>
<text text-anchor="middle" x="378.5" y="-420" font-family="Helvetica,sans-Serif" font-size="10.00" fill="grey"> elements</text>
</g>
</g>
</svg>
