<?xml version="1.0" encoding="UTF-8" standalone="no"?>
<!DOCTYPE svg PUBLIC "-//W3C//DTD SVG 1.1//EN"
 "http://www.w3.org/Graphics/SVG/1.1/DTD/svg11.dtd">
<!-- Generated by graphviz version 2.43.0 (0)
 -->
<!-- Title: GAGeneticAlgorithm Pages: 1 -->
<svg width="763pt" height="529pt"
 viewBox="0.00 0.00 763.00 529.00" xmlns="http://www.w3.org/2000/svg" xmlns:xlink="http://www.w3.org/1999/xlink">
<g id="graph0" class="graph" transform="scale(1 1) rotate(0) translate(4 525)">
<title>GAGeneticAlgorithm</title>
<!-- Node1 -->
<g id="Node000001" class="node">
<title>Node1</title>
<g id="a_Node000001"><a xlink:title="The base GA class is virtual &#45; it defines the core data elements and parts of the interface that are ...">
<polygon fill="#999999" stroke="#666666" points="410,-333 294,-333 294,-314 410,-314 410,-333"/>
<text text-anchor="middle" x="352" y="-321" font-family="Helvetica,sans-Serif" font-size="10.00">GAGeneticAlgorithm</text>
</a>
</g>
</g>
<!-- Node1&#45;&gt;Node1 -->
<g id="edge26_Node000001_Node000001" class="edge">
<title>Node1&#45;&gt;Node1</title>
<g id="a_edge26_Node000001_Node000001"><a xlink:title=" ">
<path fill="none" stroke="#9a32cd" stroke-dasharray="5,2" d="M420.48,-327.84C425.16,-326.84 428,-325.39 428,-323.5 428,-320.47 420.73,-318.59 410.31,-317.85"/>
<polygon fill="#9a32cd" stroke="#9a32cd" points="419.78,-324.4 410.31,-329.15 420.68,-331.34 419.78,-324.4"/>
</a>
</g>
<text text-anchor="middle" x="434.5" y="-321" font-family="Helvetica,sans-Serif" font-size="10.00" fill="grey"> cf</text>
</g>
<!-- Node8 -->
<g id="Node000008" class="node">
<title>Node8</title>
<g id="a_Node000008"><a xlink:href="classGAPopulation.html" target="_top" xlink:title=" ">
<polygon fill="white" stroke="#bfbfbf" points="585.5,-130.5 502.5,-130.5 502.5,-111.5 585.5,-111.5 585.5,-130.5"/>
<text text-anchor="middle" x="544" y="-118.5" font-family="Helvetica,sans-Serif" font-size="10.00">GAPopulation</text>
</a>
</g>
</g>
<!-- Node1&#45;&gt;Node8 -->
<g id="edge20_Node000008_Node000001" class="edge">
<title>Node1&#45;&gt;Node8</title>
<g id="a_edge20_Node000008_Node000001"><a xlink:title=" ">
<path fill="none" stroke="#9a32cd" stroke-dasharray="5,2" d="M395.92,-310.82C426.19,-300.75 465.43,-283.42 491,-256 509.09,-236.61 533.56,-157.44 541.44,-130.8"/>
<polygon fill="#9a32cd" stroke="#9a32cd" points="394.5,-307.59 386.03,-313.96 396.62,-314.27 394.5,-307.59"/>
</a>
</g>
<text text-anchor="middle" x="530" y="-220.5" font-family="Helvetica,sans-Serif" font-size="10.00" fill="grey"> ga</text>
</g>
<!-- Node9 -->
<g id="Node000009" class="node">
<title>Node9</title>
<g id="a_Node000009"><a xlink:href="classGAGenome.html" target="_top" xlink:title="The base genome class just defines the genome interface &#45; how to mutate, crossover,...">
<polygon fill="white" stroke="#666666" points="412,-232.5 340,-232.5 340,-213.5 412,-213.5 412,-232.5"/>
<text text-anchor="middle" x="376" y="-220.5" font-family="Helvetica,sans-Serif" font-size="10.00">GAGenome</text>
</a>
</g>
</g>
<!-- Node1&#45;&gt;Node9 -->
<g id="edge11_Node000009_Node000001" class="edge">
<title>Node1&#45;&gt;Node9</title>
<g id="a_edge11_Node000009_Node000001"><a xlink:title=" ">
<path fill="none" stroke="#9a32cd" stroke-dasharray="5,2" d="M344.53,-304.15C341.82,-294.99 340.06,-283.79 343,-274 347.85,-257.86 359.77,-242.13 367.88,-232.75"/>
<polygon fill="#9a32cd" stroke="#9a32cd" points="341.3,-305.52 347.93,-313.78 347.9,-303.19 341.3,-305.52"/>
</a>
</g>
<text text-anchor="middle" x="351" y="-282.5" font-family="Helvetica,sans-Serif" font-size="10.00" fill="grey"> ga</text>
</g>
<!-- Node2 -->
<g id="Node000002" class="node">
<title>Node2</title>
<g id="a_Node000002"><a xlink:href="classGAID.html" target="_top" xlink:title="This defines the identifiers for polymorphic classes.">
<polygon fill="white" stroke="#666666" points="669.5,-399 628.5,-399 628.5,-380 669.5,-380 669.5,-399"/>
<text text-anchor="middle" x="649" y="-387" font-family="Helvetica,sans-Serif" font-size="10.00">GAID</text>
</a>
</g>
</g>
<!-- Node2&#45;&gt;Node1 -->
<g id="edge1_Node000001_Node000002" class="edge">
<title>Node2&#45;&gt;Node1</title>
<g id="a_edge1_Node000001_Node000002"><a xlink:title=" ">
<path fill="none" stroke="#63b8ff" d="M617.98,-386.14C579.89,-382.79 513.51,-375.52 458,-362 427.47,-354.56 393.41,-341.65 372.34,-333.09"/>
<polygon fill="#63b8ff" stroke="#63b8ff" points="618.13,-389.66 628.39,-387.01 618.72,-382.69 618.13,-389.66"/>
</a>
</g>
</g>
<!-- Node2&#45;&gt;Node8 -->
<g id="edge8_Node000008_Node000002" class="edge">
<title>Node2&#45;&gt;Node8</title>
<g id="a_edge8_Node000008_Node000002"><a xlink:title=" ">
<path fill="none" stroke="#63b8ff" d="M662.78,-371.38C676.06,-353.71 695.23,-324.74 703,-296 712.14,-262.21 692.29,-200.87 684,-190 659.25,-157.56 614.99,-139.73 582.85,-130.56"/>
<polygon fill="#63b8ff" stroke="#63b8ff" points="659.83,-369.48 656.47,-379.53 665.36,-373.77 659.83,-369.48"/>
</a>
</g>
</g>
<!-- Node2&#45;&gt;Node9 -->
<g id="edge10_Node000009_Node000002" class="edge">
<title>Node2&#45;&gt;Node9</title>
<g id="a_edge10_Node000009_Node000002"><a xlink:title=" ">
<path fill="none" stroke="#63b8ff" d="M618.74,-379.37C589.73,-369.95 545.27,-353.73 510,-333 458.03,-302.46 405.06,-252.68 384.7,-232.7"/>
<polygon fill="#63b8ff" stroke="#63b8ff" points="617.72,-382.72 628.31,-382.42 619.84,-376.05 617.72,-382.72"/>
</a>
</g>
</g>
<!-- Node11 -->
<g id="Node000011" class="node">
<title>Node11</title>
<g id="a_Node000011"><a xlink:href="classGAScalingScheme.html" target="_top" xlink:title=" ">
<polygon fill="white" stroke="#bfbfbf" points="701.5,-294.5 596.5,-294.5 596.5,-275.5 701.5,-275.5 701.5,-294.5"/>
<text text-anchor="middle" x="649" y="-282.5" font-family="Helvetica,sans-Serif" font-size="10.00">GAScalingScheme</text>
</a>
</g>
</g>
<!-- Node2&#45;&gt;Node11 -->
<g id="edge15_Node000011_Node000002" class="edge">
<title>Node2&#45;&gt;Node11</title>
<g id="a_edge15_Node000011_Node000002"><a xlink:title=" ">
<path fill="none" stroke="#63b8ff" d="M649,-369.53C649,-347.23 649,-311.19 649,-294.72"/>
<polygon fill="#63b8ff" stroke="#63b8ff" points="645.5,-369.76 649,-379.76 652.5,-369.76 645.5,-369.76"/>
</a>
</g>
</g>
<!-- Node12 -->
<g id="Node000012" class="node">
<title>Node12</title>
<g id="a_Node000012"><a xlink:href="classGASelectionScheme.html" target="_top" xlink:title=" ">
<polygon fill="white" stroke="#bfbfbf" points="646.5,-19 531.5,-19 531.5,0 646.5,0 646.5,-19"/>
<text text-anchor="middle" x="589" y="-7" font-family="Helvetica,sans-Serif" font-size="10.00">GASelectionScheme</text>
</a>
</g>
</g>
<!-- Node2&#45;&gt;Node12 -->
<g id="edge17_Node000012_Node000002" class="edge">
<title>Node2&#45;&gt;Node12</title>
<g id="a_edge17_Node000012_Node000002"><a xlink:title=" ">
<path fill="none" stroke="#63b8ff" d="M679.74,-383.42C711.04,-376.28 755,-359.94 755,-324.5 755,-324.5 755,-324.5 755,-120 755,-60.79 680.5,-31.77 631.32,-19.06"/>
<polygon fill="#63b8ff" stroke="#63b8ff" points="678.77,-380.04 669.69,-385.5 680.19,-386.9 678.77,-380.04"/>
</a>
</g>
</g>
<!-- Node3 -->
<g id="Node000003" class="node">
<title>Node3</title>
<g id="a_Node000003"><a xlink:href="classGAStatistics.html" target="_top" xlink:title="Statistics class.">
<polygon fill="white" stroke="#666666" points="255,-19 179,-19 179,0 255,0 255,-19"/>
<text text-anchor="middle" x="217" y="-7" font-family="Helvetica,sans-Serif" font-size="10.00">GAStatistics</text>
</a>
</g>
</g>
<!-- Node3&#45;&gt;Node1 -->
<g id="edge2_Node000001_Node000003" class="edge">
<title>Node3&#45;&gt;Node1</title>
<g id="a_edge2_Node000001_Node000003"><a xlink:title=" ">
<path fill="none" stroke="#9a32cd" stroke-dasharray="5,2" d="M201.84,-26.65C185.63,-45.14 160.91,-77.13 151,-110 132.27,-172.13 113,-203.4 151,-256 183.29,-300.69 246.75,-315.84 293.76,-320.72"/>
<polygon fill="#9a32cd" stroke="#9a32cd" points="204.5,-28.92 208.61,-19.15 199.31,-24.23 204.5,-28.92"/>
</a>
</g>
<text text-anchor="middle" x="152" y="-158.5" font-family="Helvetica,sans-Serif" font-size="10.00" fill="grey"> stats</text>
</g>
<!-- Node4 -->
<g id="Node000004" class="node">
<title>Node4</title>
<g id="a_Node000004"><a xlink:title=" ">
<polygon fill="white" stroke="#666666" points="104,-130.5 0,-130.5 0,-111.5 104,-111.5 104,-130.5"/>
<text text-anchor="middle" x="52" y="-118.5" font-family="Helvetica,sans-Serif" font-size="10.00">std::vector&lt; int &gt;</text>
</a>
</g>
</g>
<!-- Node4&#45;&gt;Node3 -->
<g id="edge3_Node000003_Node000004" class="edge">
<title>Node4&#45;&gt;Node3</title>
<g id="a_edge3_Node000003_Node000004"><a xlink:title=" ">
<path fill="none" stroke="#9a32cd" stroke-dasharray="5,2" d="M56.74,-101.73C62.67,-82.61 74.73,-53.15 96,-37 119.72,-18.99 153.19,-12.71 178.92,-10.74"/>
<polygon fill="#9a32cd" stroke="#9a32cd" points="53.36,-100.81 53.99,-111.38 60.09,-102.72 53.36,-100.81"/>
</a>
</g>
<text text-anchor="middle" x="107" y="-62" font-family="Helvetica,sans-Serif" font-size="10.00" fill="grey"> gen</text>
</g>
<!-- Node5 -->
<g id="Node000005" class="node">
<title>Node5</title>
<g id="a_Node000005"><a xlink:title=" ">
<polygon fill="white" stroke="#666666" points="273.5,-130.5 160.5,-130.5 160.5,-111.5 273.5,-111.5 273.5,-130.5"/>
<text text-anchor="middle" x="217" y="-118.5" font-family="Helvetica,sans-Serif" font-size="10.00">std::vector&lt; float &gt;</text>
</a>
</g>
</g>
<!-- Node5&#45;&gt;Node3 -->
<g id="edge4_Node000003_Node000005" class="edge">
<title>Node5&#45;&gt;Node3</title>
<g id="a_edge4_Node000003_Node000005"><a xlink:title=" ">
<path fill="none" stroke="#9a32cd" stroke-dasharray="5,2" d="M217,-101.11C217,-77.08 217,-36.61 217,-19.05"/>
<polygon fill="#9a32cd" stroke="#9a32cd" points="213.5,-101.41 217,-111.41 220.5,-101.41 213.5,-101.41"/>
</a>
</g>
<text text-anchor="middle" x="241.5" y="-84" font-family="Helvetica,sans-Serif" font-size="10.00" fill="grey"> aveScore</text>
<text text-anchor="middle" x="241.5" y="-73" font-family="Helvetica,sans-Serif" font-size="10.00" fill="grey">devScore</text>
<text text-anchor="middle" x="241.5" y="-62" font-family="Helvetica,sans-Serif" font-size="10.00" fill="grey">divScore</text>
<text text-anchor="middle" x="241.5" y="-51" font-family="Helvetica,sans-Serif" font-size="10.00" fill="grey">maxScore</text>
<text text-anchor="middle" x="241.5" y="-40" font-family="Helvetica,sans-Serif" font-size="10.00" fill="grey">minScore</text>
</g>
<!-- Node6 -->
<g id="Node000006" class="node">
<title>Node6</title>
<g id="a_Node000006"><a xlink:title=" ">
<polygon fill="white" stroke="#666666" points="356.5,-130.5 291.5,-130.5 291.5,-111.5 356.5,-111.5 356.5,-130.5"/>
<text text-anchor="middle" x="324" y="-118.5" font-family="Helvetica,sans-Serif" font-size="10.00">std::string</text>
</a>
</g>
</g>
<!-- Node6&#45;&gt;Node3 -->
<g id="edge5_Node000003_Node000006" class="edge">
<title>Node6&#45;&gt;Node3</title>
<g id="a_edge5_Node000003_Node000006"><a xlink:title=" ">
<path fill="none" stroke="#9a32cd" stroke-dasharray="5,2" d="M315.78,-101.89C306.73,-83.6 290.68,-55.46 270,-37 261.48,-29.39 250.39,-23.4 240.55,-19.05"/>
<polygon fill="#9a32cd" stroke="#9a32cd" points="312.73,-103.62 320.18,-111.15 319.05,-100.62 312.73,-103.62"/>
</a>
</g>
<text text-anchor="middle" x="333.5" y="-62" font-family="Helvetica,sans-Serif" font-size="10.00" fill="grey"> scorefile</text>
</g>
<!-- Node7 -->
<g id="Node000007" class="node">
<title>Node7</title>
<g id="a_Node000007"><a xlink:title=" ">
<polygon fill="white" stroke="#666666" points="264,-238 160,-238 160,-208 264,-208 264,-238"/>
<text text-anchor="start" x="168" y="-226" font-family="Helvetica,sans-Serif" font-size="10.00">std::basic_string&lt;</text>
<text text-anchor="middle" x="212" y="-215" font-family="Helvetica,sans-Serif" font-size="10.00"> Char &gt;</text>
</a>
</g>
</g>
<!-- Node7&#45;&gt;Node6 -->
<g id="edge6_Node000006_Node000007" class="edge">
<title>Node7&#45;&gt;Node6</title>
<g id="a_edge6_Node000006_Node000007"><a xlink:title=" ">
<path fill="none" stroke="#63b8ff" d="M232.4,-200.67C246.87,-185.9 267.02,-166.09 286,-150 294.12,-143.11 303.8,-136 311.35,-130.66"/>
<polygon fill="#63b8ff" stroke="#63b8ff" points="229.84,-198.27 225.38,-207.88 234.86,-203.15 229.84,-198.27"/>
</a>
</g>
</g>
<!-- Node8&#45;&gt;Node1 -->
<g id="edge25_Node000001_Node000008" class="edge">
<title>Node8&#45;&gt;Node1</title>
<g id="a_edge25_Node000001_Node000008"><a xlink:title=" ">
<path fill="none" stroke="#9a32cd" stroke-dasharray="5,2" d="M492.45,-129.59C430.16,-139.94 330.93,-160.62 309,-190 279.19,-229.92 325.2,-291.39 344.31,-313.88"/>
<polygon fill="#9a32cd" stroke="#9a32cd" points="493.18,-133.02 502.49,-127.96 492.06,-126.11 493.18,-133.02"/>
</a>
</g>
<text text-anchor="middle" x="320" y="-220.5" font-family="Helvetica,sans-Serif" font-size="10.00" fill="grey"> pop</text>
</g>
<!-- Node8&#45;&gt;Node3 -->
<g id="edge7_Node000003_Node000008" class="edge">
<title>Node8&#45;&gt;Node3</title>
<g id="a_edge7_Node000003_Node000008"><a xlink:title=" ">
<path fill="none" stroke="#9a32cd" stroke-dasharray="5,2" d="M519.35,-106.56C484.74,-88.24 419.3,-55.57 360,-37 325.3,-26.13 284.39,-19.11 255.24,-15.04"/>
<polygon fill="#9a32cd" stroke="#9a32cd" points="517.8,-109.7 528.27,-111.33 521.1,-103.53 517.8,-109.7"/>
</a>
</g>
<text text-anchor="middle" x="499" y="-62" font-family="Helvetica,sans-Serif" font-size="10.00" fill="grey"> boa</text>
</g>
<!-- Node8&#45;&gt;Node8 -->
<g id="edge19_Node000008_Node000008" class="edge">
<title>Node8&#45;&gt;Node8</title>
<g id="a_edge19_Node000008_Node000008"><a xlink:title=" ">
<path fill="none" stroke="#9a32cd" stroke-dasharray="5,2" d="M595.82,-126.96C600.53,-125.72 603.5,-123.73 603.5,-121 603.5,-116.62 595.91,-114.16 585.71,-113.62"/>
<polygon fill="#9a32cd" stroke="#9a32cd" points="595.12,-123.52 585.71,-128.38 596.1,-130.46 595.12,-123.52"/>
</a>
</g>
<text text-anchor="middle" x="616" y="-124" font-family="Helvetica,sans-Serif" font-size="10.00" fill="grey"> eval</text>
<text text-anchor="middle" x="616" y="-113" font-family="Helvetica,sans-Serif" font-size="10.00" fill="grey">init</text>
</g>
<!-- Node8&#45;&gt;Node12 -->
<g id="edge18_Node000012_Node000008" class="edge">
<title>Node8&#45;&gt;Node12</title>
<g id="a_edge18_Node000012_Node000008"><a xlink:title=" ">
<path fill="none" stroke="#9a32cd" stroke-dasharray="5,2" d="M537.94,-101.51C533.29,-83.7 529.41,-56.64 541,-37 545.79,-28.88 554.05,-23.08 562.39,-19.02"/>
<polygon fill="#9a32cd" stroke="#9a32cd" points="534.63,-102.65 540.81,-111.25 541.34,-100.67 534.63,-102.65"/>
</a>
</g>
<text text-anchor="middle" x="552" y="-62" font-family="Helvetica,sans-Serif" font-size="10.00" fill="grey"> pop</text>
</g>
<!-- Node9&#45;&gt;Node1 -->
<g id="edge27_Node000001_Node000009" class="edge">
<title>Node9&#45;&gt;Node1</title>
<g id="a_edge27_Node000001_Node000009"><a xlink:title=" ">
<path fill="none" stroke="#9a32cd" stroke-dasharray="5,2" d="M371.73,-242.67C368.37,-257.22 363.52,-277.93 359,-296 357.52,-301.91 355.77,-308.53 354.39,-313.68"/>
<polygon fill="#9a32cd" stroke="#9a32cd" points="375.15,-243.42 373.98,-232.89 368.33,-241.85 375.15,-243.42"/>
</a>
</g>
<text text-anchor="middle" x="382.5" y="-288" font-family="Helvetica,sans-Serif" font-size="10.00" fill="grey"> across</text>
<text text-anchor="middle" x="382.5" y="-277" font-family="Helvetica,sans-Serif" font-size="10.00" fill="grey">scross</text>
</g>
<!-- Node9&#45;&gt;Node8 -->
<g id="edge9_Node000008_Node000009" class="edge">
<title>Node9&#45;&gt;Node8</title>
<g id="a_edge9_Node000008_Node000009"><a xlink:title=" ">
<path fill="none" stroke="#9a32cd" stroke-dasharray="5,2" d="M395.37,-207.34C416.14,-191.99 450.41,-167.69 482,-150 495.09,-142.67 510.45,-135.72 522.61,-130.58"/>
<polygon fill="#9a32cd" stroke="#9a32cd" points="393.27,-204.54 387.34,-213.33 397.45,-210.16 393.27,-204.54"/>
</a>
</g>
<text text-anchor="middle" x="493" y="-164" font-family="Helvetica,sans-Serif" font-size="10.00" fill="grey"> rind</text>
<text text-anchor="middle" x="493" y="-153" font-family="Helvetica,sans-Serif" font-size="10.00" fill="grey">sind</text>
</g>
<!-- Node9&#45;&gt;Node9 -->
<g id="edge12_Node000009_Node000009" class="edge">
<title>Node9&#45;&gt;Node9</title>
<g id="a_edge12_Node000009_Node000009"><a xlink:title=" ">
<path fill="none" stroke="#9a32cd" stroke-dasharray="5,2" d="M404.76,-234.38C418.22,-235.66 430,-231.87 430,-223 430,-211.98 411.8,-208.8 394.82,-213.44"/>
<polygon fill="#9a32cd" stroke="#9a32cd" points="405.29,-230.92 394.82,-232.56 404.02,-237.81 405.29,-230.92"/>
</a>
</g>
<text text-anchor="middle" x="456" y="-248" font-family="Helvetica,sans-Serif" font-size="10.00" fill="grey"> asexcross</text>
<text text-anchor="middle" x="456" y="-237" font-family="Helvetica,sans-Serif" font-size="10.00" fill="grey">cmp</text>
<text text-anchor="middle" x="456" y="-226" font-family="Helvetica,sans-Serif" font-size="10.00" fill="grey">eval</text>
<text text-anchor="middle" x="456" y="-215" font-family="Helvetica,sans-Serif" font-size="10.00" fill="grey">init</text>
<text text-anchor="middle" x="456" y="-204" font-family="Helvetica,sans-Serif" font-size="10.00" fill="grey">mutr</text>
<text text-anchor="middle" x="456" y="-193" font-family="Helvetica,sans-Serif" font-size="10.00" fill="grey">sexcross</text>
</g>
<!-- Node10 -->
<g id="Node000010" class="node">
<title>Node10</title>
<g id="a_Node000010"><a xlink:href="classGAEvalData.html" target="_top" xlink:title="This is the basic interface for the object that contains evaluation data.">
<polygon fill="white" stroke="#666666" points="593.5,-333 518.5,-333 518.5,-314 593.5,-314 593.5,-333"/>
<text text-anchor="middle" x="556" y="-321" font-family="Helvetica,sans-Serif" font-size="10.00">GAEvalData</text>
</a>
</g>
</g>
<!-- Node10&#45;&gt;Node8 -->
<g id="edge21_Node000008_Node000010" class="edge">
<title>Node10&#45;&gt;Node8</title>
<g id="a_edge21_Node000008_Node000010"><a xlink:title=" ">
<path fill="none" stroke="#9a32cd" stroke-dasharray="5,2" d="M554.87,-303.66C552.35,-261.55 546.34,-161.12 544.53,-130.81"/>
<polygon fill="#9a32cd" stroke="#9a32cd" points="551.39,-304.11 555.48,-313.88 558.38,-303.69 551.39,-304.11"/>
</a>
</g>
<text text-anchor="middle" x="574" y="-220.5" font-family="Helvetica,sans-Serif" font-size="10.00" fill="grey"> evaldata</text>
</g>
<!-- Node10&#45;&gt;Node9 -->
<g id="edge13_Node000009_Node000010" class="edge">
<title>Node10&#45;&gt;Node9</title>
<g id="a_edge13_Node000009_Node000010"><a xlink:title=" ">
<path fill="none" stroke="#9a32cd" stroke-dasharray="5,2" d="M536.83,-307.82C523.1,-297.66 503.93,-284.18 486,-274 456.63,-257.33 420.69,-241.85 398.07,-232.66"/>
<polygon fill="#9a32cd" stroke="#9a32cd" points="534.91,-310.76 545.01,-313.96 539.11,-305.16 534.91,-310.76"/>
</a>
</g>
<text text-anchor="middle" x="530" y="-282.5" font-family="Helvetica,sans-Serif" font-size="10.00" fill="grey"> evd</text>
</g>
<!-- Node11&#45;&gt;Node8 -->
<g id="edge14_Node000008_Node000011" class="edge">
<title>Node11&#45;&gt;Node8</title>
<g id="a_edge14_Node000008_Node000011"><a xlink:title=" ">
<path fill="none" stroke="#9a32cd" stroke-dasharray="5,2" d="M645.74,-265.39C641.74,-245.7 633.74,-214.21 620,-190 604.97,-163.51 575.83,-141.92 558.32,-130.6"/>
<polygon fill="#9a32cd" stroke="#9a32cd" points="642.35,-266.29 647.64,-275.47 649.23,-264.99 642.35,-266.29"/>
</a>
</g>
<text text-anchor="middle" x="661.5" y="-220.5" font-family="Helvetica,sans-Serif" font-size="10.00" fill="grey"> sclscm</text>
</g>
<!-- Node12&#45;&gt;Node8 -->
<g id="edge16_Node000008_Node000012" class="edge">
<title>Node12&#45;&gt;Node8</title>
<g id="a_edge16_Node000008_Node000012"><a xlink:title=" ">
<path fill="none" stroke="#9a32cd" stroke-dasharray="5,2" d="M586.25,-29.32C583.23,-46.39 577.36,-71.89 567,-92 563.31,-99.16 557.56,-106.16 552.73,-111.37"/>
<polygon fill="#9a32cd" stroke="#9a32cd" points="589.77,-29.45 587.91,-19.02 582.86,-28.34 589.77,-29.45"/>
</a>
</g>
<text text-anchor="middle" x="594.5" y="-62" font-family="Helvetica,sans-Serif" font-size="10.00" fill="grey"> slct</text>
</g>
<!-- Node13 -->
<g id="Node000013" class="node">
<title>Node13</title>
<g id="a_Node000013"><a xlink:href="classGAParameterList.html" target="_top" xlink:title="Parameter List.">
<polygon fill="white" stroke="#666666" points="401,-399 303,-399 303,-380 401,-380 401,-399"/>
<text text-anchor="middle" x="352" y="-387" font-family="Helvetica,sans-Serif" font-size="10.00">GAParameterList</text>
</a>
</g>
</g>
<!-- Node13&#45;&gt;Node1 -->
<g id="edge22_Node000001_Node000013" class="edge">
<title>Node13&#45;&gt;Node1</title>
<g id="a_edge22_Node000001_Node000013"><a xlink:title=" ">
<path fill="none" stroke="#9a32cd" stroke-dasharray="5,2" d="M352,-369.58C352,-357.63 352,-342.72 352,-333.41"/>
<polygon fill="#9a32cd" stroke="#9a32cd" points="348.5,-369.87 352,-379.87 355.5,-369.87 348.5,-369.87"/>
</a>
</g>
<text text-anchor="middle" x="372" y="-354" font-family="Helvetica,sans-Serif" font-size="10.00" fill="grey"> params</text>
</g>
<!-- Node14 -->
<g id="Node000014" class="node">
<title>Node14</title>
<g id="a_Node000014"><a xlink:title=" ">
<polygon fill="white" stroke="#666666" points="392.5,-455 311.5,-455 311.5,-436 392.5,-436 392.5,-455"/>
<text text-anchor="middle" x="352" y="-443" font-family="Helvetica,sans-Serif" font-size="10.00">std::list&lt; T &gt;</text>
</a>
</g>
</g>
<!-- Node14&#45;&gt;Node13 -->
<g id="edge23_Node000013_Node000014" class="edge">
<title>Node14&#45;&gt;Node13</title>
<g id="a_edge23_Node000013_Node000014"><a xlink:title=" ">
<path fill="none" stroke="#63b8ff" d="M352,-425.3C352,-416.41 352,-406.28 352,-399.25"/>
<polygon fill="#63b8ff" stroke="#63b8ff" points="348.5,-425.58 352,-435.58 355.5,-425.58 348.5,-425.58"/>
</a>
</g>
</g>
<!-- Node15 -->
<g id="Node000015" class="node">
<title>Node15</title>
<g id="a_Node000015"><a xlink:title=" ">
<polygon fill="white" stroke="#bfbfbf" points="366.5,-521 337.5,-521 337.5,-502 366.5,-502 366.5,-521"/>
<text text-anchor="middle" x="352" y="-509" font-family="Helvetica,sans-Serif" font-size="10.00">T</text>
</a>
</g>
</g>
<!-- Node15&#45;&gt;Node14 -->
<g id="edge24_Node000014_Node000015" class="edge">
<title>Node15&#45;&gt;Node14</title>
<g id="a_edge24_Node000014_Node000015"><a xlink:title=" ">
<path fill="none" stroke="#9a32cd" stroke-dasharray="5,2" d="M352,-491.58C352,-479.63 352,-464.72 352,-455.41"/>
<polygon fill="#9a32cd" stroke="#9a32cd" points="348.5,-491.87 352,-501.87 355.5,-491.87 348.5,-491.87"/>
</a>
</g>
<text text-anchor="middle" x="376.5" y="-476" font-family="Helvetica,sans-Serif" font-size="10.00" fill="grey"> elements</text>
</g>
</g>
</svg>
