<?xml version="1.0" encoding="UTF-8" standalone="no"?>
<!DOCTYPE svg PUBLIC "-//W3C//DTD SVG 1.1//EN"
 "http://www.w3.org/Graphics/SVG/1.1/DTD/svg11.dtd">
<!-- Generated by graphviz version 2.43.0 (0)
 -->
<!-- Title: Graphical Class Hierarchy Pages: 1 -->
<svg width="622pt" height="522pt"
 viewBox="0.00 0.00 622.00 522.00" xmlns="http://www.w3.org/2000/svg" xmlns:xlink="http://www.w3.org/1999/xlink">
<g id="graph0" class="graph" transform="scale(1 1) rotate(0) translate(4 518)">
<title>Graphical Class Hierarchy</title>
<polygon fill="white" stroke="transparent" points="-4,4 -4,-518 618,-518 618,4 -4,4"/>
<!-- Node0 -->
<g id="node1" class="node">
<title>Node0</title>
<g id="a_node1"><a xlink:href="classGAArray.html" target="_top" xlink:title="Array Base Class.">
<polygon fill="white" stroke="black" points="127,-456.5 127,-475.5 213,-475.5 213,-456.5 127,-456.5"/>
<text text-anchor="middle" x="170" y="-463.5" font-family="Helvetica,sans-Serif" font-size="10.00">GAArray&lt; T &gt;</text>
</a>
</g>
</g>
<!-- Node1 -->
<g id="node2" class="node">
<title>Node1</title>
<g id="a_node2"><a xlink:href="classGA1DArrayGenome.html" target="_top" xlink:title="1D Array Genome">
<polygon fill="white" stroke="black" points="267,-494.5 267,-513.5 407,-513.5 407,-494.5 267,-494.5"/>
<text text-anchor="middle" x="337" y="-501.5" font-family="Helvetica,sans-Serif" font-size="10.00">GA1DArrayGenome&lt; T &gt;</text>
</a>
</g>
</g>
<!-- Node0&#45;&gt;Node1 -->
<g id="edge1" class="edge">
<title>Node0&#45;&gt;Node1</title>
<path fill="none" stroke="midnightblue" d="M222.65,-477.9C245.85,-483.24 272.84,-489.45 294.66,-494.48"/>
<polygon fill="midnightblue" stroke="midnightblue" points="223.17,-474.42 212.64,-475.59 221.6,-481.24 223.17,-474.42"/>
</g>
<!-- Node3 -->
<g id="node4" class="node">
<title>Node3</title>
<g id="a_node4"><a xlink:href="classGA2DArrayGenome.html" target="_top" xlink:title=" ">
<polygon fill="white" stroke="black" points="267,-456.5 267,-475.5 407,-475.5 407,-456.5 267,-456.5"/>
<text text-anchor="middle" x="337" y="-463.5" font-family="Helvetica,sans-Serif" font-size="10.00">GA2DArrayGenome&lt; T &gt;</text>
</a>
</g>
</g>
<!-- Node0&#45;&gt;Node3 -->
<g id="edge3" class="edge">
<title>Node0&#45;&gt;Node3</title>
<path fill="none" stroke="midnightblue" d="M223.33,-466C237.13,-466 252.23,-466 266.77,-466"/>
<polygon fill="midnightblue" stroke="midnightblue" points="223.06,-462.5 213.06,-466 223.06,-469.5 223.06,-462.5"/>
</g>
<!-- Node5 -->
<g id="node6" class="node">
<title>Node5</title>
<g id="a_node6"><a xlink:href="classGA3DArrayGenome.html" target="_top" xlink:title=" ">
<polygon fill="white" stroke="black" points="267,-418.5 267,-437.5 407,-437.5 407,-418.5 267,-418.5"/>
<text text-anchor="middle" x="337" y="-425.5" font-family="Helvetica,sans-Serif" font-size="10.00">GA3DArrayGenome&lt; T &gt;</text>
</a>
</g>
</g>
<!-- Node0&#45;&gt;Node5 -->
<g id="edge5" class="edge">
<title>Node0&#45;&gt;Node5</title>
<path fill="none" stroke="midnightblue" d="M222.65,-454.1C245.85,-448.76 272.84,-442.55 294.66,-437.52"/>
<polygon fill="midnightblue" stroke="midnightblue" points="221.6,-450.76 212.64,-456.41 223.17,-457.58 221.6,-450.76"/>
</g>
<!-- Node2 -->
<g id="node3" class="node">
<title>Node2</title>
<g id="a_node3"><a xlink:href="classGA1DArrayAlleleGenome.html" target="_top" xlink:title=" ">
<polygon fill="white" stroke="black" points="446,-494.5 446,-513.5 614,-513.5 614,-494.5 446,-494.5"/>
<text text-anchor="middle" x="530" y="-501.5" font-family="Helvetica,sans-Serif" font-size="10.00">GA1DArrayAlleleGenome&lt; T &gt;</text>
</a>
</g>
</g>
<!-- Node1&#45;&gt;Node2 -->
<g id="edge2" class="edge">
<title>Node1&#45;&gt;Node2</title>
<path fill="none" stroke="midnightblue" d="M417.3,-504C426.68,-504 436.27,-504 445.7,-504"/>
<polygon fill="midnightblue" stroke="midnightblue" points="417.23,-500.5 407.23,-504 417.23,-507.5 417.23,-500.5"/>
</g>
<!-- Node4 -->
<g id="node5" class="node">
<title>Node4</title>
<g id="a_node5"><a xlink:href="classGA2DArrayAlleleGenome.html" target="_top" xlink:title=" ">
<polygon fill="white" stroke="black" points="446,-456.5 446,-475.5 614,-475.5 614,-456.5 446,-456.5"/>
<text text-anchor="middle" x="530" y="-463.5" font-family="Helvetica,sans-Serif" font-size="10.00">GA2DArrayAlleleGenome&lt; T &gt;</text>
</a>
</g>
</g>
<!-- Node3&#45;&gt;Node4 -->
<g id="edge4" class="edge">
<title>Node3&#45;&gt;Node4</title>
<path fill="none" stroke="midnightblue" d="M417.3,-466C426.68,-466 436.27,-466 445.7,-466"/>
<polygon fill="midnightblue" stroke="midnightblue" points="417.23,-462.5 407.23,-466 417.23,-469.5 417.23,-462.5"/>
</g>
<!-- Node6 -->
<g id="node7" class="node">
<title>Node6</title>
<g id="a_node7"><a xlink:href="classGA3DArrayAlleleGenome.html" target="_top" xlink:title=" ">
<polygon fill="white" stroke="black" points="446,-418.5 446,-437.5 614,-437.5 614,-418.5 446,-418.5"/>
<text text-anchor="middle" x="530" y="-425.5" font-family="Helvetica,sans-Serif" font-size="10.00">GA3DArrayAlleleGenome&lt; T &gt;</text>
</a>
</g>
</g>
<!-- Node5&#45;&gt;Node6 -->
<g id="edge6" class="edge">
<title>Node5&#45;&gt;Node6</title>
<path fill="none" stroke="midnightblue" d="M417.3,-428C426.68,-428 436.27,-428 445.7,-428"/>
<polygon fill="midnightblue" stroke="midnightblue" points="417.23,-424.5 407.23,-428 417.23,-431.5 417.23,-424.5"/>
</g>
<!-- Node14 -->
<g id="node8" class="node">
<title>Node14</title>
<g id="a_node8"><a xlink:href="classGABinaryString.html" target="_top" xlink:title=" ">
<polygon fill="white" stroke="black" points="124.5,-228.5 124.5,-247.5 215.5,-247.5 215.5,-228.5 124.5,-228.5"/>
<text text-anchor="middle" x="170" y="-235.5" font-family="Helvetica,sans-Serif" font-size="10.00">GABinaryString</text>
</a>
</g>
</g>
<!-- Node15 -->
<g id="node9" class="node">
<title>Node15</title>
<g id="a_node9"><a xlink:href="classGA1DBinaryStringGenome.html" target="_top" xlink:title=" ">
<polygon fill="white" stroke="black" points="264,-304.5 264,-323.5 410,-323.5 410,-304.5 264,-304.5"/>
<text text-anchor="middle" x="337" y="-311.5" font-family="Helvetica,sans-Serif" font-size="10.00">GA1DBinaryStringGenome</text>
</a>
</g>
</g>
<!-- Node14&#45;&gt;Node15 -->
<g id="edge7" class="edge">
<title>Node14&#45;&gt;Node15</title>
<path fill="none" stroke="midnightblue" d="M217.88,-251.49C221.41,-253.14 224.82,-254.98 228,-257 247.62,-269.5 243.99,-283.13 264,-295 270.56,-298.89 277.92,-302 285.37,-304.47"/>
<polygon fill="midnightblue" stroke="midnightblue" points="218.97,-248.15 208.39,-247.53 216.27,-254.61 218.97,-248.15"/>
</g>
<!-- Node17 -->
<g id="node11" class="node">
<title>Node17</title>
<g id="a_node11"><a xlink:href="classGA2DBinaryStringGenome.html" target="_top" xlink:title=" ">
<polygon fill="white" stroke="black" points="264,-266.5 264,-285.5 410,-285.5 410,-266.5 264,-266.5"/>
<text text-anchor="middle" x="337" y="-273.5" font-family="Helvetica,sans-Serif" font-size="10.00">GA2DBinaryStringGenome</text>
</a>
</g>
</g>
<!-- Node14&#45;&gt;Node17 -->
<g id="edge9" class="edge">
<title>Node14&#45;&gt;Node17</title>
<path fill="none" stroke="midnightblue" d="M222.65,-249.9C245.85,-255.24 272.84,-261.45 294.66,-266.48"/>
<polygon fill="midnightblue" stroke="midnightblue" points="223.17,-246.42 212.64,-247.59 221.6,-253.24 223.17,-246.42"/>
</g>
<!-- Node18 -->
<g id="node12" class="node">
<title>Node18</title>
<g id="a_node12"><a xlink:href="classGA3DBinaryStringGenome.html" target="_top" xlink:title=" ">
<polygon fill="white" stroke="black" points="264,-228.5 264,-247.5 410,-247.5 410,-228.5 264,-228.5"/>
<text text-anchor="middle" x="337" y="-235.5" font-family="Helvetica,sans-Serif" font-size="10.00">GA3DBinaryStringGenome</text>
</a>
</g>
</g>
<!-- Node14&#45;&gt;Node18 -->
<g id="edge10" class="edge">
<title>Node14&#45;&gt;Node18</title>
<path fill="none" stroke="midnightblue" d="M225.7,-238C237.95,-238 251.12,-238 263.95,-238"/>
<polygon fill="midnightblue" stroke="midnightblue" points="225.65,-234.5 215.65,-238 225.65,-241.5 225.65,-234.5"/>
</g>
<!-- Node16 -->
<g id="node10" class="node">
<title>Node16</title>
<g id="a_node10"><a xlink:href="classGABin2DecGenome.html" target="_top" xlink:title=" ">
<polygon fill="white" stroke="black" points="473.5,-304.5 473.5,-323.5 586.5,-323.5 586.5,-304.5 473.5,-304.5"/>
<text text-anchor="middle" x="530" y="-311.5" font-family="Helvetica,sans-Serif" font-size="10.00">GABin2DecGenome</text>
</a>
</g>
</g>
<!-- Node15&#45;&gt;Node16 -->
<g id="edge8" class="edge">
<title>Node15&#45;&gt;Node16</title>
<path fill="none" stroke="midnightblue" d="M420.61,-314C438.44,-314 456.87,-314 473.37,-314"/>
<polygon fill="midnightblue" stroke="midnightblue" points="420.21,-310.5 410.21,-314 420.21,-317.5 420.21,-310.5"/>
</g>
<!-- Node20 -->
<g id="node13" class="node">
<title>Node20</title>
<g id="a_node13"><a xlink:href="classGAID.html" target="_top" xlink:title=" ">
<polygon fill="white" stroke="black" points="17.5,-266.5 17.5,-285.5 58.5,-285.5 58.5,-266.5 17.5,-266.5"/>
<text text-anchor="middle" x="38" y="-273.5" font-family="Helvetica,sans-Serif" font-size="10.00">GAID</text>
</a>
</g>
</g>
<!-- Node21 -->
<g id="node14" class="node">
<title>Node21</title>
<g id="a_node14"><a xlink:href="classGAGeneticAlgorithm.html" target="_top" xlink:title=" ">
<polygon fill="white" stroke="black" points="112,-95.5 112,-114.5 228,-114.5 228,-95.5 112,-95.5"/>
<text text-anchor="middle" x="170" y="-102.5" font-family="Helvetica,sans-Serif" font-size="10.00">GAGeneticAlgorithm</text>
</a>
</g>
</g>
<!-- Node20&#45;&gt;Node21 -->
<g id="edge11" class="edge">
<title>Node20&#45;&gt;Node21</title>
<path fill="none" stroke="midnightblue" d="M52.54,-258.19C79.85,-222.27 140.73,-142.19 161.72,-114.58"/>
<polygon fill="midnightblue" stroke="midnightblue" points="49.63,-256.24 46.36,-266.32 55.2,-260.47 49.63,-256.24"/>
</g>
<!-- Node27 -->
<g id="node20" class="node">
<title>Node27</title>
<g id="a_node20"><a xlink:href="classGAGenome.html" target="_top" xlink:title="The base genome class just defines the genome interface &#45; how to mutate, crossover,...">
<polygon fill="white" stroke="black" points="134,-342.5 134,-361.5 206,-361.5 206,-342.5 134,-342.5"/>
<text text-anchor="middle" x="170" y="-349.5" font-family="Helvetica,sans-Serif" font-size="10.00">GAGenome</text>
</a>
</g>
</g>
<!-- Node20&#45;&gt;Node27 -->
<g id="edge17" class="edge">
<title>Node20&#45;&gt;Node27</title>
<path fill="none" stroke="midnightblue" d="M56.55,-292.52C70.63,-305.05 91.39,-321.94 112,-333 118.89,-336.7 126.64,-339.86 134.15,-342.48"/>
<polygon fill="midnightblue" stroke="midnightblue" points="58.83,-289.87 49.08,-285.73 54.12,-295.05 58.83,-289.87"/>
</g>
<!-- Node30 -->
<g id="node23" class="node">
<title>Node30</title>
<g id="a_node23"><a xlink:href="classGAPopulation.html" target="_top" xlink:title=" ">
<polygon fill="white" stroke="black" points="128.5,-304.5 128.5,-323.5 211.5,-323.5 211.5,-304.5 128.5,-304.5"/>
<text text-anchor="middle" x="170" y="-311.5" font-family="Helvetica,sans-Serif" font-size="10.00">GAPopulation</text>
</a>
</g>
</g>
<!-- Node20&#45;&gt;Node30 -->
<g id="edge26" class="edge">
<title>Node20&#45;&gt;Node30</title>
<path fill="none" stroke="midnightblue" d="M68.37,-284.58C88.61,-290.5 115.51,-298.36 136.41,-304.47"/>
<polygon fill="midnightblue" stroke="midnightblue" points="69.32,-281.22 58.74,-281.77 67.36,-287.94 69.32,-281.22"/>
</g>
<!-- Node31 -->
<g id="node24" class="node">
<title>Node31</title>
<g id="a_node24"><a xlink:href="classGAScalingScheme.html" target="_top" xlink:title=" ">
<polygon fill="white" stroke="black" points="117.5,-190.5 117.5,-209.5 222.5,-209.5 222.5,-190.5 117.5,-190.5"/>
<text text-anchor="middle" x="170" y="-197.5" font-family="Helvetica,sans-Serif" font-size="10.00">GAScalingScheme</text>
</a>
</g>
</g>
<!-- Node20&#45;&gt;Node31 -->
<g id="edge27" class="edge">
<title>Node20&#45;&gt;Node31</title>
<path fill="none" stroke="midnightblue" d="M56.55,-259.48C70.63,-246.95 91.39,-230.06 112,-219 118.89,-215.3 126.64,-212.14 134.15,-209.52"/>
<polygon fill="midnightblue" stroke="midnightblue" points="54.12,-256.95 49.08,-266.27 58.83,-262.13 54.12,-256.95"/>
</g>
<!-- Node33 -->
<g id="node26" class="node">
<title>Node33</title>
<g id="a_node26"><a xlink:href="classGASelectionScheme.html" target="_top" xlink:title=" ">
<polygon fill="white" stroke="black" points="112.5,-266.5 112.5,-285.5 227.5,-285.5 227.5,-266.5 112.5,-266.5"/>
<text text-anchor="middle" x="170" y="-273.5" font-family="Helvetica,sans-Serif" font-size="10.00">GASelectionScheme</text>
</a>
</g>
</g>
<!-- Node20&#45;&gt;Node33 -->
<g id="edge29" class="edge">
<title>Node20&#45;&gt;Node33</title>
<path fill="none" stroke="midnightblue" d="M68.93,-276C81.88,-276 97.48,-276 112.47,-276"/>
<polygon fill="midnightblue" stroke="midnightblue" points="68.74,-272.5 58.74,-276 68.74,-279.5 68.74,-272.5"/>
</g>
<!-- Node22 -->
<g id="node15" class="node">
<title>Node22</title>
<g id="a_node15"><a xlink:href="classGADCrowdingGA.html" target="_top" xlink:title=" ">
<polygon fill="white" stroke="black" points="288,-152.5 288,-171.5 386,-171.5 386,-152.5 288,-152.5"/>
<text text-anchor="middle" x="337" y="-159.5" font-family="Helvetica,sans-Serif" font-size="10.00">GADCrowdingGA</text>
</a>
</g>
</g>
<!-- Node21&#45;&gt;Node22 -->
<g id="edge12" class="edge">
<title>Node21&#45;&gt;Node22</title>
<path fill="none" stroke="midnightblue" d="M201.52,-118.64C219.49,-126.38 242.79,-135.9 264,-143 274.3,-146.45 285.59,-149.68 296.11,-152.46"/>
<polygon fill="midnightblue" stroke="midnightblue" points="202.69,-115.34 192.13,-114.55 199.9,-121.75 202.69,-115.34"/>
</g>
<!-- Node23 -->
<g id="node16" class="node">
<title>Node23</title>
<g id="a_node16"><a xlink:href="classGADemeGA.html" target="_top" xlink:title=" ">
<polygon fill="white" stroke="black" points="300,-76.5 300,-95.5 374,-95.5 374,-76.5 300,-76.5"/>
<text text-anchor="middle" x="337" y="-83.5" font-family="Helvetica,sans-Serif" font-size="10.00">GADemeGA</text>
</a>
</g>
</g>
<!-- Node21&#45;&gt;Node23 -->
<g id="edge13" class="edge">
<title>Node21&#45;&gt;Node23</title>
<path fill="none" stroke="midnightblue" d="M238.46,-97.23C259.53,-94.81 281.96,-92.22 299.99,-90.15"/>
<polygon fill="midnightblue" stroke="midnightblue" points="237.78,-93.79 228.25,-98.41 238.58,-100.74 237.78,-93.79"/>
</g>
<!-- Node24 -->
<g id="node17" class="node">
<title>Node24</title>
<g id="a_node17"><a xlink:href="classGAIncrementalGA.html" target="_top" xlink:title=" ">
<polygon fill="white" stroke="black" points="285,-38.5 285,-57.5 389,-57.5 389,-38.5 285,-38.5"/>
<text text-anchor="middle" x="337" y="-45.5" font-family="Helvetica,sans-Serif" font-size="10.00">GAIncrementalGA</text>
</a>
</g>
</g>
<!-- Node21&#45;&gt;Node24 -->
<g id="edge14" class="edge">
<title>Node21&#45;&gt;Node24</title>
<path fill="none" stroke="midnightblue" d="M201.52,-91.36C219.49,-83.62 242.79,-74.1 264,-67 274.3,-63.55 285.59,-60.32 296.11,-57.54"/>
<polygon fill="midnightblue" stroke="midnightblue" points="199.9,-88.25 192.13,-95.45 202.69,-94.66 199.9,-88.25"/>
</g>
<!-- Node25 -->
<g id="node18" class="node">
<title>Node25</title>
<g id="a_node18"><a xlink:href="classGASimpleGA.html" target="_top" xlink:title="Header file for the simple genetic algorithm class.">
<polygon fill="white" stroke="black" points="297.5,-114.5 297.5,-133.5 376.5,-133.5 376.5,-114.5 297.5,-114.5"/>
<text text-anchor="middle" x="337" y="-121.5" font-family="Helvetica,sans-Serif" font-size="10.00">GASimpleGA</text>
</a>
</g>
</g>
<!-- Node21&#45;&gt;Node25 -->
<g id="edge15" class="edge">
<title>Node21&#45;&gt;Node25</title>
<path fill="none" stroke="midnightblue" d="M238.29,-112.75C258.36,-115.06 279.67,-117.51 297.26,-119.54"/>
<polygon fill="midnightblue" stroke="midnightblue" points="238.58,-109.26 228.25,-111.59 237.78,-116.21 238.58,-109.26"/>
</g>
<!-- Node26 -->
<g id="node19" class="node">
<title>Node26</title>
<g id="a_node19"><a xlink:href="classGASteadyStateGA.html" target="_top" xlink:title="Header file for the steady&#45;state genetic algorithm class.">
<polygon fill="white" stroke="black" points="285,-0.5 285,-19.5 389,-19.5 389,-0.5 285,-0.5"/>
<text text-anchor="middle" x="337" y="-7.5" font-family="Helvetica,sans-Serif" font-size="10.00">GASteadyStateGA</text>
</a>
</g>
</g>
<!-- Node21&#45;&gt;Node26 -->
<g id="edge16" class="edge">
<title>Node21&#45;&gt;Node26</title>
<path fill="none" stroke="midnightblue" d="M187.18,-88.04C204.6,-70.76 233.88,-44.36 264,-29 271.49,-25.18 279.81,-22.08 288.07,-19.57"/>
<polygon fill="midnightblue" stroke="midnightblue" points="184.58,-85.7 180.06,-95.27 189.57,-90.61 184.58,-85.7"/>
</g>
<!-- Node27&#45;&gt;Node1 -->
<g id="edge18" class="edge">
<title>Node27&#45;&gt;Node1</title>
<path fill="none" stroke="midnightblue" d="M215.4,-361.98C220.05,-364.37 224.39,-367.33 228,-371 265.27,-408.87 225.54,-448.34 264,-485 268.02,-488.84 272.73,-491.92 277.77,-494.39"/>
<polygon fill="midnightblue" stroke="midnightblue" points="216.75,-358.75 206.18,-358.06 214.01,-365.19 216.75,-358.75"/>
</g>
<!-- Node27&#45;&gt;Node3 -->
<g id="edge20" class="edge">
<title>Node27&#45;&gt;Node3</title>
<path fill="none" stroke="midnightblue" d="M215.63,-362.83C220.1,-365.06 224.34,-367.76 228,-371 255.97,-395.79 235.25,-423.12 264,-447 268.67,-450.88 274.06,-453.98 279.73,-456.45"/>
<polygon fill="midnightblue" stroke="midnightblue" points="216.79,-359.52 206.22,-358.85 214.07,-365.97 216.79,-359.52"/>
</g>
<!-- Node27&#45;&gt;Node5 -->
<g id="edge22" class="edge">
<title>Node27&#45;&gt;Node5</title>
<path fill="none" stroke="midnightblue" d="M215.75,-364.52C220.03,-366.42 224.19,-368.57 228,-371 247.62,-383.5 243.99,-397.13 264,-409 270.56,-412.89 277.92,-416 285.37,-418.47"/>
<polygon fill="midnightblue" stroke="midnightblue" points="216.88,-361.2 206.29,-360.76 214.29,-367.71 216.88,-361.2"/>
</g>
<!-- Node27&#45;&gt;Node15 -->
<g id="edge19" class="edge">
<title>Node27&#45;&gt;Node15</title>
<path fill="none" stroke="midnightblue" d="M216.17,-341.6C240.64,-335.96 270.67,-329.05 294.54,-323.55"/>
<polygon fill="midnightblue" stroke="midnightblue" points="215.36,-338.19 206.4,-343.85 216.93,-345.01 215.36,-338.19"/>
</g>
<!-- Node27&#45;&gt;Node17 -->
<g id="edge21" class="edge">
<title>Node27&#45;&gt;Node17</title>
<path fill="none" stroke="midnightblue" d="M215.75,-339.48C220.03,-337.58 224.19,-335.43 228,-333 247.62,-320.5 243.99,-306.87 264,-295 270.56,-291.11 277.92,-288 285.37,-285.53"/>
<polygon fill="midnightblue" stroke="midnightblue" points="214.29,-336.29 206.29,-343.24 216.88,-342.8 214.29,-336.29"/>
</g>
<!-- Node27&#45;&gt;Node18 -->
<g id="edge23" class="edge">
<title>Node27&#45;&gt;Node18</title>
<path fill="none" stroke="midnightblue" d="M215.63,-341.17C220.1,-338.94 224.34,-336.24 228,-333 255.97,-308.21 235.25,-280.88 264,-257 268.67,-253.12 274.06,-250.02 279.73,-247.55"/>
<polygon fill="midnightblue" stroke="midnightblue" points="214.07,-338.03 206.22,-345.15 216.79,-344.48 214.07,-338.03"/>
</g>
<!-- Node28 -->
<g id="node21" class="node">
<title>Node28</title>
<g id="a_node21"><a xlink:href="classGAListGenome.html" target="_top" xlink:title=" ">
<polygon fill="white" stroke="black" points="278,-380.5 278,-399.5 396,-399.5 396,-380.5 278,-380.5"/>
<text text-anchor="middle" x="337" y="-387.5" font-family="Helvetica,sans-Serif" font-size="10.00">GAListGenome&lt; T &gt;</text>
</a>
</g>
</g>
<!-- Node27&#45;&gt;Node28 -->
<g id="edge24" class="edge">
<title>Node27&#45;&gt;Node28</title>
<path fill="none" stroke="midnightblue" d="M216.17,-362.4C240.64,-368.04 270.67,-374.95 294.54,-380.45"/>
<polygon fill="midnightblue" stroke="midnightblue" points="216.93,-358.99 206.4,-360.15 215.36,-365.81 216.93,-358.99"/>
</g>
<!-- Node29 -->
<g id="node22" class="node">
<title>Node29</title>
<g id="a_node22"><a xlink:href="classGATreeGenome.html" target="_top" xlink:title=" ">
<polygon fill="white" stroke="black" points="277,-342.5 277,-361.5 397,-361.5 397,-342.5 277,-342.5"/>
<text text-anchor="middle" x="337" y="-349.5" font-family="Helvetica,sans-Serif" font-size="10.00">GATreeGenome&lt; T &gt;</text>
</a>
</g>
</g>
<!-- Node27&#45;&gt;Node29 -->
<g id="edge25" class="edge">
<title>Node27&#45;&gt;Node29</title>
<path fill="none" stroke="midnightblue" d="M216.42,-352C235.13,-352 257.05,-352 276.97,-352"/>
<polygon fill="midnightblue" stroke="midnightblue" points="216.4,-348.5 206.4,-352 216.4,-355.5 216.4,-348.5"/>
</g>
<!-- Node32 -->
<g id="node25" class="node">
<title>Node32</title>
<g id="a_node25"><a xlink:href="classGANoScaling.html" target="_top" xlink:title=" ">
<polygon fill="white" stroke="black" points="297,-190.5 297,-209.5 377,-209.5 377,-190.5 297,-190.5"/>
<text text-anchor="middle" x="337" y="-197.5" font-family="Helvetica,sans-Serif" font-size="10.00">GANoScaling</text>
</a>
</g>
</g>
<!-- Node31&#45;&gt;Node32 -->
<g id="edge28" class="edge">
<title>Node31&#45;&gt;Node32</title>
<path fill="none" stroke="midnightblue" d="M232.76,-200C254.19,-200 277.62,-200 296.74,-200"/>
<polygon fill="midnightblue" stroke="midnightblue" points="232.75,-196.5 222.75,-200 232.75,-203.5 232.75,-196.5"/>
</g>
<!-- Node34 -->
<g id="node27" class="node">
<title>Node34</title>
<g id="a_node27"><a xlink:href="classGAListBASE.html" target="_top" xlink:title=" ">
<polygon fill="white" stroke="black" points="1,-418.5 1,-437.5 75,-437.5 75,-418.5 1,-418.5"/>
<text text-anchor="middle" x="38" y="-425.5" font-family="Helvetica,sans-Serif" font-size="10.00">GAListBASE</text>
</a>
</g>
</g>
<!-- Node35 -->
<g id="node28" class="node">
<title>Node35</title>
<g id="a_node28"><a xlink:href="classGAList.html" target="_top" xlink:title="This object is a container for nodes that have a list structure.">
<polygon fill="white" stroke="black" points="131.5,-418.5 131.5,-437.5 208.5,-437.5 208.5,-418.5 131.5,-418.5"/>
<text text-anchor="middle" x="170" y="-425.5" font-family="Helvetica,sans-Serif" font-size="10.00">GAList&lt; T &gt;</text>
</a>
</g>
</g>
<!-- Node34&#45;&gt;Node35 -->
<g id="edge30" class="edge">
<title>Node34&#45;&gt;Node35</title>
<path fill="none" stroke="midnightblue" d="M85.34,-428C100.36,-428 116.84,-428 131.17,-428"/>
<polygon fill="midnightblue" stroke="midnightblue" points="85.21,-424.5 75.21,-428 85.21,-431.5 85.21,-424.5"/>
</g>
<!-- Node35&#45;&gt;Node28 -->
<g id="edge31" class="edge">
<title>Node35&#45;&gt;Node28</title>
<path fill="none" stroke="midnightblue" d="M218.81,-416.99C242.78,-411.47 271.53,-404.85 294.56,-399.54"/>
<polygon fill="midnightblue" stroke="midnightblue" points="217.81,-413.63 208.85,-419.28 219.38,-420.45 217.81,-413.63"/>
</g>
<!-- Node44 -->
<g id="node29" class="node">
<title>Node44</title>
<g id="a_node29"><a xlink:href="classGATreeBASE.html" target="_top" xlink:title=" ">
<polygon fill="white" stroke="black" points="0,-380.5 0,-399.5 76,-399.5 76,-380.5 0,-380.5"/>
<text text-anchor="middle" x="38" y="-387.5" font-family="Helvetica,sans-Serif" font-size="10.00">GATreeBASE</text>
</a>
</g>
</g>
<!-- Node45 -->
<g id="node30" class="node">
<title>Node45</title>
<g id="a_node30"><a xlink:href="classGATree.html" target="_top" xlink:title=" ">
<polygon fill="white" stroke="black" points="130.5,-380.5 130.5,-399.5 209.5,-399.5 209.5,-380.5 130.5,-380.5"/>
<text text-anchor="middle" x="170" y="-387.5" font-family="Helvetica,sans-Serif" font-size="10.00">GATree&lt; T &gt;</text>
</a>
</g>
</g>
<!-- Node44&#45;&gt;Node45 -->
<g id="edge32" class="edge">
<title>Node44&#45;&gt;Node45</title>
<path fill="none" stroke="midnightblue" d="M86.5,-390C100.93,-390 116.61,-390 130.38,-390"/>
<polygon fill="midnightblue" stroke="midnightblue" points="86.25,-386.5 76.25,-390 86.25,-393.5 86.25,-386.5"/>
</g>
<!-- Node45&#45;&gt;Node29 -->
<g id="edge33" class="edge">
<title>Node45&#45;&gt;Node29</title>
<path fill="none" stroke="midnightblue" d="M219.6,-378.81C243.45,-373.31 271.88,-366.77 294.67,-361.52"/>
<polygon fill="midnightblue" stroke="midnightblue" points="218.64,-375.44 209.69,-381.09 220.22,-382.26 218.64,-375.44"/>
</g>
</g>
</svg>
