<?xml version="1.0" encoding="UTF-8" standalone="no"?>
<!DOCTYPE svg PUBLIC "-//W3C//DTD SVG 1.1//EN"
 "http://www.w3.org/Graphics/SVG/1.1/DTD/svg11.dtd">
<!-- Generated by graphviz version 2.43.0 (0)
 -->
<!-- Title: GANode&lt; T &gt; Pages: 1 -->
<svg width="142pt" height="109pt"
 viewBox="0.00 0.00 141.50 109.00" xmlns="http://www.w3.org/2000/svg" xmlns:xlink="http://www.w3.org/1999/xlink">
<g id="graph0" class="graph" transform="scale(1 1) rotate(0) translate(4 105)">
<title>GANode&lt; T &gt;</title>
<polygon fill="white" stroke="transparent" points="-4,4 -4,-105 137.5,-105 137.5,4 -4,4"/>
<!-- Node1 -->
<g id="node1" class="node">
<title>Node1</title>
<g id="a_node1"><a xlink:title=" ">
<polygon fill="#bfbfbf" stroke="black" points="0,-0.5 0,-19.5 85,-19.5 85,-0.5 0,-0.5"/>
<text text-anchor="middle" x="42.5" y="-7.5" font-family="Helvetica,sans-Serif" font-size="10.00">GANode&lt; T &gt;</text>
</a>
</g>
</g>
<!-- Node2 -->
<g id="node2" class="node">
<title>Node2</title>
<g id="a_node2"><a xlink:href="structGANodeBASE.html" target="_top" xlink:title="This is the basic node object.">
<polygon fill="white" stroke="black" points="1.5,-69.5 1.5,-88.5 83.5,-88.5 83.5,-69.5 1.5,-69.5"/>
<text text-anchor="middle" x="42.5" y="-76.5" font-family="Helvetica,sans-Serif" font-size="10.00">GANodeBASE</text>
</a>
</g>
</g>
<!-- Node2&#45;&gt;Node1 -->
<g id="edge1" class="edge">
<title>Node2&#45;&gt;Node1</title>
<path fill="none" stroke="midnightblue" d="M42.5,-59.02C42.5,-46.03 42.5,-29.44 42.5,-19.55"/>
<polygon fill="midnightblue" stroke="midnightblue" points="39,-59.24 42.5,-69.24 46,-59.24 39,-59.24"/>
</g>
<!-- Node2&#45;&gt;Node2 -->
<g id="edge2" class="edge">
<title>Node2&#45;&gt;Node2</title>
<path fill="none" stroke="#9a32cd" stroke-dasharray="5,2" d="M93.76,-84.99C98.51,-83.76 101.5,-81.76 101.5,-79 101.5,-74.59 93.84,-72.12 83.58,-71.6"/>
<polygon fill="#9a32cd" stroke="#9a32cd" points="93.01,-81.56 83.58,-86.4 93.97,-88.5 93.01,-81.56"/>
<text text-anchor="middle" x="117.5" y="-93" font-family="Helvetica,sans-Serif" font-size="10.00"> child</text>
<text text-anchor="middle" x="117.5" y="-82" font-family="Helvetica,sans-Serif" font-size="10.00">next</text>
<text text-anchor="middle" x="117.5" y="-71" font-family="Helvetica,sans-Serif" font-size="10.00">parent</text>
<text text-anchor="middle" x="117.5" y="-60" font-family="Helvetica,sans-Serif" font-size="10.00">prev</text>
</g>
</g>
</svg>
